<svg height="512" viewBox="0 0 512 512" width="512" xmlns="http://www.w3.org/2000/svg"><g id="flat"><path d="m144 184h224v304h-224z" fill="#fbb540"/><path d="m144 488-24-8-24 8 16-304h32z" fill="#ea9d2d"/><g fill="#eaeae8"><path d="m256 352a72.081 72.081 0 0 1 -72-72v-48a8 8 0 0 1 16 0v48a56 56 0 0 0 112 0v-48a8 8 0 0 1 16 0v48a72.081 72.081 0 0 1 -72 72z"/><circle cx="192" cy="232" r="14"/><circle cx="320" cy="232" r="14"/><circle cx="376" cy="120" r="96"/></g><path d="m407.237 174.484a7.991 7.991 0 0 1 -6.647-3.539l-8.923-13.281a8 8 0 0 1 13.281-8.923l8.923 13.281a8 8 0 0 1 -6.634 12.462z" fill="#ea9d2d"/><circle cx="349.231" cy="80.157" fill="#ea9d2d" r="16"/><path d="m449.261 136.614a8.007 8.007 0 0 1 -7.86-9.542 14.645 14.645 0 0 0 -11.536-17.172 8 8 0 0 1 3.082-15.7 30.664 30.664 0 0 1 24.153 35.953 8 8 0 0 1 -7.839 6.461z" fill="#0296e5"/><path d="m355.155 199.84a7.982 7.982 0 0 1 -1.55-.152 30.627 30.627 0 0 1 -24.155-35.953 8 8 0 0 1 15.7 3.082 14.625 14.625 0 0 0 11.537 17.171 8 8 0 0 1 -1.533 15.852z" fill="#0296e5"/><path d="m360.643 168.869-2.478-8.962a98.6 98.6 0 0 0 -13.188-28.7 32 32 0 0 1 8.716-44.407 32 32 0 0 1 44.407 8.714 98.609 98.609 0 0 0 21.588 23.058l7.36 5.683a107.7 107.7 0 0 1 -66.405 44.614z" fill="#fbb540"/></g></svg>