<svg height="512" viewBox="0 0 512 512" width="512" xmlns="http://www.w3.org/2000/svg"><g id="flat"><path d="m200 56h-64l-24-32h64z" fill="#d18d28"/><rect fill="#fbb540" height="48" rx="8" width="464" x="24" y="168"/><path d="m216 168h-48l-75.3-112.954a19.969 19.969 0 0 1 16.613-31.046 19.968 19.968 0 0 1 16.615 8.892z" fill="#d18d28"/><path d="m320 168h-48l-96-144h37.312a19.968 19.968 0 0 1 16.616 8.893z" fill="#d18d28"/><path d="m40 216 19.914 172.585a40 40 0 0 0 39.736 35.415h312.7a40 40 0 0 0 39.736-35.415l19.914-172.585zm60.144 159.623a16 16 0 0 1 -17.644-14.171l-10.4-95.434a16 16 0 1 1 31.811-3.47l10.408 95.434a16 16 0 0 1 -14.175 17.641zm75.856-15.623a16 16 0 0 1 -32 0v-96a16 16 0 0 1 32 0zm64 0a16 16 0 0 1 -32 0v-96a16 16 0 0 1 32 0zm64 0a16 16 0 0 1 -32 0v-96a16 16 0 0 1 32 0zm64 0a16 16 0 0 1 -32 0v-96a16 16 0 0 1 32 0zm71.9-93.982-10.4 95.434a16 16 0 1 1 -31.811-3.47l10.408-95.434a16 16 0 1 1 31.811 3.47z" fill="#ea9d2d"/><circle cx="416" cy="416" fill="#2cbff4" r="72"/><path d="m456 400h-24v-24h-32v24h-24v32h24v24h32v-24h24z" fill="#0292c9"/></g></svg>