<svg height="512" viewBox="0 0 512 512" width="512" xmlns="http://www.w3.org/2000/svg"><g id="flat"><circle cx="184" cy="112" fill="#0296e5" r="48"/><path d="m104.007 224a7.991 7.991 0 0 1 -6.663-3.563l-16-24a8 8 0 0 1 13.312-8.876l16 24a8 8 0 0 1 -6.649 12.439z" fill="#027e2a"/><path d="m103.993 224a8 8 0 0 1 -6.649-12.439l16-24a8 8 0 0 1 13.312 8.876l-16 24a7.991 7.991 0 0 1 -6.663 3.563z" fill="#027e2a"/><path d="m320 280 24 64h-32l-24-64z" fill="#c38325"/><path d="m74 344h366a0 0 0 0 1 0 0v80a0 0 0 0 1 0 0h-392a0 0 0 0 1 0 0v-54a26 26 0 0 1 26-26z" fill="#fbedbf"/><path d="m72 248h272v32h-272z" fill="#d18d28"/><path d="m152 280 24 64h-32l-24-64z" fill="#c38325"/><path d="m96 280-24 64h32l24-64z" fill="#ea9d2d"/><path d="m264 280-24 64h32l24-64z" fill="#ea9d2d"/><path d="m480 488h-40l-16-16h-336l-16 16h-40v-64h448z" fill="#683b0d"/><path d="m288 224a8 8 0 0 1 -8-8v-32a8 8 0 0 1 16 0v32a8 8 0 0 1 -8 8z" fill="#a8a8a8"/><path d="m464 288a8 8 0 0 1 -8-8v-220a28 28 0 0 0 -56 0v20a8 8 0 0 1 -16 0v-20a44 44 0 0 1 88 0v220a8 8 0 0 1 -8 8z" fill="#ea9d2d"/><path d="m344 400h-8a8 8 0 0 1 0-16h8a8 8 0 0 1 0 16z" fill="#dcd0a7"/><path d="m408 400h-32a8 8 0 0 1 0-16h32a8 8 0 0 1 0 16z" fill="#dcd0a7"/><path d="m104 216c-4.418 0-8 4.418-8 0v-32a8 8 0 0 1 16 0v32c0 4.418-3.582 0-8 0z" fill="#029532"/><path d="m200 248h-56l16-48h56z" fill="#0296e5"/><path d="m216 200 16 48h-32z" fill="#0276b4"/><circle cx="184" cy="112" fill="#c4f8ff" r="40"/><path d="m199.994 128a7.976 7.976 0 0 1 -3.572-.847l-16-8a8 8 0 0 1 -4.422-7.153v-16a8 8 0 0 1 16 0v11.056l11.578 5.789a8 8 0 0 1 -3.584 15.155z" fill="#0296e5"/><path d="m88 216h32v32h-32z" fill="#cbcbcb"/><path d="m264 216h48a8 8 0 0 1 8 8v24a0 0 0 0 1 0 0h-64a0 0 0 0 1 0 0v-24a8 8 0 0 1 8-8z" fill="#cbcbcb"/><path d="m320 184h-64l8-64h48z" fill="#0296e5"/><path d="m440 344 16-64h24v64 88h-40z" fill="#683b0d"/><path d="m432 168h-80l8-88h64z" fill="#ffb3b3"/><path d="m452.273 288.788-24.406 32.253a57.89 57.89 0 0 1 -56.761 21.979 57.888 57.888 0 0 1 5.726-60.6l24.406-32.253a57.889 57.889 0 0 1 56.762-21.976 57.889 57.889 0 0 1 -5.727 60.597z" fill="#fbedbf"/><path d="m48 416h392v8h-392z" fill="#dcd0a7"/></g></svg>