<svg height="512" viewBox="0 0 512 512" width="512" xmlns="http://www.w3.org/2000/svg"><g id="flat"><path d="m328 232h-272l16-32h240z" fill="#d18d28"/><path d="m56 232h272v256h-272z" fill="#ea9d2d"/><path d="m160 232h64v72l-32-16-32 16z" fill="#d32b39"/><path d="m176 368h120v88h-120z" fill="#cbcbcb"/><g fill="#a8a8a8"><path d="m216 408h-8a8 8 0 0 1 0-16h8a8 8 0 0 1 0 16z"/><path d="m264 408h-24a8 8 0 0 1 0-16h24a8 8 0 0 1 0 16z"/><path d="m232 432h-24a8 8 0 0 1 0-16h24a8 8 0 0 1 0 16z"/><path d="m264 432h-8a8 8 0 0 1 0-16h8a8 8 0 0 1 0 16z"/></g><path d="m224 344h-64a8 8 0 0 1 0-16h64a8 8 0 0 1 0 16z" fill="#c38325"/><path d="m336 56h32v34h-32z" fill="#0276b4"/><path d="m265.052 82.389h32v40h-32z" fill="#0276b4" transform="matrix(.773 -.634 .634 .773 -1.227 201.345)"/><path d="m406.948 82.389h32v40h-32z" fill="#0276b4" transform="matrix(-.773 -.634 .634 -.773 685.174 449.672)"/><circle cx="352" cy="192" fill="#0296e5" r="104"/><circle cx="352" cy="192" fill="#eaeae8" r="72"/><path d="m360 120.44v15.56a8 8 0 0 1 -16 0v-15.56a72.947 72.947 0 0 1 16 0z" fill="#eaeae8"/><path d="m416.9 223.21a71.34 71.34 0 0 1 -8.51 13.55l-12.51-7.5a8 8 0 0 1 8.24-13.72z" fill="#eaeae8"/><path d="m375.992 216a7.969 7.969 0 0 1 -4.43-1.345l-24-16a8 8 0 0 1 -3.562-6.655v-32a8 8 0 0 1 16 0v27.719l20.438 13.625a8 8 0 0 1 -4.446 14.656z" fill="#cbcbcb"/><path d="m326 24h52a6 6 0 0 1 6 6v26a0 0 0 0 1 0 0h-64a0 0 0 0 1 0 0v-26a6 6 0 0 1 6-6z" fill="#0296e5"/><path d="m360 120.44v15.56a8 8 0 0 1 -16 0v-15.56a72.947 72.947 0 0 1 16 0z" fill="#cbcbcb"/><path d="m416.9 223.21a71.34 71.34 0 0 1 -8.51 13.55l-12.51-7.5a8 8 0 0 1 8.24-13.72z" fill="#cbcbcb"/><path d="m224 232h-64l8-32h48z" fill="#961b20"/><path d="m336 56h32v16h-32z" fill="#015078"/></g></svg>