<svg height="512" viewBox="0 0 512 512" width="512" xmlns="http://www.w3.org/2000/svg"><g id="flat"><path d="m424 304h-400v-204a36 36 0 0 1 36-36h328a36 36 0 0 1 36 36z" fill="#2ad3b3"/><path d="m24 304h400a0 0 0 0 1 0 0v12a36 36 0 0 1 -36 36h-328a36 36 0 0 1 -36-36v-12a0 0 0 0 1 0 0z" fill="#eaeae8"/><path d="m192 352h64l6.879 20.636a84.064 84.064 0 0 0 33.121 43.364v24h-144v-24a84.064 84.064 0 0 0 33.121-43.364z" fill="#a8a8a8"/><path d="m480 432h-256v-184.235a20 20 0 0 1 20-20h216a20 20 0 0 1 20 20z" fill="#cbcbcb"/><path d="m256 264h192v112h-192z" fill="#0296e5"/><path d="m256 264h184v104h-184z" fill="#0bafea"/><path d="m470 440h-236a18 18 0 0 1 -18-18v-14h104l8 8h40l8-8h112v14a18 18 0 0 1 -18 18z" fill="#eaeae8"/><g fill="#04957c"><path d="m154.463 249.17a8 8 0 0 1 -7.807-6.289 80.01 80.01 0 0 1 95.994-95.065 8 8 0 1 1 -3.566 15.6 64.011 64.011 0 0 0 -76.8 76.043 8.006 8.006 0 0 1 -7.822 9.713z"/><path d="m123.188 256a8 8 0 0 1 -7.807-6.289 112.033 112.033 0 0 1 134.4-133.09 8 8 0 1 1 -3.566 15.6 96.033 96.033 0 0 0 -115.205 114.067 8.007 8.007 0 0 1 -7.822 9.712z"/><path d="m185.729 242.341a8 8 0 0 1 -7.807-6.288 48 48 0 0 1 57.6-57.042 8 8 0 0 1 -3.567 15.6 32.037 32.037 0 0 0 -38.328 24.061 31.714 31.714 0 0 0 -.071 13.957 8.007 8.007 0 0 1 -7.822 9.714z"/></g></g></svg>