<svg height="512" viewBox="0 0 512 512" width="512" xmlns="http://www.w3.org/2000/svg"><g id="flat"><path d="m488 384h-120l-16-16-16 16h-312v-256h312l16 16 16-16h120l-8 16 8 16-8 16 8 16-8 16 8 16-8 16 8 16-8 16 8 16-8 16 8 16-8 16 8 16-8 16z" fill="#fbb540"/><path d="m384 160h64v192h-64z" fill="#ea9d2d"/><rect fill="#ea9d2d" height="208" rx="9" width="280" x="48" y="152"/><path d="m168 170.613v-.009c7.029-17.322 32.807-12.2 32.672 6.5v.01l.007-.007c13.123-13.314 34.977 1.288 27.7 18.507v.009h.009c17.219-7.278 31.821 14.576 18.507 27.7l-.007.007h.01c18.694-.135 23.821 25.643 6.5 32.672h-.009.009c17.322 7.029 12.2 32.807-6.5 32.672h-.01l.007.007c13.314 13.123-1.288 34.977-18.507 27.7h-.009v.009c7.278 17.219-14.576 31.821-27.7 18.507l-.007-.007v.01c.135 18.694-25.643 23.821-32.672 6.5v-.009.009c-7.029 17.322-32.807 12.195-32.672-6.5v-.01l-.007.007c-13.123 13.314-34.977-1.288-27.7-18.507v-.009h-.009c-17.219 7.278-31.821-14.576-18.507-27.7l.007-.007h-.012c-18.694.135-23.821-25.643-6.5-32.672h.009-.009c-17.322-7.029-12.195-32.807 6.5-32.672h.01l-.007-.007c-13.314-13.123 1.288-34.977 18.507-27.7h.009v-.009c-7.278-17.219 14.576-31.821 27.7-18.507l.007.007v-.01c-.135-18.694 25.643-23.821 32.672-6.5z" fill="#d32b39"/><path d="m130 304a8 8 0 0 1 -5.657-13.657l72-72a8 8 0 0 1 11.314 11.314l-72 72a7.976 7.976 0 0 1 -5.657 2.343z" fill="#961b20"/><circle cx="138" cy="232" fill="#961b20" r="14"/><circle cx="194" cy="288" fill="#961b20" r="14"/><g fill="#d18d28"><path d="m352 200a8 8 0 0 1 -8-8v-16a8 8 0 0 1 16 0v16a8 8 0 0 1 -8 8z"/><path d="m352 248a8 8 0 0 1 -8-8v-16a8 8 0 0 1 16 0v16a8 8 0 0 1 -8 8z"/><path d="m352 296a8 8 0 0 1 -8-8v-16a8 8 0 0 1 16 0v16a8 8 0 0 1 -8 8z"/><path d="m352 344a8 8 0 0 1 -8-8v-16a8 8 0 0 1 16 0v16a8 8 0 0 1 -8 8z"/></g></g></svg>