<svg height="512" viewBox="0 0 512 512" width="512" xmlns="http://www.w3.org/2000/svg"><g id="flat"><path d="m338.635 440a128.029 128.029 0 0 0 -17.749-218.686 64 64 0 1 0 -113.772 0 128.029 128.029 0 0 0 -17.749 218.686zm-106.635-248a32 32 0 1 1 58 18.644 129.149 129.149 0 0 0 -52 0 31.842 31.842 0 0 1 -6-18.644z" fill="#0a6fa2"/><path d="m36 208h104a12 12 0 0 1 12 12v204a16 16 0 0 1 -16 16h-96a16 16 0 0 1 -16-16v-204a12 12 0 0 1 12-12z" fill="#27c5a7"/><path d="m152 220v4h-128v-4a12 12 0 0 1 12-12h104a12 12 0 0 1 12 12z" fill="#27c5a7"/><path d="m88 80a64 64 0 0 0 -64 64v52a12 12 0 0 0 12 12h104a12 12 0 0 0 12-12v-52a64 64 0 0 0 -64-64zm-32 80v-16a32 32 0 0 1 32-32 32 32 0 0 1 32 32v16z" fill="#27c5a7"/><path d="m56 256a8 8 0 0 1 -8-8v-8a8 8 0 0 1 16 0v8a8 8 0 0 1 -8 8z" fill="#2ad3b3"/><path d="m56 312a8 8 0 0 1 -8-8v-24a8 8 0 0 1 16 0v24a8 8 0 0 1 -8 8z" fill="#2ad3b3"/><path d="m200 336h160v48h-160z" fill="#cbcbcb"/><path d="m358.663 328a8 8 0 0 1 -7.88-6.677 87.176 87.176 0 0 0 -10.551-29.318 8 8 0 1 1 13.85-8.012 103.1 103.1 0 0 1 12.48 34.682 8 8 0 0 1 -7.9 9.325z" fill="#0276b4"/><path d="m327.5 272a7.968 7.968 0 0 1 -5.291-2 88.876 88.876 0 0 0 -9.551-7.337 8 8 0 1 1 8.86-13.322 104.935 104.935 0 0 1 11.276 8.659 8 8 0 0 1 -5.3 14z" fill="#0276b4"/><g fill="#0296e5"><rect height="128" rx="16" width="32" x="136" y="296"/><path d="m168 312v96a15.994 15.994 0 0 1 -8 13.86v-123.72a16.152 16.152 0 0 1 3.32 2.54 15.987 15.987 0 0 1 4.68 11.32z"/><rect height="160" rx="16" width="32" x="168" y="280"/><rect height="96" rx="16" width="32" x="104" y="312"/><path d="m136 328v64a15.994 15.994 0 0 1 -8 13.86v-91.72a16.152 16.152 0 0 1 3.32 2.54 15.987 15.987 0 0 1 4.68 11.32z"/><rect height="128" rx="16" transform="matrix(-1 0 0 -1 816 720)" width="32" x="392" y="296"/><rect height="160" rx="16" transform="matrix(-1 0 0 -1 752 720)" width="32" x="360" y="280"/><rect height="96" rx="16" transform="matrix(-1 0 0 -1 880 720)" width="32" x="424" y="312"/></g><path d="m88 336h16a0 0 0 0 1 0 0v48a0 0 0 0 1 0 0h-16a16 16 0 0 1 -16-16v-16a16 16 0 0 1 16-16z" fill="#cbcbcb"/><path d="m456 336h16a16 16 0 0 1 16 16v16a16 16 0 0 1 -16 16h-16a0 0 0 0 1 0 0v-48a0 0 0 0 1 0 0z" fill="#cbcbcb"/><path d="m152 220v4h-128v-4a12 12 0 0 1 12-12h104a12 12 0 0 1 12 12z" fill="#04957c"/><path d="m200 368h160v16h-160z" fill="#a8a8a8"/><path d="m72 368h32a0 0 0 0 1 0 0v16a0 0 0 0 1 0 0h-16a16 16 0 0 1 -16-16 0 0 0 0 1 0 0z" fill="#a8a8a8"/><path d="m456 368h32a0 0 0 0 1 0 0 16 16 0 0 1 -16 16h-16a0 0 0 0 1 0 0v-16a0 0 0 0 1 0 0z" fill="#a8a8a8"/><path d="m136 328v64a15.994 15.994 0 0 1 -8 13.86v-91.72a16.152 16.152 0 0 1 3.32 2.54 15.987 15.987 0 0 1 4.68 11.32z" fill="#0276b4"/><path d="m168 312v96a15.994 15.994 0 0 1 -8 13.86v-123.72a16.152 16.152 0 0 1 3.32 2.54 15.987 15.987 0 0 1 4.68 11.32z" fill="#0276b4"/><path d="m424 328v64a15.994 15.994 0 0 0 8 13.86v-91.72a16.152 16.152 0 0 0 -3.32 2.54 15.987 15.987 0 0 0 -4.68 11.32z" fill="#0276b4"/><path d="m392 312v96a15.994 15.994 0 0 0 8 13.86v-123.72a16.152 16.152 0 0 0 -3.32 2.54 15.987 15.987 0 0 0 -4.68 11.32z" fill="#0276b4"/></g></svg>