<svg height="512" viewBox="0 0 512 512" width="512" xmlns="http://www.w3.org/2000/svg"><g id="flat"><circle cx="256" cy="256" fill="#fbb540" r="232"/><path d="m259.186 179.227-3.186 3.54-3.186-3.54a91.722 91.722 0 0 0 -130.587-5.855 82.068 82.068 0 0 0 -24.627 76.236 82.075 82.075 0 0 0 27.066 46.217l131.334 112.575 131.339-112.575a82.075 82.075 0 0 0 27.066-46.217 82.068 82.068 0 0 0 -24.632-76.235 91.722 91.722 0 0 0 -130.587 5.854z" fill="#d32b39"/><path d="m296 333.333a8 8 0 0 1 -5.126-14.145l35.2-29.334a8 8 0 0 1 10.243 12.292l-35.2 29.333a7.966 7.966 0 0 1 -5.117 1.854z" fill="#961b20"/><path d="m264 360a8 8 0 0 1 -5.126-14.146l9.6-8a8 8 0 0 1 10.243 12.292l-9.6 8a7.971 7.971 0 0 1 -5.117 1.854z" fill="#961b20"/><path d="m256 464c-114.691 0-208-93.309-208-208s93.309-208 208-208 208 93.309 208 208a207.7 207.7 0 0 1 -10.879 66.559 8 8 0 1 1 -15.16-5.118 191.7 191.7 0 0 0 10.039-61.441c0-105.869-86.131-192-192-192s-192 86.131-192 192 86.131 192 192 192a190.644 190.644 0 0 0 76.8-15.973 8 8 0 1 1 6.406 14.662 206.548 206.548 0 0 1 -83.206 17.311z" fill="#ea9d2d"/><circle cx="400" cy="384" fill="#d32b39" r="40"/><path d="m416 376h-8v-8a8 8 0 0 0 -16 0v8h-8a8 8 0 0 0 0 16h8v8a8 8 0 0 0 16 0v-8h8a8 8 0 0 0 0-16z" fill="#961b20"/></g></svg>