<svg height="512" viewBox="0 0 512 512" width="512" xmlns="http://www.w3.org/2000/svg"><g id="flat"><path d="m446 160h-54v32h48v128h-48v32h54a26 26 0 0 0 26-26v-140a26 26 0 0 0 -26-26z" fill="#cbcbcb"/><path d="m392 424h40v32h-40z" fill="#cbcbcb"/><path d="m379.518 488h-166.955a20 20 0 0 1 -19.992-20.555l6.35-228.616a219.99 219.99 0 0 0 -11.2-75.679l-3.721-11.15h208l7.512 315.524a20 20 0 0 1 -19.994 20.476z" fill="#eaeae8"/><path d="m184 152a42.246 42.246 0 0 1 40.985-32h126.03a42.246 42.246 0 0 1 40.985 32z" fill="#2cbff4"/><path d="m360 456a8 8 0 0 1 -8-8v-32a8 8 0 0 1 16 0v32a8 8 0 0 1 -8 8z" fill="#cbcbcb"/><path d="m360 392a8 8 0 0 1 -8-8v-16a8 8 0 0 1 16 0v16a8 8 0 0 1 -8 8z" fill="#cbcbcb"/><rect fill="#d18d28" height="192" rx="24" width="48" x="272" y="224"/><path d="m296 224a24 24 0 0 1 24 24v8a0 0 0 0 1 0 0h-48a0 0 0 0 1 0 0v-8a24 24 0 0 1 24-24z" fill="#ea9d2d"/><path d="m272 288h48v32h-48z" fill="#ea9d2d"/><path d="m272 352h48v32h-48z" fill="#ea9d2d"/><g fill="#c4f8ff"><path d="m150.754 136a8 8 0 0 1 -7.421-5.01 32.646 32.646 0 0 1 4.141-31.624 32.989 32.989 0 0 1 18.38-12.085 24 24 0 1 0 -21.854-41.172 8 8 0 1 1 -10.671-11.921 40 40 0 1 1 36.413 68.612 16.959 16.959 0 0 0 -9.468 6.165 16.56 16.56 0 0 0 -2.1 16.04 8 8 0 0 1 -7.42 10.995z"/><path d="m132.289 88a8 8 0 0 1 -6.933-4 40 40 0 0 1 -5.356-20 8 8 0 0 1 16 0 23.985 23.985 0 0 0 3.206 12 8 8 0 0 1 -6.917 12z"/><path d="m96 72a8 8 0 0 1 -8-8 32.036 32.036 0 0 0 -32-32 8 8 0 0 1 0-16 48.055 48.055 0 0 1 48 48 8 8 0 0 1 -8 8z"/><path d="m96 104a8 8 0 0 1 -8-8v-8a8 8 0 0 1 16 0v8a8 8 0 0 1 -8 8z"/><path d="m152 168h-16a48.055 48.055 0 0 1 -48-48 8 8 0 0 1 16 0 32.036 32.036 0 0 0 32 32h16a8 8 0 0 1 0 16z"/></g></g></svg>