<svg height="512" viewBox="0 0 512 512" width="512" xmlns="http://www.w3.org/2000/svg"><g id="flat"><path d="m440 160.6h-.1l-48-.6a8 8 0 0 1 .1-16h.1l48 .6a8 8 0 0 1 -.1 16z" fill="#43dcfe"/><path d="m364 392h-312a28 28 0 0 1 -28-28v-216a28 28 0 0 1 28-28h312a28 28 0 0 1 28 28v76l56 32-56 32v76a28 28 0 0 1 -28 28z" fill="#fbb540"/><path d="m448 256-56 32v76a28.005 28.005 0 0 1 -28 28h-312a28.005 28.005 0 0 1 -28-28v-216a28.005 28.005 0 0 1 28-28h312a28.005 28.005 0 0 1 28 28v76z" fill="#d18d28"/><path d="m392 360v4a28.005 28.005 0 0 1 -28 28h-312a28.005 28.005 0 0 1 -28-28v-4l141.26-94.99h85.48z" fill="#ea9d2d"/><g fill="#43dcfe"><path d="m488 193.2h-64a8 8 0 0 1 0-16h64a8 8 0 0 1 0 16z"/><path d="m440 320h-72a8 8 0 0 1 0-16h72a8 8 0 0 1 0 16z"/><path d="m488 352h-64a8 8 0 0 1 0-16h64a8 8 0 0 1 0 16z"/></g><path d="m184 368h-8a8 8 0 0 1 0-16h8a8 8 0 0 1 0 16z" fill="#fbb540"/><path d="m144 368h-32a8 8 0 0 1 0-16h32a8 8 0 0 1 0 16z" fill="#fbb540"/><path d="m392 148v4l-141.26 113.01a68.426 68.426 0 0 1 -85.48 0l-141.26-113.01v-4a28.005 28.005 0 0 1 28-28h312a28.005 28.005 0 0 1 28 28z" fill="#fbb540"/></g></svg>