<svg height="512" viewBox="0 0 512 512" width="512" xmlns="http://www.w3.org/2000/svg"><g id="flat"><path d="m24 80h464v272h-464z" fill="#027226"/><path d="m456 287.49a72.248 72.248 0 0 0 -32.51 32.51h-334.98a72.248 72.248 0 0 0 -32.51-32.51v-142.98a72.248 72.248 0 0 0 32.51-32.51h334.98a72.248 72.248 0 0 0 32.51 32.51z" fill="#02a437"/><circle cx="256" cy="215.287" fill="#027226" r="72"/><path d="m268.422 212.555-17.689-8.845a4.945 4.945 0 0 1 0-8.845 11.831 11.831 0 0 1 10.534 0 4.915 4.915 0 0 1 2.733 4.423 8 8 0 0 0 16 0 20.83 20.83 0 0 0 -11.577-18.733 27.494 27.494 0 0 0 -4.423-1.748v-3.519a8 8 0 0 0 -16 0v3.519a27.535 27.535 0 0 0 -4.422 1.747 20.945 20.945 0 0 0 0 37.467l17.689 8.845a4.943 4.943 0 0 1 0 8.843 11.834 11.834 0 0 1 -10.534 0 4.918 4.918 0 0 1 -2.733-4.421 8 8 0 0 0 -16 0 20.831 20.831 0 0 0 11.578 18.733 27.535 27.535 0 0 0 4.422 1.747v3.52a8 8 0 0 0 16 0v-3.52a27.583 27.583 0 0 0 4.423-1.747 20.944 20.944 0 0 0 0-37.466z" fill="#02a437"/><circle cx="120" cy="216" fill="#027226" r="16"/><circle cx="392" cy="216" fill="#027226" r="16"/><circle cx="328.012" cy="352" fill="#fbb540" r="56"/><path d="m384.01 352a55.937 55.937 0 0 1 -26.74 47.75 56.069 56.069 0 0 1 21.46-71.5 55.667 55.667 0 0 1 5.28 23.75z" fill="#fbb540"/><path d="m328.012 384a32 32 0 1 1 0-64 8 8 0 0 1 0 16 16 16 0 1 0 0 32 8 8 0 0 1 0 16z" fill="#ea9d2d"/><path d="m384.01 352a55.937 55.937 0 0 1 -26.74 47.75 56.069 56.069 0 0 1 21.46-71.5 55.667 55.667 0 0 1 5.28 23.75z" fill="#ea9d2d"/><circle cx="416" cy="376" fill="#fbb540" r="56"/><path d="m440 384.336h-.11a8 8 0 0 1 -7.89-8.107 16 16 0 0 0 -32-.434 8 8 0 1 1 -16-.216 32.04 32.04 0 0 1 31.991-31.567h.44a32 32 0 0 1 31.569 32.433 8 8 0 0 1 -8 7.891z" fill="#ea9d2d"/></g></svg>