<svg height="512" viewBox="0 0 512 512" width="512" xmlns="http://www.w3.org/2000/svg"><g id="flat"><rect fill="#eaeae8" height="464" rx="30" width="272" x="120" y="24"/><path d="m120 80h272v344h-272z" fill="#c4f8ff"/><rect fill="#0296e5" height="208" rx="22" width="320" x="168" y="152"/><path d="m200 184h64v48h-64z" fill="#fbb540"/><path d="m224 184v16h-24v16h24v16h16v-48z" fill="#d18d28"/><path d="m408 240a8 8 0 0 0 8-8v-6.2a32.24 32.24 0 0 0 -17.4-28.724v-45.076h-16v40.288a45.705 45.705 0 0 0 -16 1.148v-41.436h-16v49.451a32.436 32.436 0 0 0 6.925 53.356l33.393 16.7a16.435 16.435 0 0 1 0 29.4 29.468 29.468 0 0 1 -26.235 0 16.343 16.343 0 0 1 -9.085-14.7v-6.207a8 8 0 0 0 -16 0v6.2a32.228 32.228 0 0 0 12.214 25.374l-1.212 48.226 15.994.4 1.036-41.375a45 45 0 0 0 14.967.887v40.288h16v-45.072a32.421 32.421 0 0 0 -.526-57.735l-33.392-16.7a16.435 16.435 0 0 1 0-29.4 29.473 29.473 0 0 1 26.236 0 16.346 16.346 0 0 1 9.085 14.707v6.2a8 8 0 0 0 8 8z" fill="#0276b4"/><g fill="#0bafea"><path d="m208 304h-8a8 8 0 0 1 0-16h8a8 8 0 0 1 0 16z"/><path d="m264 304h-24a8 8 0 0 1 0-16h24a8 8 0 0 1 0 16z"/><path d="m312 304h-16a8 8 0 0 1 0-16h16a8 8 0 0 1 0 16z"/><path d="m240 336h-40a8 8 0 0 1 0-16h40a8 8 0 0 1 0 16z"/><path d="m312 336h-40a8 8 0 0 1 0-16h40a8 8 0 0 1 0 16z"/></g><path d="m280 64h-40a8 8 0 0 1 0-16h40a8 8 0 0 1 0 16z" fill="#cbcbcb"/><path d="m328 64h-16a8 8 0 0 1 0-16h16a8 8 0 0 1 0 16z" fill="#cbcbcb"/><circle cx="256" cy="456" fill="#cbcbcb" r="32"/><path d="m120 80h16v344h-16z" fill="#6ee7f5"/></g></svg>