<svg height="512" viewBox="0 0 512 512" width="512" xmlns="http://www.w3.org/2000/svg"><g id="flat"><circle cx="256" cy="256" fill="#ea9d2d" r="232"/><circle cx="256" cy="256" fill="#fbedbf" r="200"/><circle cx="352.167" cy="352.167" fill="#ea9d2d" r="24"/><circle cx="182.461" cy="182.461" fill="#ea9d2d" r="24"/><path d="m261.657 408.735-1.791-12.535a82.008 82.008 0 0 0 -23.194-46.387l-42.9-42.9a80 80 0 0 1 0-113.137 80 80 0 0 1 113.137 0l42.9 42.9a82.008 82.008 0 0 0 46.391 23.19l12.539 1.791a289.711 289.711 0 0 1 -147.082 147.078z" fill="#fbb540"/><path d="m349.562 289.689a8 8 0 0 1 -6.959-11.934c1.3-2.3 2.562-4.669 3.76-7.045a8 8 0 1 1 14.287 7.2c-1.309 2.6-2.694 5.192-4.114 7.708a8 8 0 0 1 -6.974 4.071z" fill="#ea9d2d"/><path d="m295.6 348.858a8 8 0 0 1 -4.561-14.578 170.682 170.682 0 0 0 38.689-36.975 8 8 0 0 1 12.73 9.695 186.674 186.674 0 0 1 -42.311 40.435 7.963 7.963 0 0 1 -4.547 1.423z" fill="#ea9d2d"/><g fill="#fbb540"><path d="m357.823 207.432a8 8 0 0 1 -8-8 37.3 37.3 0 0 0 -37.255-37.255 8 8 0 0 1 0-16 53.315 53.315 0 0 1 53.255 53.255 8 8 0 0 1 -8 8z"/><path d="m394.281 216.226a8 8 0 0 1 -8-7.825 84.4 84.4 0 0 0 -82.681-82.687 8 8 0 1 1 .349-16 100.364 100.364 0 0 1 98.333 98.332 8 8 0 0 1 -7.822 8.174z"/><path d="m199.432 365.823a53.315 53.315 0 0 1 -53.255-53.255 8 8 0 0 1 16 0 37.3 37.3 0 0 0 37.255 37.255 8 8 0 1 1 0 16z"/><path d="m208.229 402.284h-.178a100.364 100.364 0 0 1 -98.333-98.332 8 8 0 0 1 7.822-8.174h.179a8 8 0 0 1 8 7.825 84.4 84.4 0 0 0 82.681 82.683 8 8 0 0 1 -.171 16z"/></g></g></svg>