<svg height="512" viewBox="0 0 512 512" width="512" xmlns="http://www.w3.org/2000/svg"><g id="flat"><path d="m274.636 448h-228a22 22 0 0 1 -22-22v-170.128a26 26 0 0 1 4.364-14.422l11.636-17.45v-138a22 22 0 0 1 22-22h196a22 22 0 0 1 22 22v138l11.634 17.45a26 26 0 0 1 4.366 14.422v170.128a22 22 0 0 1 -22 22z" fill="#0276b4"/><path d="m62.636 448.083-16-.166 2-192a8 8 0 0 1 2.343-5.574l25.28-25.28 11.313 11.313-22.972 22.972z" fill="#026ca2"/><path d="m72 96h176v144h-176z" fill="#02a437"/><path d="m256.636 360h16v88h-16z" fill="#026ca2"/><rect fill="#fbb540" height="176" rx="18" width="272" x="208" y="184"/><path d="m172.422 164.893-17.689-8.845a4.944 4.944 0 0 1 0-8.844 11.831 11.831 0 0 1 10.534 0 4.915 4.915 0 0 1 2.733 4.422 8 8 0 0 0 16 0 20.83 20.83 0 0 0 -11.577-18.733 27.494 27.494 0 0 0 -4.423-1.748v-3.519a8 8 0 1 0 -16 0v3.519a27.447 27.447 0 0 0 -4.422 1.748 20.944 20.944 0 0 0 0 37.466l17.689 8.845a4.944 4.944 0 0 1 0 8.844 11.831 11.831 0 0 1 -10.534 0 4.915 4.915 0 0 1 -2.733-4.422 8 8 0 1 0 -16 0 20.83 20.83 0 0 0 11.577 18.733 27.494 27.494 0 0 0 4.423 1.748v3.519a8 8 0 0 0 16 0v-3.519a27.447 27.447 0 0 0 4.422-1.748 20.944 20.944 0 0 0 0-37.466z" fill="#027226"/><g fill="#a8a8a8"><circle cx="160" cy="288" r="16"/><circle cx="96" cy="288" r="16"/><circle cx="160" cy="344" r="16"/><circle cx="96" cy="344" r="16"/><circle cx="160" cy="400" r="16"/><circle cx="96" cy="400" r="16"/><circle cx="224" cy="400" r="16"/></g><path d="m208 216h272v32h-272z" fill="#ea9d2d"/><circle cx="424" cy="304" fill="#ff6268" r="24"/><path d="m272 296h-40a8 8 0 0 1 0-16h40a8 8 0 0 1 0 16z" fill="#ea9d2d"/><path d="m312 296h-8a8 8 0 0 1 0-16h8a8 8 0 0 1 0 16z" fill="#ea9d2d"/><path d="m256 328h-24a8 8 0 0 1 0-16h24a8 8 0 0 1 0 16z" fill="#ea9d2d"/><path d="m312 328h-24a8 8 0 0 1 0-16h24a8 8 0 0 1 0 16z" fill="#ea9d2d"/><path d="m360 160a8 8 0 0 1 -8-8 40.045 40.045 0 0 0 -40-40 8 8 0 0 1 0-16 56.064 56.064 0 0 1 56 56 8 8 0 0 1 -8 8z" fill="#2ad3b3"/><path d="m392 160a8 8 0 0 1 -8-8 72.081 72.081 0 0 0 -72-72 8 8 0 0 1 0-16 88.1 88.1 0 0 1 88 88 8 8 0 0 1 -8 8z" fill="#2ad3b3"/><path d="m104 176a8 8 0 0 1 -8-8v-8a8 8 0 0 1 16 0v8a8 8 0 0 1 -8 8z" fill="#029532"/><path d="m104 216a8 8 0 0 1 -8-8v-16a8 8 0 0 1 16 0v16a8 8 0 0 1 -8 8z" fill="#029532"/></g></svg>