<svg height="512" viewBox="0 0 512 512" width="512" xmlns="http://www.w3.org/2000/svg"><g id="flat"><rect fill="#04957c" height="464" rx="30" width="240" x="40" y="24"/><rect fill="#03705d" height="464" rx="30" width="240" x="120" y="24"/><rect fill="#ea9d2d" height="96" rx="16" width="32" x="72" y="64"/><circle cx="88" cy="80" fill="#cbcbcb" r="16"/><circle cx="88" cy="80" fill="#eaeae8" r="8"/><circle cx="88" cy="144" fill="#cbcbcb" r="16"/><circle cx="88" cy="144" fill="#eaeae8" r="8"/><rect fill="#cbcbcb" height="464" rx="30" width="240" x="136" y="24"/><path d="m338 48h-44.158a15.9 15.9 0 0 1 2.158 8 16 16 0 0 1 -16 16h-48a16 16 0 0 1 -16-16 15.9 15.9 0 0 1 2.158-8h-44.158a14 14 0 0 0 -14 14v388a14 14 0 0 0 14 14h164a14 14 0 0 0 14-14v-388a14 14 0 0 0 -14-14z" fill="#27c5a7"/><path d="m352 278.74v18.52l-192 112v-18.52z" fill="#27c5a7"/><g fill="#2ad3b3"><path d="m352 120-192 112v-32l192-112z"/><path d="m352 248-192 112v-56l192-112z"/><path d="m352 278.74v18.52l-192 112v-18.52z"/></g><path d="m272 440h-32a8 8 0 0 1 0-16h32a8 8 0 0 1 0 16z" fill="#04957c"/><path d="m312 440h-8a8 8 0 0 1 0-16h8a8 8 0 0 1 0 16z" fill="#04957c"/><path d="m472 440h-48v-336a24 24 0 0 1 24-24 24 24 0 0 1 24 24z" fill="#cbcbcb"/><path d="m424 128h48v32h-48z" fill="#27c5a7"/><path d="m424 440h48l-24 48z" fill="#27c5a7"/></g></svg>