<svg height="512" viewBox="0 0 512 512" width="512" xmlns="http://www.w3.org/2000/svg"><g id="flat"><path d="m140 440h232a12 12 0 0 1 12 12v36a0 0 0 0 1 0 0h-256a0 0 0 0 1 0 0v-36a12 12 0 0 1 12-12z" fill="#d18d28"/><path d="m328 24h-144a24 24 0 0 0 -24 24v80a24 24 0 0 0 24 24h88v32l48-32h8a24 24 0 0 0 24-24v-80a24 24 0 0 0 -24-24z" fill="#2cbff4"/><path d="m312.889 329.778-14.222-33.778h-85.334l-14.222 33.778c-35.811 26.859-56.889 65.457-56.889 110.222h227.556c0-44.765-21.078-83.363-56.889-110.222z" fill="#ea9d2d"/><circle cx="256" cy="368" fill="#f7ba61" r="40"/><path d="m298.667 296 13.333 32h98a14 14 0 0 0 14-14v-28.955a69.048 69.048 0 0 0 -19.689-48.283 69.045 69.045 0 0 0 -49.356-20.762h-197.91a69.045 69.045 0 0 0 -49.356 20.762 69.048 69.048 0 0 0 -19.689 48.283v28.955a14 14 0 0 0 14 14h98l13.333-32z" fill="#ea9d2d"/><g fill="#c4f8ff"><circle cx="256" cy="88" r="14"/><circle cx="214" cy="88" r="14"/><circle cx="298" cy="88" r="14"/></g><path d="m88 296h125.33l-13.33 32h-112z" fill="#d18d28"/><path d="m424 296v32h-112l-13.33-32z" fill="#d18d28"/><path d="m213.49 296h85.029l4 9.15h-93.029z" fill="#c38325"/></g></svg>