<svg height="512" viewBox="0 0 512 512" width="512" xmlns="http://www.w3.org/2000/svg"><g id="flat"><path d="m344 248-60.971-66.514a102.83 102.83 0 0 1 -27.029-69.486h176a102.83 102.83 0 0 1 -27.029 69.486z" fill="#43dcfe"/><circle cx="344" cy="112" fill="#c4f8ff" r="88"/><path d="m328 336-160-152h-48l120 152z" fill="#0276b4"/><path d="m296 72h96v88h-96z" fill="#fbb540"/><path d="m328 72h32v32h-32z" fill="#e82f3e"/><path d="m360 144h-32a8 8 0 0 1 0-16h32a8 8 0 0 1 0 16z" fill="#c38325"/><path d="m32 224h64l48 56h275.156a53.9 53.9 0 0 1 44.844 24l10.077 6.718a31.267 31.267 0 0 1 13.923 26.015 31.267 31.267 0 0 1 -31.267 31.267h-336.733z" fill="#eaeae8"/><path d="m475.05 311.4a7.937 7.937 0 0 1 -3.05.6h-48a8 8 0 0 1 0-16h33.47a53.991 53.991 0 0 1 6.53 8l10.08 6.72c.33.22.65.44.97.68z" fill="#eaeae8"/><g fill="#fbfdff"><path d="m475.05 311.4a7.937 7.937 0 0 1 -3.05.6h-48a8 8 0 0 1 0-16h33.47a53.991 53.991 0 0 1 6.53 8l10.08 6.72c.33.22.65.44.97.68z"/><path d="m392 312h-16a8 8 0 0 1 0-16h16a8 8 0 0 1 0 16z"/><path d="m344 312h-16a8 8 0 0 1 0-16h16a8 8 0 0 1 0 16z"/><path d="m296 312h-16a8 8 0 0 1 0-16h16a8 8 0 0 1 0 16z"/><path d="m248 312h-16a8 8 0 0 1 0-16h16a8 8 0 0 1 0 16z"/><path d="m200 312h-16a8 8 0 0 1 0-16h16a8 8 0 0 1 0 16z"/></g><path d="m328 336-160 152h-48l120-152z" fill="#0292c9"/></g></svg>