<svg height="512" viewBox="0 0 512 512" width="512" xmlns="http://www.w3.org/2000/svg"><g id="flat"><path d="m96 232-72 88 72 88h392v-176zm-16 104a16 16 0 1 1 16-16 16 16 0 0 1 -16 16z" fill="#fbb540"/><path d="m360 232h128v176h-128z" fill="#ea9d2d"/><path d="m243.472 271.708a1.78 1.78 0 0 0 2.739.734 12.391 12.391 0 0 1 19.87 11.472 1.78 1.78 0 0 0 2 2 12.391 12.391 0 0 1 11.472 19.87 1.78 1.78 0 0 0 .734 2.739 12.391 12.391 0 0 1 0 22.944 1.78 1.78 0 0 0 -.734 2.739 12.391 12.391 0 0 1 -11.472 19.87 1.78 1.78 0 0 0 -2 2 12.391 12.391 0 0 1 -19.87 11.472 1.78 1.78 0 0 0 -2.739.734 12.391 12.391 0 0 1 -22.944 0 1.78 1.78 0 0 0 -2.739-.734 12.391 12.391 0 0 1 -19.87-11.472 1.78 1.78 0 0 0 -2.005-2 12.391 12.391 0 0 1 -11.472-19.87 1.78 1.78 0 0 0 -.734-2.739 12.391 12.391 0 0 1 0-22.944 1.78 1.78 0 0 0 .734-2.739 12.391 12.391 0 0 1 11.472-19.87 1.78 1.78 0 0 0 2.005-2 12.391 12.391 0 0 1 19.87-11.472 1.78 1.78 0 0 0 2.739-.734 12.391 12.391 0 0 1 22.944 0z" fill="#d32b39"/><path d="m215.539 344a8 8 0 0 1 -5.657-13.657l32-32a8 8 0 0 1 11.318 11.314l-32 32a7.976 7.976 0 0 1 -5.661 2.343z" fill="#961b20"/><circle cx="215.539" cy="304" fill="#961b20" r="8"/><circle cx="247.539" cy="336" fill="#961b20" r="8"/><g fill="#d18d28"><path d="m392 272h56v8h-56z"/><path d="m392 256h56v8h-56z"/><path d="m392 376h56v8h-56z"/><path d="m392 288h56v16h-56z"/><path d="m392 312h56v8h-56z"/><path d="m392 328h56v16h-56z"/><path d="m392 352h56v16h-56z"/><path d="m344 232h16v176h-16z"/></g><path d="m64 321.988a7.967 7.967 0 0 1 -3.292-.713 76.011 76.011 0 0 1 31.292-145.275h124a32 32 0 0 0 0-64h-40a8 8 0 0 1 0-16h40a48 48 0 0 1 0 96h-124a60.011 60.011 0 0 0 -24.7 114.7 8 8 0 0 1 -3.3 15.288z" fill="#cbcbcb"/><path d="m296 208h-24a8 8 0 0 1 0-16h24a8 8 0 0 1 0 16z" fill="#fbedbf"/><path d="m344 208h-16a8 8 0 0 1 0-16h16a8 8 0 0 1 0 16z" fill="#fbedbf"/><path d="m44.687 344h-15.687a8 8 0 0 1 0-16h15.687a19.187 19.187 0 0 0 13.656-5.657 8 8 0 0 1 11.314 11.314 35.085 35.085 0 0 1 -24.97 10.343z" fill="#cbcbcb"/></g></svg>