<svg height="512" viewBox="0 0 512 512" width="512" xmlns="http://www.w3.org/2000/svg"><g id="flat"><path d="m216 112-49 72 45 72h188l72-144zm-8 82a10 10 0 1 1 10-10 10 10 0 0 1 -10 10z" fill="#fbb540"/><path d="m76.921 372.058 71.108 51.942 33.903-21.227-69.577-50.824z" fill="#2cbff4"/><path d="m125.916 343.458-40.683 25.473a40 40 0 0 1 -55.133-12.676 40 40 0 0 1 12.676-55.13l40.684-25.473z" fill="#0292c9"/><path d="m61.478 354.055a7.994 7.994 0 0 1 -6.789-3.756l-8.489-13.561a8 8 0 1 1 13.561-8.49l8.49 13.561a8 8 0 0 1 -6.772 12.246z" fill="#0276b4"/><path d="m81.819 341.318a7.991 7.991 0 0 1 -6.788-3.756l-8.49-13.562a8 8 0 0 1 13.561-8.49l8.49 13.561a8 8 0 0 1 -6.773 12.246z" fill="#0276b4"/><path d="m416 88h72l-32 64h32l-112 144 40-120h-40z" fill="#e82f3e"/><g fill="#d18d28"><path d="m270 226a8 8 0 0 1 -5.657-13.657l72-72a8 8 0 0 1 11.314 11.314l-72 72a7.974 7.974 0 0 1 -5.657 2.343z"/><path d="m278 176a22 22 0 1 1 22-22 22.025 22.025 0 0 1 -22 22zm0-28a6 6 0 1 0 6 6 6.007 6.007 0 0 0 -6-6z"/><path d="m334 232a22 22 0 1 1 22-22 22.025 22.025 0 0 1 -22 22zm0-28a6 6 0 1 0 6 6 6.007 6.007 0 0 0 -6-6z"/></g><path d="m83.462 275.652 80.497-97.767 84.041 135.612-122.084 29.961z" fill="#cbcbcb"/><path d="m167.994 312a8 8 0 0 1 -1.934-15.763l32-8a8 8 0 0 1 3.88 15.522l-32 8a8.007 8.007 0 0 1 -1.946.241z" fill="#eaeae8"/><path d="m135.994 320a8 8 0 0 1 -1.934-15.763l8-2a8 8 0 0 1 3.88 15.522l-8 2a8.007 8.007 0 0 1 -1.946.241z" fill="#eaeae8"/></g></svg>