<svg height="512" viewBox="0 0 512 512" width="512" xmlns="http://www.w3.org/2000/svg"><g id="flat"><path d="m275 208h-214a37 37 0 0 0 -37 37v150a37 37 0 0 0 37 37h11l56 40v-40h147a37 37 0 0 0 37-37v-150a37 37 0 0 0 -37-37z" fill="#fbb540"/><path d="m488 184a144 144 0 1 0 -144 144 145.5 145.5 0 0 0 16-.889v32.889l61.3-54.491a143.888 143.888 0 0 0 66.7-121.509z" fill="#0bafea"/><path d="m344 253.5a8 8 0 0 1 -8-8v-1.893a50.576 50.576 0 0 1 28.512-45.695 48.008 48.008 0 1 0 -68.512-43.412 8 8 0 0 1 -16 0 64 64 0 0 1 67.013-63.931c32.656 1.5 59.415 28.261 60.918 60.918a63.935 63.935 0 0 1 -36.574 60.886 34.512 34.512 0 0 0 -19.357 31.234v1.893a8 8 0 0 1 -8 8z" fill="#0276b4"/><circle cx="344" cy="278" fill="#0276b4" r="12"/><g fill="#ea9d2d"><circle cx="120" cy="305.969" r="16"/><circle cx="200" cy="305.969" r="16"/><path d="m160 376a72.292 72.292 0 0 1 -45-15.784 8 8 0 1 1 10-12.494 55.722 55.722 0 0 0 70 0 8 8 0 0 1 10 12.494 72.292 72.292 0 0 1 -45 15.784z"/></g></g></svg>