<svg height="512" viewBox="0 0 512 512" width="512" xmlns="http://www.w3.org/2000/svg"><g id="flat"><path d="m256 49.889.009-.023c17.146-42.255 80.029-29.746 79.7 15.853v.025l.018-.018c32.011-32.476 85.32 3.144 67.565 45.146l-.009.023.023-.01c42-17.754 77.622 35.555 45.146 67.566l-.018.018h.025c45.6-.329 58.107 62.554 15.853 79.7l-.023.01.023.009c42.254 17.146 29.746 80.029-15.853 79.7h-.025l.018.018c32.476 32.01-3.144 85.32-45.146 67.565l-.023-.01.009.024c17.755 42-35.554 77.622-67.565 45.145l-.018-.018v.026c.33 45.6-62.553 58.107-79.7 15.853l-.009-.024-.009.024c-17.146 42.254-80.029 29.746-79.7-15.853v-.026l-.018.018c-32.011 32.477-85.32-3.143-67.565-45.145l.009-.024-.023.01c-42 17.755-77.622-35.555-45.146-67.565l.018-.018h-.025c-45.6.33-58.107-62.553-15.853-79.7l.023-.009-.023-.01c-42.254-17.145-29.746-80.028 15.853-79.7h.025l-.018-.018c-32.476-32.011 3.144-85.32 45.146-67.566l.023.01-.009-.023c-17.755-42 35.554-77.622 67.565-45.146l.018.018v-.025c-.33-45.6 62.553-58.108 79.7-15.853z" fill="#ea9d2d"/><path d="m296 240h48v128h-48z" fill="#eaeae8"/><path d="m256.425 209.7-.425-1.7v-32h-13.714a26.286 26.286 0 0 0 -26.286 26.286v37.714h-55.548c-8.615 0-16.028 6.621-16.434 15.226a16 16 0 0 0 15.982 16.774h8a16 16 0 0 0 0 32 16 16 0 0 0 0 32 16 16 0 0 0 -15.982 16.774c.406 8.605 7.819 15.226 16.434 15.226h127.548v-128h-.769a40 40 0 0 1 -38.806-30.3z" fill="#fdc9a6"/><path d="m344 240h64v128h-64z" fill="#0276b4"/><g fill="#c38325"><path d="m256 88 11.48 15.045 17.856 6.269-10.761 15.567-.444 18.92-18.131-5.425-18.131 5.425-.444-18.92-10.761-15.567 17.856-6.269z"/><path d="m165.336 119.801 11.48 15.045 17.856 6.269-10.761 15.567-.444 18.919-18.131-5.424-18.131 5.424-.443-18.919-10.762-15.567 17.856-6.269z"/><path d="m346.664 119.801-11.48 15.045-17.856 6.269 10.761 15.567.444 18.919 18.131-5.424 18.131 5.424.443-18.919 10.762-15.567-17.856-6.269z"/></g></g></svg>