<svg height="512" viewBox="0 0 512 512" width="512" xmlns="http://www.w3.org/2000/svg"><g id="flat"><path d="m248 280h96v48h-96z" fill="#029532"/><path d="m280 336a8 8 0 0 1 -8-8v-16a8 8 0 0 1 16 0v16a8 8 0 0 1 -8 8z" fill="#027e2a"/><path d="m312 336a8 8 0 0 1 -8-8v-16a8 8 0 0 1 16 0v16a8 8 0 0 1 -8 8z" fill="#027e2a"/><path d="m400 328h48v48h-48z" fill="#fbb540"/><path d="m304 328h96v48h-96z" fill="#ea9d2d"/><path d="m336 384a8 8 0 0 1 -8-8v-16a8 8 0 0 1 16 0v16a8 8 0 0 1 -8 8z" fill="#d18d28"/><path d="m368 384a8 8 0 0 1 -8-8v-16a8 8 0 0 1 16 0v16a8 8 0 0 1 -8 8z" fill="#d18d28"/><path d="m208 328h96v48h-96z" fill="#e82f3e"/><path d="m240 384a8 8 0 0 1 -8-8v-16a8 8 0 0 1 16 0v16a8 8 0 0 1 -8 8z" fill="#961b20"/><path d="m272 384a8 8 0 0 1 -8-8v-16a8 8 0 0 1 16 0v16a8 8 0 0 1 -8 8z" fill="#961b20"/><path d="m392 448h-304a64 64 0 0 1 -64-64v-32h88l16 24h256l24-24h80a96 96 0 0 1 -96 96z" fill="#eaeae8"/><path d="m463.55 416q-1.785 2-3.67 3.88a95.66 95.66 0 0 1 -67.88 28.12h-304a63.969 63.969 0 0 1 -55.44-32z" fill="#eaeae8"/><path d="m176 376h-48.053l-15.947-24h-72v-48h136z" fill="#a8a8a8"/><path d="m176 304h-136l-8-32h176z" fill="#0276b4"/><path d="m24 240h192v32h-192z" fill="#0296e5"/><path d="m344 280h48v48h-48z" fill="#02a437"/><path d="m80 336h-8a8 8 0 0 1 0-16h8a8 8 0 0 1 0 16z" fill="#eaeae8"/><path d="m144 336h-32a8 8 0 0 1 0-16h32a8 8 0 0 1 0 16z" fill="#eaeae8"/><path d="m463.55 416q-1.785 2-3.67 3.88a95.66 95.66 0 0 1 -67.88 28.12h-304a63.969 63.969 0 0 1 -55.44-32z" fill="#0296e5"/><path d="m408 208h-56l-24 24-24-24h-56v-152h160z" fill="#c4f8ff"/><path d="m280 88h96v88h-96z" fill="#ea9d2d"/><path d="m312 88h32v32h-32z" fill="#e82f3e"/><path d="m344 160h-32a8 8 0 0 1 0-16h32a8 8 0 0 1 0 16z" fill="#c38325"/><path d="m32 240 8-32h144l8 32z" fill="#0276b4"/></g></svg>