<svg height="512" viewBox="0 0 512 512" width="512" xmlns="http://www.w3.org/2000/svg"><g id="flat"><path d="m253.59 166.92-30.8 30.2-30.79 8.88v-52.815a14.862 14.862 0 0 1 8.215-13.293 14.86 14.86 0 0 1 14.988.994l38.386 26.036" fill="#cbcbcb"/><path d="m488 280a27.356 27.356 0 0 1 -13.945 23.844l-55.155 31.022a258 258 0 0 1 -126.483 33.134h-38.64a29.985 29.985 0 0 1 -11.141-2.146l-34.636-13.854-25.666 12.833a30 30 0 0 1 -13.416 3.167h-96.918l-41.591-29.708a15 15 0 0 1 -1.888-22.813l19.479-19.479-4.272-17.09a12 12 0 0 1 11.641-14.91h.631l38.269 17.009a136.327 136.327 0 0 0 70.417 10.915 109.074 109.074 0 0 1 66.163 13.7 109.075 109.075 0 0 0 54.118 14.376h34.259a209.981 209.981 0 0 0 58-8.168z" fill="#ea9d2d"/><path d="m56 264-2.633-7.9a111.177 111.177 0 0 1 3.283-78.951 28.293 28.293 0 0 1 26.007-17.149 28.3 28.3 0 0 1 27.206 20.521l1.073 3.756a43.74 43.74 0 0 0 42.057 31.723 43.738 43.738 0 0 0 26.853-9.214l48.116-37.423a24 24 0 0 1 25.627-2.441l92.653 47.193a226.007 226.007 0 0 0 79.414 21.085l25.412 1.955a40 40 0 0 1 36.932 39.886v2.959l-106.987 31.467a210.023 210.023 0 0 1 -59.255 8.533h-36.791a109.075 109.075 0 0 1 -54.117-14.372 109.074 109.074 0 0 0 -66.163-13.7 136.327 136.327 0 0 1 -70.417-10.915z" fill="#0296e5"/><path d="m394.19 230.54-26.19 17.46h-48l-120-56 3.53-3.64 24.43-19a24.022 24.022 0 0 1 25.63-2.44l92.65 47.19a225.852 225.852 0 0 0 47.95 16.43z" fill="#0296e5"/><path d="m112 280v7.46a135.261 135.261 0 0 1 -17.73-6.45l-38.27-17.01-2.63-7.9a111.057 111.057 0 0 1 -3.12-58.98l5.75 2.88 13.95 7.97a83.442 83.442 0 0 1 42.05 72.03z" fill="#0296e5"/><g fill="#0276b4"><path d="m112 280v7.46a135.261 135.261 0 0 1 -17.73-6.45l-38.27-17.01-2.63-7.9a111.057 111.057 0 0 1 -3.12-58.98l5.75 2.88 13.95 7.97a83.442 83.442 0 0 1 42.05 72.03z"/><path d="m394.19 230.54-26.19 17.46h-48l-120-56 3.53-3.64 24.43-19a24.022 24.022 0 0 1 25.63-2.44l92.65 47.19a225.852 225.852 0 0 0 47.95 16.43z"/><path d="m280 296h-16a8 8 0 0 1 0-16h16a8 8 0 0 1 0 16z"/><path d="m320 296h-8a8 8 0 0 1 0-16h8a8 8 0 0 1 0 16z"/><path d="m360 296h-8a8 8 0 0 1 0-16h8a8 8 0 0 1 0 16z"/></g><path d="m256 200a8 8 0 0 1 -5.657-13.657l24-24a8 8 0 0 1 11.314 11.314l-24 24a7.976 7.976 0 0 1 -5.657 2.343z" fill="#ea9d2d"/><path d="m288 216a8 8 0 0 1 -5.657-13.657l24-24a8 8 0 0 1 11.314 11.314l-24 24a7.976 7.976 0 0 1 -5.657 2.343z" fill="#ea9d2d"/><path d="m320 232a8 8 0 0 1 -5.657-13.657l24-24a8 8 0 0 1 11.314 11.314l-24 24a7.976 7.976 0 0 1 -5.657 2.343z" fill="#ea9d2d"/></g></svg>