<svg height="512" viewBox="0 0 512 512" width="512" xmlns="http://www.w3.org/2000/svg"><g id="flat"><path d="m160 160h304v256h-304z" fill="#eaeae8"/><path d="m304 256h160v112h-160z" fill="#cbcbcb"/><path d="m280 152h64v40a32 32 0 0 1 -32 32 32 32 0 0 1 -32-32z" fill="#ea9d2d"/><path d="m216 152h64v40a32 32 0 0 1 -32 32 32 32 0 0 1 -32-32z" fill="#cbcbcb"/><path d="m408 152h64v40a32 32 0 0 1 -32 32 32 32 0 0 1 -32-32z" fill="#ea9d2d"/><path d="m344 152h64v40a32 32 0 0 1 -32 32 32 32 0 0 1 -32-32z" fill="#cbcbcb"/><path d="m152 152h64v40a32 32 0 0 1 -32 32 32 32 0 0 1 -32-32z" fill="#ea9d2d"/><path d="m472 160h-320v-40l24-8h280l16 8z" fill="#fbb540"/><path d="m472 120h-320l16-32 16-8h256l16 8z" fill="#ea9d2d"/><path d="m272 384h-80v-88a40 40 0 0 1 40-40 40 40 0 0 1 40 40z" fill="#2cbff4"/><path d="m304 256h152v104h-152z" fill="#fdfefb"/><path d="m184 384h96v32h-96z" fill="#cbcbcb"/><path d="m184 400h96v16h-96z" fill="#a8a8a8"/><path d="m480 456h-327.309a27.986 27.986 0 0 1 -27.548-22.991l-25.132-138.229a17.992 17.992 0 0 0 -17.711-14.78h-10.3a8 8 0 0 1 0-16h10.3a33.985 33.985 0 0 1 33.452 27.918l25.132 138.228a12 12 0 0 0 11.807 9.854h327.309a8 8 0 0 1 0 16z" fill="#0292c9"/><circle cx="208" cy="464" fill="#eaeae8" r="24"/><circle cx="432" cy="464" fill="#eaeae8" r="24"/><path d="m208 496a32 32 0 1 1 32-32 32.036 32.036 0 0 1 -32 32zm0-48a16 16 0 1 0 16 16 16.019 16.019 0 0 0 -16-16z" fill="#a8a8a8"/><path d="m432 496a32 32 0 1 1 32-32 32.036 32.036 0 0 1 -32 32zm0-48a16 16 0 1 0 16 16 16.019 16.019 0 0 0 -16-16z" fill="#a8a8a8"/><path d="m72 288h-32a16 16 0 0 1 -16-16 16 16 0 0 1 16-16h32z" fill="#2cbff4"/><path d="m160 24h304v64h-304z" fill="#2cbff4"/><g fill="#c4f8ff"><path d="m120 184h-96a8 8 0 0 1 0-16h96a8 8 0 0 1 0 16z"/><path d="m120 144h-88a8 8 0 0 1 0-16h88a8 8 0 0 1 0 16z"/><path d="m120 216h-32a8 8 0 0 1 0-16h32a8 8 0 0 1 0 16z"/><path d="m64 216h-16a8 8 0 0 1 0-16h16a8 8 0 0 1 0 16z"/></g><path d="m360 288h48v48h-48z" fill="#ea9d2d"/><path d="m392 288v16a8 8 0 0 1 -16 0v-16z" fill="#c38325"/><path d="m432 64h-240a8 8 0 0 1 0-16h240a8 8 0 0 1 0 16z" fill="#0292c9"/></g></svg>