<svg height="512" viewBox="0 0 512 512" width="512" xmlns="http://www.w3.org/2000/svg"><g id="flat"><path d="m124 136h112a20 20 0 0 1 20 20v124a0 0 0 0 1 0 0h-152a0 0 0 0 1 0 0v-124a20 20 0 0 1 20-20z" fill="#0bafea"/><path d="m276 136h112a20 20 0 0 1 20 20v124a0 0 0 0 1 0 0h-152a0 0 0 0 1 0 0v-124a20 20 0 0 1 20-20z" fill="#0bafea"/><path d="m256 280h-152v-28a20 20 0 0 1 20-20h112a20 20 0 0 1 20 20z" fill="#0296e5"/><path d="m408 280h-152v-28a20 20 0 0 1 20-20h112a20 20 0 0 1 20 20z" fill="#0296e5"/><path d="m472.881 180.22-32.313-8.078a16 16 0 0 0 -19.623 12.66l-8.654 47.6a265.954 265.954 0 0 0 -4.291 47.583v.015h-304v-.015a265.954 265.954 0 0 0 -4.291-47.585l-8.654-47.6a16 16 0 0 0 -19.623-12.66l-32.313 8.08a16 16 0 0 0 -11.738 18.993l3.094 13.924a400 400 0 0 1 9.525 86.772v24.091a20 20 0 0 0 20 20h392a20 20 0 0 0 20-20v-24.091a400 400 0 0 1 9.525-86.772l3.094-13.924a16 16 0 0 0 -11.738-18.993z" fill="#0bafea"/><path d="m88 376h-24l8-32h40z" fill="#683b0d"/><path d="m440 376h24l-8-32h-40z" fill="#683b0d"/><g fill="#0296e5"><path d="m160 192h-8a8 8 0 0 1 0-16h8a8 8 0 0 1 0 16z"/><path d="m208 192h-8a8 8 0 0 1 0-16h8a8 8 0 0 1 0 16z"/><path d="m312 192h-8a8 8 0 0 1 0-16h8a8 8 0 0 1 0 16z"/><path d="m360 192h-8a8 8 0 0 1 0-16h8a8 8 0 0 1 0 16z"/></g></g></svg>