<svg height="512" viewBox="0 0 512 512" width="512" xmlns="http://www.w3.org/2000/svg"><g id="flat"><path d="m360 104a8 8 0 0 1 -8-8v-24a8 8 0 0 1 16 0v24a8 8 0 0 1 -8 8z" fill="#026ca2"/><path d="m56 184h304v256h-304z" fill="#fbb540"/><path d="m488 440h-128v-184h80l16 80 32 24z" fill="#ea9d2d"/><path d="m456 336h-64v-48h54.4z" fill="#eaeae8"/><path d="m184 184h48v88h-48z" fill="#ea9d2d"/><path d="m184 352h48v88h-48z" fill="#ea9d2d"/><g fill="#2cbff4"><path d="m88 296h-64a8 8 0 0 1 0-16h64a8 8 0 0 1 0 16z"/><path d="m96 328h-64a8 8 0 0 1 0-16h64a8 8 0 0 1 0 16z"/><path d="m104 360h-64a8 8 0 0 1 0-16h64a8 8 0 0 1 0 16z"/></g><path d="m416 376h-24a8 8 0 0 1 0-16h24a8 8 0 0 1 0 16z" fill="#fbb540"/><circle cx="120" cy="440" fill="#eaeae8" r="32"/><circle cx="432" cy="440" fill="#eaeae8" r="32"/><path d="m120 480a40 40 0 1 1 40-40 40.045 40.045 0 0 1 -40 40zm0-64a24 24 0 1 0 24 24 24.028 24.028 0 0 0 -24-24z" fill="#a8a8a8"/><path d="m432 480a40 40 0 1 1 40-40 40.045 40.045 0 0 1 -40 40zm0-64a24 24 0 1 0 24 24 24.028 24.028 0 0 0 -24-24z" fill="#a8a8a8"/><circle cx="360" cy="184" fill="#eaeae8" r="88"/><path d="m414.7 204.1a8 8 0 0 1 -7.82-9.721 48.1 48.1 0 0 0 -22.794-51.9 8 8 0 1 1 8.041-13.832 64.091 64.091 0 0 1 30.373 69.167 8 8 0 0 1 -7.8 6.286z" fill="#fbfdff"/><circle cx="360" cy="56" fill="#0296e5" r="24"/><path d="m404.328 229.1a7.968 7.968 0 0 1 -5.13-1.865l-44.332-37.1a8 8 0 0 1 -2.866-6.135v-48a8 8 0 0 1 16 0v44.263l41.466 34.7a8 8 0 0 1 -5.138 14.136z" fill="#0296e5"/><path d="m314.065 141.914a7.974 7.974 0 0 1 -5.9-2.593l-13.543-14.766a8 8 0 1 1 11.791-10.814l13.543 14.766a8 8 0 0 1 -5.894 13.407z" fill="#cbcbcb"/><path d="m294.986 165.641a7.981 7.981 0 0 1 -3-.588l-14.849-6.022a8 8 0 1 1 6.012-14.827l14.851 6.022a8 8 0 0 1 -3.009 15.415z" fill="#cbcbcb"/><path d="m339.289 127.149a8 8 0 0 1 -7.619-5.568l-6.037-18.906a8 8 0 1 1 15.242-4.867l6.037 18.906a8 8 0 0 1 -7.623 10.435z" fill="#cbcbcb"/><path d="m360 104a80 80 0 1 0 80 80 80.091 80.091 0 0 0 -80-80zm0 176a96 96 0 1 1 96-96 96.108 96.108 0 0 1 -96 96z" fill="#0296e5"/></g></svg>