<svg height="512" viewBox="0 0 512 512" width="512" xmlns="http://www.w3.org/2000/svg"><g id="flat"><circle cx="240" cy="240" fill="#fbb540" r="216"/><path d="m407.3 376.62a215.989 215.989 0 0 1 -334.6 0 168.007 168.007 0 0 1 334.6 0z" fill="#fbb540"/><path d="m407.3 376.62a215.989 215.989 0 0 1 -334.6 0 168.007 168.007 0 0 1 334.6 0z" fill="#0276b4"/><path d="m316.28 242.28a95.989 95.989 0 0 1 -152.56 0 168.293 168.293 0 0 1 152.56 0z" fill="#015078"/><circle cx="240" cy="168" fill="#0276b4" r="96"/><g fill="#015078"><circle cx="208" cy="160" r="16"/><circle cx="280" cy="160" r="16"/><path d="m240 221.229a53.089 53.089 0 0 1 -37.657-15.572 8 8 0 0 1 11.314-11.314 37.294 37.294 0 0 0 52.686 0 8 8 0 0 1 11.314 11.314 53.089 53.089 0 0 1 -37.657 15.572z"/></g><path d="m135.993 399.812a7.968 7.968 0 0 1 -4.52-1.406c-3.746-2.571-7.451-5.313-11.011-8.148a8 8 0 1 1 9.969-12.516c3.264 2.6 6.662 5.115 10.1 7.473a8 8 0 0 1 -4.534 14.6z" fill="#0296e5"/><path d="m232.006 431.829c-.115 0-.232 0-.348-.007a190.762 190.762 0 0 1 -66.791-15.081 8 8 0 0 1 6.266-14.722 174.8 174.8 0 0 0 61.209 13.817 8 8 0 0 1 -.336 15.993z" fill="#0296e5"/><path d="m488 397v-42l-32.619-6.524a83.443 83.443 0 0 0 -3.789-9.144l18.453-27.679-29.7-29.7-27.679 18.453a83.443 83.443 0 0 0 -9.144-3.789l-6.522-32.617h-42l-6.524 32.619a83.443 83.443 0 0 0 -9.144 3.789l-27.679-18.453-29.7 29.7 18.453 27.679a83.443 83.443 0 0 0 -3.789 9.144l-32.617 6.522v42l32.619 6.524a83.443 83.443 0 0 0 3.789 9.144l-18.453 27.679 29.7 29.7 27.679-18.452a83.437 83.437 0 0 0 9.144 3.788l6.522 32.617h42l6.524-32.619a83.437 83.437 0 0 0 9.144-3.788l27.679 18.452 29.7-29.7-18.453-27.679a83.443 83.443 0 0 0 3.789-9.144zm-112 3a24 24 0 1 1 24-24 24 24 0 0 1 -24 24z" fill="#eaeae8"/><path d="m376 440a64 64 0 0 1 0-128 8 8 0 0 1 0 16 48 48 0 1 0 48 48 8 8 0 0 1 16 0 64.072 64.072 0 0 1 -64 64z" fill="#cbcbcb"/></g></svg>