<svg height="512" viewBox="0 0 512 512" width="512" xmlns="http://www.w3.org/2000/svg"><g id="flat"><circle cx="184" cy="187.785" fill="#0276b4" r="155.785"/><circle cx="184" cy="187.785" fill="#c4f8ff" r="123.785"/><path d="m383.917 315.917h48a0 0 0 0 1 0 0v160a24 24 0 0 1 -24 24 24 24 0 0 1 -24-24v-160a0 0 0 0 1 0 0z" fill="#683b0d" transform="matrix(.707 -.707 .707 .707 -168.965 407.917)"/><path d="m136 131.785h96v88h-96z" fill="#fbb540"/><path d="m168 131.785h32v32h-32z" fill="#d32b39"/><path d="m200 203.785h-32a8 8 0 0 1 0-16h32a8 8 0 0 1 0 16z" fill="#ea9d2d"/><g fill="#43dcfe"><circle cx="184" cy="251.785" r="8"/><circle cx="160" cy="251.785" r="8"/><circle cx="208" cy="251.785" r="8"/></g><path d="m287.75 267.75h48v88h-48z" fill="#0276b4" transform="matrix(.707 -.707 .707 .707 -129.131 311.75)"/></g></svg>