<svg id="Capa_1" enable-background="new 0 0 512.09 512.09" height="512" viewBox="0 0 512.09 512.09" width="512" xmlns="http://www.w3.org/2000/svg"><g><path d="m423.045 224.09v247.3c0 22.44-18.26 40.7-40.7 40.7h-252.6c-22.44 0-40.7-18.26-40.7-40.7v-247.3c0-8.28 6.72-15 15-15h304c8.28 0 15 6.72 15 15z" fill="#ffec00"/><path d="m423.045 224.09v247.3c0 22.44-18.26 40.7-40.7 40.7h-126.3v-303h152c8.28 0 15 6.72 15 15z" fill="#ffd92e"/><path d="m398.045 71.09c0 19.96-8.111 38.844-21.19 51.6-5.832 5.851-15.334 5.876-21.21.02-5.485-5.484-6.385-14.844.39-21.62 14.92-14.92 17.073-41.939 0-58.99-16.032-16.033-41.963-16.017-57.98 0l-27.01 27.18v42.81c0 8.29-6.72 15-15 15s-15-6.71-15-15v-43.19l-24.63-27.03c-16.048-15.798-41.815-15.715-57.76.23-15.527 15.527-16.607 42.389.39 59.38 9.465 9.449 2.661 25.61-10.6 25.61-4.035 0-7.688-1.469-11-4.78-27.743-27.743-27.779-73.651-.01-101.42 27.698-27.699 72.614-27.806 100.42 0 .429.429-2.351-2.606 18.19 19.93.681.753-1.79 2.794 20.76-19.9 44.971-44.972 121.24-12.447 121.24 50.17z" fill="#00357b"/><path d="m256.045 127.09c0-95.858-.21-86.503.47-85.75l20.29-20.42c44.291-44.291 121.24-13.459 121.24 50.17 0 19.96-8.111 38.844-21.19 51.6-5.832 5.851-15.334 5.876-21.21.02-5.485-5.484-6.385-14.844.39-21.62 14.92-14.92 17.073-41.939 0-58.99-16.032-16.033-41.963-16.017-57.98 0l-27.01 27.18v42.81c0 8.29-6.72 15-15 15z" fill="#001737"/><path d="m423.045 345.09v30h-152v137h-30v-137h-152v-30h152v-121c0-8.28 6.72-15 15-15s15 6.72 15 15v121z" fill="#00357b"/><path d="m423.045 345.09v30h-152v137h-15v-303c8.28 0 15 6.72 15 15v121z" fill="#001737"/><path d="m471.045 137.85v60.49c0 22.47-17.46 40.75-38.92 40.75h-352.16c-21.46 0-38.92-18.28-38.92-40.75v-60.49c0-22.48 17.46-40.76 38.92-40.76h352.16c21.46 0 38.92 18.279 38.92 40.76z" fill="#ffd92e"/><path d="m471.045 137.85v60.49c0 22.47-17.46 40.75-38.92 40.75h-176.08v-142h176.08c21.46 0 38.92 18.279 38.92 40.76z" fill="#fcbe00"/></g></svg>