<svg id="Capa_1" enable-background="new 0 0 512 512" height="512" viewBox="0 0 512 512" width="512" xmlns="http://www.w3.org/2000/svg"><g><path d="m512 258.3v113.01c0 19.11-15.54 34.65-34.65 34.65h-286.04c-21.446 0-37.825-19.22-34.36-40.43l48.6-298.63c3.3-20.25 20.58-34.94 41.09-34.94h130.82c20.41 0 37.68 14.61 41.05 34.75l25.57 152.6c.38 2.23 2.29 3.88 4.56 3.91l29.25.44c18.81.3 34.11 15.84 34.11 34.64z" fill="#ff2828"/><path d="m512 258.3v113.01c0 19.11-15.54 34.65-34.65 34.65h-141.35v-374h41.46c20.41 0 37.68 14.61 41.05 34.75l25.57 152.6c.38 2.23 2.29 3.88 4.56 3.91l29.25.44c18.81.3 34.11 15.84 34.11 34.64z" fill="#c00"/><path d="m430.22 392.56c0 50.769-43.32 91.116-94.22 87.22-45.11-3.44-80.75-41.24-80.75-87.22s35.64-83.78 80.75-87.23c50.87-3.897 94.22 36.442 94.22 87.23z" fill="#00357b"/><path d="m430.22 392.56c0 50.769-43.32 91.116-94.22 87.22v-174.45c50.87-3.897 94.22 36.442 94.22 87.23z" fill="#001737"/><path d="m361.12 253.25h-96.97c-9.045 0-15.94-7.891-14.9-16.73l11.24-96.54c3.02-25.92 18.91-44.02 38.63-44.02 33.627 0 32.751-.216 36.88.65 17.37 3.58 30.66 21.82 32.57 46l7.5 94.46c.686 8.671-6.149 16.18-14.95 16.18z" fill="#ecf9fd"/><path d="m361.12 253.25h-25.12v-156.64c17.37 3.58 30.66 21.82 32.57 46l7.5 94.46c.686 8.671-6.149 16.18-14.95 16.18z" fill="#d9f3fc"/><g fill="#00357b"><path d="m104.145 189.958h-40c-8.284 0-15-6.716-15-15s6.716-15 15-15h40c8.284 0 15 6.716 15 15s-6.716 15-15 15z"/><path d="m104.145 317.958h-72c-8.284 0-15-6.716-15-15s6.716-15 15-15h72c8.284 0 15 6.716 15 15s-6.716 15-15 15z"/><path d="m104.145 253.958h-56c-8.284 0-15-6.716-15-15s6.716-15 15-15h56c8.284 0 15 6.716 15 15s-6.716 15-15 15z"/><path d="m104.145 381.958h-89.145c-8.284 0-15-6.716-15-15s6.716-15 15-15h89.145c8.284 0 15 6.716 15 15s-6.716 15-15 15z"/></g></g></svg>