<svg id="Capa_1" enable-background="new 0 0 512 512" height="512" viewBox="0 0 512 512" width="512" xmlns="http://www.w3.org/2000/svg"><g><path d="m511.749 146.64-26.2 227.29c-2.18 18.86-18.12 33.07-37.09 33.07h-247.73c-22.426 0-39.632-19.59-37.09-41.63l26.21-227.29c2.17-18.86 18.12-33.08 37.09-33.08h247.72c22.298 0 39.647 19.466 37.09 41.64z" fill="#58b354"/><path d="m511.749 146.64-26.2 227.29c-2.18 18.86-18.12 33.07-37.09 33.07h-130.06l39.19-302h117.07c22.298 0 39.647 19.466 37.09 41.64z" fill="#00a963"/><path d="m414.439 105-13.53 100.69c-1 7.45-7.35 13.01-14.87 13.01h-86.24c-9.047 0-16.078-7.991-14.86-17l13-96.7z" fill="#00357b"/><path d="m414.439 105-13.53 100.69c-1 7.45-7.35 13.01-14.87 13.01h-43.2l14.75-113.7z" fill="#001737"/><g fill="#00357b"><path d="m119.983 335.11h-104.983c-8.284 0-15-6.716-15-15s6.716-15 15-15h104.983c8.284 0 15 6.716 15 15s-6.715 15-15 15z"/><path d="m119.983 271.11h-88.004c-8.284 0-15-6.716-15-15s6.716-15 15-15h88.004c8.284 0 15 6.716 15 15s-6.715 15-15 15z"/><path d="m119.983 207.11h-72.003c-8.284 0-15-6.716-15-15s6.716-15 15-15h72.003c8.284 0 15 6.716 15 15s-6.715 15-15 15z"/></g></g></svg>