<svg id="Capa_1" enable-background="new 0 0 512 512" height="512" viewBox="0 0 512 512" width="512" xmlns="http://www.w3.org/2000/svg"><g><path d="m362.207 65.51v380.98c0 36.12-29.39 65.51-65.51 65.51h-218.98c-36.12 0-65.51-29.39-65.51-65.51v-380.98c0-36.12 29.391-65.51 65.51-65.51h218.98c36.12 0 65.51 29.39 65.51 65.51z" fill="#ecf9fd"/><path d="m362.207 65.51v380.98c0 36.12-29.39 65.51-65.51 65.51h-109.49v-512h109.49c36.12 0 65.51 29.39 65.51 65.51z" fill="#d9f3fc"/><path d="m195.21 447h-16c-19.85 0-19.85-30 0-30h16c19.84 0 19.85 30 0 30z" fill="#00357b"/><path d="m195.21 447h-8v-30h8c19.84 0 19.85 30 0 30z" fill="#001737"/><path d="m296.697 0h-218.98c-36.12 0-65.51 29.39-65.51 65.51v380.98c0 36.12 29.39 65.51 65.51 65.51h218.98c36.12 0 65.51-29.39 65.51-65.51v-380.98c0-36.12-29.39-65.51-65.51-65.51zm35.51 446.49c0 19.58-15.93 35.51-35.51 35.51h-218.98c-19.58 0-35.51-15.93-35.51-35.51v-380.98c0-19.58 15.93-35.51 35.51-35.51h38.49v25.15c0 21.97 16.48 39.85 36.74 39.85h68.52c20.26 0 36.74-17.88 36.74-39.85v-25.15h38.49c19.58 0 35.51 15.93 35.51 35.51z" fill="#00357b"/><path d="m362.207 65.51v380.98c0 36.12-29.39 65.51-65.51 65.51h-109.49v-30h109.49c19.58 0 35.51-15.93 35.51-35.51v-380.98c0-19.58-15.93-35.51-35.51-35.51h-38.49v25.15c0 21.97-16.48 39.85-36.74 39.85h-34.26v-95h109.49c36.12 0 65.51 29.39 65.51 65.51z" fill="#001737"/><path d="m427.507 113.083 2.7 22.917 18.534-1.683 40.299 40.299c10.936 10.936 13.411 26.881 7.969 40.001-3.879 9.404 5.587-1.656-161.284 165.215-14.342 14.342-37.562 14.34-51.902 0-50.299-50.299-40.939-36.536-47.616-60.833-20.498-3.856-12.567.65-34.833-21.616-14.342-14.342-14.34-37.562 0-51.902 162.879-162.877 158.265-164.062 179.266-164.062 19.013 0 26.765 11.562 46.867 31.664z" fill="#ffec00"/><path d="m406.591 92.167 20.916 20.916-1.3 21.917 22.832-.385 40.001 40.001c10.936 10.936 13.411 26.881 7.969 40.001-3.756 9.106-1.323 5.255-83.919 87.851l-134.35-134.35 75.95-75.95c14.342-14.343 37.561-14.341 51.901-.001z" fill="#ffd92e"/><path d="m427.592 113.169 21.22 21.22c-11.649 11.381-196.318 191.797-207.606 202.826l-21.22-21.22c11.288-11.029 195.957-191.446 207.606-202.826z" fill="#00357b"/><path d="m427.592 113.169 21.22 21.22-103.088 100.713-21.221-21.22z" fill="#001737"/></g></svg>