<svg id="Capa_1" enable-background="new 0 0 512 512" height="512" viewBox="0 0 512 512" width="512" xmlns="http://www.w3.org/2000/svg"><g><path d="m476.004 512h-440c-20.457 0-35.992-18.492-32.38-38.67 14.92-83.589 11.402-63.888 33.78-189.22 2.81-15.71 16.42-27.11 32.38-27.11h379.2c16.27 0 30.26 12.14 32.56 28.24l27.02 189.22c2.828 19.781-12.526 37.54-32.56 37.54z" fill="#ecf9fd"/><path d="m476.004 512h-220.37v-255h193.35c16.27 0 30.26 12.14 32.56 28.24l27.02 189.22c2.828 19.781-12.526 37.54-32.56 37.54z" fill="#d9f3fc"/><g><g><path d="m144.453 303.67-129.58 106.63 8.13-45.54 102.39-84.25c6.4-5.27 15.85-4.35 21.11 2.05 5.271 6.4 4.35 15.85-2.05 21.11z" fill="#00357b"/></g></g><g><g><path d="m422.033 512h-32.44l-62.55-151.96c-3.15-7.66.5-16.43 8.16-19.58s16.43.5 19.58 8.16z" fill="#001737"/></g></g><g><g><path d="m224.673 421.01-131.3 90.99h-52.67l166.89-115.65c6.81-4.72 16.15-3.02 20.87 3.79s3.021 16.15-3.79 20.87z" fill="#00357b"/></g></g><path d="m429.633 173.38c0 57.019-37.355 121.659-67.66 170.07-17.73 28.33-32.44 43.86-50.1 61.93-21.45 21.95-39.52 31.62-55.24 31.62-20.468 0-34.697-12.953-50.06-28.6-17.7-18.01-37.39-42.56-55.06-70.99-19.37-31.19-44.59-65.07-56.71-103.03-6.9-21.61-11.17-42.6-11.17-61 0-95.27 77.07-172.83 172-173.38 98.978 0 174 79.992 174 173.38z" fill="#00357b"/><path d="m429.633 173.38c0 57.019-37.355 121.659-67.66 170.07-17.73 28.33-32.44 43.86-50.1 61.93-21.45 21.95-39.52 31.62-55.24 31.62-1.495 0-1 33.528-1-437 98.978 0 174 79.992 174 173.38z" fill="#001737"/><path d="m381.633 171c0 71.874-60.344 126.817-126.07 124.99-68.55-.57-123.93-56.31-123.93-124.99 0-68.7 55.42-124.45 123.99-124.99 65.035-1.914 126.01 52.624 126.01 124.99z" fill="#d9f3fc"/><path d="m381.633 171c0 71.874-60.344 126.817-126.07 124.99.141-269.183-.424-249.99 1.07-249.99 69.04 0 125 55.96 125 125z" fill="#d9f3fc"/><path d="m274.393 156.92c-1.4-.5-2.81-1-4.24-1.52v-30.79c3.155 1.984 5.353 5.47 12.03 5.47 14.195 0 20.279-18.554 8.88-27.3-4.34-3.7-11.62-7.98-20.91-10.23v-4.12c0-8.353-6.785-15-15-15-8.28 0-15 6.71-15 15 0 4.324.08 5.08-.02 5.08-32.242 9.696-40.591 53.243-16.76 71.95 4.81 3.77 10.56 7.06 16.78 10.03v44.54c-3.4-.96-6.59-2.64-11.07-5.57-6.93-4.53-16.23-2.59-20.76 4.34-4.54 6.93-2.6 16.23 4.34 20.77 10.45 6.83 18.27 9.8 27.49 10.98v4.64c0 8.904 7.782 15.536 15.42 14.99 8.1-.22 14.58-6.84 14.58-14.99v-6.18c43.051-13.151 50.804-75.634 4.24-92.09zm-34.24-17.94c-.663-2.236-.558-4.707 0-7zm30 75.88v-26.67c8.725 6.516 7.066 19.215 0 26.67z" fill="#58b354"/><path d="m274.393 156.92c-1.4-.5-2.81-1-4.24-1.52v-30.79c3.155 1.984 5.353 5.47 12.03 5.47 14.195 0 20.279-18.554 8.88-27.3-4.34-3.7-11.62-7.98-20.91-10.23v-4.12c0-8.13-6.46-14.74-14.53-14.99 0 83-.02 147.16-.05 196.74 8.1-.22 14.58-6.84 14.58-14.99v-6.18c43.051-13.151 50.804-75.634 4.24-92.09zm-4.24 57.94v-26.67c8.725 6.516 7.066 19.215 0 26.67z" fill="#00a963"/></g></svg>