<svg id="Capa_1" enable-background="new 0 0 511.998 511.998" height="512" viewBox="0 0 511.998 511.998" width="512" xmlns="http://www.w3.org/2000/svg"><g><path d="m509.11 358.538c-6.41 17.74-22.82 26.99-24.74 26.99-131.934 59.061-20.767 9.299-90.12 40.34-174.594 71.203-171.383 74.454-194.65 65.71-25.69-9.67-10.03 9.14-140.86-223.01-9.16-15.99-10.93-42.75 1.65-62.85 87.14-154.609 100.772-188.352 137.17-188.72 2.395.165-16.213-3.73 181.47 39.86 16.66 3.89 37.16 19.59 47.12 41.22.38.83-5.8-16.08 81.58 224.09 5.17 11.6 5.66 24.49 1.38 36.37z" fill="#001737"/><path d="m398.65 216.528v229.41c0 27.04-21.88 49.03-48.78 49.03h-301.09c-26.89 0-48.78-21.99-48.78-49.03v-229.41c0-21.57 9.07-42.29 24.89-56.85 149.664-137.752 148.542-142.436 172.67-142.68 27.928 0 19.219-1.827 176.2 142.68 15.82 14.56 24.89 35.28 24.89 56.85z" fill="#ffec00"/><path d="m398.655 216.532v229.41c0 27.04-21.886 49.03-48.78 49.03h-150.548v-477.98c25.837-.054 21.069 1.517 174.436 142.69 15.817 14.56 24.892 35.28 24.892 56.85z" fill="#ffd92e"/><path d="m214.352 111.972c0 19.838-30.049 19.833-30.049 0 0-19.836 30.049-19.833 30.049 0z" fill="#00357b"/><path d="m199.327 126.972c0-31.825-1.62-31.13 4.367-29.35 16.711 5.443 12.537 29.35-4.367 29.35z" fill="#001737"/><path d="m249.99 221.868c-62.872 149.858-44.661 106.453-73.02 174.04-2.41 5.75-7.98 9.2-13.84 9.2-10.63 0-17.99-10.87-13.83-20.8 7.515-17.908 39.328-93.726 73.03-174.04 3.21-7.64 12-11.24 19.64-8.03 7.63 3.2 11.23 12 8.02 19.63z" fill="#ff2828"/><path d="m249.99 221.868-50.66 120.75v-77.54l23-54.81c3.21-7.64 12-11.24 19.64-8.03 7.63 3.2 11.23 12 8.02 19.63z" fill="#c00"/><path d="m171.664 245.46c0-28.95-21.204-52.503-47.267-52.503s-47.267 23.553-47.267 52.503 21.204 52.503 47.267 52.503 47.267-23.553 47.267-52.503zm-47.267 22.503c-9.36 0-17.266-10.305-17.266-22.503s7.906-22.503 17.266-22.503 17.266 10.305 17.266 22.503-7.906 22.503-17.266 22.503z" fill="#ff2828"/><path d="m275.758 311.951c-26.063 0-47.267 23.553-47.267 52.503s21.204 52.503 47.267 52.503 47.267-23.553 47.267-52.503-21.203-52.503-47.267-52.503zm0 75.006c-9.36 0-17.266-10.305-17.266-22.503s7.906-22.503 17.266-22.503 17.266 10.305 17.266 22.503-7.906 22.503-17.266 22.503z" fill="#c00"/></g></svg>