<svg id="Capa_1" enable-background="new 0 0 512 512" height="512" viewBox="0 0 512 512" width="512" xmlns="http://www.w3.org/2000/svg"><g><path d="m375.925 244.389 122.24 122.11c29.731 29.7 8.268 80.236-33.276 80.235-25.988-.014-23.147-3.663-155.091-135.467-5.868-5.862-5.868-15.351 0-21.213 5.474-5.469 38.801-39.58 44.892-45.665 5.861-5.855 15.374-5.854 21.235 0z" fill="#ff2828"/><path d="m375.925 244.389 122.24 122.11c18.341 18.321 18.341 48.133 0 66.468-1.365 1.363 11.769 13.58-166.828-164.827 10.052-10.253 20.33-20.732 23.352-23.752 5.862-5.854 15.375-5.853 21.236.001z" fill="#c00"/><path d="m352.521 107.521c49.667 49.614 50.52 130.905-.198 181.569-50.01 49.74-131.31 49.805-181.365-.198-50.065-50.012-50.052-131.372 0-181.371 50.053-49.999 131.504-50.006 181.563 0z" fill="#ecf9fd"/><path d="m352.521 107.521c49.667 49.614 50.52 130.905-.198 181.569-190.246-190.045-181.673-181.261-181.365-181.569 50.053-49.999 131.504-50.006 181.563 0z" fill="#d9f3fc"/><path d="m355.886 104.163c-51.507-51.453-135.894-52.34-188.495.205-83.466 83.743-23.504 226.801 94.35 226.776 117.617 0 178.302-142.913 94.145-226.981zm-21.236 166.877c-40.097 40.055-105.512 40.263-145.818 0-40.146-40.103-40.265-105.442 0-145.664 40.186-40.143 105.611-40.165 145.818 0 40.199 40.157 40.199 105.507 0 145.664z" fill="#00357b"/><path d="m355.886 104.163c51.899 51.844 51.915 136.231 0 188.09-.319.319 1.428 1.836-21.441-21.008 40.911-40.868 39.977-106.139.205-145.869-40.186-40.143-105.611-40.165-145.818 0-.319.319 1.428 1.836-21.441-21.008 52.542-52.487 136.927-51.718 188.495-.205z" fill="#001737"/><g fill="#58b354"><path d="m14.9 240.059h64.068c19.853 0 19.881-30 0-30h-64.068c-19.853 0-19.881 30 0 30z"/><path d="m14.9 304.059h88.093c19.853 0 19.881-30 0-30h-88.093c-19.853 0-19.881 30 0 30z"/><path d="m14.9 368.059h152.161c19.853 0 19.881-30 0-30h-152.161c-19.853 0-19.881 30 0 30z"/><path d="m343.248 402.059h-328.348c-19.853 0-19.881 30 0 30h328.348c19.853 0 19.881-30 0-30z"/></g></g></svg>