<svg id="Capa_1" enable-background="new 0 0 512 512" height="512" viewBox="0 0 512 512" width="512" xmlns="http://www.w3.org/2000/svg"><g><path d="m503.3 66.59v368.94c0 7.561-166.241 4.87-435.63 4.87-32.52 0-58.97-26.46-58.97-58.97v-314.84c0-32.51 26.45-58.96 58.97-58.96h376.66c32.52 0 58.97 26.45 58.97 58.96z" fill="#ecf9fd"/><path d="m503.3 66.59v368.94c0 8.079-228.144 4.87-247.3 4.87v-432.77h188.33c32.52 0 58.97 26.45 58.97 58.96z" fill="#d9f3fc"/><path d="m375.81 433.19-.81 64c-.11 8.21-6.79 14.81-15 14.81h-209.75c-8.28 0-15-6.72-15-15v-64c0-8.28 6.72-15 15-15h210.56c8.358 0 15.104 6.841 15 15.19z" fill="#006aad"/><path d="m375.81 433.19-.81 64c-.11 8.21-6.79 14.81-15 14.81h-104v-94h104.81c8.358 0 15.104 6.841 15 15.19z" fill="#004397"/><path d="m352 482h-264c-8.28 0-15 6.72-15 15s6.72 15 15 15h264c8.28 0 15-6.72 15-15s-6.72-15-15-15z" fill="#00357b"/><path d="m367 497c0 8.28-6.72 15-15 15h-96v-30h96c8.28 0 15 6.72 15 15z" fill="#001737"/><path d="m450.96 0h-389.92c-33.66 0-61.04 27.38-61.04 61.04v325.92c0 33.66 27.38 61.04 61.04 61.04 421.484 0 402.207.473 402.16-.85l33.87-.15c8.26-.04 14.93-6.74 14.93-15v-370.96c0-33.66-27.38-61.04-61.04-61.04zm-420.96 61.04c0-17.12 13.92-31.04 31.04-31.04h389.92c17.12 0 31.04 13.92 31.04 31.04v292.96h-452z" fill="#00357b"/><path d="m512 61.04v370.96c0 8.26-6.67 14.96-14.93 15l-33.87.15c.045 1.272 15.914.85-207.2.85v-94h226v-292.96c0-17.12-13.92-31.04-31.04-31.04h-194.96v-30h194.96c33.66 0 61.04 27.38 61.04 61.04z" fill="#001737"/><path d="m432 97h-28.02l-52.54-30.02c-5.87-3.36-13.26-2.37-18.05 2.41l-77.39 77.4-61.39-61.4c-6.83-6.83-18.271-5.504-23.36 2.71l-104 168c-6.216 10.051 1.107 22.9 12.74 22.9 5.02 0 9.93-2.52 12.76-7.1l94.04-151.9 58.6 58.61c5.825 5.825 15.339 5.882 21.22 0l79.89-79.9c50.863 29.053 48.165 28.29 53.5 28.29h32c8.28 0 15-6.72 15-15s-6.72-15-15-15z" fill="#ffec00"/><path d="m447 112c0 8.28-6.72 15-15 15h-32c-5.37 0-2.688.734-53.5-28.29l-79.89 79.9c-2.93 2.93-6.77 4.39-10.61 4.39v-36.21l77.39-77.4c4.79-4.78 12.18-5.77 18.05-2.41l52.54 30.02h28.02c8.28 0 15 6.72 15 15z" fill="#ffd92e"/><path d="m299.81 289h-204.81v-209c0-8.28-6.72-15-15-15s-15 6.72-15 15v224c0 8.28 6.72 15 15 15h219.81c8.28 0 15-6.72 15-15s-6.72-15-15-15z" fill="#ff2828"/><path d="m314.81 304c0 8.28-6.72 15-15 15h-43.81v-30h43.81c8.28 0 15 6.72 15 15z" fill="#c00"/><path d="m508 247.77v209.46c0 27.1-22.05 49.15-49.15 49.15h-120.89c-27.1 0-49.15-22.05-49.15-49.15v-209.46c0-27.1 22.05-49.15 49.15-49.15h120.89c27.1 0 49.15 22.05 49.15 49.15z" fill="#ecf9fd"/><path d="m508 247.77v209.46c0 27.1-22.05 49.15-49.15 49.15h-58.85v-307.76h58.85c27.1 0 49.15 22.05 49.15 49.15z" fill="#d9f3fc"/><path d="m461.05 193h-125.3c-28.09 0-50.94 22.85-50.94 50.95v217.1c0 28.1 22.85 50.95 50.94 50.95h125.3c28.1 0 50.95-22.85 50.95-50.95v-217.1c0-28.1-22.85-50.95-50.95-50.95zm20.95 268.05c0 11.55-9.4 20.95-20.95 20.95h-125.3c-11.54 0-20.94-9.4-20.94-20.95v-217.1c0-11.55 9.4-20.95 20.94-20.95h13.91v19.96c0 20.34 12.42 36.27 28.27 36.27h41.82c15.86 0 28.27-15.93 28.27-36.27v-19.96h13.03c11.55 0 20.95 9.4 20.95 20.95z" fill="#00357b"/><path d="m512 243.95v217.1c0 28.1-22.85 50.95-50.95 50.95h-61.05v-30h61.05c11.55 0 20.95-9.4 20.95-20.95v-217.1c0-11.55-9.4-20.95-20.95-20.95h-13.03v19.96c0 20.34-12.41 36.27-28.27 36.27h-19.75v-86.23h61.05c28.1 0 50.95 22.85 50.95 50.95z" fill="#001737"/><path d="m409.85 417.2h-19.7c-8.28 0-15 6.72-15 15s6.72 15 15 15h19.7c8.28 0 15-6.72 15-15s-6.72-15-15-15z" fill="#00357b"/><path d="m424.85 432.2c0 8.28-6.72 15-15 15h-9.85v-30h9.85c8.28 0 15 6.72 15 15z" fill="#001737"/></g></svg>