<svg id="Capa_1" enable-background="new 0 0 512 512" height="512" viewBox="0 0 512 512" width="512" xmlns="http://www.w3.org/2000/svg"><g><path d="m470.128 241h-102.128c-8.284 0-15 6.716-15 15v181c0 41.355 33.645 75 75 75s75-33.645 75-75v-163.127c0-18.126-14.746-32.873-32.872-32.873z" fill="#001737"/><path d="m428 512h-314.99c-57.35 0-104.01-46.66-104.01-104.01v-344.68c0-34.91 28.4-63.31 63.31-63.31h247.38c34.91 0 63.31 28.4 63.31 63.31v373.69c1 67 45 75 45 75z" fill="#ecf9fd"/><path d="m428 512h-232v-512h123.69c34.91 0 63.31 28.4 63.31 63.31v373.69c1 67 45 75 45 75z" fill="#d9f3fc"/><g fill="#00357b"><path d="m160 231h-76c-8.284 0-15-6.716-15-15s6.716-15 15-15h76c8.284 0 15 6.716 15 15s-6.716 15-15 15z"/><path d="m160 265h-76c-8.284 0-15 6.716-15 15s6.716 15 15 15h76c8.284 0 15-6.716 15-15s-6.716-15-15-15z"/><path d="m323 152c0 8.28-6.72 15-15 15h-224c-8.28 0-15-6.72-15-15s6.72-15 15-15h224c8.28 0 15 6.72 15 15z"/></g><path d="m323 152c0 8.28-6.72 15-15 15h-112v-30h112c8.28 0 15 6.72 15 15z" fill="#001737"/><path d="m323 96c0 8.28-6.72 15-15 15h-224c-8.28 0-15-6.72-15-15s6.72-15 15-15h224c8.28 0 15 6.72 15 15z" fill="#00357b"/><path d="m308 111h-112v-30h112c8.28 0 15 6.72 15 15s-6.72 15-15 15z" fill="#001737"/><path d="m283.13 303.72c-2.52-.89-5.08-1.81-7.65-2.76v-46.41c9.03 3.51 9.65 7.99 17.61 7.99 13.34 0 20.02-16.26 10.53-25.64.3-.33-11.5-10.1-28.14-13.46v-7.97c0-8.29-6.71-15-15-15-8.28 0-15 6.71-15 15v9.02c-41.197 10.814-49.169 63.643-21.48 84.13 5.63 4.32 12.47 8.32 21.48 12.46v61.9c-10.906-1.611-18.086-8.101-21.48-9.53-6.59-2.89-14.49-.68-18.55 5.53-4.54 6.94-2.59 16.23 4.34 20.77 12.084 7.915 22.056 12.129 35.69 13.38v8.98c0 8.29 6.72 15 15 15 8.29 0 15-6.71 15-15v-10.37c52.46-13.32 62.76-88.54 7.65-108.02zm-37.65-16.64c-1.3-.85-2.53-1.71-3.65-2.59-6.39-5.01-5.44-19.97 3.65-27.34zm30 92.52v-46.66c21.89 9.5 16.66 36.8 0 46.66z" fill="#00a963"/></g></svg>