<svg id="Capa_1" enable-background="new 0 0 512 512" height="512" viewBox="0 0 512 512" width="512" xmlns="http://www.w3.org/2000/svg"><g><path d="m431.67 456.774c0 8.29-6.72 15-15 15h-43.42c-15.34 0-27.82-12.48-27.82-27.82v-74.88c0-.95-.77-1.73-1.73-1.73h-72.7v49.27c0 8.28-6.72 15-15 15s-15-6.72-15-15v-49.27h-72.7c-.96 0-1.73.78-1.73 1.73v74.88c0 15.34-12.48 27.82-27.82 27.82h-43.42c-8.28 0-15-6.71-15-15 0-8.28 6.72-15 15-15h41.24v-72.7c0-17.5 14.23-31.73 31.73-31.73h72.7v-57.3c0-8.28 6.72-15 15-15s15 6.72 15 15v57.3h72.7c17.5 0 31.73 14.23 31.73 31.73v72.7h41.24c8.28 0 15 6.72 15 15z" fill="#00357b"/><path d="m431.67 456.774c0 8.29-6.72 15-15 15h-43.42c-15.34 0-27.82-12.48-27.82-27.82v-74.88c0-.95-.77-1.73-1.73-1.73h-72.7v49.27c0 8.28-6.72 15-15 15v-166.57c8.28 0 15 6.72 15 15v57.3h72.7c17.5 0 31.73 14.23 31.73 31.73v72.7h41.24c8.28 0 15 6.72 15 15z" fill="#001737"/><path d="m311.17 456.774c0 30.42-24.75 55.17-55.17 55.17s-55.17-24.75-55.17-55.17 24.75-55.16 55.17-55.16 55.17 24.74 55.17 55.16z" fill="#58b354"/><path d="m311.17 456.774c0 30.42-24.75 55.17-55.17 55.17v-110.33c30.42 0 55.17 24.74 55.17 55.16z" fill="#00a963"/><path d="m55.167 401.611c-30.419 0-55.167 24.747-55.167 55.166s24.748 55.167 55.167 55.167 55.167-24.748 55.167-55.167-24.749-55.166-55.167-55.166z" fill="#ff2828"/><path d="m456.833 401.611c-30.419 0-55.167 24.747-55.167 55.166s24.748 55.167 55.167 55.167 55.167-24.748 55.167-55.167-24.748-55.166-55.167-55.166z" fill="#c00"/><path d="m512 191.674c0 59.065-48.175 103.557-104.03 103.68-300.527.632-302.589.64-303.31.64-56.756.014-104.66-44.429-104.66-108.33 0-72.2 63.659-127.11 132.65-113.33 24.848-85.609 139.626-101.054 186.69-26.18 26.76-.35 51.14 12.48 65.99 33.92 66-12.512 126.67 40.383 126.67 109.6z" fill="#ecf9fd"/><path d="m512 191.674c0 59.065-48.175 103.557-104.03 103.68l-151.97.32v-292.93c26.11 6.18 48.82 22.31 63.34 45.41 26.76-.35 51.14 12.48 65.99 33.92 66-12.512 126.67 40.383 126.67 109.6z" fill="#d9f3fc"/></g></svg>