<svg id="Capa_1" enable-background="new 0 0 512 512" height="512" viewBox="0 0 512 512" width="512" xmlns="http://www.w3.org/2000/svg"><g><path d="m512 113.792v332c0 29.46-23.97 53.42-53.43 53.42h-405.14c-29.46 0-53.43-23.96-53.43-53.42v-332c0-29.46 23.97-53.43 53.43-53.43h405.14c29.46-.001 53.43 23.97 53.43 53.43z" fill="#ecf9fd"/><path d="m512 113.792v332c0 29.46-23.97 53.42-53.43 53.42h-202.57v-438.851h202.57c29.46 0 53.43 23.971 53.43 53.431z" fill="#d9f3fc"/><path d="m458.57 60.361h-316.34v-32.57c0-8.29-6.71-15-15-15-8.28 0-15 6.71-15 15v32.57h-58.8c-29.46 0-53.43 23.971-53.43 53.431v332c0 29.46 23.97 53.42 53.43 53.42h405.14c29.46 0 53.43-23.96 53.43-53.42v-332c0-29.46-23.97-53.431-53.43-53.431zm23.43 385.431c0 12.91-10.51 23.42-23.43 23.42h-405.14c-12.92 0-23.43-10.51-23.43-23.42v-332c0-12.92 10.51-23.43 23.43-23.43h58.8v25.43c0 8.28 6.72 15 15 15 8.29 0 15-6.72 15-15v-25.43h316.34c12.92 0 23.43 10.51 23.43 23.43z" fill="#00357b"/><path d="m458.57 60.361h-59.806v-32.572c0-8.284-6.716-15-15-15s-15 6.716-15 15v32.573h-112.764v30h112.764v25.427c0 8.284 6.716 15 15 15s15-6.716 15-15v-25.428h59.806c12.92 0 23.43 10.51 23.43 23.43v332c0 12.91-10.51 23.42-23.43 23.42h-202.57v30h202.57c29.46 0 53.43-23.96 53.43-53.42v-332c0-29.459-23.97-53.43-53.43-53.43z" fill="#001737"/><g fill="#00357b"><path d="m191 287.001c-8.284 0-15-6.716-15-15v-65h-32.422c-8.284 0-15-6.716-15-15s6.716-15 15-15h47.422c8.284 0 15 6.716 15 15v80c0 8.285-6.716 15-15 15z"/><path d="m223 415.001h-24c-8.284 0-15-6.716-15-15s6.716-15 15-15h24c8.284 0 15 6.716 15 15s-6.716 15-15 15z"/><path d="m327 415.001h-24c-8.284 0-15-6.716-15-15s6.716-15 15-15h24c8.284 0 15 6.716 15 15s-6.716 15-15 15z"/></g><path d="m371.09 257.021-21.34 81.31c-2.58 9.81-11.47 16.67-21.62 16.67h-129.78c-12.32 0-22.35-10.03-22.35-22.35v-81.3c0-12.32 10.03-22.35 22.35-22.35h151.12c14.644 0 25.338 13.842 21.62 28.02z" fill="#ffec00"/><path d="m371.09 257.021-21.34 81.31c-2.58 9.81-11.47 16.67-21.62 16.67h-72.13v-126h93.47c14.644 0 25.338 13.842 21.62 28.02z" fill="#ffd92e"/></g></svg>