<svg id="Capa_1" enable-background="new 0 0 512 512" height="512" viewBox="0 0 512 512" width="512" xmlns="http://www.w3.org/2000/svg"><g><path d="m424.848 72.207v367.586c0 34.85-28.357 63.207-63.207 63.207h-211.282c-34.85 0-63.207-28.357-63.207-63.207v-367.586c0-34.85 28.357-63.207 63.207-63.207h211.281c34.851 0 63.208 28.357 63.208 63.207z" fill="#ecf9fd"/><path d="m424.848 72.207v367.586c0 34.85-28.357 63.207-63.207 63.207h-105.641v-494h105.641c34.85 0 63.207 28.357 63.207 63.207z" fill="#d9f3fc"/><path d="m365.49 0h-218.98c-36.12 0-65.51 29.39-65.51 65.51v380.98c0 36.12 29.39 65.51 65.51 65.51h218.98c36.12 0 65.51-29.39 65.51-65.51v-380.98c0-36.12-29.39-65.51-65.51-65.51zm35.51 446.49c0 19.58-15.93 35.51-35.51 35.51h-218.98c-19.58 0-35.51-15.93-35.51-35.51v-380.98c0-19.58 15.93-35.51 35.51-35.51h38.49v25.15c0 21.97 16.48 39.85 36.74 39.85h68.52c20.26 0 36.74-17.88 36.74-39.85v-25.15h38.49c19.58 0 35.51 15.93 35.51 35.51z" fill="#00357b"/><path d="m431 65.51v380.98c0 36.12-29.39 65.51-65.51 65.51h-109.49v-30h109.49c19.58 0 35.51-15.93 35.51-35.51v-380.98c0-19.58-15.93-35.51-35.51-35.51h-38.49v25.15c0 21.97-16.48 39.85-36.74 39.85h-34.26v-95h109.49c36.12 0 65.51 29.39 65.51 65.51z" fill="#001737"/><path d="m264 447h-16c-19.844 0-19.85-30 0-30h16c19.844 0 19.85 30 0 30z" fill="#00357b"/><path d="m264 447h-8v-30h8c19.844 0 19.85 30 0 30z" fill="#001737"/><path d="m279.33 241.26c-3.03-1.07-6.12-2.18-9.2-3.34v-53.2c7.69 2.55 10.61 5.71 10.72 5.59 6.09 5.64 15.64 5.32 21.28-.81 5.04-5.49 5.81-14.5-.94-21.24 0-.22-12.32-11.03-31.06-14.49v-9.77c0-7.99-6.25-14.52-14.13-14.97-8.456-.582-15.87 6.268-15.87 14.97v10.82c-44.28 11.03-53.22 66.48-24.62 88.92 6.35 4.98 14.13 9.54 24.62 14.31v69.68c-8-.95-13.78-3.42-23.01-9.45-6.93-4.54-16.23-2.6-20.76 4.34-4.54 6.93-2.6 16.23 4.34 20.76 15.41 10.08 26.18 13.47 39.43 14.5v10.94c0 8.28 6.71 15 15 15 8.232 0 15-6.674 15-15v-12.31c56.32-13.34 68.6-94.25 9.2-115.25zm-39.2-16.97c-2.24-1.35-4.3-2.74-6.11-4.16-8.28-6.49-6.21-25.74 6.11-33.35zm30 100.49v-54.93c27.57 10.39 21.31 44.29 0 54.93z" fill="#58b354"/><path d="m279.33 241.26c-3.03-1.07-6.12-2.18-9.2-3.34v-53.2c7.69 2.55 10.61 5.71 10.72 5.59 6.09 5.64 15.64 5.32 21.28-.81 5.04-5.49 5.81-14.5-.94-21.24 0-.22-12.32-11.03-31.06-14.49v-9.77c0-7.99-6.25-14.52-14.13-14.97v254.76c7.88-.45 14.13-6.98 14.13-14.97v-12.31c56.32-13.34 68.6-94.25 9.2-115.25zm-9.2 83.52v-54.93c27.57 10.39 21.31 44.29 0 54.93z" fill="#00a963"/></g></svg>