<svg id="Capa_1" enable-background="new 0 0 512 512" height="512" viewBox="0 0 512 512" width="512" xmlns="http://www.w3.org/2000/svg"><g><path d="m512 88v336c0 8.28-6.72 15-15 15h-482c-8.28 0-15-6.72-15-15v-336c0-8.28 6.72-15 15-15h482c8.28 0 15 6.72 15 15z" fill="#ecf9fd"/><path d="m512 88v336c0 8.28-6.72 15-15 15h-241v-366h241c8.28 0 15 6.72 15 15z" fill="#d9f3fc"/><path d="m496 439h-480c-19.844 0-19.85-30 0-30h480c19.844 0 19.85 30 0 30z" fill="#00357b"/><path d="m496 439h-240v-30h240c19.844 0 19.85 30 0 30z" fill="#001737"/><path d="m496 103h-480c-19.844 0-19.85-30 0-30h480c19.844 0 19.85 30 0 30z" fill="#00357b"/><path d="m496 103h-240v-30h240c19.844 0 19.85 30 0 30z" fill="#001737"/><path d="m128 137h-64c-8.28 0-15 6.72-15 15v192c0 8.28 6.72 15 15 15h64c8.28 0 15-6.72 15-15v-192c0-8.28-6.72-15-15-15zm-15 192h-34v-162h34z" fill="#00357b"/><path d="m320 137h-64c-8.28 0-15 6.72-15 15v192c0 8.28 6.72 15 15 15h64c8.28 0 15-6.72 15-15v-192c0-8.28-6.72-15-15-15zm-15 192h-34v-162h34z" fill="#00357b"/><path d="m320 137h-64v222h64c8.28 0 15-6.72 15-15v-192c0-8.28-6.72-15-15-15zm-15 192h-34v-162h34z" fill="#001737"/><path d="m177 344v-192c0-19.832 30-19.86 30 0v192c0 19.832-30 19.86-30 0z" fill="#00357b"/><g fill="#001737"><path d="m369 344v-192c0-19.832 30-19.86 30 0v192c0 19.832-30 19.86-30 0z"/><path d="m433 344v-192c0-19.832 30-19.86 30 0v192c0 19.832-30 19.86-30 0z"/></g></g></svg>