<svg id="Capa_1" enable-background="new 0 0 512 512" height="512" viewBox="0 0 512 512" width="512" xmlns="http://www.w3.org/2000/svg"><g><path d="m111.4 377.19h-61.678c-27.417 0-49.722-22.373-49.722-49.873v-61.946c0-8.284 6.716-15 15-15s15 6.716 15 15v61.946c0 10.958 8.847 19.873 19.722 19.873h61.678c8.284 0 15 6.716 15 15s-6.716 15-15 15z" fill="#00357b"/><path d="m462.276 377.191h-71.697c-8.284 0-15-6.716-15-15s6.716-15 15-15h71.697c10.876 0 19.724-8.915 19.724-19.872v-61.952c0-8.284 6.716-15 15-15s15 6.716 15 15v61.952c0 27.5-22.306 49.872-49.724 49.872z" fill="#001737"/><path d="m15.163 126.895c-8.284 0-15-6.716-15-15v-61.737c0-27.435 22.252-49.755 49.604-49.755h61.47c8.284 0 15 6.716 15 15s-6.716 15-15 15h-61.47c-10.81 0-19.604 8.862-19.604 19.755v61.737c0 8.285-6.716 15-15 15z" fill="#00357b"/><path d="m496.837 126.895c-8.284 0-15-6.716-15-15v-61.737c0-10.893-8.794-19.755-19.604-19.755h-61.47c-8.284 0-15-6.716-15-15s6.716-15 15-15h61.47c27.352 0 49.604 22.32 49.604 49.755v61.737c0 8.285-6.715 15-15 15z" fill="#001737"/><path d="m271 78.793v65.86c0 8.29-6.72 15-15 15s-15-6.71-15-15v-65.86c0-8.28 6.72-15 15-15s15 6.72 15 15z" fill="#58b354"/><path d="m271 78.793v65.86c0 8.29-6.72 15-15 15v-95.86c8.28 0 15 6.72 15 15z" fill="#00a963"/><path d="m191.733 172.087c-8.284 0-15-6.716-15-15v-78.291c0-8.284 6.716-15 15-15s15 6.716 15 15v78.291c0 8.284-6.715 15-15 15z" fill="#58b354"/><path d="m127.467 277.418c-8.284 0-15-6.716-15-15v-183.622c0-8.284 6.716-15 15-15s15 6.716 15 15v183.622c0 8.284-6.716 15-15 15z" fill="#58b354"/><path d="m320.267 186.059c-8.284 0-15-6.716-15-15v-92.263c0-8.284 6.716-15 15-15s15 6.716 15 15v92.264c0 8.284-6.716 14.999-15 14.999z" fill="#00a963"/><path d="m384.533 175.218c-8.284 0-15-6.716-15-15v-81.426c0-8.284 6.716-15 15-15s15 6.716 15 15v81.426c0 8.284-6.716 15-15 15z" fill="#00a963"/><path d="m359.798 308.868 122.033 122.372c18.215 18.272 18.293 47.963.219 66.32-19.299 19.299-48.909 18.054-66.687.219l-121.63-121.969c-5.848-5.862-5.841-15.358.035-21.206 4.724-4.701 38.347-39.294 44.816-45.764 5.863-5.848 15.366-5.834 21.214.028z" fill="#ff2828"/><path d="m359.798 308.868 122.033 122.372c18.215 18.272 18.293 47.963.219 66.32l-165.859-165.86c9.729-9.97 19.467-19.933 22.394-22.861 5.862-5.847 15.365-5.833 21.213.029z" fill="#c00"/><path d="m335.204 171.983c49.366 49.514 49.173 130.043-.007 179.223-49.415 49.553-129.402 49.549-178.84 0-49.693-49.842-48.861-130.355.054-179.27 49.408-49.491 129.356-49.502 178.793.047z" fill="#ecf9fd"/><path d="m335.204 171.983c49.186 49.334 49.273 129.539.235 178.981l-179.028-179.028c49.408-49.491 129.356-49.502 178.793.047z" fill="#d9f3fc"/><path d="m151.774 167.383c-51.81 51.951-51.803 136.472-.007 188.423 51.256 51.371 135.086 52.934 188.274-.254 51.555-51.98 51.463-136.302-.247-188.168-51.595-51.713-135.546-52.475-188.02-.001zm94.003 197.466c-91.096 0-137.595-111.266-72.761-176.282 40.531-40.531 105.477-40.147 145.537 0 64.539 64.722 18.596 176.282-72.776 176.282z" fill="#00357b"/><path d="m339.794 167.383c51.711 51.866 51.802 136.189.247 188.168l-21.22-21.22c39.881-40.291 39.789-105.592-.269-145.763-40.226-40.314-105.275-40.349-145.516-.021l-21.213-21.213c51.945-52.031 135.996-52.043 187.971.049z" fill="#001737"/></g></svg>