<svg id="Capa_1" enable-background="new 0 0 512.098 512.098" height="512" viewBox="0 0 512.098 512.098" width="512" xmlns="http://www.w3.org/2000/svg"><g><path d="m87.537 223.007c-11.005 0-18.413-11.643-13.418-21.684l96-193c3.689-7.417 12.693-10.44 20.11-6.75 7.417 3.689 10.439 12.693 6.75 20.11l-96 193c-2.622 5.273-7.928 8.324-13.442 8.324z" fill="#ffec00"/><path d="m407.561 223.007c-5.514 0-10.82-3.051-13.442-8.323l-96-193c-3.689-7.417-.667-16.421 6.75-20.11 7.417-3.691 16.421-.667 20.11 6.75l96 193c4.997 10.046-2.414 21.683-13.418 21.683z" fill="#ffd92e"/><path d="m464.329 290.544-27.42 159.8c-5.59 33.22-22.14 54.44-46.24 60.12-4.452 2.203 15.819 1.54-245.62 1.54-2.38 0-4.62-.55-6.62-1.54-24.09-5.68-40.65-26.91-46.25-60.17-15.801-92.085 6.53 38.086-27.41-159.75-1.581-9.19 5.506-17.54 14.78-17.54h370c9.288 0 16.358 8.365 14.78 17.54z" fill="#ffec00"/><path d="m464.329 290.544-27.42 159.8c-5.59 33.22-22.14 54.44-46.24 60.12-4.407 2.181 4.785 1.54-135.62 1.54v-239h194.5c9.288 0 16.358 8.365 14.78 17.54z" fill="#ffd92e"/><path d="m486.549 229.424v37.16c0 20.08-16.34 36.42-36.42 36.42h-405.16c-20.08 0-36.42-16.34-36.42-36.42v-37.16c0-20.08 16.34-36.42 36.42-36.42h405.16c20.08 0 36.42 16.34 36.42 36.42z" fill="#00357b"/><path d="m486.549 229.424v37.16c0 20.08-16.34 36.42-36.42 36.42h-195.08v-110h195.08c20.08 0 36.42 16.34 36.42 36.42z" fill="#001737"/><path d="m303.199 352.004c0 8.28-6.72 15-15 15h-112.65c-8.28 0-15-6.72-15-15s6.72-15 15-15h112.65c8.28 0 15 6.72 15 15z" fill="#ff2828"/><path d="m296.839 416.004c0 8.28-6.72 15-15 15h-26.79v-30h26.79c8.28 0 15 6.72 15 15z" fill="#c00"/><path d="m296.839 416.004c0 8.28-6.72 15-15 15h-192.97l-5.15-30h198.12c8.28 0 15 6.72 15 15z" fill="#ff2828"/><path d="m303.199 352.004c0 8.28-6.72 15-15 15h-33.15v-30h33.15c8.28 0 15 6.72 15 15z" fill="#c00"/><path d="m503.549 392.504c0 69.181-58.66 121.366-120.5 119.49-65.43-.53-118.5-53.93-118.5-119.49s53.07-118.96 118.5-119.49c62.078-1.883 120.5 50.44 120.5 119.49z" fill="#ecf9fd"/><path d="m503.549 392.504c0 69.181-58.66 121.366-120.5 119.49 0-257.39-.494-238.99 1-238.99 65.89 0 119.5 53.61 119.5 119.5z" fill="#d9f3fc"/><path d="m438.549 392.004c0 8.28-6.72 15-15 15h-80c-8.28 0-15-6.72-15-15s6.72-15 15-15h80c8.28 0 15 6.72 15 15z" fill="#ff2828"/><path d="m438.549 392.004c0 8.28-6.72 15-15 15h-40.5v-30h40.5c8.28 0 15 6.72 15 15z" fill="#c00"/></g></svg>