<svg id="Capa_1" enable-background="new 0 0 512 512" height="512" viewBox="0 0 512 512" width="512" xmlns="http://www.w3.org/2000/svg"><g><path d="m41.722 511.248c-.038 0-.074 0-.112 0-8.284-.062-14.951-6.826-14.89-15.11l1.89-257.895c.061-8.246 6.765-14.89 14.997-14.89h.112c8.284.062 14.951 6.826 14.89 15.11l-1.89 257.895c-.06 8.246-6.765 14.89-14.997 14.89z" fill="#00357b"/><path d="m512 176.178v291.76c0 23.88-19.43 43.31-43.31 43.31h-216.51c-23.88 0-43.31-19.43-43.31-43.31v-291.52c16.923-.014 286.465-.227 303.13-.24z" fill="#00357b"/><path d="m512 176.178v291.76c0 23.88-19.43 43.31-43.31 43.31h-108.69v-334.95z" fill="#001737"/><path d="m426.67 8.485v191.188c0 30.143 19.025 54.575 42.49 54.575 26.2 0 42.84-27.431 42.84-54.575v-183.943c0-8.87-7.662-15.797-16.481-14.899l-68.849 7.006" fill="#c00"/><path d="m426.67 7.837v198.24c0 26.604-19.025 48.17-42.49 48.17-24.934 0-42.79-22.636-42.851-48.032 0-11.476 0-181.671 0-189.705z" fill="#d9f3fc"/><path d="m256 25.194v181.022c0 25.216 17.763 48.032 42.84 48.032 23.465 0 42.49-21.502 42.49-48.032 0-11.476 0-181.671 0-189.705z" fill="#e20000"/><path d="m170.67 33.878v175.303c.115 24.427 18.504 45.067 42.84 45.067 23.372 0 42.49-20.191 42.49-45.301 0-11.458 0-176.646 0-183.753z" fill="#ecf9fd"/><path d="m85.33 42.551v166.566c0 25.275 19.306 45.13 42.49 45.13 24.507 0 42.851-20.751 42.851-45.067 0-11.047 0-170.656 0-175.303z" fill="#ff2828"/><path d="m85.33 42.551-71.217 7.248c-8.016.816-14.113 7.569-14.113 15.63v143.688c0 24.925 19.025 45.13 42.49 45.13 24.48 0 42.84-20.759 42.84-45.13 0-7.793 0-164.026 0-166.566" fill="#ecf9fd"/></g></svg>