<svg id="Capa_1" enable-background="new 0 0 512.114 512.114" height="512" viewBox="0 0 512.114 512.114" width="512" xmlns="http://www.w3.org/2000/svg"><g><circle cx="256.057" cy="256.057" fill="#ecf9fd" r="256"/><path d="m512.057 256.057c0 141.486-114.497 256-256 256v-512c141.486 0 256 114.497 256 256z" fill="#d9f3fc"/><path d="m437.077 75.037c-100.045-100.045-261.986-100.054-362.04 0-100.045 100.045-100.054 261.986 0 362.04 100.045 100.045 261.986 100.054 362.04 0 100.045-100.045 100.054-261.986 0-362.04zm23.86 85.69h-83.54c-5.42-41.07-14.2-78.15-25.86-109.48 48.05 22.49 86.94 61.41 109.4 109.48zm-300.36-109.48c-11.66 31.34-20.44 68.41-25.86 109.48h-83.54c22.46-48.07 61.35-86.99 109.4-109.48zm152.51 423.51c-13.56 3.54-27.61 5.84-42.03 6.79v-130.16h76.07c-6.73 48.28-18.6 91.35-34.04 123.37zm38.45-13.89c11.66-31.33 20.44-68.41 25.86-109.48h83.54c-22.46 48.08-61.35 86.99-109.4 109.48zm-80.48-139.48v-105.5c0-8.28-6.72-15-15-15s-15 6.72-15 15v105.5h-57.3c-8.28 0-15 6.72-15 15 0 8.29 6.72 15 15 15h57.3v130.16c-14.42-.95-28.48-3.25-42.04-6.79-13.11-27.17-23.68-62.28-30.67-102.05-1.44-8.16-9.21-13.61-17.37-12.18-8.16 1.44-13.61 9.21-12.18 17.37 5.36 30.49 12.78 58.58 21.83 82.99-48.08-22.49-86.98-61.41-109.45-109.5h52.25c8.28 0 15-6.71 15-15 0-8.28-6.72-15-15-15h-63.73c-12.548-41.471-13.162-87.161 0-130.66h91.74c-3.093 35.14-3.664 71.2-1.74 106.33.44 7.99 7.06 14.18 14.96 14.18 8.622 0 15.468-7.228 15-15.83-1.884-33.916-1.307-69.816 1.9-104.68h54.33c8.29 0 15-6.72 15-15 0-8.29-6.71-15-15-15h-50.9c6.73-48.28 18.6-91.35 34.04-123.37 13.56-3.54 27.61-5.84 42.03-6.79v104.99c0 8.28 6.72 15 15 15s15-6.72 15-15v-104.99c14.42.95 28.47 3.25 42.03 6.79 15.44 32.02 27.31 75.09 34.04 123.37h-50.9c-8.29 0-15 6.71-15 15 0 8.28 6.71 15 15 15h54.33c1.96 21.31 2.97 43.22 2.97 65.33 0 8.28 6.71 15 15 15 8.28 0 15-6.72 15-15 0-22.07-.97-43.97-2.85-65.33h91.74c12.548 41.471 13.162 87.161 0 130.66-147.894 0 151.692 0-201.36 0z" fill="#00357b"/><path d="m256.057.057v150.5c8.28 0 15-6.72 15-15v-104.99c14.42.95 28.47 3.25 42.03 6.79 15.44 32.02 27.31 75.09 34.04 123.37h-50.9c-8.29 0-15 6.71-15 15 0 8.28 6.71 15 15 15h54.33c1.96 21.31 2.97 43.22 2.97 65.33 0 8.28 6.71 15 15 15 8.28 0 15-6.72 15-15 0-22.07-.97-43.97-2.85-65.33h91.74c12.548 41.471 13.162 87.161 0 130.66-147.894 0 151.692 0-201.36 0v-105.5c0-8.28-6.72-15-15-15v311.17c141.486 0 256-114.497 256-256 0-141.486-114.497-256-256-256zm121.34 160.67c-5.42-41.07-14.2-78.15-25.86-109.48 48.05 22.49 86.94 61.41 109.4 109.48zm-64.31 314.03c-13.56 3.54-27.61 5.84-42.03 6.79v-130.16h76.07c-6.73 48.28-18.6 91.35-34.04 123.37zm38.45-13.89c11.66-31.33 20.44-68.41 25.86-109.48h83.54c-22.46 48.08-61.35 86.99-109.4 109.48z" fill="#001737"/><path d="m143.59 281.224c-30.419 0-55.167 24.747-55.167 55.166s24.748 55.167 55.167 55.167 55.167-24.748 55.167-55.167-24.748-55.166-55.167-55.166z" fill="#58b354"/><path d="m311.227 175.727c0 30.42-24.75 55.16-55.17 55.16s-55.17-24.74-55.17-55.16 24.75-55.17 55.17-55.17 55.17 24.75 55.17 55.17z" fill="#58b354"/><g fill="#00a963"><path d="m311.227 175.727c0 30.42-24.75 55.16-55.17 55.16v-110.33c30.42 0 55.17 24.75 55.17 55.17z"/><path d="m368.524 241.057c-30.419 0-55.167 24.748-55.167 55.167s24.748 55.166 55.167 55.166 55.167-24.747 55.167-55.166-24.748-55.167-55.167-55.167z"/></g></g></svg>