<svg id="Capa_1" enable-background="new 0 0 512.018 512.018" height="512" viewBox="0 0 512.018 512.018" width="512" xmlns="http://www.w3.org/2000/svg"><g><path d="m455.409 15v482c0 12.431-14.294 19.453-24.13 11.9-171.572-131.574-175.177-134.315-175.28-134.42l-175.28 134.1c-9.817 7.519-24.11.521-24.11-11.91v-481.67c0-8.28 6.71-15 15-15h368.8c8.337 0 15 6.762 15 15z" fill="#ffec00"/><path d="m455.409 15v482c0 12.431-14.294 19.453-24.13 11.9l-175.27-134.41v-374.49h184.4c8.337 0 15 6.762 15 15z" fill="#ffd92e"/><path d="m455.409 15v482c0 12.431-14.294 19.453-24.13 11.9l-175.27-134.41v-374.49h184.4c8.337 0 15 6.762 15 15z" fill="#ffd92e"/><path d="m339.349 188.19-72.8 74.97c-5.783 5.97-15.549 6.161-21.52 0l-72.79-74.97c-25.61-26.2-25.6-68.83.02-95.04 23.003-23.513 58.248-26.009 83.53-9.25 8.625-6.13 22.115-10.79 36.05-10.79 59.05 0 89.108 72.491 47.51 115.08z" fill="#ff2828"/><path d="m339.349 188.19-72.8 74.97c-2.77 2.86-6.56 4.49-10.54 4.54v-183.94c10.54-6.93 22.88-10.65 35.83-10.65 59.05 0 89.108 72.491 47.51 115.08z" fill="#c00"/></g></svg>