<svg id="Capa_1" enable-background="new 0 0 511.711 511.711" height="512" viewBox="0 0 511.711 511.711" width="512" xmlns="http://www.w3.org/2000/svg"><g><path d="m470.856 84.771v162.18c0 94.908-48.132 186.607-129.7 230.33l-45.6 24.44c-24.81 13.294-54.49 13.347-79.4 0l-45.6-24.44c-81.588-43.734-129.7-135.444-129.7-230.33v-162.18c0-22.28 14.69-41.73 34.94-46.25l155.99-35.83c15.996-3.579 32.115-3.587 48.05-.02l156.17 35.87c20.16 4.5 34.85 23.95 34.85 46.23z" fill="#00357b"/><path d="m470.856 84.771v162.18c0 94.908-48.132 186.607-129.7 230.33l-45.6 24.44c-12.43 6.66-26.07 9.99-39.7 9.99v-511.71c16.897 0 8.71-.837 180.15 38.54 20.16 4.5 34.85 23.95 34.85 46.23z" fill="#001737"/><path d="m406.856 135.531v110.28c0 34.09-8.9 66.92-24.7 94.92-28.039 49.721-62.362 63.974-97.04 82.56-18.297 9.807-40.199 9.82-58.52 0l-31.01-16.62c-55.12-29.54-90.73-92.68-90.73-160.86v-110.28c0-17.38 11.57-32.57 27.51-36.13 115.782-26.598 111.371-26.31 123.49-26.31 12.181 0 7.699-.289 123.58 26.33 15.85 3.54 27.42 18.73 27.42 36.11z" fill="#ecf9fd"/><path d="m406.856 135.531v110.28c0 34.09-8.9 66.92-24.7 94.92-28.039 49.721-62.362 63.974-97.04 82.56-9.16 4.91-19.21 7.36-29.26 7.36v-357.56c12.181 0 7.699-.289 123.58 26.33 15.85 3.54 27.42 18.73 27.42 36.11z" fill="#d9f3fc"/><path d="m276.956 229.551c-1.87-.66-3.78-1.35-5.69-2.05v-37.56c2.705 1.334 4.336 2.722 4.17 2.56.19-.2 3.65 4.8 10.97 4.8 14.43 0 20.49-18.66 8.86-27.3-4.75-4.21-13.15-9.22-24-11.61v-5.75c0-8.973-7.882-15.556-15.41-14.99-8.09.21-14.59 6.85-14.59 14.99v6.75c-35.78 10.11-44.3 57.13-19.07 76.93 5.03 3.94 11.1 7.56 19.07 11.28v52c-4.67-.98-8.67-2.95-14.56-6.81-6.94-4.53-16.23-2.59-20.77 4.34-4.53 6.94-2.59 16.23 4.35 20.77 11.75 7.69 20.44 10.84 30.98 12v6.5c0 8.335 6.777 15 15 15 8.29 0 15-6.72 15-15v-7.94c46.81-13.08 56.18-81.06 5.69-98.91zm-35.69-16.42c-5.43-4.1-4.11-13.75 0-19.34zm30 82.3v-35.66c14.04 7.88 11.41 26.74 0 35.66z" fill="#58b354"/><path d="m276.956 229.551c-1.87-.66-3.78-1.35-5.69-2.05v-37.56c2.705 1.334 4.336 2.722 4.17 2.56.19-.2 3.65 4.8 10.97 4.8 14.43 0 20.49-18.66 8.86-27.3-4.75-4.21-13.15-9.22-24-11.61v-5.75c0-8.973-7.882-15.556-15.41-14.99 0 224.473-.228 213.75.41 213.75 8.29 0 15-6.72 15-15v-7.94c46.81-13.08 56.18-81.06 5.69-98.91zm-5.69 65.88v-35.66c14.04 7.88 11.41 26.74 0 35.66z" fill="#00a963"/></g></svg>