<svg id="Capa_1" enable-background="new 0 0 512 512" height="512" viewBox="0 0 512 512" width="512" xmlns="http://www.w3.org/2000/svg"><g><path d="m479 86.2v288.259c0 7.993-6.487 14.481-14.481 14.481h-417.038c-7.993 0-14.481-6.487-14.481-14.481v-288.259c0-19.375 15.765-35.139 35.139-35.139h375.721c19.375 0 35.14 15.764 35.14 35.139z" fill="#ecf9fd"/><path d="m479 86.2v288.259c0 7.993-6.487 14.481-14.481 14.481h-208.519v-337.879h187.861c19.374 0 35.139 15.764 35.139 35.139z" fill="#d9f3fc"/><path d="m497 365h-10v-283.6c0-20.07-16.33-36.4-36.4-36.4h-389.2c-20.07 0-36.4 16.33-36.4 36.4v283.6h-10c-8.28 0-15 6.72-15 15 0 47.97 39.03 87 87 87h338c47.97 0 87-39.03 87-87 0-8.28-6.72-15-15-15zm-442-283.6c0-3.53 2.87-6.4 6.4-6.4h389.2c3.53 0 6.4 2.87 6.4 6.4v283.6h-402z" fill="#00357b"/><path d="m497 365h-10v-283.6c0-20.07-16.33-36.4-36.4-36.4h-194.6v30h194.6c3.53 0 6.4 2.87 6.4 6.4v283.6h-201v102h169c47.97 0 87-39.03 87-87 0-8.28-6.72-15-15-15z" fill="#001737"/><path d="m136 108c-8.284 0-15 6.716-15 15v194c0 8.284 6.716 15 15 15s15-6.716 15-15c0-19.843 0-173.726 0-194 0-8.284-6.716-15-15-15z" fill="#ff2828"/><path d="m271 123v194c0 8.28-6.72 15-15 15s-15-6.72-15-15v-194c0-8.28 6.72-15 15-15s15 6.72 15 15z" fill="#ff2828"/><path d="m271 123v194c0 8.28-6.72 15-15 15v-224c8.28 0 15 6.72 15 15z" fill="#c00"/><path d="m376 108c-8.284 0-15 6.716-15 15v194c0 8.284 6.716 15 15 15s15-6.716 15-15c0-19.843 0-173.726 0-194 0-8.284-6.716-15-15-15z" fill="#c00"/><circle cx="136" cy="244" fill="#58b354" r="47"/><circle cx="256" cy="196" fill="#58b354" r="47"/><g fill="#00a963"><path d="m303 196c0 25.92-21.08 47-47 47v-94c25.92 0 47 21.08 47 47z"/><circle cx="376" cy="244" r="47"/></g></g></svg>