<svg id="Capa_1" enable-background="new 0 0 512 512" height="512" viewBox="0 0 512 512" width="512" xmlns="http://www.w3.org/2000/svg"><g><path d="m243.67 87.26c-5.448-6.239-14.925-6.882-21.165-1.433l-168.27 146.93c-10.404 9.086-3.94 26.299 9.872 26.299 3.5 0 7.017-1.218 9.86-3.701l168.27-146.93c6.241-5.449 6.882-14.925 1.433-21.165z" fill="#00357b"/><path d="m458.767 232.757-168.27-146.93c-6.238-5.447-15.714-4.807-21.165 1.433-5.449 6.24-4.808 15.716 1.433 21.165l168.27 146.93c6.279 5.484 15.751 4.766 21.165-1.433 5.448-6.24 4.807-15.716-1.433-21.165z" fill="#001737"/><path d="m512 271.846v168.42c0 23.6-19.19 42.79-42.79 42.79h-426.42c-23.6 0-42.79-19.19-42.79-42.79v-168.42c0-23.6 19.19-42.79 42.79-42.79h426.42c23.6 0 42.79 19.19 42.79 42.79z" fill="#ffec00"/><path d="m512 271.846v168.42c0 23.6-19.19 42.79-42.79 42.79h-213.21v-254h213.21c23.6 0 42.79 19.19 42.79 42.79z" fill="#ffd92e"/><path d="m303.57 76.056c0 27.745-24.307 48.411-47.57 46.99-25.72-.26-46.57-21.24-46.57-46.99s20.85-46.73 46.57-46.99c23.193-1.417 47.57 19.162 47.57 46.99z" fill="#ff2828"/><path d="m303.57 76.056c0 27.745-24.307 48.411-47.57 46.99 0-101.193-.247-93.99.5-93.99 25.95 0 47.07 21.08 47.07 47z" fill="#c00"/><path d="m127.901 342.737c-11.294-4.158-21.845-8.675-25.611-10.313-1.057-1.018-1.149-2.291-1.014-3.245 1.085-7.57 18.072-8.587 29.251.272.002-.004.023.023.026.018 9.391 8.347 24.664 1.8 24.664-11.381 0-4.813-2.229-9.09-5.688-11.854-28.009-23.107-73.127-14.954-77.95 18.688-2.254 15.732 7.003 29.794 17.053 34.269.561.25 13.895 6.173 28.904 11.699 5.643 2.076 11.418 5.72 10.706 9.715-.607 3.408-5.438 8.451-13.877 8.451-8.741 0-17.122-3.482-22.419-9.314-5.568-6.132-15.055-6.591-21.188-1.021-6.133 5.569-6.59 15.056-1.021 21.188 27.582 30.375 81.338 23.569 88.04-14.042 2.599-14.578-3.885-33.564-29.876-43.13z" fill="#ff2828"/><path d="m274.53 399.366c-23.039-60.936-15.015-39.716-36.02-95.26-5.46-14.46-26.05-14.82-31.97-.38-.09.22 1.61-4.23-36.49 95.59-2.96 7.74.92 16.41 8.66 19.37 7.75 2.95 16.41-.93 19.37-8.67l5.37-14.07h37.71l5.31 14.03c1.69 4.48 5.29 7.67 9.53 9.01 11.961 3.736 22.942-7.97 18.53-19.62zm-59.63-33.42 7.49-19.64 7.43 19.64z" fill="#ff2828"/><g fill="#c00"><path d="m256 418.986v-68.63l18.53 49.01c4.403 11.628-6.543 23.364-18.53 19.62z"/><path d="m346.459 389.971c-1.357 0-8.089.052-19.037.074v-81.989c0-8.284-6.716-15-15-15s-15 6.716-15 15v96.915c0 7.31 5.269 13.555 12.473 14.785 2.889.494 24.594.282 36.646.215 8.283-.046 14.962-6.8 14.916-15.084-.046-8.255-6.753-14.916-14.998-14.916z"/><path d="m433.146 323.056c8.284 0 15-6.716 15-15s-6.716-15-15-15h-40.728c-8.284 0-15 6.716-15 15v96.455c0 8.284 6.716 15 15 15h40.728c8.284 0 15-6.716 15-15s-6.716-15-15-15h-25.728v-18.228h22.725c8.284 0 15-6.716 15-15s-6.716-15-15-15h-22.725v-18.228h25.728z"/></g></g></svg>