<svg id="Capa_1" enable-background="new 0 0 512 512" height="512" viewBox="0 0 512 512" width="512" xmlns="http://www.w3.org/2000/svg"><g><path d="m415 159.48v40.52c0 19.844-30 19.849-30 0v-40.52c0-71.346-57.567-129.335-129-129.48-72.23 0-129.5 58.688-129.5 129.48v40.52c0 19.844-30 19.849-30 0v-40.52c0-87.528 70.928-159.48 159.5-159.48 87.432.144 159 70.997 159 159.48z" fill="#00357b"/><path d="m415 360v38.19c0 44.56-36.25 80.81-80.81 80.81h-30.19c-19.844 0-19.85-30 0-30h30.19c28.02 0 50.81-22.79 50.81-50.81v-38.19c0-19.844 30-19.85 30 0z" fill="#001737"/><path d="m415 159.48v40.52c0 19.844-30 19.849-30 0v-40.52c0-71.346-57.567-129.335-129-129.48v-30c87.432.144 159 70.997 159 159.48z" fill="#001737"/><path d="m152 185h-32c-52.383 0-95 42.617-95 95s42.617 95 95 95h32c8.284 0 15-6.716 15-15v-160c0-8.284-6.716-15-15-15z" fill="#ff2828"/><path d="m392 185h-32c-8.284 0-15 6.716-15 15v160c0 8.284 6.716 15 15 15h32c52.383 0 95-42.617 95-95s-42.617-95-95-95z" fill="#c00"/><path d="m319 464c0 28.448-22.248 48-47 48h-32c-25.92 0-47-21.08-47-47 0-28.448 22.247-48 47-48h32c25.92 0 47 21.08 47 47z" fill="#ff2828"/><path d="m319 464c0 28.448-22.248 48-47 48h-16v-95h16c25.92 0 47 21.08 47 47z" fill="#c00"/></g></svg>