<svg id="Capa_1" enable-background="new 0 0 512 512" height="512" viewBox="0 0 512 512" width="512" xmlns="http://www.w3.org/2000/svg"><g><path d="m247.251 371.769c-7.191-4.126-116.817-58.545-125.102-58.545-25.192 0-9.294-16.798-109.695 159.594-9.93 17.457 2.607 39.182 22.656 39.182h127.55c13.603 0 26.241-7.363 32.983-19.213l57.189-100.473c4.111-7.221 1.612-16.419-5.581-20.545z" fill="#00357b"/><path d="m499.542 472.815c-100.566-176.682-84.197-159.591-110.693-159.591-8.284 0-116.949 54.337-124.141 58.465-7.193 4.125-9.692 13.325-5.582 20.545l57.228 100.551c6.744 11.852 19.383 19.215 32.985 19.215h127.55c20.022 0 32.6-21.701 22.653-39.185z" fill="#001737"/><ellipse cx="255.5" cy="200.28" fill="#ecf9fd" rx="199.5" ry="200.28"/><path d="m455 200.28c0 110.08-89.05 200.01-199 200.28v-400.56c110.02.27 199 90.27 199 200.28z" fill="#d9f3fc"/><path d="m316.23 216.85 22.96 70.93c3.15 9.72-4.09 19.71-14.27 19.71-6.73 0-4.73.11-68.91-46.7.1 0-54.587 39.756-60.09 43.83-11.73 8.55-27.57-3.01-23.09-16.84l22.96-70.93-60.1-43.83c-11.72-8.56-5.67-27.23 8.82-27.23h74.28c23.616-73.001 22.652-81.33 37.22-81.33 14.52 0 13.5 8.01 37.22 81.33 76.75 0 84.06-3.47 88.55 10.4 4.47 13.87-3.46 15.38-65.55 60.66z" fill="#ff2828"/><path d="m316.23 216.85 22.96 70.93c3.15 9.72-4.09 19.71-14.27 19.71-6.73 0-4.73.11-68.91-46.7.1 0-.144-196.33 0-196.33 14.52 0 13.5 8.01 37.22 81.33 76.75 0 84.06-3.47 88.55 10.4 4.47 13.87-3.46 15.38-65.55 60.66z" fill="#c00"/></g></svg>