<svg id="Capa_1" enable-background="new 0 0 497 497" height="512" viewBox="0 0 497 497" width="512" xmlns="http://www.w3.org/2000/svg"><g><path d="m344 68.21v41.58c0 10.61-8.6 19.21-19.21 19.21h-305.58c-10.61 0-19.21-8.6-19.21-19.21v-41.58c0-10.61 8.6-19.21 19.21-19.21h305.58c10.61 0 19.21 8.6 19.21 19.21z" fill="#ffec00"/><path d="m344 68.21v41.58c0 10.61-8.6 19.21-19.21 19.21h-155.79v-80h155.79c10.61 0 19.21 8.6 19.21 19.21z" fill="#ffd92e"/><path d="m369 148.21v41.58c0 10.61-8.6 19.21-19.21 19.21h-305.58c-10.61 0-19.21-8.6-19.21-19.21v-41.58c0-10.61 8.6-19.21 19.21-19.21h305.58c10.61 0 19.21 8.6 19.21 19.21z" fill="#fcbe00"/><path d="m369 148.21v41.58c0 10.61-8.6 19.21-19.21 19.21h-180.79v-80h180.79c10.61 0 19.21 8.6 19.21 19.21z" fill="#da9c00"/><path d="m349.787 289h-305.574c-10.611 0-19.213-8.602-19.213-19.213v-41.574c0-10.611 8.602-19.213 19.213-19.213h305.574c10.611 0 19.213 8.602 19.213 19.213v41.574c0 10.611-8.602 19.213-19.213 19.213z" fill="#ffec00"/><path d="m324.787 369h-305.574c-10.611 0-19.213-8.602-19.213-19.213v-41.574c0-10.611 8.602-19.213 19.213-19.213h305.574c10.611 0 19.213 8.602 19.213 19.213v41.574c0 10.611-8.602 19.213-19.213 19.213z" fill="#fcbe00"/><ellipse cx="319.977" cy="269" fill="#ffec00" rx="177.023" ry="179"/><path d="m497 269c0 98.36-78.86 178.44-176 179v-358c97.14.56 176 80.64 176 179z" fill="#ffd92e"/><path d="m345.84 253.98c-2.29-.81-4.61-1.66-6.93-2.53v-43.8c7.92 3.41 8.81 7.68 16.5 7.68 13.6 0 20.09-16.64 10.27-25.9 0-.29-9.91-9.58-26.77-13.08v-7.35c0-9.266-8.407-16.537-17.91-14.72-6.89 1.35-12.09 7.43-12.09 14.72v8.39c-38.72 10.55-47.2 60.8-21.01 81.59 5.49 4.35 12.15 8.35 21.01 12.49v59.06c-5.74-.99-10.3-3.17-17.34-7.83-6.91-4.58-16.22-2.68-20.79 4.22-4.57 6.91-2.68 16.22 4.23 20.79 12.84 8.51 22.24 11.85 33.9 13.02v8.27c0 8.235 6.658 15 15 15 8.28 0 15-6.72 15-15v-9.7c50.55-13.44 59.81-86.4 6.93-105.32zm-36.93-16.77c-.83-.57-1.63-1.15-2.36-1.73-5.37-4.26-5.26-17.31 2.36-24.8zm30 89.58v-43.23c18.87 9.1 14.51 33.55 0 43.23z" fill="#58b354"/><path d="m345.84 253.98c-2.29-.81-4.61-1.66-6.93-2.53v-43.8c7.92 3.41 8.81 7.68 16.5 7.68 13.6 0 20.09-16.64 10.27-25.9 0-.29-9.91-9.58-26.77-13.08v-7.35c0-9.266-8.407-16.537-17.91-14.72v229.44c9.484 1.818 17.91-5.441 17.91-14.72v-9.7c50.55-13.44 59.81-86.4 6.93-105.32zm-6.93 72.81v-43.23c18.87 9.1 14.51 33.55 0 43.23z" fill="#00a963"/></g></svg>