<svg id="Capa_1" enable-background="new 0 0 512 512" height="512" viewBox="0 0 512 512" width="512" xmlns="http://www.w3.org/2000/svg"><g><path d="m487 65.55v380.9c0 36.14-29.41 65.55-65.55 65.55h-330.9c-36.14 0-65.55-29.41-65.55-65.55v-380.9c0-36.14 29.41-65.55 65.55-65.55h330.9c36.14 0 65.55 29.41 65.55 65.55z" fill="#ecf9fd"/><path d="m487 65.55v380.9c0 36.14-29.41 65.55-65.55 65.55h-165.45v-512h165.45c36.14 0 65.55 29.41 65.55 65.55z" fill="#d9f3fc"/><path d="m343.997 447c-8.623 0-6.845-.635-58.604-52.394-14.024-14.021 7.17-35.256 21.213-21.213l22.394 22.394v-279.574l-22.394 22.394c-14.023 14.023-35.257-7.171-21.213-21.213 53.091-53.091 49.931-51.452 56.787-52.283 9.8-1.2 8.825.682 60.426 52.283 14.02 14.02-7.168 35.257-21.213 21.213l-22.393-22.394v279.574l22.394-22.394c9.478-9.478 25.606-2.634 25.606 10.607 0 8.297.09 6.123-52.394 58.606-1.822 2.187-6.185 4.394-10.609 4.394z" fill="#00357b"/><g fill="#58b354"><path d="m185.237 77.591c-5.681-15.22-27.601-15.82-33.919-.38-.118.292 2.305-6.066-53.877 141.45-2.949 7.742.937 16.408 8.679 19.356 7.742 2.951 16.408-.938 19.356-8.679l9.705-25.482h65.642l9.601 25.439c2.267 6.007 7.974 9.708 14.036 9.708 10.413 0 17.751-10.446 14.031-20.3zm-38.63 96.265 21.546-56.57 21.349 56.57z"/><path d="m216.819 417h-68.387l78.718-120.812c6.493-9.966-.68-23.188-12.568-23.188h-90.874c-8.284 0-15 6.716-15 15s6.716 15 15 15h63.197l-78.717 120.812c-6.494 9.966.678 23.188 12.567 23.188h96.064c8.284 0 15-6.716 15-15s-6.715-15-15-15z"/></g></g></svg>