<svg id="Capa_1" enable-background="new 0 0 512 512" height="512" viewBox="0 0 512 512" width="512" xmlns="http://www.w3.org/2000/svg"><g><path d="m463 64.74v80.12c0 8.28-6.72 15-15 15-10.562 0-431.069-.17-432-.17-8.28 0-15-6.72-15-15v-79.95c0-23.97 19.55-43.47 43.59-43.47h374.82c24.04 0 43.59 19.5 43.59 43.47z" fill="#00357b"/><path d="m463 64.74v80.12c0 8.28-6.72 15-15 15-3.7 0-94.56-.04-192-.07v-138.52h163.41c24.04 0 43.59 19.5 43.59 43.47z" fill="#001737"/><path d="m512 152.63v256.47c0 25.78-21.04 46.76-46.9 46.76h-132.23c-5.44 0-10.75 1.52-15.36 4.39l-38.48 23.95c-13.89 8.644-31.968 8.77-46.06 0l-38.48-23.95c-4.61-2.87-9.92-4.39-15.36-4.39h-132.23c-25.86 0-46.9-20.98-46.9-46.76v-256.47c0-25.79 21.04-46.77 46.9-46.77h418.2c25.86 0 46.9 20.98 46.9 46.77z" fill="#ecf9fd"/><path d="m512 152.63v256.47c0 25.78-21.04 46.76-46.9 46.76h-132.23c-5.44 0-10.75 1.52-15.36 4.39l-38.48 23.95c-6.99 4.35-15.01 6.53-23.03 6.53v-384.87h209.1c25.86 0 46.9 20.98 46.9 46.77z" fill="#d9f3fc"/><circle cx="256" cy="272.86" fill="#00357b" r="47"/><circle cx="128" cy="272.864" fill="#00357b" r="47"/><g fill="#001737"><circle cx="384" cy="272.86" r="47"/><path d="m303 272.86c0 25.92-21.08 47-47 47v-94c25.92 0 47 21.09 47 47z"/></g></g></svg>