<svg id="Capa_1" enable-background="new 0 0 512 512" height="512" viewBox="0 0 512 512" width="512" xmlns="http://www.w3.org/2000/svg"><g><path d="m421.59 119.06c-.09.13-.41.55-135.59 178.22-6.66 9.32-4.85 5.64-4.68 141.22.021 21.077-15.503 26.743-55.84 56.46-17.64 12.95-21.48 17.02-30.62 17.04-11.7 0-21.74-9.02-21.75-20.9-.23-192.1 1.84-184.06-5.08-193.68-142.86-186.855-136.362-178.304-136-177.91-9.51-13.03.12-31.11 16.8-31.13 66.168-.086 65.141-.074 355.89-.43 16.6-.02 26.36 17.99 16.87 31.11z" fill="#ffec00"/><path d="m421.59 119.06c-.09.13-.41.55-135.59 178.22-6.66 9.32-4.85 5.64-4.68 141.22.021 21.077-15.503 26.743-55.84 56.46-.36-46.23.1-155.01.19-406.79 46.86-.06 105.6-.13 179.05-.22 16.6-.02 26.36 17.99 16.87 31.11z" fill="#ffd92e"/><path d="m483.725 119.224c0 65.702-53.536 119.224-119.43 119.224-65.86 0-119.44-53.48-119.44-119.224s53.58-119.224 119.44-119.224c65.841 0 119.43 53.469 119.43 119.224z" fill="#ff2828"/><path d="m483.725 119.224c0 65.673-53.46 119.103-119.21 119.224v-238.448c65.75.12 119.21 53.551 119.21 119.224z" fill="#c00"/><path d="m403.275 136.917c9.495 9.463 2.709 25.668-10.58 25.668-8.27 0-10.601-4.389-28.18-21.931-.318-.319 1.759-2.194-18.04 17.553-14.051 14.029-35.242-7.264-21.17-21.29l17.73-17.693-17.73-17.693c-14.077-14.031 7.126-35.311 21.17-21.29l17.82 17.774c.348-.349 17.451-17.415 17.81-17.774 14.044-14.021 35.254 7.252 21.17 21.29l-17.73 17.693z" fill="#ecf9fd"/><path d="m403.275 136.917c9.495 9.463 2.709 25.668-10.58 25.668-8.27 0-10.601-4.389-28.18-21.931v-42.861l17.59-17.553c14.044-14.021 35.254 7.252 21.17 21.29l-17.73 17.693z" fill="#d9f3fc"/></g></svg>