<svg id="Capa_1" enable-background="new 0 0 512 512" height="512" viewBox="0 0 512 512" width="512" xmlns="http://www.w3.org/2000/svg"><g><path d="m512 108.3v215.4c0 37.11-30.19 67.3-67.3 67.3h-377.4c-37.11 0-67.3-30.19-67.3-67.3v-215.4c0-37.11 30.19-67.3 67.3-67.3h377.4c37.11 0 67.3 30.19 67.3 67.3z" fill="#ffec00"/><path d="m512 108.3v215.4c0 37.11-30.19 67.3-67.3 67.3h-188.7v-350h188.7c37.11 0 67.3 30.19 67.3 67.3z" fill="#ffd92e"/><path d="m512 108.3v27.7h-512v-27.7c0-37.11 30.19-67.3 67.3-67.3h377.4c37.11 0 67.3 30.19 67.3 67.3z" fill="#00357b"/><path d="m512 108.3v27.7h-256v-95h188.7c37.11 0 67.3 30.19 67.3 67.3z" fill="#001737"/><path d="m240 215h-160c-19.832 0-19.86-30 0-30h160c19.832 0 19.86 30 0 30z" fill="#ecf9fd"/><path d="m410.319 185h-84.639c-20.225 0-36.68 16.455-36.68 36.681v20.639c0 20.225 16.455 36.68 36.681 36.68h84.639c20.225 0 36.68-16.455 36.68-36.681v-20.639c0-20.225-16.455-36.68-36.681-36.68z" fill="#d9f3fc"/><path d="m160 249h-16c-30.33 0-55 24.67-55 55v32c0 8.28 6.72 15 15 15h96c8.28 0 15-6.72 15-15v-32c0-30.33-24.67-55-55-55zm25 72h-66v-17c0-13.79 11.21-25 25-25h16c13.79 0 25 11.21 25 25z" fill="#00357b"/><path d="m239 347.15v97.7c0 14.42-11.73 26.15-26.15 26.15h-121.7c-14.42 0-26.15-11.73-26.15-26.15v-97.7c0-14.42 11.73-26.15 26.15-26.15h121.7c14.42 0 26.15 11.73 26.15 26.15z" fill="#ff2828"/><path d="m215 304v32c0 8.28-6.72 15-15 15h-48v-30h33v-17c0-13.79-11.21-25-25-25h-8v-30h8c30.33 0 55 24.67 55 55z" fill="#001737"/><path d="m239 347.15v97.7c0 14.42-11.73 26.15-26.15 26.15h-60.85v-150h60.85c14.42 0 26.15 11.73 26.15 26.15z" fill="#c00"/></g></svg>