<svg id="Capa_1" enable-background="new 0 0 512 512" height="512" viewBox="0 0 512 512" width="512" xmlns="http://www.w3.org/2000/svg"><g><path d="m512 148.3v215.4c0 37.11-30.19 67.3-67.3 67.3h-377.4c-37.11 0-67.3-30.19-67.3-67.3v-215.4c0-37.11 30.19-67.3 67.3-67.3h377.4c37.11 0 67.3 30.19 67.3 67.3z" fill="#ecf9fd"/><path d="m512 148.3v215.4c0 37.11-30.19 67.3-67.3 67.3h-188.7v-350h188.7c37.11 0 67.3 30.19 67.3 67.3z" fill="#d9f3fc"/><g fill="#001737"><path d="m432 175h-88c-19.832 0-19.86-30 0-30h88c19.832 0 19.86 30 0 30z"/><path d="m432 239h-176c-19.844 0-19.85-30 0-30h176c19.844 0 19.85 30 0 30z"/><path d="m432 239h-176v-30h176c19.844 0 19.85 30 0 30z"/><path d="m432 303h-176c-19.844 0-19.85-30 0-30h176c19.844 0 19.85 30 0 30z"/><path d="m432 303h-176v-30h176c19.844 0 19.85 30 0 30z"/><path d="m344 367h-88c-19.844 0-19.85-30 0-30h88c19.844 0 19.85 30 0 30z"/><path d="m344 367h-88v-30h88c19.844 0 19.85 30 0 30z"/></g><path d="m140.129 241.077c-2.087-.738-4.208-1.501-6.333-2.285v-40.486c3.404 1.537 5.386 3.164 5.386 3.164 2.677 2.493 6.257 4.029 10.203 4.029 13.712 0 20.141-16.866 10.103-26.046.177-.19-9.805-9.16-25.693-12.535v-6.472c0-8.284-6.716-15-15-15s-15 6.716-15 15v7.49c-37.354 10.305-45.911 58.867-20.087 79.12 5.271 4.135 11.646 7.929 20.087 11.848v55.25c-5.261-.978-9.577-3.05-16.106-7.321-6.932-4.537-16.229-2.592-20.764 4.342-4.535 6.933-2.591 16.229 4.341 20.764 12.332 8.067 21.404 11.301 32.529 12.459v7.306c0 8.284 6.716 15 15 15s15-6.716 15-15v-8.736c48.883-13.222 58.068-83.604 6.334-101.891zm-36.333-16.456c-.544-.387-1.072-.775-1.572-1.168-4.62-3.624-4.848-14.735 1.572-21.833zm30 85.67v-39.36c16.498 8.397 13.239 30.009 0 39.36z" fill="#58b354"/></g></svg>