<svg id="Capa_1" enable-background="new 0 0 512 512" height="512" viewBox="0 0 512 512" width="512" xmlns="http://www.w3.org/2000/svg"><g><path d="m454.001 249.47c-271.892 271.628-256.225 261.382-275.517 262.364-19.777 1.22-15.492-.253-169.234-153.847-12.85-12.837-12.233-34.327 1.36-47.908 303.448-303.154 236.067-248.426 342.558-304.047 17.612-9.41 38.364-6.819 51.667 6.458l95.014 94.922c13.296 13.283 15.89 34.015 6.457 51.61-37.193 71.093-38.506 76.661-52.305 90.448z" fill="#ffec00"/><path d="m454.001 249.47c-271.892 271.628-256.225 261.382-275.517 262.364-19.029 1.174-20.091-4.849-96.956-81.639l370.708-370.35 47.613 47.567c13.296 13.283 15.89 34.015 6.457 51.61-37.598 71.867-38.515 76.67-52.305 90.448z" fill="#ffd92e"/><path d="m507.348 25.886c-104.516 103.73-99.052 100.785-107.743 100.785-13.308-.026-20.144-16.188-10.596-25.681l97.147-96.416c14.113-13.998 35.308 7.312 21.192 21.312z" fill="#00357b"/><path d="m507.348 25.886c-104.516 103.73-99.052 100.785-107.743 100.785-3.664-.007-7.357-1.345-10.234-4.022l118.083-117.969c5.819 5.898 5.769 15.379-.106 21.206z" fill="#001737"/><path d="m410.228 178.905c-34.511 34.478-94.106 10.164-94.107-38.943-.023-48.853 59.535-73.482 94.107-38.943 21.543 21.521 21.545 56.361 0 77.886z" fill="#ecf9fd"/><path d="m410.228 178.905c-21.53 21.509-56.215 21.317-77.558.389l77.948-77.872c21.163 21.555 21.014 56.1-.39 77.483z" fill="#d9f3fc"/><path d="m113.263 356.073c-13.274 0-20.13-16.153-10.631-25.641l159.37-159.216c14.055-14.042 35.339 7.181 21.262 21.241-173.292 173.125-161.112 163.616-170.001 163.616z" fill="#00357b"/><path d="m169.963 412.718c-13.274 0-20.13-16.153-10.631-25.641l102.671-102.573c14.055-14.042 35.339 7.181 21.262 21.241-110.577 110.472-104.541 106.973-113.302 106.973z" fill="#001737"/></g></svg>