<svg id="Capa_1" enable-background="new 0 0 512 512" height="512" viewBox="0 0 512 512" width="512" xmlns="http://www.w3.org/2000/svg"><g><path d="m512 416.67c0 8.28-6.72 15-15 15h-397.02c-15.18 0-28.04-11.36-29.92-26.42l-4.26-34.02c-2.237-17.877 11.672-33.816 29.81-33.9 78.066-.401 62.177-.33 64.39-.33 8.25 0 14.96 6.66 15 14.92.04 8.29-6.64 15.04-14.92 15.08-66.896.343-64.448.264-64.51.45 4.558 36.552 4.189 34.22 4.41 34.22h397.02c8.28 0 15 6.71 15 15z" fill="#00357b"/><path d="m512 416.67c0 8.28-6.72 15-15 15h-193v-30h193c8.28 0 15 6.71 15 15z" fill="#001737"/><path d="m111.383 110.336c-7.111 0-13.426-5.078-14.741-12.322l-12.22-67.294c-.202-1.119 3.171-.72-69.422-.72-8.284 0-15-6.716-15-15s6.716-15 15-15h68.562c14.934 0 27.709 10.665 30.378 25.359l12.22 67.294c1.665 9.178-5.376 17.683-14.777 17.683z" fill="#00357b"/><path d="m512 116.75v203.25c0 27.02-20.32 47.4-47.26 47.4h-313.07c-7.38 0-13.67-5.38-14.81-12.68-28.777-183.679-17.609-112.405-40.28-257.07-1.412-8.991 5.507-17.32 14.85-17.32 15.267.026 345.751.598 364.79.63 19.73.03 35.78 16.09 35.78 35.79z" fill="#ffec00"/><path d="m512 116.75v203.25c0 27.02-20.32 47.4-47.26 47.4h-160.74v-286.74c166.681.285-3.275.007 172.22.3 19.73.03 35.78 16.09 35.78 35.79z" fill="#ffd92e"/><path d="m512 209v30h-130.53l-13.79 128.4h-30.16l13.79-128.4h-94.62l13.79 128.4h-30.16l-13.79-128.4h-107.8l-4.7-30h109.28l-13.8-128.5 30.17.05 13.79 128.45h101.06l13.77-128.23 30.16.06-13.77 128.17z" fill="#00357b"/><path d="m512 209v30h-130.53l-13.79 128.4h-30.16l13.79-128.4h-47.31v-30h50.53l13.77-128.23 30.16.06-13.77 128.17z" fill="#001737"/><path d="m175.667 401.667c-30.419 0-55.167 24.748-55.167 55.167s24.748 55.166 55.167 55.166 55.166-24.748 55.166-55.167-24.747-55.166-55.166-55.166z" fill="#00357b"/><path d="m416.667 401.667c-30.419 0-55.167 24.748-55.167 55.167s24.748 55.166 55.167 55.166 55.166-24.748 55.166-55.167-24.747-55.166-55.166-55.166z" fill="#001737"/></g></svg>