<svg id="Capa_1" enable-background="new 0 0 512 512" height="512" viewBox="0 0 512 512" width="512" xmlns="http://www.w3.org/2000/svg"><g><path d="m454.704 359.472c-7.473-.895-12.33 7.582-7.762 13.765 31.008 41.877-13.225 80.861-47.453 60.572-4.558-2.694-8.673-6.104-13.914-2.244-5.176 3.745-3.35 8.593-2.15 13.946 9.27 41.258-44.581 65.25-69.099 30.867-3.05-4.275-5.53-9.143-11.963-7.755-6.228 1.332-6.489 6.449-7.552 11.772-8.222 41.308-67.186 41.455-75.741.01-1.077-5.189-1.362-10.6-7.882-11.982-6.351-1.35-8.693 3.387-11.693 7.624-24.307 34.324-78.253 10.358-69.309-30.887 1.12-5.123 3.06-10.178-2.361-14.106-5.355-3.887-9.49-.447-13.894 2.154-36.207 21.361-75.769-22.534-50.844-56.474 3.101-4.205 6.91-7.894 3.561-13.705-3.34-5.767-8.496-4.364-13.714-3.787-41.79 4.702-60.134-51.513-23.547-72.264 4.551-2.577 9.466-4.426 8.772-10.91-.689-6.662-6.032-7.502-11.063-9.107-40.214-12.786-34.045-71.558 7.802-75.519 5.186-.483 10.426-.166 12.433-6.311 2.043-6.332-2.511-9.273-6.462-12.784-31.675-28.086-2.103-79.158 37.751-65.711 5.021 1.693 9.695 4.098 14.004-.681 4.384-4.892 1.395-9.427-.78-14.176-17.576-38.447 30.066-73.174 61.167-44.592 3.947 3.625 7.267 7.743 13.234 5.1 5.82-2.628 5.014-7.692 4.952-13.134-.515-42.294 57.142-54.467 74.041-15.789 1.836 4.196 3.726 10.733 10.423 10.079 6.221-.207 7.439-4.982 9.553-9.908 16.623-38.646 74.351-26.49 74.151 15.779-.03 5.218-.888 10.641 5.241 13.345 6.016 2.682 9.352-1.584 13.074-5.009 30.878-28.425 78.761 6.169 61.417 44.662-2.128 4.7-5.108 9.288-.61 14.217 4.431 4.939 9.183 2.478 14.104.831 39.857-13.313 69.5 37.85 38.031 65.811-3.973 3.537-8.308 6.316-6.312 12.583 2.103 6.441 7.607 6.092 12.673 6.592 41.885 4.115 48.19 62.894 8.052 75.539-4.993 1.566-10.148 2.339-10.843 8.796-.68 6.55 4.165 8.475 8.962 11.2 34.391 19.548 23.471 77.535-28.45 71.591z" fill="#ecf9fd"/><path d="m454.704 359.472c-7.473-.895-12.33 7.582-7.762 13.765 31.008 41.877-13.225 80.861-47.453 60.572-4.558-2.694-8.673-6.104-13.914-2.244-5.176 3.745-3.35 8.593-2.15 13.946 9.27 41.258-44.581 65.25-69.099 30.867-3.05-4.275-5.53-9.143-11.963-7.755-6.228 1.332-6.489 6.449-7.552 11.772-3.691 18.544-18.881 31.037-37.771 31.037-2.063 0-1.38 36.621-1.38-477.991 6.221-.207 7.439-4.982 9.553-9.908 16.623-38.646 74.351-26.49 74.151 15.779-.03 5.218-.888 10.641 5.241 13.345 6.016 2.682 9.352-1.584 13.074-5.009 30.878-28.425 78.761 6.169 61.417 44.662-2.128 4.7-5.108 9.288-.61 14.217 4.431 4.939 9.183 2.478 14.104.831 39.857-13.313 69.5 37.85 38.031 65.811-3.973 3.537-8.308 6.316-6.312 12.583 2.103 6.441 7.607 6.092 12.673 6.592 41.885 4.115 48.19 62.894 8.052 75.539-4.993 1.566-10.148 2.339-10.843 8.796-.68 6.55 4.165 8.475 8.962 11.2 34.392 19.55 23.472 77.537-28.449 71.593z" fill="#d9f3fc"/><path d="m306.11 172.54c-62.708 149.832-44.534 106.404-73.06 174.58-2.41 5.75-7.98 9.21-13.84 9.21-10.64 0-17.99-10.87-13.83-20.79 58.118-138.885 43.645-104.303 73.06-174.58 3.19-7.65 11.98-11.25 19.62-8.05s11.25 11.98 8.05 19.63z" fill="#ff2828"/><path d="m306.11 172.54-50.52 120.71c.02-23.35.03-49.19.03-77.77l22.82-54.52c3.19-7.65 11.98-11.25 19.62-8.05s11.25 11.98 8.05 19.63z" fill="#c00"/><path d="m227.735 196.23c0-29.014-21.21-52.619-47.281-52.619s-47.282 23.605-47.282 52.619c0 29.013 21.211 52.618 47.282 52.618s47.281-23.605 47.281-52.618zm-47.281 22.62c-9.369 0-17.283-10.358-17.283-22.62s7.915-22.621 17.283-22.621 17.282 10.358 17.282 22.621c.001 12.261-7.914 22.62-17.282 22.62z" fill="#ff2828"/><path d="m331.888 262.975c-26.071 0-47.281 23.605-47.281 52.618 0 29.015 21.21 52.62 47.281 52.62s47.281-23.605 47.281-52.62c0-29.013-21.21-52.618-47.281-52.618zm0 75.239c-9.368 0-17.283-10.359-17.283-22.622 0-12.262 7.915-22.62 17.283-22.62s17.282 10.358 17.282 22.62c0 12.263-7.915 22.622-17.282 22.622z" fill="#c00"/></g></svg>