<svg id="Capa_1" enable-background="new 0 0 512 512" height="512" viewBox="0 0 512 512" width="512" xmlns="http://www.w3.org/2000/svg"><g><path d="m159 339.98v157.02c0 8.28-6.72 15-15 15h-96c-8.28 0-15-6.72-15-15v-157.02c0-18.74 15.24-33.98 33.98-33.98h58.04c18.74 0 33.98 15.24 33.98 33.98z" fill="#ffec00"/><path d="m159 339.98v157.02c0 8.28-6.72 15-15 15h-48v-206h29.02c18.74 0 33.98 15.24 33.98 33.98z" fill="#ffd92e"/><path d="m319 274.62v222.38c0 8.28-6.72 15-15 15h-96c-8.28 0-15-6.72-15-15v-222.38c0-17.99 14.63-32.62 32.62-32.62h60.76c17.99 0 32.62 14.63 32.62 32.62z" fill="#58b354"/><path d="m319 274.62v222.38c0 8.28-6.72 15-15 15h-48v-270h30.38c17.99 0 32.62 14.63 32.62 32.62z" fill="#00a963"/><path d="m479 216v281c0 8.28-6.72 15-15 15h-96c-8.28 0-15-6.72-15-15v-281c0-21.5 17.5-39 39-39h48c21.5 0 39 17.5 39 39z" fill="#ff2828"/><path d="m479 216v281c0 8.28-6.72 15-15 15h-48v-335h24c21.5 0 39 17.5 39 39z" fill="#c00"/><g fill="#00357b"><path d="m497 482h-482c-19.832 0-19.86 30 0 30h482c19.832 0 19.86-30 0-30z"/><path d="m56 192h-40.968c-19.832 0-19.86-30 0-30h40.968c19.832 0 19.86 30 0 30z"/><path d="m117.794 179.284c-16.522 0-20.812-22.94-5.494-28.963l108.4-42.63c18.455-7.262 29.462 20.651 10.979 27.918-118.477 46.593-109.855 43.675-113.885 43.675z"/><path d="m285.764 113.224c-16.501 0-20.84-22.928-5.493-28.964l100.45-39.5c18.457-7.256 29.46 20.651 10.979 27.92-109.433 43.032-101.895 40.544-105.936 40.544z"/><path d="m496.979 62h-48.979c-19.832 0-19.86-30 0-30h48.979c19.831 0 19.859 30 0 30z"/></g><circle cx="88" cy="176" fill="#ffec00" r="47"/><path d="m135 176c0 25.92-21.08 47-47 47v-94c25.92 0 47 21.08 47 47z" fill="#ffd92e"/><circle cx="256" cy="110" fill="#58b354" r="47"/><path d="m303 110c0 25.92-21.08 47-47 47v-94c25.92 0 47 21.08 47 47z" fill="#00a963"/><circle cx="416" cy="47" fill="#ff2828" r="47"/><path d="m463 47c0 25.92-21.08 47-47 47v-94c25.92 0 47 21.08 47 47z" fill="#c00"/></g></svg>