<svg id="Capa_1" enable-background="new 0 0 512 512" height="512" viewBox="0 0 512 512" width="512" xmlns="http://www.w3.org/2000/svg"><g><path d="m439 58.53v394.94c0 32.27-26.26 58.53-58.53 58.53h-248.94c-32.27 0-58.53-26.26-58.53-58.53v-394.94c0-32.27 26.26-58.53 58.53-58.53h248.94c32.27 0 58.53 26.26 58.53 58.53z" fill="#ecf9fd"/><path d="m439 58.53v394.94c0 32.27-26.26 58.53-58.53 58.53h-124.47v-512h124.47c32.27 0 58.53 26.26 58.53 58.53z" fill="#d9f3fc"/><path d="m380.47 0h-248.94c-32.27 0-58.53 26.26-58.53 58.53v394.94c0 32.27 26.26 58.53 58.53 58.53h248.94c32.27 0 58.53-26.26 58.53-58.53v-394.94c0-32.27-26.26-58.53-58.53-58.53zm-63.61 30-2 8.14c-3.9 15.82-17.75 26.86-33.7 26.86h-50.32c-15.95 0-29.8-11.04-33.7-26.86l-2-8.14zm92.14 423.47c0 15.73-12.8 28.53-28.53 28.53h-248.94c-15.73 0-28.53-12.8-28.53-28.53v-394.94c0-15.73 12.8-28.53 28.53-28.53h32.71l3.77 15.31c7.21 29.26 33.04 49.69 62.83 49.69h50.32c29.79 0 55.62-20.43 62.83-49.69l3.77-15.31h32.71c15.73 0 28.53 12.8 28.53 28.53z" fill="#00357b"/><path d="m439 58.53v394.94c0 32.27-26.26 58.53-58.53 58.53h-124.47v-30h124.47c15.73 0 28.53-12.8 28.53-28.53v-394.94c0-15.73-12.8-28.53-28.53-28.53h-32.71l-3.77 15.31c-7.21 29.26-33.04 49.69-62.83 49.69h-25.16v-30h25.16c15.95 0 29.8-11.04 33.7-26.86l2-8.14h-60.86v-30h124.47c32.27 0 58.53 26.26 58.53 58.53z" fill="#001737"/><path d="m264 207h-112c-19.84 0-19.85-30 0-30h112c19.84 0 19.85 30 0 30z" fill="#ffec00"/><path d="m360 207c-20.724 0-19.367-31.842 1.48-29.931 18.989 2.009 17.264 29.931-1.48 29.931z" fill="#ffd92e"/><path d="m264 207h-8v-30h8c19.84 0 19.85 30 0 30z" fill="#ffd92e"/><path d="m264 271h-112c-19.84 0-19.85-30 0-30h112c19.84 0 19.85 30 0 30z" fill="#ff2828"/><path d="m360 271c-12.643 0-19.581-14.731-11.6-24.51 8.264-10.152 25.127-5.475 26.53 8.029.895 8.73-6.05 16.481-14.93 16.481z" fill="#c00"/><path d="m264 271h-8v-30h8c19.84 0 19.85 30 0 30z" fill="#c00"/><path d="m264 335h-112c-19.84 0-19.85-30 0-30h112c19.84 0 19.85 30 0 30z" fill="#ffec00"/><path d="m360 335c-20.848 0-19.205-32.033 1.48-29.931 18.904 2 17.303 29.931-1.48 29.931z" fill="#ffd92e"/><path d="m264 335h-8v-30h8c19.84 0 19.85 30 0 30z" fill="#ffd92e"/><path d="m264 399h-112c-19.84 0-19.85-30 0-30h112c19.84 0 19.85 30 0 30z" fill="#58b354"/><g fill="#00a963"><path d="m360 399c-20.858 0-19.205-32.033 1.48-29.931 18.874 1.997 17.333 29.931-1.48 29.931z"/><path d="m264 399h-8v-30h8c19.84 0 19.85 30 0 30z"/></g></g></svg>