<svg id="Capa_1" enable-background="new 0 0 512 512" height="512" viewBox="0 0 512 512" width="512" xmlns="http://www.w3.org/2000/svg"><g><path d="m256 231.3v169.7c0 8.28-6.72 15-15 15h-192c-8.28 0-15-6.72-15-15v-169.7c0-20.57 16.73-37.3 37.3-37.3h147.4c20.57 0 37.3 16.73 37.3 37.3z" fill="#ffec00"/><path d="m256 231.3v169.7c0 8.28-6.72 15-15 15h-96v-222h73.7c20.57 0 37.3 16.73 37.3 37.3z" fill="#ffd92e"/><path d="m192 194v79c0 8.28-6.72 15-15 15h-64c-8.28 0-15-6.72-15-15v-79z" fill="#ff2828"/><path d="m192 194v79c0 8.28-6.72 15-15 15h-32v-94z" fill="#c00"/><circle cx="384" cy="87" fill="#d9f3fc" r="87"/><path d="m412.27 37.51-38.88 38.88c-5.85 5.86-5.85 15.36 0 21.22 5.812 5.812 15.325 5.895 21.22 0l38.88-38.88c-5.06-8.81-12.41-16.16-21.22-21.22z" fill="#ff2828"/><path d="m481.28 386h-82.28v-213.3c40.85-7.13 72-42.84 72-85.7 0-47.97-39.03-87-87-87s-87 39.03-87 87c0 42.86 31.15 78.57 72 85.7v213.3h-338.28c-16.94 0-30.72 13.75-30.72 30.66v32.68c0 16.91 13.78 30.66 30.72 30.66h34.28v17c0 8.28 6.72 15 15 15s15-6.72 15-15v-17h322v17c0 8.28 6.72 15 15 15s15-6.72 15-15v-17h34.28c16.94 0 30.72-13.75 30.72-30.66v-32.68c0-16.91-13.78-30.66-30.72-30.66zm-154.28-299c0-31.43 25.57-57 57-57s57 25.57 57 57-25.57 57-57 57-57-25.57-57-57z" fill="#00357b"/><path d="m481.28 386h-82.28v-213.3c40.85-7.13 72-42.84 72-85.7 0-47.97-39.03-87-87-87s-87 39.03-87 87c0 42.86 31.15 78.57 72 85.7v213.3h-113v94h161v17c0 8.28 6.72 15 15 15s15-6.72 15-15v-17h34.28c16.94 0 30.72-13.75 30.72-30.66v-32.68c0-16.91-13.78-30.66-30.72-30.66zm-154.28-299c0-31.43 25.57-57 57-57s57 25.57 57 57-25.57 57-57 57-57-25.57-57-57z" fill="#001737"/></g></svg>