<svg id="Layer_1" enable-background="new 0 0 512 512" height="512" viewBox="0 0 512 512" width="512" xmlns="http://www.w3.org/2000/svg"><g><g><g><g><g><g><path d="m17.067 263.211v9.855l14.802 207.232c1.276 17.863 16.139 31.702 34.046 31.702h380.169c17.908 0 32.771-13.839 34.047-31.702l14.802-207.232v-9.855zm104.349 197.573c-.248.01-.497.016-.743.016-9.09 0-16.646-7.168-17.039-16.336l-5.851-102.4c-.403-9.417 6.903-17.378 16.321-17.781 9.425-.392 17.378 6.903 17.781 16.321l5.851 102.4c.404 9.416-6.903 17.377-16.32 17.78zm89.723.014c-.083.001-.166.002-.249.002-9.311 0-16.926-7.481-17.059-16.823l-1.95-102.4c-.136-9.425 7.396-17.174 16.821-17.308 9.415-.1 17.174 7.396 17.308 16.821l1.95 102.4c.135 9.425-7.396 17.174-16.821 17.308zm107.031-16.821c-.133 9.341-7.748 16.823-17.059 16.823-.083 0-.166-.001-.249-.002-9.425-.134-16.956-7.883-16.821-17.308l1.95-102.4c.133-9.342 7.748-16.823 17.059-16.823.083 0 .166.001.249.002 9.425.134 16.956 7.883 16.821 17.308zm90.196.487c-.393 9.169-7.949 16.336-17.039 16.336-.247 0-.495-.005-.742-.016-9.418-.403-16.724-8.365-16.321-17.781l5.851-102.4c.403-9.418 8.385-16.707 17.781-16.321 9.418.403 16.724 8.365 16.321 17.781z" fill="#b3e59f"/></g></g></g></g><path d="m471.239 263.211v9.855l-14.802 207.232c-1.276 17.863-16.139 31.702-34.047 31.702h23.694c17.908 0 32.771-13.839 34.047-31.702l14.802-207.232v-9.855z" fill="#95d6a4"/><path d="m494.933 204.8c9.426 0 17.067 7.641 17.067 17.067v34.133c0 9.426-7.641 17.067-17.067 17.067h-477.866c-9.426 0-17.067-7.641-17.067-17.067v-34.133c0-9.426 7.641-17.067 17.067-17.067z" fill="#eef1f3"/><path d="m494.933 204.8h-23.694c9.426 0 17.067 7.641 17.067 17.067v34.133c0 9.426-7.641 17.067-17.067 17.067h23.694c9.426 0 17.067-7.641 17.067-17.067v-34.133c0-9.426-7.641-17.067-17.067-17.067z" fill="#e4f6ff"/><path d="m204.8 246.66c4.268 0 7.726-3.459 7.726-7.726s-3.459-7.726-7.726-7.726h-204.8v15.453h204.8z" fill="#b3e59f"/><path d="m307.2 231.207c-4.268 0-7.726 3.459-7.726 7.726s3.459 7.726 7.726 7.726h204.8v-15.453h-204.8z" fill="#b3e59f"/><g><path d="m221.867 238.933v-221.866c0-9.426 7.641-17.067 17.066-17.067h34.133c9.426 0 17.067 7.641 17.067 17.067v221.867h-68.266z" fill="#b3e59f"/><path d="m273.067 0h-23.694c9.426 0 17.067 7.641 17.067 17.067v221.867h23.694v-221.867c-.001-9.426-7.642-17.067-17.067-17.067z" fill="#95d6a4"/><circle cx="256" cy="238.933" fill="#f4de7f" r="51.2"/><ellipse cx="256" cy="238.933" fill="#eef1f3" rx="17.067" ry="17.067" transform="matrix(.924 -.383 .383 .924 -71.949 116.155)"/><path d="m256 187.733c-4.08 0-8.043.491-11.847 1.393 22.562 5.348 39.353 25.61 39.353 49.807s-16.791 44.459-39.353 49.807c3.804.902 7.767 1.393 11.847 1.393 28.277 0 51.2-22.923 51.2-51.2s-22.923-51.2-51.2-51.2z" fill="#f0c078"/></g><path d="m221.867 145.874h68.267v15.453h-68.267z" fill="#95d6a4"/></g><g><path d="m455.801 185.663-48.272 48.272c-6.665 6.665-17.471 6.665-24.136 0l-65.949-65.949c-4.035-4.035-5.786-9.819-4.667-15.415l8.045-40.227c1.351-6.756 6.632-12.037 13.388-13.388l40.227-8.045c5.595-1.119 11.38.632 15.415 4.667l65.949 65.949c6.665 6.665 6.665 17.471 0 24.136z" fill="#dd646e"/><g><path d="m362.275 172.27c-1.977 0-3.955-.755-5.464-2.263l-3.017-3.017c-3.017-3.017-3.017-7.909 0-10.926 3.018-3.017 7.909-3.017 10.928 0l3.017 3.017c3.017 3.017 3.017 7.909 0 10.926-1.51 1.509-3.488 2.263-5.464 2.263z" fill="#eff6ff"/></g><g><path d="m419.597 181.321c-1.977 0-3.955-.755-5.464-2.263l-3.017-3.017c-3.017-3.017-3.017-7.909 0-10.926 3.018-3.017 7.91-3.017 10.928 0l3.017 3.017c3.017 3.017 3.017 7.909 0 10.927-1.509 1.508-3.487 2.262-5.464 2.262z" fill="#eff6ff"/></g><g><path d="m395.454 205.458c-3.608 0-6.834-2.54-7.569-6.213l-12.068-60.339c-.837-4.184 1.877-8.255 6.061-9.092 4.184-.834 8.255 1.877 9.092 6.061l12.068 60.339c.837 4.184-1.877 8.255-6.061 9.092-.511.103-1.021.152-1.523.152z" fill="#eff6ff"/></g><g><path d="m347.19 133.049c-1.977 0-3.955-.755-5.464-2.263l-57.159-57.159c-3.017-3.017-3.017-7.91 0-10.927 3.018-3.017 7.91-3.017 10.928 0l57.159 57.159c3.017 3.017 3.017 7.909 0 10.927-1.509 1.509-3.487 2.263-5.464 2.263z" fill="#eef1f3"/></g><path d="m455.801 161.527-65.949-65.949c-4.035-4.035-9.82-5.786-15.415-4.667l-11.314 2.263c1.087.679 2.109 1.478 3.035 2.404l65.949 65.949c6.665 6.665 6.665 17.471 0 24.136l-48.272 48.272c-.071.071-.149.13-.221.2 6.68 6.454 17.321 6.394 23.915-.2l48.272-48.272c6.665-6.665 6.665-17.471 0-24.136z" fill="#db4955"/></g></g></svg>