<svg id="Layer_1" enable-background="new 0 0 512 512" height="512" viewBox="0 0 512 512" width="512" xmlns="http://www.w3.org/2000/svg"><g><path d="m419.828 363.385h-18.761c-4.713 0-8.533-3.821-8.533-8.533v-159.192h-273.067v159.191c0 4.713-3.821 8.533-8.533 8.533h-18.762c-8.02 0-11.61 10.06-5.404 15.138l158.424 129.62c6.287 5.144 15.328 5.144 21.614 0l158.424-129.62c6.208-5.078 2.618-15.137-5.402-15.137z" fill="#dd646e"/><path d="m419.828 363.385h-18.761c-4.713 0-8.533-3.821-8.533-8.533v-159.192h-23.694v159.191c0 4.713 3.82 8.533 8.533 8.533h18.761c8.02 0 11.61 10.06 5.404 15.138l-157.385 128.77 1.04.851c6.287 5.144 15.328 5.144 21.614 0l158.424-129.62c6.207-5.079 2.617-15.138-5.403-15.138z" fill="#db4955"/><ellipse cx="256" cy="443.733" fill="#eef1f3" rx="17.067" ry="17.067" transform="matrix(.965 -.261 .261 .965 -106.94 82.195)"/><g><path d="m496 204.8h-480c-8.837 0-16-7.163-16-16v-172.8c0-8.837 7.163-16 16-16h480c8.837 0 16 7.163 16 16v172.8c0 8.837-7.163 16-16 16z" fill="#f4de7f"/><path d="m51.214 39.63c-1.916 5.053-6.346 9.614-11.606 11.579-3.243 1.211-5.475 4.202-5.475 7.664v86.948c0 3.493 2.231 6.527 5.497 7.765 5.086 1.928 9.674 6.404 11.617 11.71 1.184 3.234 4.274 5.371 7.718 5.371h394.056c3.493 0 6.527-2.231 7.765-5.497 1.928-5.086 6.404-9.674 11.71-11.617 3.234-1.184 5.371-4.274 5.371-7.718v-86.962c0-3.462-2.232-6.453-5.475-7.664-5.26-1.965-9.691-6.526-11.606-11.579-1.238-3.266-4.266-5.497-7.759-5.497-48.65 0-345.404 0-394.054 0-3.493 0-6.52 2.232-7.759 5.497z" fill="#e8aa41"/><g><g fill="#365e7d"><path d="m247.109 76.183c-.805-3.95-4.178-6.867-8.202-7.095-4.011-.221-7.705 2.291-8.95 6.124-.029.089-.056.179-.083.269l-7.917 27.775-8.217-27.851c-.027-.092-.056-.184-.087-.275-1.285-3.822-4.986-6.298-9.015-6.034-4.023.27-7.366 3.224-8.145 7.272l-8.999 49.859c-.758 4.199 2.032 8.218 6.231 8.976 4.2.754 8.218-2.031 8.976-6.231l4.073-22.567 6.784 22.993c.027.093.056.184.086.275 1.218 3.626 4.598 6.053 8.42 6.053h.045c3.84-.019 7.217-2.486 8.404-6.138.029-.09.056-.18.082-.27l6.547-22.967 4.338 22.699c.801 4.192 4.85 6.94 9.039 6.139 4.192-.801 6.94-4.848 6.139-9.039z"/><path d="m333.095 76.183c-.805-3.95-4.178-6.867-8.202-7.095-4.02-.221-7.705 2.291-8.95 6.124-.029.089-.056.179-.082.269l-7.918 27.775-8.217-27.851c-.027-.092-.056-.184-.086-.275-1.285-3.823-5.004-6.3-9.017-6.034-4.024.271-7.366 3.226-8.143 7.272l-9 49.859c-.758 4.199 2.032 8.218 6.231 8.976 4.193.754 8.218-2.031 8.976-6.231l4.073-22.567 6.784 22.993c.027.093.056.184.087.275 1.218 3.626 4.598 6.054 8.42 6.053h.047c3.84-.02 7.218-2.488 8.403-6.141.029-.089.056-.177.081-.266l6.547-22.967 4.338 22.699c.801 4.192 4.849 6.94 9.039 6.139 4.192-.801 6.94-4.848 6.139-9.039z"/><path d="m388.475 84.994c4.267 0 7.726-3.459 7.726-7.726s-3.459-7.726-7.726-7.726h-21.377c-4.267 0-7.726 3.459-7.726 7.726v50.732c0 4.267 3.459 7.726 7.726 7.726h21.377c4.267 0 7.726-3.459 7.726-7.726s-3.459-7.726-7.726-7.726h-13.65v-9.913h12.074c4.267 0 7.726-3.459 7.726-7.726s-3.459-7.726-7.726-7.726h-12.074v-9.913h13.65z"/><path d="m88.762 95.555c-6.056-2.234-11.712-4.662-13.684-5.523-.717-.664-.726-1.521-.656-2.009.094-.651.587-2.251 3.142-3.021 6.496-1.958 12.652 2.844 12.87 3.016 3.265 2.7 8.104 2.266 10.837-.983 2.745-3.267 2.323-8.14-.943-10.886-.506-.425-12.554-10.362-27.221-5.942-7.568 2.28-12.926 8.265-13.981 15.621-.995 6.933 2.012 13.604 7.848 17.408.341.223.699.417 1.072.583.298.133 7.388 3.289 15.369 6.233 3.105 1.145 6.277 3.19 5.866 5.493-.34 1.907-3.004 4.728-7.638 4.728-4.721 0-9.251-1.888-12.117-5.051-2.865-3.162-7.752-3.402-10.914-.537s-3.402 7.752-.537 10.914c5.833 6.436 14.422 10.128 23.568 10.128 11.433 0 21.044-7.345 22.851-17.465 1.367-7.668-2.046-17.659-15.732-22.707z"/><path d="m442.295 109.596c7.981-3.124 13.631-10.676 13.631-19.49 0-11.598-9.773-21.033-21.786-21.033h-13.606c-.003 0-.005.001-.008.001s-.005-.001-.008-.001c-4.267 0-7.726 3.459-7.726 7.726v51.201c0 4.267 3.459 7.726 7.726 7.726s7.726-3.459 7.726-7.726v-10.979l14.156 16.083c1.527 1.735 3.659 2.622 5.803 2.622 1.813 0 3.634-.634 5.102-1.927 3.203-2.819 3.515-7.701.695-10.904zm-8.154-25.069c3.432 0 6.333 2.555 6.333 5.58s-2.9 5.58-6.333 5.58c-1.394 0-3.598.008-5.827.018-.01-2.152-.018-4.263-.018-5.598 0-1.147-.005-3.318-.011-5.58z"/><path d="m162.958 69.074c-4.267 0-7.726 3.459-7.726 7.726v35.194c0 2.201-.641 4.774-5.399 7.17-1.486.75-3.118 1.084-4.972 1.109-1.999-.002-3.729-.488-5.288-1.484-3.718-2.375-4.465-4.347-4.465-6.759v-35.23c0-4.267-3.459-7.726-7.726-7.726s-7.726 3.459-7.726 7.726v35.231c0 8.209 3.903 14.864 11.598 19.78 4.055 2.591 8.627 3.908 13.587 3.915h.04c4.262 0 8.267-.929 11.904-2.761 8.964-4.514 13.9-11.962 13.9-20.971v-35.194c0-4.267-3.46-7.726-7.727-7.726z"/></g></g><path d="m495.517 0h-23.694c9.103 0 16.483 7.38 16.483 16.483v171.834c0 9.103-7.38 16.483-16.483 16.483h23.694c9.103 0 16.483-7.38 16.483-16.483v-171.834c0-9.103-7.38-16.483-16.483-16.483z" fill="#f0c078"/></g><path d="m392.533 246.66v-15.453h-273.066v15.453z" fill="#db4955"/><g fill="#eef1f3"><path d="m244.483 322.258c-.027-.071-.055-.142-.084-.213-1.377-3.345-4.602-5.504-8.218-5.504-.003 0-.007 0-.01 0-3.621.005-6.845 2.173-8.215 5.524-.024.057-.047.116-.069.174l-19.225 50.479c-1.519 3.988.482 8.452 4.47 9.97.905.345 1.834.508 2.748.508 3.113 0 6.048-1.896 7.222-4.978l2.893-7.596h20.223l2.858 7.573c1.507 3.992 5.963 6.008 9.957 4.501 3.992-1.507 6.008-5.965 4.501-9.957zm-12.603 32.911 4.273-11.219 4.234 11.219z"/><path d="m306.275 367.697c-3.456.02-7.097.034-10.159.04v-43.47c0-4.267-3.459-7.726-7.726-7.726s-7.726 3.459-7.726 7.726v51.157c0 3.763 2.711 6.979 6.42 7.615.555.095.923.158 6.657.158 2.759 0 6.76-.015 12.621-.047 4.267-.024 7.707-3.502 7.683-7.77-.025-4.267-3.53-7.737-7.77-7.683z"/><path d="m359.744 367.741h-13.65v-9.914h12.074c4.267 0 7.726-3.459 7.726-7.726s-3.459-7.726-7.726-7.726h-12.074v-9.914h13.65c4.267 0 7.726-3.459 7.726-7.726s-3.459-7.726-7.726-7.726h-21.377c-4.267 0-7.726 3.459-7.726 7.726v50.733c0 4.267 3.459 7.726 7.726 7.726h21.377c4.267 0 7.726-3.459 7.726-7.726 0-4.268-3.459-7.727-7.726-7.727z"/><path d="m177.218 343.021c-6.056-2.234-11.711-4.662-13.684-5.523-.717-.664-.726-1.521-.656-2.009.094-.652.587-2.251 3.142-3.021 6.494-1.957 12.651 2.844 12.87 3.017 3.265 2.7 8.104 2.266 10.837-.983 2.745-3.267 2.323-8.14-.943-10.886-.505-.425-12.554-10.359-27.222-5.943-7.568 2.28-12.925 8.266-13.981 15.621-.995 6.934 2.012 13.604 7.848 17.408.342.222.7.418 1.072.584.298.133 7.387 3.288 15.368 6.232 3.106 1.145 6.278 3.19 5.867 5.493-.341 1.907-3.003 4.728-7.638 4.728-4.721 0-9.25-1.888-12.117-5.052-2.865-3.161-7.751-3.402-10.914-.537-3.161 2.866-3.402 7.752-.537 10.914 5.833 6.436 14.423 10.127 23.567 10.127 11.434 0 21.044-7.345 22.851-17.465 1.369-7.665-2.044-17.656-15.73-22.705z"/></g></g></svg>