<svg id="Layer_1" enable-background="new 0 0 512 512" height="512" viewBox="0 0 512 512" width="512" xmlns="http://www.w3.org/2000/svg"><g><g><path d="m324.334 460.8v17.067c0 18.851-15.282 34.133-34.133 34.133h-204.801c-18.851 0-34.134-15.282-34.134-34.133v-17.067l136.534-38.941z" fill="#365e7d"/><path d="m324.334 460.8-23.668-6.75v23.817c0 18.851-15.282 34.133-34.133 34.133h23.668c18.851 0 34.133-15.282 34.133-34.133z" fill="#2b4d66"/><path d="m324.333 51.2v-17.067c0-18.851-15.282-34.133-34.134-34.133h-204.799c-18.851 0-34.133 15.282-34.133 34.133v17.068l136.533 53.716z" fill="#365e7d"/><path d="m290.199 0h-23.667c18.851 0 34.133 15.282 34.133 34.133v26.378l23.667-9.311v-17.067c.001-18.851-15.281-34.133-34.133-34.133z" fill="#2b4d66"/><path d="m51.267 460.8h273.066v-409.598h-54.458c-3.232 0-6.187 1.826-7.633 4.717l-3.816 7.632c-1.446 2.891-4.4 4.717-7.632 4.717h-125.987c-3.232 0-6.187-1.826-7.633-4.717l-3.816-7.633c-1.445-2.891-4.4-4.717-7.633-4.717h-54.458z" fill="#b1e4f9"/><path d="m300.666 51.201h23.694v409.599h-23.694z" fill="#75cef9"/><g><path d="m204.866 494.126h-34.132c-4.267 0-7.726-3.459-7.726-7.726s3.459-7.726 7.726-7.726h34.132c4.267 0 7.726 3.459 7.726 7.726s-3.459 7.726-7.726 7.726z" fill="#eef1f3"/></g><g><path d="m196.334 41.859h-51.2c-4.267 0-7.726-3.459-7.726-7.726s3.459-7.726 7.726-7.726h51.2c4.267 0 7.726 3.459 7.726 7.726s-3.459 7.726-7.726 7.726z" fill="#eef1f3"/></g><g><g><path d="m230.467 41.859h-8.534c-4.267 0-7.726-3.459-7.726-7.726s3.459-7.726 7.726-7.726h8.534c4.267 0 7.726 3.459 7.726 7.726s-3.459 7.726-7.726 7.726z" fill="#cadae6"/></g></g><ellipse cx="187.8" cy="256" fill="#f4de7f" rx="51.2" ry="51.2" transform="matrix(.707 -.707 .707 .707 -126.014 207.776)"/><g><path d="m102.467 263.726h-17.067c-4.267 0-7.726-3.459-7.726-7.726s3.459-7.726 7.726-7.726h17.067c4.267 0 7.726 3.459 7.726 7.726s-3.459 7.726-7.726 7.726z" fill="#f0c078"/></g><g><path d="m115.392 336.134c-1.977 0-3.955-.754-5.463-2.263-3.018-3.017-3.018-7.909 0-10.926l12.068-12.068c3.017-3.017 7.91-3.017 10.927 0 3.018 3.017 3.018 7.91 0 10.927l-12.068 12.068c-1.509 1.508-3.486 2.262-5.464 2.262z" fill="#f0c078"/></g><g><path d="m187.8 366.127c-4.267 0-7.726-3.459-7.726-7.726v-17.067c0-4.267 3.459-7.726 7.726-7.726s7.726 3.459 7.726 7.726v17.066c.001 4.268-3.459 7.727-7.726 7.727z" fill="#f0c078"/></g><g><path d="m260.208 336.134c-1.977 0-3.955-.754-5.463-2.263l-12.068-12.068c-3.018-3.017-3.018-7.909 0-10.927 3.017-3.017 7.909-3.017 10.926 0l12.068 12.068c3.018 3.017 3.018 7.909 0 10.926-1.508 1.51-3.485 2.264-5.463 2.264z" fill="#f0c078"/></g><g><path d="m290.201 263.726h-17.067c-4.267 0-7.726-3.459-7.726-7.726s3.459-7.726 7.726-7.726h17.067c4.267 0 7.726 3.459 7.726 7.726s-3.459 7.726-7.726 7.726z" fill="#f0c078"/></g><g><path d="m248.14 203.386c-1.977 0-3.955-.755-5.463-2.263-3.018-3.017-3.018-7.91 0-10.927l12.068-12.068c3.017-3.017 7.91-3.017 10.927 0 3.018 3.017 3.018 7.91 0 10.927l-12.068 12.068c-1.509 1.509-3.486 2.263-5.464 2.263z" fill="#f0c078"/></g><g><path d="m187.8 178.393c-4.267 0-7.726-3.459-7.726-7.726v-17.067c0-4.267 3.459-7.726 7.726-7.726s7.726 3.459 7.726 7.726v17.067c.001 4.267-3.459 7.726-7.726 7.726z" fill="#f0c078"/></g><g><path d="m127.46 203.386c-1.977 0-3.955-.755-5.463-2.263l-12.068-12.068c-3.018-3.017-3.018-7.91 0-10.927 3.017-3.017 7.909-3.017 10.927 0l12.068 12.068c3.018 3.017 3.018 7.909 0 10.927-1.509 1.509-3.486 2.263-5.464 2.263z" fill="#f0c078"/></g><path d="m187.8 204.8c-4.08 0-8.043.491-11.847 1.393 22.562 5.347 39.353 25.61 39.353 49.807s-16.791 44.46-39.353 49.807c3.804.902 7.767 1.393 11.847 1.393 28.277 0 51.2-22.923 51.2-51.2s-22.923-51.2-51.2-51.2z" fill="#f0c078"/></g><g><path d="m455.734 339.549-48.272 48.272c-6.665 6.665-17.471 6.665-24.136 0l-65.949-65.949c-4.035-4.035-5.786-9.819-4.667-15.415l8.045-40.227c1.351-6.756 6.632-12.037 13.388-13.388l40.227-8.045c5.595-1.119 11.38.632 15.415 4.667l65.949 65.949c6.665 6.665 6.665 17.471 0 24.136z" fill="#dd646e"/><g><path d="m362.208 326.156c-1.977 0-3.955-.755-5.464-2.263l-3.017-3.017c-3.017-3.017-3.017-7.909 0-10.926 3.018-3.017 7.909-3.017 10.927 0l3.017 3.017c3.017 3.017 3.017 7.909 0 10.926-1.509 1.509-3.486 2.263-5.463 2.263z" fill="#eef1f3"/></g><g><path d="m419.531 335.207c-1.977 0-3.955-.754-5.464-2.263l-3.017-3.017c-3.017-3.017-3.017-7.909 0-10.926 3.018-3.017 7.91-3.017 10.928 0l3.017 3.017c3.017 3.017 3.017 7.909 0 10.927-1.51 1.507-3.488 2.262-5.464 2.262z" fill="#eef1f3"/></g><g><path d="m395.387 359.344c-3.608 0-6.834-2.54-7.568-6.213l-12.069-60.339c-.837-4.184 1.877-8.255 6.061-9.092 4.184-.834 8.254 1.877 9.091 6.061l12.068 60.34c.837 4.184-1.877 8.254-6.061 9.091-.51.103-1.02.152-1.522.152z" fill="#eef1f3"/></g><g><path d="m347.123 286.935c-1.977 0-3.955-.754-5.464-2.263l-56.971-56.972c-3.017-3.017-3.017-7.909 0-10.927 3.018-3.017 7.909-3.017 10.927 0l56.972 56.972c3.017 3.017 3.017 7.909 0 10.927-1.509 1.509-3.487 2.263-5.464 2.263z" fill="#eef1f3"/></g><path d="m455.734 315.413-65.949-65.949c-4.035-4.035-9.82-5.786-15.415-4.667l-11.314 2.263c1.087.679 2.109 1.478 3.035 2.404l65.949 65.949c6.665 6.665 6.665 17.471 0 24.136l-48.272 48.272c-.071.071-.149.13-.221.2 6.68 6.454 17.321 6.394 23.915-.2l48.272-48.272c6.665-6.665 6.665-17.471 0-24.136z" fill="#db4955"/></g></g></svg>