<svg id="Layer_1" enable-background="new 0 0 512 512" height="512" viewBox="0 0 512 512" width="512" xmlns="http://www.w3.org/2000/svg"><g><g fill="#b4cadb"><path d="m192.767 487.207h-90.367c-42.792 0-77.607-34.814-77.607-77.607v-90.367c0-4.267-3.459-7.726-7.726-7.726s-7.726 3.459-7.726 7.726v90.367c0 51.313 41.747 93.059 93.059 93.059h90.367c4.267 0 7.726-3.459 7.726-7.726s-3.459-7.726-7.726-7.726z"/><path d="m494.934 311.507c-4.268 0-7.726 3.459-7.726 7.726v90.367c0 42.792-34.815 77.607-77.608 77.607h-90.366c-4.268 0-7.726 3.459-7.726 7.726s3.459 7.726 7.726 7.726h90.366c51.314 0 93.06-41.747 93.06-93.059v-90.367c0-4.267-3.459-7.726-7.726-7.726z"/><path d="m409.6 9.34h-90.366c-4.268 0-7.726 3.459-7.726 7.726s3.459 7.726 7.726 7.726h90.366c42.793 0 77.608 34.814 77.608 77.607v90.367c0 4.267 3.459 7.726 7.726 7.726s7.726-3.459 7.726-7.726v-90.366c0-51.313-41.746-93.06-93.06-93.06z"/><path d="m192.767 9.34h-90.367c-51.313 0-93.06 41.747-93.06 93.06v90.367c0 4.267 3.459 7.726 7.726 7.726s7.726-3.459 7.726-7.726v-90.367c0-42.792 34.814-77.607 77.607-77.607h90.367c4.267 0 7.726-3.459 7.726-7.726s-3.458-7.727-7.725-7.727z"/></g><g><path d="m256 17.09c-131.946 0-238.91 106.964-238.91 238.91s106.964 238.91 238.91 238.91 238.91-106.964 238.91-238.91-106.964-238.91-238.91-238.91zm0 392.579c-84.869 0-153.669-68.8-153.669-153.669s68.8-153.669 153.669-153.669 153.669 68.8 153.669 153.669-68.8 153.669-153.669 153.669z" fill="#eef1f3"/><g><g fill="#cadae6"><path d="m437.032 306.425c-4.058-1.311-8.414.916-9.727 4.976-2.185 6.764-4.762 13.386-7.656 19.685-1.783 3.877-.083 8.465 3.794 10.247 1.045.481 2.142.708 3.221.708 2.926 0 5.723-1.67 7.025-4.501 3.149-6.85 5.948-14.046 8.32-21.387 1.312-4.061-.917-8.417-4.977-9.728z"/><path d="m331.085 419.649c-6.297 2.894-12.919 5.47-19.684 7.656-4.06 1.312-6.288 5.668-4.976 9.728 1.057 3.271 4.089 5.352 7.35 5.352.788 0 1.589-.121 2.378-.376 7.341-2.373 14.536-5.172 21.384-8.319 3.877-1.782 5.577-6.37 3.794-10.247-1.781-3.877-6.368-5.574-10.246-3.794z"/><path d="m200.599 427.305c-6.762-2.185-13.384-4.76-19.682-7.655-3.876-1.781-8.465-.082-10.247 3.794-1.782 3.877-.083 8.465 3.794 10.247 6.849 3.148 14.044 5.947 21.383 8.318.79.255 1.59.376 2.377.376 3.262 0 6.294-2.081 7.351-5.353 1.312-4.059-.916-8.414-4.976-9.727z"/><path d="m84.695 311.401c-1.312-4.06-5.668-6.289-9.728-4.976-4.06 1.312-6.288 5.667-4.976 9.728 2.373 7.342 5.172 14.538 8.32 21.387 1.302 2.832 4.1 4.502 7.026 4.502 1.079 0 2.176-.228 3.221-.708 3.877-1.782 5.576-6.37 3.794-10.247-2.895-6.299-5.472-12.922-7.657-19.686z"/><path d="m74.967 205.575c.79.255 1.59.376 2.377.376 3.262 0 6.294-2.082 7.351-5.353 2.186-6.764 4.761-13.386 7.655-19.683 1.782-3.877.084-8.465-3.793-10.247-3.879-1.783-8.465-.082-10.247 3.793-3.148 6.848-5.947 14.044-8.319 21.385-1.313 4.062.915 8.418 4.976 9.729z"/><path d="m195.848 69.99c-7.344 2.373-14.54 5.173-21.389 8.321-3.877 1.782-5.576 6.37-3.793 10.247 1.301 2.832 4.1 4.501 7.025 4.501 1.079 0 2.176-.228 3.222-.708 6.297-2.894 12.921-5.471 19.687-7.657 4.06-1.312 6.288-5.668 4.976-9.728-1.313-4.059-5.668-6.289-9.728-4.976z"/><path d="m311.4 84.695c6.764 2.186 13.384 4.76 19.678 7.653 1.045.481 2.142.708 3.221.708 2.926 0 5.723-1.67 7.025-4.502 1.783-3.877.083-8.465-3.794-10.247-6.845-3.146-14.038-5.945-21.378-8.317-4.057-1.311-8.415.916-9.728 4.976-1.311 4.061.916 8.416 4.976 9.729z"/><path d="m427.305 200.599c1.057 3.271 4.089 5.353 7.35 5.353.788 0 1.589-.121 2.377-.376 4.06-1.312 6.289-5.667 4.977-9.728-2.372-7.341-5.171-14.537-8.32-21.387-1.782-3.876-6.368-5.575-10.246-3.793-3.877 1.782-5.576 6.37-3.794 10.247 2.894 6.298 5.471 12.921 7.656 19.684z"/></g></g><path d="m256 17.09c-3.973 0-7.922.102-11.847.294 126.442 6.175 227.063 110.643 227.063 238.616s-100.621 232.441-227.063 238.616c3.925.192 7.874.294 11.847.294 131.946 0 238.91-106.964 238.91-238.91s-106.964-238.91-238.91-238.91z" fill="#cadae6"/><path d="m192.246 23.544 9.476 85.288c1.134 10.21 10.984 17.241 20.948 14.738 10.667-2.679 21.832-4.104 33.33-4.104s22.663 1.425 33.33 4.104c9.963 2.502 19.813-4.529 20.948-14.738l9.476-85.288c.974-8.768-4.884-16.885-13.536-18.608-16.239-3.234-33.029-4.936-50.218-4.936s-33.98 1.702-50.218 4.936c-8.652 1.723-14.511 9.84-13.536 18.608z" fill="#fe8d94"/><g fill="#dd646e"><path d="m319.754 488.456-9.476-85.288c-1.134-10.21-10.984-17.241-20.948-14.738-10.667 2.679-21.832 4.104-33.33 4.104-11.499 0-22.663-1.425-33.33-4.104-9.963-2.502-19.813 4.529-20.948 14.738l-9.476 85.288c-.974 8.768 4.884 16.885 13.536 18.608 16.238 3.234 33.029 4.936 50.218 4.936s33.979-1.702 50.218-4.936c8.652-1.723 14.51-9.84 13.536-18.608z"/><path d="m488.456 192.246-85.288 9.476c-10.21 1.135-17.241 10.984-14.738 20.948 2.679 10.667 4.104 21.832 4.104 33.33 0 11.499-1.425 22.663-4.104 33.33-2.502 9.963 4.528 19.813 14.738 20.948l85.288 9.476c8.768.974 16.885-4.884 18.608-13.536 3.234-16.238 4.936-33.029 4.936-50.218s-1.702-33.979-4.936-50.218c-1.723-8.652-9.84-14.51-18.608-13.536z"/><path d="m23.544 319.754 85.288-9.476c10.21-1.134 17.241-10.984 14.738-20.948-2.679-10.667-4.104-21.832-4.104-33.33s1.425-22.663 4.104-33.33c2.502-9.963-4.529-19.813-14.738-20.948l-85.288-9.476c-8.768-.974-16.885 4.884-18.608 13.536-3.234 16.239-4.936 33.029-4.936 50.218s1.702 33.98 4.936 50.218c1.723 8.652 9.84 14.511 18.608 13.536z"/><path d="m192.246 23.544 9.476 85.288c1.134 10.21 10.984 17.241 20.948 14.738 10.667-2.679 21.832-4.104 33.33-4.104s22.663 1.425 33.33 4.104c9.963 2.502 19.813-4.529 20.948-14.738l9.476-85.288c.974-8.768-4.884-16.885-13.536-18.608-16.239-3.234-33.029-4.936-50.218-4.936s-33.98 1.702-50.218 4.936c-8.652 1.723-14.511 9.84-13.536 18.608z"/></g><path d="m306.218 4.936c-16.239-3.234-33.029-4.936-50.218-4.936-3.972 0-7.92.101-11.847.28 13.069.598 25.885 2.169 38.371 4.655 8.652 1.723 14.511 9.84 13.536 18.608l-9.476 85.288c-.598 5.381-3.629 9.86-7.809 12.545 3.566.6 7.089 1.323 10.555 2.194 9.963 2.502 19.813-4.529 20.948-14.738l9.476-85.288c.974-8.768-4.884-16.885-13.536-18.608z" fill="#db4955"/><path d="m306.218 507.064c-16.239 3.234-33.029 4.936-50.218 4.936-3.972 0-7.92-.101-11.847-.281 13.069-.598 25.885-2.169 38.371-4.655 8.652-1.723 14.511-9.84 13.536-18.608l-9.476-85.288c-.598-5.381-3.629-9.86-7.809-12.544 3.566-.6 7.089-1.323 10.555-2.194 9.963-2.502 19.813 4.529 20.948 14.738l9.476 85.288c.974 8.768-4.884 16.885-13.536 18.608z" fill="#db4955"/><path d="m507.064 205.782c-1.723-8.652-9.84-14.511-18.608-13.536l-14.365 1.596c4.649 2.245 8.206 6.549 9.279 11.94 3.234 16.238 4.936 33.029 4.936 50.218s-1.702 33.98-4.936 50.218c-1.074 5.391-4.63 9.695-9.279 11.94l14.365 1.596c8.768.974 16.885-4.884 18.608-13.536 3.234-16.238 4.936-33.029 4.936-50.218s-1.702-33.979-4.936-50.218z" fill="#db4955"/></g><g><circle cx="256" cy="255.989" fill="#dd646e" r="102.4"/><path d="m256 153.589c-4.008 0-7.959.238-11.847.686 50.972 5.873 90.553 49.168 90.553 101.714s-39.581 95.84-90.553 101.714c3.888.448 7.839.686 11.847.686 56.554 0 102.4-45.846 102.4-102.4s-45.846-102.4-102.4-102.4z" fill="#db4955"/><g fill="#eef1f3"><path d="m221.867 246.649c13.67 0 24.793-11.122 24.793-24.793s-11.122-24.793-24.793-24.793-24.793 11.122-24.793 24.793c-.001 13.67 11.122 24.793 24.793 24.793zm0-34.134c5.15 0 9.34 4.19 9.34 9.34s-4.19 9.34-9.34 9.34-9.341-4.19-9.341-9.34 4.19-9.34 9.341-9.34z"/><path d="m290.134 265.329c-13.671 0-24.794 11.122-24.794 24.793s11.123 24.793 24.794 24.793 24.793-11.122 24.793-24.793-11.122-24.793-24.793-24.793zm0 34.133c-5.151 0-9.341-4.19-9.341-9.341 0-5.15 4.19-9.34 9.341-9.34 5.15 0 9.34 4.19 9.34 9.34 0 5.151-4.19 9.341-9.34 9.341z"/><path d="m312.664 199.326c-3.017-3.018-7.909-3.018-10.928 0l-102.4 102.4c-3.018 3.017-3.018 7.91 0 10.927 1.509 1.509 3.486 2.263 5.463 2.263s3.955-.755 5.463-2.263l102.401-102.4c3.018-3.018 3.018-7.91.001-10.927z"/></g></g></g></svg>