<svg id="Layer_1" enable-background="new 0 0 512 512" height="512" viewBox="0 0 512 512" width="512" xmlns="http://www.w3.org/2000/svg"><g><g><path d="m168.5 53.369c3.543-3.543 3.293-9.374-.553-12.585-40.231-33.592-100.177-31.5-137.952 6.275-37.776 37.775-39.867 97.722-6.275 137.952 3.212 3.846 9.042 4.096 12.585.553l17.826-17.826 14.139-82.405 82.405-14.139z" fill="#e8aa41"/><g fill="#e88f41"><path d="m59.063 139.113-39.93 39.93c1.455 2.028 2.966 4.028 4.587 5.969 3.211 3.846 9.042 4.096 12.585.553l17.912-17.912z"/><path d="m167.947 40.784c-22.153-18.497-50.282-26.15-77.398-23.008 19.245 2.228 37.981 9.88 53.704 23.008 3.846 3.212 4.096 9.042.553 12.586l-22.733 22.733 28.601-4.907 17.826-17.827c3.543-3.543 3.293-9.374-.553-12.585z"/></g><path d="m54.131 167.739c-26.66-26.66-26.66-69.884 0-96.544s69.884-26.66 96.544 0z" fill="#f4de7f"/><path d="m43.753 154.422c2.834 4.748 6.289 9.229 10.377 13.317l96.544-96.544c-4.088-4.088-8.569-7.543-13.317-10.377z" fill="#f0c078"/><path d="m68.325 103.761 31.403 392.533c.71 8.87 8.114 15.706 17.012 15.706h176.126c8.898 0 16.303-6.836 17.012-15.706l31.403-392.533c.794-9.93-7.05-18.428-17.012-18.428h-238.932c-9.962 0-17.807 8.498-17.012 18.428z" fill="#eef1f3"/><path d="m324.268 85.333h-23.694c9.962 0 17.807 8.497 17.012 18.428l-31.403 392.533c-.71 8.869-8.114 15.706-17.012 15.706h23.694c8.898 0 16.303-6.836 17.012-15.706l31.403-392.533c.795-9.93-7.05-18.428-17.012-18.428z" fill="#cadae6"/><g><g><g><path d="m292.625 139.034-6.233-17.301-22.23-11.162-21.736 94.228v8.537h35.039l-.009-8.536z" fill="#cadae6"/></g><g><path d="m315.003 4.058-16.629-3.838c-4.592-1.06-9.174 1.804-10.233 6.396l-7.986 34.62 12.471 24.18 15.997 4.264 12.776-55.389c1.059-4.592-1.804-9.174-6.396-10.233z" fill="#cadae6"/></g></g></g><path d="m308.623 69.687-28.468-28.468-15.993 69.34 28.463 28.464z" fill="#dd646e"/><g><path d="m111.387 214.014 20.48 256c.355 4.435 4.057 7.853 8.506 7.853h128.858c4.449 0 8.152-3.418 8.506-7.853l20.48-256c.397-4.965-3.525-9.214-8.506-9.214h-169.817c-4.982 0-8.904 4.249-8.507 9.214z" fill="#e8aa41"/><path d="m289.712 204.8h-23.694c4.981 0 8.903 4.249 8.506 9.214l-20.48 256c-.355 4.435-4.057 7.853-8.506 7.853h23.694c4.449 0 8.152-3.418 8.506-7.853l20.48-256c.397-4.965-3.525-9.214-8.506-9.214z" fill="#e88f41"/></g><path d="m194.295 224.973-34 9.11c-4.268 1.144-8.655-1.389-9.798-5.657l-9.11-34.001c-1.143-4.268 1.389-8.655 5.657-9.798l34.001-9.11c4.268-1.144 8.654 1.389 9.798 5.657l9.111 34.001c1.142 4.267-1.391 8.654-5.659 9.798z" fill="#cadae6"/><path d="m206.776 318.839 34.001 9.11c4.268 1.144 8.654-1.389 9.798-5.657l9.111-34.001c1.143-4.268-1.389-8.654-5.657-9.798l-34.001-9.11c-4.268-1.144-8.654 1.389-9.798 5.657l-9.11 34.001c-1.144 4.268 1.389 8.655 5.656 9.798z" fill="#cadae6"/><g><path d="m162.136 297.86h-8.534c-4.268 0-7.726-3.459-7.726-7.726s3.459-7.726 7.726-7.726h8.534c4.268 0 7.726 3.459 7.726 7.726s-3.458 7.726-7.726 7.726z" fill="#e88f41"/></g><g><path d="m243.203 383.193h-8.533c-4.268 0-7.726-3.459-7.726-7.726s3.459-7.726 7.726-7.726h8.533c4.268 0 7.726 3.459 7.726 7.726s-3.459 7.726-7.726 7.726z" fill="#e88f41"/></g><g><path d="m183.469 434.393h-8.533c-4.268 0-7.726-3.459-7.726-7.726s3.459-7.726 7.726-7.726h8.533c4.268 0 7.726 3.459 7.726 7.726.001 4.267-3.458 7.726-7.726 7.726z" fill="#e88f41"/></g></g><g><path d="m506.999 339.543-48.272 48.272c-6.665 6.665-17.471 6.665-24.136 0l-65.949-65.949c-4.035-4.035-5.786-9.82-4.667-15.415l8.045-40.227c1.351-6.756 6.632-12.037 13.388-13.388l40.227-8.045c5.595-1.119 11.38.632 15.415 4.667l65.949 65.949c6.665 6.665 6.665 17.471 0 24.136z" fill="#dd646e"/><g><path d="m413.472 326.15c-1.977 0-3.955-.754-5.464-2.263l-3.017-3.017c-3.017-3.017-3.017-7.909 0-10.927 3.018-3.017 7.909-3.017 10.928 0l3.017 3.017c3.017 3.017 3.017 7.909 0 10.926-1.509 1.51-3.487 2.264-5.464 2.264z" fill="#eff6ff"/></g><g><path d="m470.795 335.201c-1.977 0-3.955-.754-5.464-2.263l-3.017-3.017c-3.017-3.017-3.017-7.909 0-10.926 3.018-3.017 7.91-3.017 10.928 0l3.017 3.017c3.017 3.017 3.017 7.909 0 10.927-1.509 1.507-3.487 2.262-5.464 2.262z" fill="#eff6ff"/></g><g><path d="m446.651 359.338c-3.608 0-6.834-2.54-7.568-6.213l-12.068-60.34c-.837-4.184 1.877-8.254 6.061-9.091 4.184-.834 8.255 1.877 9.092 6.061l12.068 60.339c.837 4.184-1.877 8.255-6.061 9.092-.512.103-1.022.152-1.524.152z" fill="#eff6ff"/></g><g><path d="m398.387 286.929c-1.977 0-3.955-.755-5.464-2.263l-70.946-70.945c-3.017-3.017-3.017-7.91 0-10.927 3.018-3.017 7.91-3.017 10.928 0l70.945 70.946c3.017 3.017 3.017 7.91 0 10.927-1.508 1.508-3.486 2.262-5.463 2.262z" fill="#eff6ff"/></g><path d="m506.999 315.407-65.949-65.949c-4.035-4.035-9.82-5.786-15.415-4.667l-11.314 2.263c1.087.679 2.109 1.478 3.035 2.404l65.949 65.949c6.665 6.665 6.665 17.471 0 24.136l-48.272 48.272c-.071.071-.149.13-.221.2 6.68 6.454 17.321 6.394 23.915-.2l48.272-48.272c6.665-6.665 6.665-17.471 0-24.136z" fill="#db4955"/></g></g></svg>