<svg id="Layer_1" enable-background="new 0 0 512 512" height="512" viewBox="0 0 512 512" width="512" xmlns="http://www.w3.org/2000/svg"><g><path d="m356.771 302.723c40.897-30.669 67.358-79.541 67.358-134.594-.001-92.855-75.274-168.129-168.129-168.129s-168.128 75.274-168.128 168.128c0 54.999 26.409 103.83 67.238 134.504v14.032h201.539z" fill="#e8aa41"/><path d="m256 0c-3.924 0-7.814.146-11.671.41 87.409 5.995 156.457 78.788 156.457 167.718 0 55.053-26.461 103.926-67.358 134.594l-.123 13.942h23.342l.123-13.942c40.897-30.669 67.357-79.541 67.357-134.594.001-92.854-75.272-168.128-168.127-168.128z" fill="#e88f41"/><ellipse cx="256" cy="168.128" fill="#eff6ff" rx="134.503" ry="134.503" transform="matrix(.707 -.707 .707 .707 -43.904 230.263)"/><g><ellipse cx="256" cy="168.128" fill="#f4de7f" rx="50.438" ry="50.439" transform="matrix(.158 -.988 .988 .158 49.604 394.411)"/><g><g><path d="m256 91.676c-4.204 0-7.611-3.408-7.611-7.611v-16.814c0-4.204 3.407-7.611 7.611-7.611s7.611 3.408 7.611 7.611v16.813c.001 4.204-3.406 7.612-7.611 7.612z" fill="#f0c078"/></g></g><g><path d="m196.558 116.298c-1.947 0-3.896-.743-5.382-2.229l-11.889-11.888c-2.973-2.972-2.973-7.791-.001-10.764 2.973-2.972 7.793-2.973 10.764 0l11.889 11.888c2.973 2.972 2.973 7.791.001 10.764-1.486 1.485-3.435 2.229-5.382 2.229z" fill="#f0c078"/></g><g><path d="m171.936 175.74h-16.813c-4.204 0-7.611-3.408-7.611-7.611 0-4.204 3.407-7.612 7.611-7.612h16.813c4.204 0 7.611 3.408 7.611 7.612 0 4.203-3.407 7.611-7.611 7.611z" fill="#f0c078"/></g><g><path d="m184.669 247.071c-1.949 0-3.896-.743-5.382-2.229-2.972-2.973-2.972-7.792.001-10.764l11.889-11.889c2.971-2.973 7.791-2.972 10.764 0 2.972 2.973 2.972 7.792-.001 10.764l-11.889 11.888c-1.486 1.486-3.434 2.23-5.382 2.23z" fill="#f0c078"/></g><g><g><path d="m256 276.617c-4.204 0-7.611-3.408-7.611-7.611v-16.813c0-4.204 3.407-7.611 7.611-7.611s7.611 3.408 7.611 7.611v16.813c.001 4.203-3.406 7.611-7.611 7.611z" fill="#f0c078"/></g></g><g><path d="m327.331 247.071c-1.948 0-3.896-.743-5.383-2.229l-11.888-11.888c-2.972-2.973-2.972-7.792.001-10.764 2.972-2.973 7.792-2.972 10.764 0l11.888 11.889c2.972 2.973 2.972 7.792-.001 10.764-1.485 1.484-3.433 2.228-5.381 2.228z" fill="#f0c078"/></g><g><path d="m356.877 175.74h-16.813c-4.204 0-7.612-3.408-7.612-7.611 0-4.204 3.407-7.612 7.612-7.612h16.813c4.204 0 7.612 3.408 7.612 7.612-.001 4.203-3.408 7.611-7.612 7.611z" fill="#f0c078"/></g><g><path d="m315.443 116.298c-1.948 0-3.896-.743-5.382-2.229-2.973-2.972-2.973-7.791-.001-10.764l11.888-11.888c2.973-2.972 7.793-2.973 10.764 0 2.973 2.972 2.973 7.791.001 10.764l-11.888 11.888c-1.486 1.485-3.434 2.229-5.382 2.229z" fill="#f0c078"/></g><path d="m256 117.69c-4.019 0-7.923.484-11.671 1.372 22.227 5.268 38.768 25.229 38.768 49.066s-16.541 43.798-38.768 49.066c3.748.888 7.652 1.372 11.671 1.372 27.856 0 50.438-22.582 50.438-50.438.001-27.856-22.581-50.438-50.438-50.438z" fill="#f0c078"/></g><g><g fill="#dd646e"><path d="m244.653 451.967c-.026-.069-.053-.137-.08-.206-1.356-3.297-4.533-5.427-8.097-5.427-.003 0-.006 0-.009 0-3.569.004-6.746 2.14-8.095 5.443-.024.056-.046.113-.067.17l-18.939 49.728c-1.497 3.929.476 8.326 4.404 9.822.891.34 1.807.501 2.708.501 3.066 0 5.957-1.868 7.114-4.904l2.85-7.483h19.923l2.816 7.461c1.484 3.934 5.877 5.918 9.809 4.434 3.933-1.485 5.918-5.876 4.433-9.809zm-12.415 32.421 4.209-11.052 4.171 11.052z"/><path d="m305.57 496.73c-.015 0-.029 0-.044 0-3.404.019-6.991.033-10.008.039v-42.824c0-4.204-3.407-7.611-7.611-7.611s-7.611 3.408-7.611 7.611v50.396c0 3.708 2.671 6.875 6.326 7.502.547.094.909.156 6.553.156 2.717 0 6.66-.014 12.437-.047 4.203-.024 7.593-3.45 7.569-7.654-.024-4.188-3.426-7.568-7.611-7.568z"/><path d="m358.201 496.773h-13.448v-9.766h11.895c4.204 0 7.611-3.408 7.611-7.611 0-4.204-3.407-7.611-7.611-7.611h-11.895v-9.766h13.448c4.204 0 7.611-3.408 7.611-7.611 0-4.204-3.407-7.611-7.611-7.611h-21.059c-4.204 0-7.611 3.408-7.611 7.611v49.978c0 4.204 3.407 7.611 7.611 7.611h21.059c4.204 0 7.611-3.408 7.611-7.611s-3.406-7.613-7.611-7.613z"/><path d="m178.389 472.422c-5.966-2.201-11.537-4.593-13.479-5.441-.707-.654-.716-1.499-.647-1.979.092-.642.579-2.217 3.095-2.976 6.392-1.926 12.456 2.794 12.68 2.971 3.216 2.66 7.984 2.233 10.676-.969 2.705-3.218 2.288-8.019-.928-10.724-.499-.419-12.366-10.207-26.818-5.854-7.456 2.246-12.733 8.143-13.773 15.389-.98 6.83 1.982 13.401 7.731 17.149.336.219.689.411 1.055.575.293.131 7.279 3.24 15.141 6.14 3.059 1.128 6.184 3.143 5.779 5.411-.336 1.879-2.959 4.658-7.525 4.658-4.65 0-9.112-1.861-11.937-4.977-2.824-3.115-7.638-3.35-10.751-.527-3.115 2.823-3.351 7.637-.527 10.751 5.747 6.34 14.209 9.976 23.216 9.976 11.263 0 20.731-7.236 22.511-17.205 1.347-7.552-2.015-17.395-15.499-22.368z"/></g></g><g fill="#f4de7f"><path d="m71.059 464.454c-9.285 0-16.813 7.527-16.813 16.813s7.527 16.813 16.813 16.813h33.626c9.285 0 16.813-7.527 16.813-16.813 0-9.285-7.527-16.813-16.813-16.813z"/><path d="m407.315 464.454c-9.285 0-16.813 7.527-16.813 16.813s7.527 16.813 16.813 16.813h33.626c9.285 0 16.813-7.527 16.813-16.813 0-9.285-7.527-16.813-16.813-16.813z"/><path d="m475.379 420.321h-438.758c-8.837 0-16-7.163-16-16v-85.69c0-8.837 7.163-16 16-16h438.759c8.837 0 16 7.163 16 16v85.69c-.001 8.836-7.164 16-16.001 16z"/></g><path d="m475.142 302.631h-23.342c8.968 0 16.238 7.27 16.238 16.238v85.214c0 8.968-7.27 16.238-16.238 16.238h23.342c8.968 0 16.238-7.27 16.238-16.238v-85.214c-.001-8.968-7.27-16.238-16.238-16.238z" fill="#f0c078"/><g fill="#eff6ff"><path d="m247.241 335.648c-.793-3.891-4.116-6.764-8.08-6.989-3.947-.217-7.589 2.256-8.817 6.033-.029.088-.055.176-.081.265l-7.8 27.362-8.095-27.437c-.027-.09-.054-.179-.084-.267-1.264-3.768-4.926-6.2-8.881-5.947-3.965.266-7.258 3.177-8.024 7.164l-8.865 49.118c-.746 4.137 2.002 8.095 6.139 8.842 4.132.744 8.096-2.001 8.842-6.139l4.012-22.231 6.683 22.65c.027.091.055.181.085.271 1.2 3.572 4.529 5.964 8.294 5.963h.047c3.783-.02 7.11-2.451 8.277-6.049.029-.087.055-.175.08-.263l6.45-22.626 4.274 22.362c.789 4.13 4.783 6.836 8.905 6.047 4.129-.789 6.836-4.776 6.046-8.905z"/><path d="m331.948 335.648c-.794-3.892-4.118-6.766-8.084-6.989-3.94-.22-7.591 2.261-8.815 6.039-.028.086-.055.172-.079.259l-7.8 27.362-8.095-27.437c-.027-.09-.055-.179-.084-.267-1.264-3.766-4.927-6.218-8.878-5.947-3.963.264-7.258 3.173-8.028 7.164l-8.865 49.118c-.746 4.137 2.002 8.095 6.139 8.842 4.134.744 8.096-2.001 8.842-6.139l4.013-22.233 6.683 22.652c.026.088.053.176.083.264 1.198 3.575 4.528 5.97 8.296 5.97h.043c3.785-.018 7.113-2.449 8.281-6.049.029-.087.055-.175.08-.263l6.45-22.626 4.273 22.362c.79 4.13 4.78 6.836 8.905 6.047 4.129-.789 6.836-4.776 6.047-8.905z"/><path d="m386.504 344.328c4.204 0 7.611-3.408 7.611-7.612s-3.407-7.611-7.611-7.611h-21.058c-4.204 0-7.612 3.408-7.612 7.611v49.978c0 4.204 3.407 7.612 7.612 7.612h21.058c4.204 0 7.611-3.408 7.611-7.612s-3.407-7.611-7.611-7.611h-13.447v-9.766h11.894c4.204 0 7.611-3.408 7.611-7.611 0-4.204-3.407-7.611-7.611-7.611h-11.894v-9.766h13.447z"/><path d="m91.249 354.732c-5.967-2.201-11.537-4.593-13.479-5.441-.707-.655-.716-1.499-.647-1.979.092-.642.579-2.217 3.095-2.976 6.393-1.926 12.453 2.793 12.678 2.971 3.217 2.66 7.985 2.234 10.677-.969 2.705-3.217 2.29-8.019-.929-10.724-.499-.419-12.373-10.206-26.817-5.854-7.455 2.246-12.732 8.142-13.773 15.388-.98 6.831 1.982 13.402 7.731 17.151.336.219.689.411 1.055.575.293.131 7.278 3.24 15.14 6.14 3.06 1.128 6.184 3.143 5.779 5.411-.335 1.878-2.958 4.658-7.524 4.658-4.651 0-9.113-1.86-11.936-4.976-2.823-3.115-7.635-3.352-10.751-.529-3.115 2.823-3.352 7.636-.529 10.751 5.745 6.34 14.208 9.977 23.217 9.977 11.264 0 20.73-7.236 22.51-17.205 1.348-7.553-2.014-17.396-15.497-22.369z"/><path d="m439.524 368.565c7.863-3.078 13.428-10.518 13.428-19.2 0-11.425-9.627-20.72-21.462-20.72h-13.403c-.003 0-.005 0-.008 0s-.005 0-.008 0c-4.204 0-7.612 3.408-7.612 7.612v50.438c0 4.204 3.407 7.612 7.612 7.612 4.204 0 7.611-3.408 7.611-7.612v-10.815l13.944 15.844c1.504 1.71 3.605 2.583 5.717 2.583 1.786 0 3.58-.625 5.026-1.898 3.156-2.777 3.462-7.587.685-10.742zm-8.033-24.697c3.382 0 6.239 2.517 6.239 5.497s-2.857 5.497-6.239 5.497c-1.374 0-3.545.008-5.74.018-.01-2.119-.018-4.2-.018-5.515 0-1.13-.005-3.269-.011-5.497z"/><path d="m164.343 328.645c-4.204 0-7.611 3.408-7.611 7.612v34.671c0 2.168-.632 4.703-5.319 7.063-1.46.735-3.056 1.093-4.879 1.093-.006 0-.013 0-.019 0-1.969-.002-3.674-.481-5.209-1.462-3.663-2.341-4.399-4.283-4.399-6.658v-34.707c0-4.204-3.407-7.612-7.612-7.612-4.204 0-7.611 3.408-7.611 7.612v34.707c0 8.086 3.844 14.642 11.426 19.487 3.995 2.552 8.498 3.85 13.386 3.856h.038c4.198 0 8.144-.915 11.726-2.719 8.831-4.448 13.695-11.784 13.695-20.659v-34.671c-.001-4.205-3.408-7.613-7.612-7.613z"/></g><path d="m440.941 464.454h-23.345c9.286 0 16.813 7.527 16.813 16.813s-7.527 16.813-16.813 16.813h23.345c9.285 0 16.813-7.527 16.813-16.813 0-9.285-7.528-16.813-16.813-16.813z" fill="#f0c078"/><path d="m104.685 464.454h-23.345c9.286 0 16.813 7.527 16.813 16.813s-7.527 16.813-16.813 16.813h23.344c9.285 0 16.813-7.527 16.813-16.813 0-9.285-7.527-16.813-16.812-16.813z" fill="#f0c078"/></g></svg>