<svg id="Layer_1" enable-background="new 0 0 512 512" height="512" viewBox="0 0 512 512" width="512" xmlns="http://www.w3.org/2000/svg"><g><path d="m511.385 238.122c.408 5.907.615 11.868.615 17.878 0 19.811-2.25 39.097-6.51 57.616l-12.701 39.859c-21.349 51.805-59.204 95.068-107.014 123.241l-237.978 11.361c-62.797-29.329-111.723-83.396-134.242-149.664l52.068-253.567c46.861-52.09 114.794-84.846 190.377-84.846 20.094 0 39.648 2.315 58.408 6.693z" fill="#eef1f3"/><g fill="#e4f6ff"><path d="m483.224 205.035c3.328 16.471 5.082 33.513 5.082 50.965 0 19.811-2.25 39.097-6.509 57.616l-12.702 39.859c-21.667 52.577-60.341 96.344-109.165 124.474l25.845-1.234c47.811-28.172 85.665-71.436 107.014-123.241l12.702-39.859c4.259-18.518 6.509-37.804 6.509-57.615 0-6.01-.207-11.971-.615-17.878z"/><path d="m244.226.287c27.513 1.262 53.892 6.866 78.469 16.143l-8.287-9.737c-18.76-4.378-38.314-6.693-58.408-6.693-3.948 0-7.87.11-11.774.287z"/></g><path d="m256 0c-3.972 0-7.919.104-11.847.283 135.884 6.191 244.153 118.304 244.153 255.717 0 19.811-2.25 39.097-6.509 57.616l-12.702 39.859c-36.912 89.571-123.171 153.597-224.915 158.243 3.919.178 7.857.282 11.82.282 106.872 0 198.449-65.488 236.789-158.525l12.702-39.859c4.259-18.519 6.509-37.805 6.509-57.616 0-141.385-114.615-256-256-256z" fill="#cadae6"/><g fill="#e8aa41"><path d="m65.647 84.837c-40.806 45.351-65.647 105.353-65.647 171.163 0 28.832 4.77 56.549 13.557 82.41 85.757-117.936 211.895-142.058 278.125-140.48l32.584-10.196-25.124-23.096c-33.912-27.25-111.18-79.803-233.495-79.801z"/><path d="m314.389 6.696c28.73 55.708 24.733 121.103 19.019 148.147l-9.142 32.89 34.057 2.307c34.036 2.795 90.23 13.138 153.038 47.961-7.867-113.244-89.374-206.203-196.972-231.305z"/><path d="m369.545 278.331c-8.796-26.079-18.907-46.748-27.34-61.561l-17.938-29.037-5.843 33.63c-12.799 55.659-52.415 170.335-171.127 266.458 32.996 15.5 69.833 24.179 108.703 24.179 47.371 0 91.732-12.875 129.789-35.304 7.63-53.185 5.502-99.864-1.318-139.282z"/></g><ellipse cx="324.267" cy="187.733" fill="#cd8051" rx="34.133" ry="34.133" transform="matrix(.707 -.707 .707 .707 -37.772 284.277)"/><path d="m84.784 353.437-13.904 10.232c-3.562 2.621-4.536 7.564-2.161 11.294 9.713 15.261 21.234 29.258 34.27 41.682 3.598 3.429 9.359 3.053 12.464-.828l10.795-13.494c2.746-3.432 2.373-8.363-.785-11.42-10.846-10.498-20.427-22.294-28.499-35.134-2.621-4.168-8.215-5.251-12.18-2.332z" fill="#f4de7f"/><path d="m314.389 6.696c1.386 2.688 2.674 5.404 3.911 8.131 89.816 32.025 156.486 112.781 168.17 210.448 8.154 3.833 16.46 8.052 24.89 12.726-7.866-113.244-89.373-206.203-196.971-231.305z" fill="#e88f41"/><path d="m256 512c47.371 0 91.732-12.875 129.789-35.304.846-5.899 1.553-11.704 2.167-17.441-40.174 30.807-89.745 49.973-143.67 52.458 3.885.175 7.786.287 11.714.287z" fill="#e88f41"/><g><path d="m507.001 339.263-48.272 48.272c-6.665 6.665-17.471 6.665-24.136 0l-65.949-65.949c-4.035-4.035-5.786-9.819-4.667-15.415l8.045-40.227c1.351-6.756 6.632-12.037 13.388-13.388l40.226-8.045c5.596-1.119 11.38.632 15.415 4.667l65.949 65.949c6.666 6.665 6.666 17.471.001 24.136z" fill="#dd646e"/><g><path d="m413.474 325.87c-1.977 0-3.955-.754-5.464-2.263l-3.017-3.017c-3.017-3.017-3.017-7.91 0-10.927 3.018-3.017 7.91-3.017 10.928 0l3.017 3.017c3.017 3.017 3.017 7.91 0 10.927-1.509 1.509-3.487 2.263-5.464 2.263z" fill="#eef1f3"/></g><g><path d="m470.797 334.921c-1.977 0-3.955-.755-5.464-2.263l-3.017-3.017c-3.017-3.017-3.017-7.909 0-10.927 3.018-3.017 7.91-3.017 10.928 0l3.017 3.017c3.017 3.017 3.017 7.909 0 10.926-1.509 1.51-3.487 2.264-5.464 2.264z" fill="#eef1f3"/></g><g><path d="m446.654 359.059c-3.608 0-6.834-2.54-7.568-6.213l-12.068-60.34c-.837-4.184 1.877-8.254 6.061-9.091 4.184-.834 8.255 1.877 9.092 6.061l12.068 60.34c.837 4.184-1.877 8.255-6.061 9.092-.512.101-1.022.151-1.524.151z" fill="#eef1f3"/></g><g><g><path d="m398.39 286.65c-1.977 0-3.955-.755-5.464-2.263l-56.972-56.972c-3.017-3.017-3.017-7.91 0-10.927 3.018-3.017 7.909-3.017 10.928 0l56.972 56.972c3.017 3.017 3.017 7.909 0 10.927-1.509 1.508-3.487 2.263-5.464 2.263z" fill="#cadae6"/></g></g><path d="m507.001 315.127-65.949-65.949c-4.035-4.035-9.82-5.786-15.415-4.667l-11.314 2.263c1.087.679 2.109 1.478 3.035 2.404l65.949 65.949c6.665 6.665 6.665 17.471 0 24.136l-48.272 48.272c-.071.071-.149.13-.221.2 6.68 6.453 17.321 6.394 23.915-.2l48.272-48.272c6.665-6.665 6.665-17.471 0-24.136z" fill="#db4955"/></g></g></svg>