<svg id="Layer_1" enable-background="new 0 0 512 512" height="512" viewBox="0 0 512 512" width="512" xmlns="http://www.w3.org/2000/svg"><g><path d="m34.133 426.667c0 9.426 7.641 17.067 17.067 17.067h443.733c9.426 0 17.067-7.641 17.067-17.067v-409.6c0-9.426-7.641-17.067-17.067-17.067h-443.733c-9.426 0-17.067 7.641-17.067 17.067z" fill="#eef1f3"/><g><g><g><path d="m333.248 172.38 144.619 23.652v-153.365c0-4.713-3.82-8.533-8.533-8.533h-42.667l-17.942 4.756-16.19-4.756h-139.807z" fill="#b3e59f"/></g><g><path d="m315.337 198.485-102.329-164.352h-136.208c-4.713 0-8.533 3.82-8.533 8.533v95.21l137.245 271.724h101.688l18.673-9.375 15.46 9.375h128c4.713 0 8.533-3.82 8.533-8.533v-110.934l-9.521-17.521 9.522-16.612v-25.364z" fill="#b3e59f"/></g></g></g><ellipse cx="392.533" cy="341.333" fill="#eef1f3" rx="17.067" ry="17.067" transform="matrix(.25 -.968 .968 .25 -36.137 636.007)"/><path d="m334.884 172.201-82.156-138.068h-39.719l96.591 162.327c2.568 4.316 6.907 7.281 11.861 8.107l156.406 26.068v-34.604z" fill="#b1e4f9"/><path d="m494.933 0h-23.694c9.426 0 17.067 7.641 17.067 17.067v409.6c0 9.426-7.641 17.067-17.067 17.067h23.694c9.426 0 17.067-7.641 17.067-17.067v-409.6c0-9.426-7.641-17.067-17.067-17.067z" fill="#cadae6"/><path d="m469.333 34.133h-23.694c4.713 0 8.533 3.82 8.533 8.533v358.4c0 4.713-3.82 8.533-8.533 8.533h23.694c4.713 0 8.533-3.82 8.533-8.533v-110.933l-9.521-17.521 9.522-16.612v-213.333c0-4.713-3.821-8.534-8.534-8.534z" fill="#95d6a4"/><path d="m454.172 226.686 23.695 3.949v-34.604l-23.695-3.949z" fill="#75cef9"/><path d="m236.78 290.133h70.42v119.467h34.133v-119.467h136.534v-34.133h-51.2v-221.867h-34.134v221.867h-151.446z" fill="#f4de7f"/><g><path d="m273.067 255.998c0-75.712-61.627-137.031-137.455-136.53-75.533.499-136.718 63.07-135.597 138.595.364 24.5 7.188 47.433 18.834 67.182l102.904 178.222c6.569 11.377 22.991 11.377 29.56 0l102.904-178.222c11.972-20.303 18.85-43.97 18.85-69.247z" fill="#e8aa41"/><path d="m135.611 119.468c-3.68.024-7.324.201-10.93.514 69.859 6.003 124.691 64.602 124.691 136.016 0 25.277-6.877 48.944-18.85 69.247l-102.903 178.222c-.832 1.442-1.824 2.699-2.933 3.775 7.641 7.417 20.89 6.16 26.627-3.775l102.904-178.222c11.973-20.303 18.85-43.97 18.85-69.247 0-75.712-61.627-137.031-137.456-136.53z" fill="#e88f41"/><g><circle cx="136.533" cy="256" fill="#dd646e" r="102.4"/><path d="m136.533 153.6c-4.008 0-7.959.238-11.847.686 50.972 5.873 90.553 49.168 90.553 101.714s-39.581 95.84-90.553 101.714c3.888.448 7.839.686 11.847.686 56.554 0 102.4-45.846 102.4-102.4s-45.846-102.4-102.4-102.4z" fill="#db4955"/><g fill="#eef1f3"><path d="m102.4 246.66c13.67 0 24.793-11.122 24.793-24.793s-11.122-24.793-24.793-24.793-24.793 11.122-24.793 24.793 11.122 24.793 24.793 24.793zm0-34.133c5.15 0 9.34 4.19 9.34 9.34s-4.19 9.341-9.34 9.341-9.341-4.19-9.341-9.341c0-5.15 4.191-9.34 9.341-9.34z"/><path d="m170.667 265.341c-13.671 0-24.794 11.122-24.794 24.793s11.123 24.793 24.794 24.793 24.793-11.122 24.793-24.793-11.122-24.793-24.793-24.793zm0 34.133c-5.151 0-9.341-4.19-9.341-9.341 0-5.15 4.19-9.34 9.341-9.34 5.15 0 9.34 4.19 9.34 9.34 0 5.151-4.19 9.341-9.34 9.341z"/><path d="m193.197 199.337c-3.017-3.018-7.908-3.018-10.928 0l-102.4 102.4c-3.018 3.017-3.018 7.909 0 10.926 1.509 1.509 3.486 2.263 5.463 2.263s3.955-.755 5.463-2.263l102.401-102.4c3.018-3.017 3.018-7.909.001-10.926z"/></g></g></g></g></svg>