<svg id="Layer_1" enable-background="new 0 0 512 512" height="512" viewBox="0 0 512 512" width="512" xmlns="http://www.w3.org/2000/svg"><g><path d="m141.321 303.529h66.049v68.251h-66.049z" fill="#cadae6" transform="matrix(.707 -.707 .707 .707 -187.693 222.178)"/><g><path d="m89.039 338.505 12.48-12.48c6.435-6.435 16.869-6.435 23.305 0l61.151 61.151c6.436 6.435 6.436 16.869 0 23.305l-12.477 12.477-42.229-36.024z" fill="#cd8051"/><path d="m185.975 387.176-61.151-61.151c-6.436-6.435-16.869-6.435-23.305 0l-.192.192 60.959 60.959c6.436 6.435 6.436 16.869 0 23.305l-1.572 1.571 12.784 10.905 12.477-12.477c6.435-6.435 6.435-16.869 0-23.304z" fill="#c46b4b"/><path d="m139.334 457.122-52.465 52.465c-3.218 3.218-8.435 3.218-11.652 0l-72.804-72.804c-3.218-3.218-3.218-8.435 0-11.652l52.464-52.464 49.01 37.506z" fill="#cd8051"/><path d="m129.101 443.568-59.93 59.973 6.045 6.045c3.218 3.218 8.435 3.218 11.652 0l52.465-52.465z" fill="#c46b4b"/><path d="m90.032 338.093h48.312v119.438h-48.312z" fill="#f4de7f" transform="matrix(.707 -.707 .707 .707 -247.85 197.26)"/><path d="m126.312 425.681h48.312v16.822h-48.312z" fill="#f0c078" transform="matrix(.707 -.707 .707 .707 -262.878 233.54)"/></g><g><circle cx="324.311" cy="187.689" fill="#eef1f3" r="187.689"/><circle cx="324.311" cy="187.689" fill="#b1e4f9" r="153.564"/><path d="m457.027 54.973c-39.663-39.663-92.66-57.85-144.561-54.588 44.013 2.766 87.237 20.954 120.872 54.588 73.297 73.297 73.297 192.135 0 265.432-33.635 33.635-76.859 51.822-120.872 54.589 51.901 3.262 104.898-14.926 144.561-54.589 73.297-73.297 73.297-192.135 0-265.432z" fill="#cadae6"/><path d="m432.897 79.103c-33-33-77.282-47.834-120.43-44.516 35.264 2.712 69.771 17.545 96.742 44.516 59.97 59.97 59.97 157.202 0 217.172-26.97 26.97-61.478 41.804-96.742 44.516 43.148 3.318 87.43-11.516 120.43-44.516 59.97-59.97 59.97-157.202 0-217.172z" fill="#75cef9"/></g><g><ellipse cx="324.311" cy="187.689" fill="#dd646e" rx="102.376" ry="102.376" transform="matrix(.707 -.707 .707 .707 -37.728 284.295)"/><path d="m324.311 85.313c-4.007 0-7.957.238-11.844.686 50.96 5.872 90.532 49.156 90.532 101.69s-39.572 95.818-90.532 101.69c3.887.448 7.838.686 11.844.686 56.541 0 102.376-45.835 102.376-102.376s-45.835-102.376-102.376-102.376z" fill="#db4955"/><g fill="#eef1f3"><path d="m290.186 178.351c13.667 0 24.787-11.12 24.787-24.787s-11.12-24.787-24.787-24.787c-13.668 0-24.787 11.119-24.787 24.787s11.119 24.787 24.787 24.787zm0-34.125c5.149 0 9.338 4.189 9.338 9.338s-4.189 9.338-9.338 9.338-9.338-4.189-9.338-9.338c-.001-5.149 4.188-9.338 9.338-9.338z"/><path d="m358.437 197.027c-13.668 0-24.788 11.119-24.788 24.787s11.12 24.787 24.788 24.787 24.787-11.12 24.787-24.787-11.12-24.787-24.787-24.787zm0 34.125c-5.15 0-9.339-4.189-9.339-9.338s4.189-9.338 9.339-9.338c5.149 0 9.338 4.189 9.338 9.338s-4.19 9.338-9.338 9.338z"/><path d="m380.961 131.039c-3.016-3.017-7.906-3.017-10.925 0l-102.375 102.376c-3.017 3.016-3.017 7.908 0 10.924 1.508 1.509 3.485 2.263 5.462 2.263 1.976 0 3.954-.754 5.462-2.263l102.377-102.376c3.016-3.016 3.016-7.907-.001-10.924z"/></g></g></g></svg>