<svg id="Layer_1" enable-background="new 0 0 512 512" height="512" viewBox="0 0 512 512" width="512" xmlns="http://www.w3.org/2000/svg"><g><path d="m461.384 512h-137.117l-68.267-13.392-68.267 13.392h-137.117c-9.103 0-16.483-7.38-16.483-16.483v-312.935h443.733v312.935c.001 9.103-7.379 16.483-16.482 16.483z" fill="#dd646e"/><path d="m454.172 182.582v312.935c0 9.103-7.38 16.483-16.483 16.483h23.694c9.103 0 16.483-7.38 16.483-16.483v-312.935z" fill="#db4955"/><g><g><path d="m187.733 485.593h-102.4c-4.268 0-7.726-3.459-7.726-7.726s3.459-7.726 7.726-7.726h102.4c4.268 0 7.726 3.459 7.726 7.726.001 4.267-3.458 7.726-7.726 7.726z" fill="#db4955"/></g></g><g><g><path d="m426.667 485.593h-102.4c-4.268 0-7.726-3.459-7.726-7.726s3.459-7.726 7.726-7.726h102.4c4.268 0 7.726 3.459 7.726 7.726s-3.458 7.726-7.726 7.726z" fill="#db4955"/></g></g><path d="m187.733 182.582h136.533v329.418h-136.533z" fill="#f4de7f"/><path d="m300.572 182.582h23.694v329.415h-23.694z" fill="#f0c078"/><g><path d="m438.735 313.663-48.272 48.272c-6.665 6.665-17.471 6.665-24.136 0l-65.949-65.949c-4.035-4.035-5.786-9.82-4.667-15.415l8.045-40.227c1.351-6.756 6.632-12.037 13.388-13.388l40.227-8.045c5.596-1.119 11.38.632 15.415 4.667l65.949 65.949c6.665 6.665 6.665 17.471 0 24.136z" fill="#b3e59f"/><g><path d="m345.208 300.27c-1.977 0-3.955-.754-5.464-2.263l-3.017-3.017c-3.017-3.017-3.017-7.91 0-10.927 3.018-3.017 7.909-3.017 10.927 0l3.017 3.017c3.017 3.017 3.017 7.91 0 10.927-1.508 1.509-3.486 2.263-5.463 2.263z" fill="#eef1f3"/></g><g><path d="m402.531 309.321c-1.977 0-3.955-.754-5.464-2.263l-3.017-3.017c-3.017-3.017-3.017-7.909 0-10.927 3.018-3.017 7.909-3.017 10.928 0l3.017 3.017c3.017 3.017 3.017 7.909 0 10.926-1.51 1.51-3.487 2.264-5.464 2.264z" fill="#eef1f3"/></g><g><path d="m378.387 333.458c-3.608 0-6.834-2.54-7.569-6.213l-12.068-60.34c-.837-4.184 1.877-8.254 6.061-9.091 4.184-.834 8.255 1.877 9.092 6.061l12.069 60.34c.837 4.184-1.877 8.254-6.061 9.092-.512.102-1.022.151-1.524.151z" fill="#eef1f3"/></g><g><g><path d="m330.123 261.049c-1.977 0-3.955-.755-5.464-2.263l-70.945-70.945c-3.017-3.017-3.017-7.91 0-10.927 3.018-3.017 7.909-3.017 10.928 0l70.946 70.946c3.017 3.017 3.017 7.909 0 10.926-1.51 1.509-3.488 2.263-5.465 2.263z" fill="#7e707d"/></g></g><path d="m438.734 289.527-65.949-65.949c-4.035-4.035-9.82-5.786-15.415-4.667l-11.314 2.263c1.087.679 2.109 1.478 3.035 2.404l65.949 65.949c6.665 6.665 6.665 17.471 0 24.136l-48.272 48.272c-.071.071-.149.13-.221.2 6.68 6.454 17.321 6.394 23.915-.2l48.272-48.272c6.665-6.665 6.665-17.471 0-24.136z" fill="#95d6a4"/></g><path d="m420.49 83.707c10.009-13.495 11.43-32.181 2.312-47.379l-11.851-19.752c-10.027-16.711-31.987-21.649-48.203-10.838l-72.615 48.41h-68.267l-72.615-48.41c-16.216-10.81-38.176-5.872-48.203 10.839l-11.85 19.752c-9.116 15.193-7.698 33.872 2.303 47.367l164.499 29.109z" fill="#f4de7f"/><path d="m392.48 88.662 28.004-4.954c10.012-13.495 11.437-32.181 2.318-47.38l-11.851-19.752c-8.628-14.379-26.087-20.031-41.123-14.445 7.025 2.592 13.26 7.497 17.429 14.445l11.851 19.752c10.298 17.164 7.149 38.774-6.628 52.334z" fill="#f0c078"/><path d="m420.498 83.689-9.547-15.912c-10.027-16.712-31.987-21.65-48.203-10.839l-72.615 48.41v7.457h101.851l.549-7.457 17.349-11.566c4.21-2.807 7.761-6.24 10.616-10.093z" fill="#e8aa41"/><path d="m221.867 112.805v-7.457l-72.615-48.41c-16.216-10.81-38.176-5.872-48.203 10.839l-9.547 15.912c2.855 3.853 6.406 7.286 10.615 10.093l17.35 11.566v7.457z" fill="#e8aa41"/><path d="m420.498 83.689-9.547-15.912c-1.646-2.743-3.619-5.163-5.83-7.254-.695 13.013-7.316 25.514-18.932 33.258l-17.35 11.566-.549 7.457h23.694l.549-7.457 17.349-11.566c4.21-2.806 7.761-6.239 10.616-10.092z" fill="#e88f41"/><path d="m290.133 110.498h-68.267v-58.484c0-17.673 14.327-32 32-32h4.267c17.673 0 32 14.327 32 32z" fill="#e8aa41"/><path d="m257.167 20.014h-2.335c-3.74 0-7.329.631-10.68 1.779 12.963 4.438 22.286 16.72 22.286 31.187v57.519h23.694v-57.519c.001-18.207-14.758-32.966-32.965-32.966z" fill="#e88f41"/><path d="m256 61.874c4.268 0 7.726-3.459 7.726-7.726s-3.459-7.726-7.726-7.726h-33.479c-.428 2.12-.655 4.313-.655 6.559v8.894h34.134z" fill="#e88f41"/><path d="m478.45 187.733h-137.117l-85.333-20.844-85.333 20.844h-137.117c-9.103 0-16.483-7.38-16.483-16.483v-49.42c0-9.103 7.38-16.483 16.483-16.483h137.117l85.333 13.124 85.333-13.123h137.117c9.103 0 16.483 7.38 16.483 16.483v49.42c0 9.103-7.379 16.482-16.483 16.482z" fill="#dd646e"/><path d="m478.45 105.348h-23.694c9.103 0 16.483 7.38 16.483 16.483v49.42c0 9.103-7.38 16.483-16.483 16.483h23.694c9.103 0 16.483-7.38 16.483-16.483v-49.42c0-9.104-7.379-16.483-16.483-16.483z" fill="#db4955"/><path d="m170.667 105.348h170.667v82.386h-170.667z" fill="#f4de7f"/><path d="m317.639 105.348h23.694v82.386h-23.694z" fill="#f0c078"/></g></svg>