<svg id="Layer_1" enable-background="new 0 0 512 512" height="512" viewBox="0 0 512 512" width="512" xmlns="http://www.w3.org/2000/svg"><g><g><path d="m310.734 208.261-48.272 48.272c-6.665 6.665-17.471 6.665-24.136 0l-65.949-65.949c-4.035-4.035-5.786-9.82-4.667-15.415l8.045-40.227c1.351-6.756 6.632-12.037 13.388-13.388l40.227-8.045c5.596-1.119 11.38.632 15.415 4.667l65.949 65.949c6.665 6.665 6.665 17.471 0 24.136z" fill="#dd646e"/><g><path d="m217.207 194.868c-1.977 0-3.955-.755-5.464-2.263l-3.017-3.017c-3.017-3.017-3.017-7.91 0-10.927 3.018-3.017 7.91-3.017 10.928 0l3.017 3.017c3.017 3.017 3.017 7.91 0 10.926-1.509 1.51-3.487 2.264-5.464 2.264z" fill="#eef1f3"/></g><g><path d="m274.53 203.919c-1.977 0-3.955-.755-5.464-2.263l-3.017-3.017c-3.017-3.017-3.017-7.909 0-10.926 3.018-3.017 7.909-3.017 10.928 0l3.017 3.017c3.017 3.017 3.017 7.909 0 10.927-1.509 1.508-3.487 2.262-5.464 2.262z" fill="#eef1f3"/></g><g><path d="m250.386 228.056c-3.608 0-6.834-2.54-7.568-6.213l-12.069-60.339c-.837-4.184 1.877-8.255 6.061-9.092 4.184-.834 8.255 1.877 9.092 6.061l12.068 60.339c.837 4.184-1.877 8.255-6.061 9.092-.511.103-1.021.152-1.523.152z" fill="#eef1f3"/></g><g><g><path d="m202.123 155.647c-1.977 0-3.955-.755-5.464-2.263l-70.945-70.945c-3.017-3.017-3.017-7.91 0-10.927 3.018-3.017 7.909-3.017 10.928 0l70.946 70.946c3.017 3.017 3.017 7.909 0 10.926-1.511 1.509-3.488 2.263-5.465 2.263z" fill="#365e7d"/></g></g><path d="m310.734 184.125-65.949-65.949c-4.035-4.035-9.82-5.786-15.415-4.667l-11.314 2.263c1.087.678 2.109 1.478 3.035 2.404l65.949 65.949c6.665 6.665 6.665 17.471 0 24.136l-48.272 48.272c-.071.071-.149.13-.221.2 6.68 6.453 17.321 6.394 23.915-.2l48.272-48.272c6.665-6.665 6.665-17.471 0-24.136z" fill="#db4955"/></g><g><g fill="#cadae6"><path d="m451.082 176.33 60.916 147.938v6.594h-36.914v-6.594l-55.395-134.531 9.541-8.933z"/><path d="m420.666 102.462-30.809-74.822c-2.063-5.011-6.384-8.745-11.642-10.059l-68.266-17.067c-9.147-2.286-18.41 3.273-20.697 12.418-2.285 9.145 3.274 18.41 12.418 20.697l51.545 12.886c5.258 1.314 9.578 5.048 11.642 10.059l24.416 59.296h13.219z"/></g><path d="m402.491 115.866-36.329-88.226c-2.063-5.011-6.384-8.745-11.642-10.059l-58.333-14.584c3.886-2.655 8.836-3.714 13.762-2.483l68.266 17.067c5.257 1.314 9.578 5.048 11.642 10.059l30.809 74.822z" fill="#b4cadb"/><path d="m451.081 176.327 60.917 147.941v6.594h-23.694v-6.594l-59.073-143.462z" fill="#b4cadb"/><path d="m419.701 189.794 31.368-13.468-30.427-73.922-31.368 13.467z" fill="#b3e59f"/><path d="m400.507 111.048 30.437 73.919 20.125-8.641-30.179-73.32-.248-.602z" fill="#95d6a4"/><g><path d="m60.918 176.33-60.916 147.938v6.594h36.914v-6.594l55.395-134.531-9.541-8.933z" fill="#cadae6"/><g><path d="m82.77 180.804-9.661-1.978-59.888 145.442v6.594h23.695v-6.594l55.395-134.531z" fill="#b4cadb"/></g><path d="m91.334 102.462 30.809-74.822c2.063-5.011 6.384-8.745 11.642-10.059l68.266-17.067c9.147-2.286 18.41 3.273 20.697 12.418 2.285 9.145-3.274 18.41-12.418 20.697l-51.545 12.886c-5.258 1.314-9.578 5.048-11.642 10.059l-24.416 59.296h-13.219z" fill="#cadae6"/><path d="m222.748 12.931c-2.286-9.145-11.55-14.704-20.697-12.418l-9.932 2.483c3.329 2.274 5.88 5.715 6.934 9.935 2.285 9.145-3.274 18.41-12.417 20.697l-51.545 12.886c-5.258 1.314-9.578 5.048-11.642 10.059l-21.975 53.369 8.034 5.927h13.219l24.416-59.296c2.063-5.011 6.384-8.744 11.642-10.059l51.545-12.886c9.144-2.286 14.703-11.552 12.418-20.697z" fill="#b4cadb"/></g><path d="m92.299 189.794-31.368-13.468 30.427-73.922 31.368 13.467z" fill="#b3e59f"/><path d="m102.591 107.226-30.437 73.919 20.145 8.649 30.427-73.923z" fill="#95d6a4"/></g><g><path d="m294.632 324.268h-77.264l15.804 34.133h44.046z" fill="#cadae6"/><path d="m.002 324.268v25.6c0 4.713 3.82 8.533 8.533 8.533h4.497c2.264 0 4.135 1.769 4.26 4.03l6.518 117.329c1.006 18.088 15.966 32.24 34.081 32.24h132.805c17.654 0 32.395-13.462 33.993-31.043l13.399-147.383c.454-4.997-3.48-9.306-8.498-9.306z" fill="#eef1f3"/><path d="m511.998 324.268v25.6c0 4.713-3.821 8.533-8.533 8.533h-4.497c-2.265 0-4.135 1.769-4.26 4.03l-6.518 117.329c-1.005 18.088-15.965 32.24-34.08 32.24h-132.806c-17.654 0-32.395-13.462-33.993-31.043l-13.398-147.383c-.454-4.997 3.48-9.306 8.498-9.306z" fill="#eef1f3"/><path d="m171.843 477.867h-96.217c-8.954 0-16.385-6.92-17.023-15.851l-6.748-94.474c-.353-4.94 3.559-9.141 8.512-9.141h126.736c4.952 0 8.864 4.202 8.512 9.141l-6.748 94.474c-.639 8.931-8.07 15.851-17.024 15.851z" fill="#b1e4f9"/><path d="m340.157 477.867h96.217c8.954 0 16.385-6.92 17.023-15.851l6.748-94.474c.353-4.94-3.559-9.141-8.512-9.141h-126.736c-4.952 0-8.864 4.202-8.512 9.141l6.748 94.474c.639 8.931 8.07 15.851 17.024 15.851z" fill="#b1e4f9"/><path d="m451.634 358.401h-23.694c4.952 0 8.864 4.202 8.512 9.141l-6.748 94.474c-.638 8.931-8.069 15.851-17.023 15.851h23.694c8.954 0 16.385-6.92 17.023-15.851l6.748-94.474c.352-4.939-3.56-9.141-8.512-9.141z" fill="#75cef9"/><path d="m187.103 358.401h-23.694c4.952 0 8.864 4.202 8.511 9.141l-6.748 94.474c-.638 8.931-8.069 15.851-17.023 15.851h23.694c8.954 0 16.385-6.92 17.023-15.851l6.748-94.474c.353-4.939-3.559-9.141-8.511-9.141z" fill="#75cef9"/><path d="m488.516 324.268v25.6c0 4.713-3.821 8.533-8.533 8.533h-4.497c-2.264 0-4.135 1.769-4.26 4.03l-6.518 117.329c-1.005 18.088-15.965 32.24-34.081 32.24h23.482c18.115 0 33.075-14.152 34.08-32.24l6.518-117.329c.126-2.261 1.996-4.03 4.26-4.03h4.497c4.713 0 8.533-3.82 8.533-8.533v-25.6z" fill="#cadae6"/></g></g></svg>