<svg id="Layer_1" enable-background="new 0 0 512 512" height="512" viewBox="0 0 512 512" width="512" xmlns="http://www.w3.org/2000/svg"><g><g><g><path d="m274.128 512h-138.667c-8.837 0-16-7.163-16-16v-90.521h170.667v90.521c0 8.837-7.164 16-16 16z" fill="#e4f6ff"/><path d="m274.128 512h-138.667c-8.837 0-16-7.163-16-16v-90.521h170.667v90.521c0 8.837-7.164 16-16 16z" fill="#cadae6"/><path d="m266.434 405.479v90.038c0 9.103-7.38 16.483-16.483 16.483h23.694c9.103 0 16.483-7.38 16.483-16.483v-90.038z" fill="#b4cadb"/><path d="m238.928 477.867h-68.267v-26.133c0-4.418 3.582-8 8-8h52.267c4.418 0 8 3.582 8 8z" fill="#b4cadb"/><path d="m119.461 485.593h170.667v-15.453h-170.667z" fill="#eef1f3"/></g><path d="m358.395 34.133-9.309 68.267-28.138 119.466-4.444 119.467-7.004 51.357c-1.321 9.688-9.595 16.91-19.373 16.91h-170.666c-9.777 0-18.052-7.223-19.373-16.91l-7.003-51.357-2.95-119.466-29.631-119.467-9.309-68.267v-7.52h307.2z" fill="#eef1f3"/><path d="m334.7 26.613v7.52l-48.894 358.557c-1.321 9.688-9.595 16.91-19.372 16.91h23.694c9.777 0 18.052-7.223 19.373-16.91l7.005-51.371 4.442-119.452 28.138-119.467 9.309-68.266v-7.52h-23.695z" fill="#cadae6"/><path d="m358.395 34.133h-307.2v-18.133c0-8.837 7.164-16 16-16h275.2c8.837 0 16 7.163 16 16z" fill="#cadae6"/><path d="m341.912 0h-23.694c9.103 0 16.483 7.38 16.483 16.483v17.65h23.694v-17.65c0-9.103-7.38-16.483-16.483-16.483z" fill="#b4cadb"/><path d="m316.504 341.333h-223.419l-32.581-238.933h288.581z" fill="#e8aa41"/><ellipse cx="204.794" cy="221.867" fill="#f4de7f" rx="34.133" ry="34.133" transform="matrix(.924 -.383 .383 .924 -69.316 95.26)"/><path d="m204.794 187.733c-4.166 0-8.156.749-11.847 2.115 13.011 4.816 22.286 17.333 22.286 32.018 0 14.686-9.275 27.203-22.286 32.019 3.691 1.366 7.681 2.115 11.847 2.115 18.851 0 34.133-15.282 34.133-34.133.001-18.852-15.281-34.134-34.133-34.134z" fill="#f0c078"/><g><g><g><path d="m204.794 161.327c-4.267 0-7.726-3.459-7.726-7.726v-17.067c0-4.267 3.459-7.726 7.726-7.726s7.726 3.459 7.726 7.726v17.066c.001 4.267-3.459 7.727-7.726 7.727z" fill="#f0c078"/></g><g><path d="m204.794 314.927c-4.267 0-7.726-3.459-7.726-7.726v-17.067c0-4.267 3.459-7.726 7.726-7.726s7.726 3.459 7.726 7.726v17.066c.001 4.267-3.459 7.727-7.726 7.727z" fill="#f0c078"/></g></g></g><g><g><g><path d="m290.128 229.593h-17.066c-4.267 0-7.726-3.459-7.726-7.726s3.459-7.726 7.726-7.726h17.066c4.267 0 7.726 3.459 7.726 7.726s-3.459 7.726-7.726 7.726z" fill="#f0c078"/></g><g><path d="m136.528 229.593h-17.066c-4.267 0-7.726-3.459-7.726-7.726s3.459-7.726 7.726-7.726h17.066c4.267 0 7.726 3.459 7.726 7.726s-3.459 7.726-7.726 7.726z" fill="#f0c078"/></g></g></g><g><g><g><path d="m265.134 289.933c-1.977 0-3.955-.754-5.463-2.263l-12.068-12.068c-3.018-3.017-3.018-7.909 0-10.926 3.017-3.017 7.909-3.017 10.926 0l12.068 12.068c3.018 3.017 3.018 7.909 0 10.926-1.508 1.508-3.485 2.263-5.463 2.263z" fill="#f0c078"/></g><g><path d="m156.523 181.322c-1.977 0-3.955-.754-5.463-2.263l-12.068-12.068c-3.018-3.018-3.018-7.91 0-10.927 3.018-3.018 7.91-3.018 10.926 0l12.068 12.068c3.018 3.018 3.018 7.91 0 10.927-1.509 1.508-3.487 2.263-5.463 2.263z" fill="#f0c078"/></g></g></g><g><g><g><path d="m253.066 181.322c-1.977 0-3.955-.754-5.463-2.263-3.018-3.017-3.018-7.909 0-10.927l12.068-12.068c3.017-3.017 7.91-3.018 10.927 0 3.018 3.017 3.018 7.909 0 10.927l-12.068 12.068c-1.509 1.508-3.486 2.263-5.464 2.263z" fill="#f0c078"/></g><g><path d="m144.455 289.933c-1.977 0-3.955-.754-5.463-2.263-3.018-3.017-3.018-7.909 0-10.926l12.068-12.068c3.017-3.017 7.909-3.017 10.926 0 3.018 3.017 3.018 7.909 0 10.926l-12.068 12.068c-1.509 1.508-3.486 2.263-5.463 2.263z" fill="#f0c078"/></g></g></g><path d="m292.809 341.333h23.695l32.581-238.933h-23.694z" fill="#e88f41"/><g fill="#b4cadb"><path d="m87.354 0h15.453v34.133h-15.453z"/><path d="m131.239 0h15.453v34.133h-15.453z"/><path d="m175.125 0h15.453v34.133h-15.453z"/><path d="m219.011 0h15.453v34.133h-15.453z"/><path d="m262.897 0h15.453v34.133h-15.453z"/><path d="m306.782 0h15.453v34.133h-15.453z"/></g></g><g><path d="m455.807 240.333-48.272 48.272c-6.665 6.665-17.471 6.665-24.136 0l-65.949-65.949c-4.035-4.035-5.786-9.819-4.667-15.415l8.045-40.227c1.351-6.756 6.632-12.037 13.388-13.388l40.227-8.045c5.596-1.119 11.38.632 15.415 4.667l65.949 65.949c6.665 6.665 6.665 17.471 0 24.136z" fill="#dd646e"/><g><path d="m362.28 226.94c-1.977 0-3.955-.755-5.464-2.263l-3.017-3.017c-3.017-3.017-3.017-7.91 0-10.927 3.018-3.017 7.909-3.017 10.928 0l3.017 3.017c3.017 3.017 3.017 7.91 0 10.927-1.509 1.509-3.487 2.263-5.464 2.263z" fill="#eef1f3"/></g><g><path d="m419.603 235.991c-1.977 0-3.955-.755-5.464-2.263l-3.017-3.017c-3.017-3.017-3.017-7.909 0-10.927 3.018-3.017 7.909-3.017 10.928 0l3.017 3.017c3.017 3.017 3.017 7.909 0 10.926-1.509 1.51-3.487 2.264-5.464 2.264z" fill="#eef1f3"/></g><g><path d="m395.459 260.129c-3.608 0-6.834-2.54-7.568-6.213l-12.069-60.34c-.837-4.184 1.877-8.255 6.061-9.091 4.184-.834 8.254 1.877 9.092 6.061l12.068 60.34c.837 4.184-1.877 8.255-6.061 9.091-.511.102-1.021.152-1.523.152z" fill="#eef1f3"/></g><g><g><path d="m347.195 187.719c-1.977 0-3.955-.755-5.464-2.263l-79.901-79.901c-3.017-3.017-3.017-7.91 0-10.927 3.018-3.017 7.909-3.017 10.928 0l79.901 79.902c3.017 3.017 3.017 7.909 0 10.926-1.509 1.509-3.487 2.263-5.464 2.263z" fill="#f4de7f"/></g></g><path d="m455.807 216.197-65.949-65.949c-4.035-4.035-9.82-5.786-15.415-4.667l-11.314 2.263c1.087.679 2.109 1.478 3.035 2.404l65.949 65.949c6.665 6.665 6.665 17.471 0 24.136l-48.272 48.272c-.071.071-.149.13-.221.2 6.68 6.453 17.321 6.394 23.915-.2l48.272-48.272c6.665-6.665 6.665-17.471 0-24.136z" fill="#db4955"/></g></g></svg>