<svg id="Layer_1" enable-background="new 0 0 512 512" height="512" viewBox="0 0 512 512" width="512" xmlns="http://www.w3.org/2000/svg"><g><g><path d="m464.329 279.322-48.272 48.272c-6.665 6.665-17.471 6.665-24.136 0l-65.949-65.949c-4.035-4.035-5.786-9.819-4.667-15.415l8.045-40.227c1.351-6.756 6.632-12.037 13.388-13.388l40.227-8.045c5.595-1.119 11.38.632 15.415 4.667l65.949 65.949c6.665 6.665 6.665 17.471 0 24.136z" fill="#dd646e"/><g><path d="m370.803 265.93c-1.977 0-3.955-.755-5.464-2.263l-3.017-3.017c-3.017-3.017-3.017-7.909 0-10.927 3.018-3.017 7.909-3.017 10.928 0l3.017 3.017c3.017 3.017 3.017 7.909 0 10.927-1.51 1.508-3.487 2.263-5.464 2.263z" fill="#eef1f3"/></g><g><path d="m428.126 274.98c-1.977 0-3.955-.754-5.464-2.263l-3.017-3.017c-3.017-3.017-3.017-7.91 0-10.927 3.018-3.017 7.909-3.017 10.928 0l3.017 3.017c3.017 3.017 3.017 7.91 0 10.927-1.51 1.509-3.488 2.263-5.464 2.263z" fill="#eef1f3"/></g><g><path d="m403.982 299.118c-3.608 0-6.834-2.54-7.568-6.213l-12.069-60.34c-.837-4.184 1.877-8.255 6.061-9.092 4.184-.834 8.255 1.877 9.092 6.061l12.068 60.34c.837 4.184-1.877 8.255-6.061 9.092-.511.102-1.021.152-1.523.152z" fill="#eef1f3"/></g><g><path d="m355.718 226.709c-1.977 0-3.955-.755-5.464-2.263l-79.901-79.902c-3.017-3.017-3.017-7.909 0-10.926 3.018-3.017 7.909-3.017 10.927 0l79.902 79.901c3.017 3.017 3.017 7.91 0 10.927-1.509 1.508-3.487 2.263-5.464 2.263z" fill="#eef1f3"/></g><path d="m464.329 255.186-65.949-65.949c-4.035-4.035-9.82-5.786-15.415-4.667l-11.314 2.263c1.087.679 2.109 1.478 3.035 2.404l65.949 65.949c6.665 6.665 6.665 17.471 0 24.136l-48.272 48.272c-.071.071-.149.13-.221.2 6.68 6.453 17.321 6.394 23.915-.2l48.272-48.272c6.665-6.665 6.665-17.471 0-24.136z" fill="#db4955"/></g><path d="m196.272 477.867c0 18.851-15.282 34.133-34.133 34.133s-34.133-15.282-34.133-34.133v-98.76h68.267v98.76z" fill="#d8b26a"/><path d="m172.578 379.107v98.76c0 14.685-9.275 27.202-22.286 32.018 3.691 1.366 7.681 2.115 11.847 2.115 18.851 0 34.133-15.282 34.133-34.133v-98.76z" fill="#b8985d"/><g><g><path d="m162.138 434.393c-4.267 0-7.726-3.459-7.726-7.726v-34.133c0-4.267 3.459-7.726 7.726-7.726s7.726 3.459 7.726 7.726v34.133c.001 4.267-3.458 7.726-7.726 7.726z" fill="#b8985d"/></g></g><path d="m76.805 145.067-34.133 110.933v68.267c0 16.596 11.844 30.426 27.541 33.497 3.842.752 6.592 4.152 6.592 8.067v9.635c0 9.426 7.641 17.067 17.067 17.067h136.533c9.426 0 17.067-7.641 17.067-17.067v-9.635c0-3.915 2.75-7.316 6.592-8.067 15.697-3.071 27.541-16.901 27.541-33.497v-51.2l-34.133-128z" fill="#cd8051"/><path d="m257.911 265.746v58.521c0 16.596-11.844 30.426-27.541 33.497-3.842.752-6.592 4.152-6.592 8.067v9.635c0 9.426-7.641 17.067-17.067 17.067h23.694c9.426 0 17.067-7.641 17.067-17.067v-9.635c0-3.915 2.75-7.316 6.592-8.067 15.697-3.071 27.541-16.901 27.541-33.497v-58.521z" fill="#c46b4b"/><path d="m213.339 238.933c0-9.426 7.641-17.067 17.067-17.067s17.067 7.641 17.067 17.067v34.133c0 9.426 7.641 17.067 17.067 17.067s17.067-7.641 17.067-17.067v-153.6c-.002-65.979-53.489-119.466-119.468-119.466-65.98 0-119.467 53.487-119.467 119.467v136.533c0 9.426 7.641 17.067 17.067 17.067s17.067-7.641 17.067-17.067v-51.2c0-9.426 7.641-17.067 17.067-17.067s17.067 7.641 17.067 17.067v68.267c0 9.426 7.641 17.067 17.067 17.067s17.067-7.641 17.067-17.067v-17.067c0-9.426 7.641-17.067 17.067-17.067s17.067 7.641 17.067 17.067v51.2c0 9.426 7.641 17.067 17.067 17.067s17.067-7.641 17.067-17.067v-68.267z" fill="#b3e59f"/><path d="m162.139 0c-4.292 0-8.53.231-12.706.673 60.006 6.344 106.761 57.107 106.761 118.794v153.6c0 4.372-1.658 8.347-4.361 11.366 3.125 3.491 7.652 5.7 12.706 5.7 9.426 0 17.067-7.641 17.067-17.067v-153.6c-.001-65.979-53.488-119.466-119.467-119.466z" fill="#95d6a4"/><g fill="#c46b4b"><path d="m196.272 350.673c-4.267 0-7.726 3.459-7.726 7.726s3.459 7.726 7.726 7.726h51.2v-.295c0-3.915 2.75-7.316 6.592-8.067 5.628-1.101 10.756-3.592 15.025-7.091h-72.817z"/><path d="m76.805 365.831v.295h51.2c4.267 0 7.726-3.459 7.726-7.726s-3.459-7.726-7.726-7.726h-72.817c4.269 3.499 9.397 5.989 15.025 7.091 3.842.751 6.592 4.151 6.592 8.066z"/></g></g></svg>