<svg id="Layer_1" enable-background="new 0 0 512 512" height="512" viewBox="0 0 512 512" width="512" xmlns="http://www.w3.org/2000/svg"><g><g><path d="m256 360.683c-4.204 0-7.612-3.408-7.612-7.611v-33.626c0-4.204 3.408-7.612 7.612-7.612s7.611 3.408 7.611 7.612v33.626c0 4.204-3.407 7.611-7.611 7.611z" fill="#eef1f3"/></g><g><path d="m256 512c-4.204 0-7.612-3.408-7.612-7.612v-33.626c0-4.204 3.408-7.612 7.612-7.612s7.611 3.408 7.611 7.612v33.626c0 4.204-3.407 7.612-7.611 7.612z" fill="#eef1f3"/></g><path d="m272.813 285.82 10.73 21.46c2.795 5.59-1.27 12.166-7.519 12.166h-40.048c-6.249 0-10.314-6.577-7.519-12.166l10.73-21.46v-9.523h33.626z" fill="#95d6a4"/><path d="m390.504 134.504c0 74.284-60.219 151.316-134.503 151.316s-134.504-77.032-134.504-151.316 60.219-134.504 134.503-134.504 134.504 60.219 134.504 134.504z" fill="#b3e59f"/><path d="m256 0c-3.933 0-7.824.179-11.671.51 68.818 5.916 122.833 63.643 122.833 133.994s-54.014 143.155-122.833 150.668c3.847.42 7.738.649 11.671.649 74.284 0 134.503-77.032 134.503-151.316.001-74.286-60.219-134.505-134.503-134.505z" fill="#95d6a4"/><g><path d="m499.772 386.698c7.182 0 11.057 8.424 6.383 13.877l-29.165 34.026c-5.397 6.296-5.397 15.587 0 21.883l29.165 34.026c4.674 5.453.799 13.877-6.383 13.877h-109.268c-9.285 0-16.813-7.527-16.813-16.813v-26.961h-235.382v26.961c0 9.286-7.527 16.813-16.813 16.813h-109.268c-7.182 0-11.057-8.424-6.383-13.877l29.165-34.026c5.397-6.296 5.397-15.587 0-21.883l-29.164-34.026c-4.674-5.453-.799-13.877 6.383-13.877z" fill="#e8aa41"/><path d="m476.989 456.485c-5.397-6.296-5.397-15.587 0-21.883l29.165-34.026c4.674-5.453.799-13.877-6.383-13.877h-23.341c7.182 0 11.057 8.424 6.383 13.877l-29.165 34.026c-5.397 6.296-5.397 15.587 0 21.883l29.165 34.026c4.674 5.453.799 13.877-6.383 13.877h23.342c7.182 0 11.057-8.424 6.383-13.877z" fill="#e88f41"/><path d="m408.13 470.763h-304.26c-8.837 0-16-7.163-16-16v-85.691c0-8.837 7.163-16 16-16h304.26c8.837 0 16 7.163 16 16v85.691c0 8.836-7.164 16-16 16z" fill="#f4de7f"/><g><g fill="#dd646e"><path d="m244.654 384.719c-.027-.07-.054-.14-.082-.209-1.356-3.296-4.533-5.424-8.096-5.424-.003 0-.006 0-.009 0-3.567.004-6.744 2.139-8.094 5.44-.024.057-.046.115-.068.173l-18.94 49.729c-1.496 3.929.475 8.326 4.404 9.822 3.928 1.497 8.325-.476 9.822-4.404l2.85-7.483h19.923l2.816 7.461c1.151 3.048 4.047 4.927 7.123 4.926.892 0 1.801-.158 2.686-.492 3.933-1.484 5.918-5.876 4.433-9.809zm-12.416 32.421 4.209-11.052 4.171 11.052z"/><path d="m305.527 429.483c-3.404.019-6.991.033-10.008.039v-42.824c0-4.204-3.407-7.611-7.612-7.611-4.204 0-7.611 3.408-7.611 7.611v50.396c0 3.708 2.671 6.876 6.326 7.502.547.094.909.156 6.553.156 2.717 0 6.66-.014 12.437-.047 4.203-.024 7.593-3.45 7.569-7.654-.023-4.204-3.451-7.584-7.654-7.568z"/><path d="m358.202 429.525h-13.448v-9.766h11.895c4.204 0 7.612-3.408 7.612-7.611 0-4.204-3.407-7.612-7.612-7.612h-11.895v-9.766h13.448c4.204 0 7.612-3.408 7.612-7.612s-3.407-7.612-7.612-7.612h-21.059c-4.204 0-7.612 3.408-7.612 7.612v49.978c0 4.204 3.407 7.611 7.612 7.611h21.059c4.204 0 7.612-3.408 7.612-7.611s-3.408-7.611-7.612-7.611z"/><path d="m178.389 405.173c-5.966-2.201-11.537-4.593-13.48-5.441-.707-.654-.716-1.499-.647-1.979.092-.642.578-2.217 3.095-2.976 6.398-1.927 12.463 2.801 12.679 2.972 3.216 2.66 7.984 2.232 10.676-.969 2.705-3.218 2.289-8.019-.929-10.725-.499-.419-12.367-10.205-26.817-5.854-7.455 2.246-12.733 8.143-13.773 15.389-.98 6.831 1.982 13.402 7.731 17.15.337.219.689.411 1.056.575.293.131 7.278 3.24 15.14 6.14 3.059 1.128 6.184 3.143 5.78 5.411-.336 1.879-2.959 4.658-7.525 4.658-4.651 0-9.113-1.86-11.937-4.977-2.823-3.114-7.635-3.351-10.752-.529-3.115 2.823-3.351 7.637-.529 10.752 5.746 6.34 14.209 9.977 23.217 9.977 11.264 0 20.731-7.236 22.511-17.205 1.349-7.552-2.013-17.395-15.496-22.369z"/></g></g><path d="m407.892 353.072h-23.342c8.968 0 16.238 7.27 16.238 16.238v85.215c0 8.968-7.27 16.238-16.238 16.238h23.342c8.968 0 16.238-7.27 16.238-16.238v-85.215c0-8.968-7.27-16.238-16.238-16.238z" fill="#f0c078"/></g><g><circle cx="256" cy="134.504" fill="#dd646e" r="100.878"/><path d="m256 33.626c-3.948 0-7.841.235-11.671.676 50.214 5.786 89.207 48.437 89.207 100.202s-38.993 94.416-89.207 100.202c3.83.441 7.723.676 11.671.676 55.713 0 100.878-45.165 100.878-100.878s-45.165-100.878-100.878-100.878z" fill="#db4955"/><g fill="#eef1f3"><path d="m222.374 125.302c13.467 0 24.424-10.957 24.424-24.425s-10.957-24.424-24.424-24.424c-13.468 0-24.425 10.956-24.425 24.424s10.957 24.425 24.425 24.425zm0-33.626c5.073 0 9.201 4.128 9.201 9.201 0 5.074-4.128 9.202-9.201 9.202-5.074 0-9.202-4.128-9.202-9.202 0-5.073 4.128-9.201 9.202-9.201z"/><path d="m289.626 143.705c-13.468 0-24.425 10.956-24.425 24.424s10.957 24.425 24.425 24.425 24.424-10.957 24.424-24.425c.001-13.467-10.956-24.424-24.424-24.424zm0 33.626c-5.074 0-9.202-4.128-9.202-9.202 0-5.073 4.128-9.201 9.202-9.201 5.073 0 9.201 4.128 9.201 9.201.001 5.074-4.127 9.202-9.201 9.202z"/><path d="m311.822 78.683c-2.972-2.973-7.791-2.973-10.765 0l-100.878 100.878c-2.973 2.972-2.973 7.792 0 10.764 1.486 1.487 3.434 2.229 5.382 2.229 1.947 0 3.896-.743 5.382-2.229l100.879-100.878c2.972-2.972 2.972-7.792 0-10.764z"/></g></g></g></svg>