<svg id="Layer_1" enable-background="new 0 0 512 512" height="512" viewBox="0 0 512 512" width="512" xmlns="http://www.w3.org/2000/svg"><g><g><path d="m270.089 10.042c-6.889-9.699-21.289-9.699-28.178 0l-199.275 280.587c33.811 84.708 116.592 144.567 213.364 144.567 96.771 0 179.553-59.859 213.364-144.567z" fill="#dd646e"/><path d="m469.364 290.629-199.275-280.587c-6.214-8.75-18.524-9.578-25.935-2.542l-.001.001c.804.763 1.568 1.592 2.242 2.541l213.688 300.88c3.407-6.586 6.511-13.354 9.281-20.293z" fill="#db4955"/><g><g fill="#d8b26a"><path d="m152.317 297.689c-4.268 0-7.726 3.459-7.726 7.726v9.833c0 4.267 3.459 7.726 7.726 7.726s7.726-3.459 7.726-7.726v-9.833c0-4.267-3.459-7.726-7.726-7.726z"/><path d="m359.683 297.689c-4.268 0-7.726 3.459-7.726 7.726v9.833c0 4.267 3.459 7.726 7.726 7.726 4.268 0 7.726-3.459 7.726-7.726v-9.833c0-4.267-3.458-7.726-7.726-7.726z"/><path d="m186.877 189.845c-4.268 0-7.726 3.459-7.726 7.726v9.833c0 4.267 3.459 7.726 7.726 7.726 4.268 0 7.726-3.459 7.726-7.726v-9.833c.001-4.267-3.458-7.726-7.726-7.726z"/><path d="m325.123 189.845c-4.268 0-7.726 3.459-7.726 7.726v9.833c0 4.267 3.459 7.726 7.726 7.726s7.726-3.459 7.726-7.726v-9.833c0-4.267-3.459-7.726-7.726-7.726z"/><path d="m256 352.818c-4.268 0-7.726 3.459-7.726 7.726v9.833c0 4.267 3.459 7.726 7.726 7.726s7.726-3.459 7.726-7.726v-9.833c0-4.267-3.458-7.726-7.726-7.726z"/><path d="m256 241.687c-4.268 0-7.726 3.459-7.726 7.726v9.833c0 4.267 3.459 7.726 7.726 7.726s7.726-3.459 7.726-7.726v-9.833c0-4.267-3.458-7.726-7.726-7.726z"/><path d="m256 128.17c-4.268 0-7.726 3.459-7.726 7.726v9.833c0 4.267 3.459 7.726 7.726 7.726s7.726-3.459 7.726-7.726v-9.833c0-4.267-3.458-7.726-7.726-7.726z"/></g></g><path d="m462.047 280.326c-27.93 87.153-109.621 150.242-206.047 150.242s-178.117-63.089-206.047-150.242l-34.705 48.867c45.492 86.504 136.229 145.5 240.753 145.5s195.26-58.996 240.753-145.5z" fill="#f4de7f"/><path d="m462.047 280.326c-2.377 7.417-5.152 14.654-8.284 21.699l31.353 44.147c.349.491.659 1 .95 1.517 3.793-6.012 7.363-12.178 10.686-18.496z" fill="#f0c078"/><path d="m256 509.232c107.802 0 202.084-57.834 253.548-144.16 3.514-5.895 3.237-13.306-.737-18.901l-19.442-27.375c-39.966 89.068-129.422 151.104-233.369 151.104s-193.403-62.036-233.369-151.104l-19.442 27.375c-3.974 5.595-4.251 13.007-.737 18.901 51.464 86.326 145.746 144.16 253.548 144.16z" fill="#95d6a4"/><path d="m508.811 346.171-19.442-27.375c-2.995 6.675-6.273 13.194-9.81 19.55l5.558 7.825c3.974 5.595 4.251 13.007.737 18.901-49.569 83.148-138.864 139.853-241.701 143.917 1.88.074 3.764.131 5.652.172.117.002.234.006.351.009 1.943.04 3.891.062 5.844.062 107.802 0 202.084-57.834 253.548-144.16 3.514-5.894 3.236-13.305-.737-18.901z" fill="#78c2a4"/></g><g><path d="m502.447 212.75-48.877 48.877c-6.749 6.749-17.69 6.749-24.438 0l-66.776-66.776c-4.086-4.086-5.859-9.943-4.726-15.608l8.146-40.731c1.368-6.841 6.715-12.188 13.556-13.556l40.731-8.146c5.666-1.133 11.523.64 15.608 4.726l66.776 66.776c6.748 6.748 6.748 17.69 0 24.438z" fill="#e8aa41"/><g><path d="m407.747 199.093c-1.978 0-3.955-.755-5.464-2.264l-3.054-3.055c-3.017-3.018-3.017-7.91.001-10.927 3.016-3.018 7.908-3.016 10.926.001l3.054 3.055c3.017 3.018 3.017 7.91-.001 10.927-1.507 1.509-3.485 2.263-5.462 2.263z" fill="#eef1f3"/></g><g><path d="m465.789 208.257c-1.977 0-3.955-.755-5.464-2.263l-3.054-3.054c-3.017-3.017-3.017-7.909 0-10.926 3.018-3.017 7.909-3.017 10.928 0l3.054 3.054c3.017 3.017 3.017 7.91 0 10.927-1.51 1.508-3.487 2.262-5.464 2.262z" fill="#eef1f3"/></g><g><path d="m441.342 232.697c-3.608 0-6.834-2.54-7.569-6.213l-12.218-61.096c-.837-4.184 1.877-8.255 6.061-9.092 4.184-.834 8.255 1.877 9.092 6.061l12.218 61.096c.837 4.184-1.877 8.255-6.061 9.092-.511.103-1.021.152-1.523.152z" fill="#eef1f3"/></g><g><path d="m392.474 159.38c-1.977 0-3.955-.755-5.464-2.263l-75.041-75.041c-3.017-3.017-3.017-7.91 0-10.927 3.018-3.017 7.909-3.017 10.928 0l75.041 75.041c3.017 3.017 3.017 7.909 0 10.927-1.509 1.509-3.487 2.263-5.464 2.263z" fill="#eef1f3"/></g><path d="m502.447 188.312-66.776-66.776c-4.086-4.086-9.943-5.859-15.608-4.726l-11.23 2.246c1.128.696 2.186 1.522 3.144 2.48l66.776 66.776c6.748 6.749 6.748 17.69 0 24.439l-48.877 48.877c-.12.12-.25.221-.372.336 6.772 6.394 17.437 6.293 24.066-.336l48.877-48.877c6.748-6.749 6.748-17.691 0-24.439z" fill="#e88f41"/></g></g></svg>