<svg id="Layer_1" enable-background="new 0 0 512 512" height="512" viewBox="0 0 512 512" width="512" xmlns="http://www.w3.org/2000/svg"><g><g><path d="m497.461 430.329-47.383 47.383c-6.542 6.542-17.149 6.542-23.691 0l-64.734-64.734c-3.961-3.961-5.68-9.639-4.581-15.131l7.897-39.485c1.326-6.632 6.51-11.815 13.142-13.142l39.485-7.897c5.492-1.098 11.17.621 15.131 4.581l64.734 64.734c6.542 6.542 6.542 17.149 0 23.691z" fill="#dd646e"/><g><path d="m405.657 417.325c-1.977 0-3.954-.754-5.463-2.263l-2.962-2.961c-3.018-3.017-3.018-7.909-.001-10.927 3.016-3.018 7.908-3.018 10.926-.001l2.962 2.961c3.018 3.017 3.018 7.909.001 10.927-1.507 1.51-3.486 2.264-5.463 2.264z" fill="#eef1f3"/></g><g><path d="m461.923 426.21c-1.978 0-3.955-.755-5.464-2.264l-2.961-2.961c-3.017-3.018-3.017-7.91.001-10.927 3.017-3.018 7.909-3.016 10.927.001l2.961 2.961c3.017 3.018 3.017 7.909-.001 10.927-1.508 1.509-3.486 2.263-5.463 2.263z" fill="#eef1f3"/></g><g><path d="m438.224 449.903c-3.608 0-6.834-2.54-7.568-6.213l-11.845-59.228c-.837-4.184 1.877-8.254 6.061-9.091 4.185-.836 8.255 1.877 9.092 6.061l11.845 59.228c.837 4.184-1.877 8.255-6.061 9.092-.512.102-1.022.151-1.524.151z" fill="#eef1f3"/></g><g><path d="m390.85 378.828c-1.978 0-3.955-.754-5.464-2.263l-87.286-87.286c-3.017-3.017-3.017-7.909 0-10.926 3.018-3.018 7.909-3.018 10.927 0l87.286 87.286c3.017 3.017 3.017 7.909 0 10.927-1.508 1.507-3.486 2.262-5.463 2.262z" fill="#7e707d"/></g><path d="m497.461 406.638-64.734-64.734c-3.961-3.961-9.639-5.68-15.131-4.581l-11.49 2.298c1.022.65 1.984 1.408 2.859 2.283l64.734 64.734c6.542 6.542 6.542 17.149 0 23.691l-47.347 47.347.035.036c6.542 6.542 17.15 6.542 23.691 0l47.383-47.383c6.542-6.542 6.542-17.149 0-23.691z" fill="#db4955"/></g><g><g><g><path d="m159.683 303.787-24.878 196.174c-.582 4.589-4.774 7.838-9.363 7.256l-33.238-4.215c-4.589-.582-7.838-4.774-7.256-9.363l24.148-190.418v-8.298h50.588v8.864z" fill="#dd646e"/></g><g><path d="m223.411 286.361 26.286 207.277c.582 4.589-2.667 8.781-7.256 9.363l-33.238 4.215c-4.589.582-8.781-2.667-9.363-7.256l-25.23-198.944v-17.201h48.768z" fill="#dd646e"/></g><g><path d="m135.988 294.922v8.865l-24.878 196.174c-.259 2.04-1.234 3.813-2.637 5.104l16.968 2.152c4.589.582 8.781-2.667 9.363-7.256l24.878-196.174v-8.865z" fill="#db4955"/></g><g><path d="m249.697 493.638-26.286-207.277-.033-2.547h-23.649l.033 2.547 26.286 207.277c.582 4.589-2.667 8.781-7.256 9.363l-16.31 2.068c1.753 1.61 4.174 2.47 6.721 2.147l33.238-4.215c4.589-.581 7.838-4.773 7.256-9.363z" fill="#db4955"/></g></g></g><path d="m92.817 432.628c-.044-.006-.087-.007-.131-.012l-1.944 15.326 49.619 7.154c.044.006.088.004.132.01l1.943-15.323z" fill="#db4955"/><path d="m241.958 432.615c-.044.006-.088.006-.132.012l-49.619 7.154 1.943 15.323c.044-.006.087-.003.131-.01l49.62-7.154z" fill="#db4955"/><g><path d="m250.783 277.865-63.863 19.825c-33.189 10.303-68.117 10.303-101.306 0l-82.105-25.467 76.674-32.705h170.601v38.347z" fill="#e8aa41"/><path d="m407.702 193.477 102.562 78.894c2.92 2.246 1.995 6.867-1.564 7.816l-65.638 17.503c-38.636 10.303-79.297 10.303-117.933 0l-148.69-39.651c-38.636-10.303-79.297-10.303-117.933 0l-52.894 14.106c-4.693 1.251-7.704-4.855-3.854-7.816l106.931-75.338 8.376-50.257c0-74.016 60.002-134.018 134.018-134.018 69.464 0 126.584 52.848 133.348 120.53z" fill="#f4de7f"/><path d="m510.264 272.371-102.562-78.894-23.271-68.231c-6.764-67.682-63.884-120.53-133.348-120.53-3.988 0-7.933.185-11.833.526 64.008 5.614 115.112 56.217 121.487 120.004l23.271 68.231 102.562 78.894c2.92 2.246 1.996 6.867-1.564 7.816l-65.638 17.503c-15.468 4.125-31.262 6.594-47.119 7.416 23.75 1.231 47.646-1.238 70.813-7.416l65.638-17.503c3.559-.949 4.484-5.57 1.564-7.816z" fill="#f0c078"/><path d="m340.818 188.991h-232.129v-41.881c0-4.626 3.75-8.376 8.376-8.376h223.75z" fill="#dd646e"/><g><path d="m418.606 163.863c0-6.26-3.435-11.716-8.523-14.591-1.612-.911-2.402-2.818-1.906-4.602 1.565-5.63.136-11.917-4.291-16.344s-10.714-5.856-16.344-4.291c-1.784.496-3.691-.294-4.602-1.906-2.875-5.088-8.331-8.523-14.591-8.523s-11.716 3.435-14.591 8.523c-.911 1.612-2.818 2.402-4.602 1.906-5.63-1.565-11.917-.136-16.344 4.291s-5.856 10.714-4.291 16.344c.496 1.784-.294 3.691-1.906 4.602-5.088 2.875-8.523 8.331-8.523 14.591s3.435 11.716 8.523 14.591c1.612.911 2.402 2.818 1.906 4.602-1.565 5.63-.136 11.917 4.291 16.344s10.714 5.856 16.344 4.291c1.784-.496 3.691.294 4.602 1.906 2.875 5.088 8.33 8.523 14.591 8.523 6.26 0 11.716-3.435 14.591-8.523.911-1.612 2.818-2.402 4.602-1.906 5.63 1.565 11.917.136 16.344-4.291s5.856-10.714 4.291-16.344c-.496-1.784.294-3.691 1.906-4.602 5.088-2.875 8.523-8.331 8.523-14.591z" fill="#b3e59f"/><path d="m410.083 149.272c-1.612-.911-2.402-2.818-1.906-4.602 1.565-5.63.136-11.917-4.291-16.344s-10.714-5.856-16.344-4.291c-1.784.496-3.691-.294-4.602-1.906-2.874-5.088-8.331-8.523-14.591-8.523-4.629 0-8.816 1.882-11.847 4.918 1.068 1.069 1.995 2.279 2.744 3.604.911 1.612 2.818 2.402 4.602 1.906 5.63-1.565 11.917-.136 16.344 4.291s5.856 10.714 4.291 16.344c-.496 1.784.294 3.691 1.906 4.602 5.088 2.875 8.523 8.331 8.523 14.591s-3.435 11.716-8.523 14.591c-1.612.911-2.402 2.818-1.906 4.602 1.565 5.63.136 11.917-4.291 16.344s-10.714 5.856-16.344 4.291c-1.784-.496-3.691.294-4.602 1.906-.749 1.325-1.676 2.535-2.744 3.604 3.031 3.036 7.218 4.918 11.847 4.918 6.261 0 11.717-3.435 14.591-8.523.911-1.612 2.818-2.402 4.602-1.906 5.63 1.565 11.917.136 16.344-4.291s5.856-10.714 4.291-16.344c-.496-1.784.294-3.691 1.906-4.602 5.088-2.874 8.523-8.331 8.523-14.591 0-6.259-3.435-11.715-8.523-14.589z" fill="#95d6a4"/><circle cx="368.349" cy="163.863" fill="#eef1f3" r="16.752"/></g></g></g></svg>