<svg id="Layer_1" enable-background="new 0 0 512 512" height="512" viewBox="0 0 512 512" width="512" xmlns="http://www.w3.org/2000/svg"><g><path d="m382.665 33.455c-18.735-10.678-38.531-18.801-58.88-24.367l-135.581.001c-20.34 5.564-40.126 13.682-58.854 24.353l-95.895 95.881c-10.685 18.745-18.811 38.551-24.378 58.911l.003 135.543c5.569 20.362 13.698 40.171 24.385 58.918l95.836 95.836c18.743 10.685 38.547 18.813 58.906 24.382l135.569.002c20.362-5.569 40.17-13.698 58.916-24.385l95.833-95.834c10.691-18.753 18.822-38.569 24.391-58.94l.006-135.49c-5.567-20.368-13.694-40.182-24.381-58.934zm-46.781 302.433c-44.121 44.121-115.655 44.121-159.776 0s-44.121-115.655 0-159.776 115.655-44.121 159.776 0 44.121 115.655 0 159.776z" fill="#b3e59f"/><path d="m437.018 74.978c-53.002-53.002-123.462-77.9-192.87-74.705 61.514 2.832 122.201 27.731 169.175 74.705 99.976 99.976 99.976 262.069 0 362.045-46.974 46.974-107.661 71.872-169.175 74.705 69.408 3.196 139.868-21.703 192.87-74.705 99.976-99.976 99.976-262.069 0-362.045z" fill="#95d6a4"/><g><path d="m45.838 37.254h34.134v51.31h-34.134z" fill="#95d6a4" transform="matrix(.707 -.707 .707 .707 -26.059 62.906)"/><path d="m69.316 32.362-36.959 36.959c-3.124 3.124-8.19 3.124-11.314 0l-12.822-12.823c-3.124-3.124-3.124-8.189 0-11.314l36.959-36.959c3.124-3.124 8.189-3.124 11.314 0l12.823 12.823c3.123 3.124 3.123 8.19-.001 11.314z" fill="#f4de7f"/></g><g fill="#f4de7f"><path d="m188.205 9.098c-.304 2.614-.478 5.269-.478 7.964 0 37.703 30.565 68.268 68.268 68.268s68.268-30.565 68.268-68.268c0-2.696-.174-5.35-.478-7.964-44.319-12.125-91.259-12.125-135.58 0z"/><path d="m255.996 426.67c-37.703 0-68.268 30.565-68.268 68.268 0 2.696.174 5.35.478 7.964 44.32 12.125 91.26 12.125 135.581 0 .304-2.614.478-5.268.478-7.964-.001-37.703-30.566-68.268-68.269-68.268z"/><path d="m478.524 129.339c-11.086-19.451-24.91-37.766-41.506-54.362s-34.911-30.42-54.362-41.506c-2.067 1.636-4.07 3.392-5.979 5.302-26.66 26.66-26.66 69.885 0 96.545s69.885 26.66 96.545 0c1.91-1.909 3.667-3.912 5.302-5.979z"/><path d="m17.058 187.732c-2.696 0-5.35.174-7.965.478-12.125 44.32-12.125 91.26 0 135.581 2.614.304 5.269.478 7.965.478 37.703 0 68.268-30.565 68.268-68.268 0-37.704-30.565-68.269-68.268-68.269z"/><path d="m38.769 376.682c-1.909 1.909-3.666 3.912-5.302 5.979 11.086 19.451 24.91 37.766 41.506 54.362s34.911 30.42 54.362 41.506c2.067-1.636 4.07-3.392 5.979-5.301 26.66-26.66 26.66-69.885 0-96.545-26.66-26.661-69.885-26.661-96.545-.001z"/><path d="m426.666 256c0 37.703 30.565 68.268 68.268 68.268 2.696 0 5.35-.174 7.965-.478 12.125-44.32 12.125-91.26 0-135.581-2.614-.304-5.268-.478-7.965-.478-37.704.001-68.268 30.566-68.268 68.269z"/><path d="m478.524 382.661c-1.636-2.067-3.392-4.07-5.301-5.979-26.66-26.66-69.885-26.66-96.545 0s-26.66 69.885 0 96.545c1.909 1.909 3.912 3.666 5.979 5.301 19.451-11.086 37.766-24.91 54.362-41.506 16.595-16.595 30.419-34.91 41.505-54.361z"/><path d="m33.467 129.339c1.636 2.067 3.392 4.07 5.302 5.979 26.66 26.66 69.885 26.66 96.545 0s26.66-69.885 0-96.545c-1.909-1.91-3.912-3.666-5.979-5.302-19.451 11.086-37.766 24.91-54.362 41.506-16.596 16.597-30.42 34.911-41.506 54.362z"/></g><path d="m352.541 159.455c-53.32-53.321-139.77-53.321-193.091 0s-53.321 139.77 0 193.091c53.321 53.32 139.77 53.32 193.091 0 53.321-53.321 53.321-139.771 0-193.091zm-24.136 168.954c-39.99 39.99-104.828 39.99-144.818 0-39.991-39.99-39.991-104.828 0-144.818 39.99-39.99 104.828-39.99 144.818 0 39.99 39.991 39.99 104.828 0 144.818z" fill="#95d6a4"/><g><path d="m376.712 328.443-48.273 48.273c-6.665 6.665-17.471 6.665-24.136 0l-65.95-65.95c-4.035-4.035-5.787-9.82-4.667-15.415l8.046-40.227c1.351-6.756 6.632-12.037 13.388-13.388l40.227-8.046c5.596-1.119 11.38.632 15.415 4.667l65.951 65.95c6.664 6.665 6.664 17.471-.001 24.136z" fill="#dd646e"/><g><path d="m283.183 315.051c-1.977 0-3.955-.755-5.464-2.263l-3.017-3.017c-3.017-3.017-3.017-7.91 0-10.927 3.018-3.017 7.91-3.017 10.928 0l3.017 3.017c3.017 3.017 3.017 7.91 0 10.927-1.509 1.508-3.487 2.263-5.464 2.263z" fill="#eef1f3"/></g><g><path d="m340.507 324.102c-1.977 0-3.955-.754-5.464-2.263l-3.017-3.017c-3.017-3.017-3.017-7.909 0-10.927 3.018-3.017 7.91-3.017 10.928 0l3.017 3.017c3.017 3.017 3.017 7.909 0 10.927-1.509 1.508-3.487 2.263-5.464 2.263z" fill="#eef1f3"/></g><g><path d="m316.363 348.24c-3.608 0-6.834-2.54-7.568-6.213l-12.069-60.341c-.837-4.184 1.877-8.255 6.061-9.092 4.184-.834 8.255 1.877 9.092 6.061l12.069 60.341c.837 4.184-1.877 8.255-6.061 9.092-.512.102-1.022.152-1.524.152z" fill="#eef1f3"/></g><g><path d="m268.098 275.829c-1.977 0-3.955-.754-5.464-2.263l-89.975-89.975c-3.017-3.017-3.017-7.91 0-10.927 3.018-3.017 7.91-3.017 10.928 0l89.975 89.975c3.017 3.017 3.017 7.909 0 10.927-1.509 1.509-3.487 2.263-5.464 2.263z" fill="#eef1f3"/></g><path d="m376.711 304.307-65.95-65.95c-4.035-4.035-9.82-5.786-15.415-4.667l-11.314 2.263c1.087.679 2.109 1.478 3.035 2.404l65.95 65.95c6.665 6.665 6.665 17.471 0 24.136l-48.273 48.273c-.071.071-.149.13-.221.2 6.68 6.454 17.321 6.394 23.915-.2l48.272-48.273c6.667-6.665 6.667-17.471.001-24.136z" fill="#db4955"/></g><path d="m69.145 20.877-12.481-12.481c-3.218-3.219-8.437-3.219-11.655 0l-5.961 5.961 6.52 6.52c3.219 3.219 3.219 8.437 0 11.655l-30.657 30.657 5.961 5.961c3.219 3.219 8.437 3.219 11.655 0l36.617-36.617c3.22-3.219 3.22-8.437.001-11.656z" fill="#f0c078"/><path d="m413.324 74.978c20.715 20.715 37.123 44.101 49.254 69.044 3.762-2.49 7.332-5.39 10.645-8.703 1.909-1.909 3.666-3.912 5.301-5.979l-.001-.002c-11.086-19.45-24.909-37.765-41.505-54.36-16.515-16.515-34.726-30.299-54.07-41.357-.096-.051-.198-.095-.292-.149-2.067 1.636-4.07 3.392-5.979 5.301-1.155 1.155-2.241 2.351-3.296 3.566 14.113 9.339 27.512 20.208 39.943 32.639z" fill="#f0c078"/><path d="m502.898 188.21c-2.615-.304-5.269-.478-7.965-.478-5.291 0-10.433.622-15.378 1.761 11.661 43.514 11.661 89.5 0 133.014 4.945 1.139 10.087 1.761 15.378 1.761 2.696 0 5.35-.174 7.965-.478 12.125-44.32 12.125-91.26 0-135.58z" fill="#f0c078"/><path d="m473.223 376.682c-3.314-3.313-6.884-6.213-10.645-8.703-12.131 24.943-28.539 48.329-49.254 69.044-12.431 12.431-25.83 23.3-39.943 32.639 1.055 1.214 2.141 2.411 3.296 3.566 1.909 1.909 3.912 3.666 5.979 5.301 19.451-11.086 37.766-24.91 54.362-41.506s30.42-34.911 41.506-54.362c-1.635-2.067-3.392-4.07-5.301-5.979z" fill="#f0c078"/><path d="m324.263 494.973c-25.798 9.91-52.874 15.501-80.115 16.755 26.744 1.231 53.641-1.727 79.639-8.838.302-2.599.475-5.238.476-7.917z" fill="#f0c078"/><path d="m323.787 9.111c-25.997-7.111-52.894-10.07-79.638-8.838 27.241 1.254 54.317 6.845 80.115 16.755-.002-2.68-.175-5.318-.477-7.917z" fill="#f0c078"/></g></svg>