<svg id="Layer_1" enable-background="new 0 0 512 512" height="512" viewBox="0 0 512 512" width="512" xmlns="http://www.w3.org/2000/svg"><g><g><path d="m452.265 136.533c18.851 0 34.132 15.282 34.132 34.132l.002 277.186h-460.799l.001-277.186c0-18.851 15.282-34.132 34.132-34.132z" fill="#365e7d"/><path d="m452.267 447.852v-268.65c0-4.713-3.82-8.533-8.533-8.533h-375.468c-4.713 0-8.533 3.82-8.533 8.533v268.65z" fill="#b1e4f9"/><path d="m486.397 170.666c0-18.851-15.281-34.132-34.132-34.132h-23.694c18.851 0 34.132 15.282 34.132 34.132l.002 277.186h23.695z" fill="#2b4d66"/><path d="m443.733 170.668h-23.696c4.713 0 8.533 3.82 8.533 8.533v268.65h23.696v-268.65c.001-4.713-3.82-8.533-8.533-8.533z" fill="#75cef9"/></g><path d="m.001 452.264v25.603c0 18.851 15.282 34.133 34.133 34.133h443.732c18.851 0 34.133-15.282 34.133-34.133v-25.603c0-4.713-3.82-8.533-8.533-8.533h-494.931c-4.713 0-8.534 3.82-8.534 8.533z" fill="#eef1f3"/><g><circle cx="256" cy="102.4" fill="#dd646e" r="102.4"/><path d="m256 0c-4.008 0-7.959.238-11.847.686 50.972 5.873 90.553 49.168 90.553 101.714s-39.581 95.84-90.553 101.714c3.888.448 7.839.686 11.847.686 56.554 0 102.4-45.846 102.4-102.4s-45.846-102.4-102.4-102.4z" fill="#db4955"/><g fill="#eef1f3"><path d="m221.866 93.06c13.671 0 24.793-11.122 24.793-24.793s-11.122-24.793-24.793-24.793-24.793 11.122-24.793 24.793 11.122 24.793 24.793 24.793zm0-34.133c5.15 0 9.34 4.19 9.34 9.34s-4.19 9.341-9.34 9.341-9.341-4.19-9.341-9.341c.001-5.15 4.191-9.34 9.341-9.34z"/><path d="m290.133 111.741c-13.671 0-24.794 11.122-24.794 24.793s11.123 24.793 24.794 24.793 24.793-11.122 24.793-24.793c0-13.672-11.121-24.793-24.793-24.793zm0 34.133c-5.151 0-9.341-4.19-9.341-9.341 0-5.15 4.19-9.34 9.341-9.34 5.15 0 9.34 4.19 9.34 9.34.001 5.151-4.19 9.341-9.34 9.341z"/><path d="m312.664 45.737c-3.017-3.018-7.908-3.018-10.928 0l-102.4 102.4c-3.018 3.017-3.018 7.909 0 10.927 1.509 1.509 3.486 2.263 5.463 2.263s3.955-.755 5.463-2.263l102.401-102.4c3.018-3.018 3.018-7.91.001-10.927z"/></g></g><path d="m503.465 443.731h-23.694c4.713 0 8.533 3.82 8.533 8.533v25.603c0 18.851-15.282 34.133-34.132 34.133h23.694c18.851 0 34.133-15.282 34.133-34.133v-25.603c0-4.713-3.821-8.533-8.534-8.533z" fill="#cadae6"/><path d="m299.299 443.731-4.896 19.333c-1.042 4.166-4.768 7.076-9.062 7.076h-58.682c-4.294 0-8.02-2.909-9.055-7.051l-4.775-19.358h-15.916l5.693 23.081c2.764 11.058 12.655 18.781 24.053 18.781h58.682c11.398 0 21.289-7.722 24.047-18.758l5.85-23.104z" fill="#cadae6"/><ellipse cx="256.076" cy="324.267" fill="#f4de7f" rx="34.133" ry="34.133" transform="matrix(.145 -.989 .989 .145 -101.941 530.537)"/><path d="m256.076 290.133c-4.166 0-8.156.749-11.847 2.115 13.011 4.816 22.286 17.333 22.286 32.018s-9.275 27.202-22.286 32.018c3.691 1.366 7.681 2.115 11.847 2.115 18.851 0 34.133-15.282 34.133-34.133.001-18.851-15.281-34.133-34.133-34.133z" fill="#f0c078"/><g><g><g><path d="m256.076 263.726c-4.267 0-7.726-3.459-7.726-7.726v-17.067c0-4.267 3.459-7.726 7.726-7.726s7.726 3.459 7.726 7.726v17.067c0 4.267-3.459 7.726-7.726 7.726z" fill="#f0c078"/></g><g><path d="m256.076 417.327c-4.267 0-7.726-3.459-7.726-7.726v-17.067c0-4.267 3.459-7.726 7.726-7.726s7.726 3.459 7.726 7.726v17.066c0 4.267-3.459 7.727-7.726 7.727z" fill="#f0c078"/></g></g></g><g><g><g><path d="m341.41 331.993h-17.066c-4.267 0-7.726-3.459-7.726-7.726s3.459-7.726 7.726-7.726h17.066c4.267 0 7.726 3.459 7.726 7.726s-3.459 7.726-7.726 7.726z" fill="#f0c078"/></g><g><path d="m187.81 331.993h-17.066c-4.267 0-7.726-3.459-7.726-7.726s3.459-7.726 7.726-7.726h17.066c4.267 0 7.726 3.459 7.726 7.726s-3.459 7.726-7.726 7.726z" fill="#f0c078"/></g></g></g><g><g><g><path d="m316.416 392.332c-1.977 0-3.955-.754-5.463-2.263l-12.068-12.068c-3.018-3.017-3.018-7.909 0-10.926 3.017-3.017 7.909-3.017 10.926 0l12.068 12.068c3.018 3.017 3.018 7.909 0 10.927-1.508 1.508-3.486 2.262-5.463 2.262z" fill="#f0c078"/></g><g><path d="m207.805 283.721c-1.977 0-3.955-.754-5.463-2.263l-12.068-12.069c-3.018-3.018-3.018-7.909 0-10.927s7.91-3.018 10.927 0l12.068 12.068c3.018 3.018 3.018 7.909 0 10.927-1.51 1.51-3.488 2.264-5.464 2.264z" fill="#f0c078"/></g></g></g><g><g><g><path d="m304.348 283.721c-1.977 0-3.955-.754-5.463-2.263-3.018-3.017-3.018-7.909 0-10.927l12.068-12.068c3.017-3.017 7.909-3.018 10.926 0 3.018 3.017 3.018 7.909 0 10.927l-12.068 12.069c-1.508 1.508-3.485 2.262-5.463 2.262z" fill="#f0c078"/></g><g><path d="m195.737 392.332c-1.977 0-3.955-.754-5.463-2.263-3.018-3.017-3.018-7.909 0-10.927l12.068-12.068c3.017-3.017 7.909-3.017 10.926 0 3.018 3.017 3.018 7.909 0 10.926l-12.068 12.069c-1.509 1.509-3.486 2.263-5.463 2.263z" fill="#f0c078"/></g></g></g></g></svg>