<svg id="Layer_1" enable-background="new 0 0 512 512" height="512" viewBox="0 0 512 512" width="512" xmlns="http://www.w3.org/2000/svg"><g><path d="m119.467 20.844h34.133v60.849h-34.133z" fill="#cadae6"/><path d="m179.196 34.202h-85.325c-5.551 0-9.625-5.217-8.279-10.603l4.267-17.067c.95-3.799 4.363-6.464 8.278-6.464h76.792c3.916 0 7.329 2.665 8.279 6.464l4.267 17.067c1.346 5.386-2.728 10.603-8.279 10.603z" fill="#eef1f3"/><path d="m187.474 23.599-4.267-17.067c-.95-3.799-4.363-6.464-8.279-6.464h-23.694c3.916 0 7.329 2.665 8.279 6.464l4.267 17.067c1.346 5.386-2.727 10.603-8.279 10.603h23.694c5.552 0 9.626-5.217 8.279-10.603z" fill="#cadae6"/><path d="m230.4 328.971v174.719c0 4.551 3.69 8.241 8.241 8.241h34.717c4.551 0 8.241-3.69 8.241-8.241v-174.719z" fill="#cadae6"/><path d="m230.4 485.661h51.2v-15.453h-51.2z" fill="#b4cadb"/><path d="m102.4 364.753h34.133v55.699h-34.133z" fill="#cadae6"/><path d="m375.467 364.753h34.133v55.699h-34.133z" fill="#cadae6"/><path d="m504 443.802h-496c-4.418 0-8-3.582-8-8v-18.133c0-4.418 3.582-8 8-8h496c4.418 0 8 3.582 8 8v18.133c0 4.418-3.582 8-8 8z" fill="#eef1f3"/><path d="m358.4 20.844h34.133v60.849h-34.133z" fill="#cadae6"/><g><path d="m487.467 375.535h-462.934c-8.837 0-16-7.164-16-16v-275.2c0-8.837 7.163-16 16-16h462.933c8.837 0 16 7.163 16 16v275.2c.001 8.837-7.163 16-15.999 16z" fill="#365e7d"/><g><path d="m469.333 207.65v-96.648c0-4.713-3.82-8.533-8.533-8.533h-51.68-152.642-205.278c-4.713 0-8.533 3.821-8.533 8.533v96.648z" fill="#eef1f3"/><path d="m460.8 102.469h-23.694c4.713 0 8.533 3.821 8.533 8.533v96.648h23.694v-96.648c0-4.713-3.82-8.533-8.533-8.533z" fill="#cadae6"/><path d="m469.333 170.735h-238.933-9.009c-10.598 0-21.051 2.467-30.53 7.207l-53.853 26.926v2.782h332.325z" fill="#e8aa41"/><path d="m445.639 170.735h23.694v36.915h-23.694z" fill="#e88f41"/><path d="m42.667 204.87v127.999c0 4.713 3.82 8.533 8.533 8.533h409.6c4.713 0 8.533-3.82 8.533-8.533v-127.999z" fill="#b1e4f9"/><path d="m445.639 204.87v127.999c0 4.713-3.82 8.533-8.533 8.533h23.694c4.713 0 8.533-3.82 8.533-8.533v-127.999z" fill="#75cef9"/><path d="m324.267 273.135c9.426 0 17.067 7.641 17.067 17.067s-7.641 17.067-17.067 17.067h-179.2c-9.426 0-17.067-7.641-17.067-17.067s7.641-17.067 17.067-17.067h34.133c9.426 0 17.067-7.641 17.067-17.067s-7.641-17.067-17.067-17.067h-68.267c-9.426 0-17.067-7.641-17.067-17.067s7.641-17.067 17.067-17.067h212.527z" fill="#75cef9"/><circle cx="93.867" cy="153.669" fill="#f4de7f" r="17.067"/><g><circle cx="332.8" cy="170.736" fill="#dd646e" r="102.4"/><path d="m332.8 68.337c-4.008 0-7.959.238-11.847.686 50.972 5.873 90.553 49.168 90.553 101.714s-39.581 95.84-90.553 101.714c3.888.448 7.839.686 11.847.686 56.554 0 102.4-45.846 102.4-102.4s-45.846-102.4-102.4-102.4z" fill="#db4955"/><g fill="#eef1f3"><path d="m298.667 161.396c13.671 0 24.793-11.122 24.793-24.793s-11.122-24.793-24.793-24.793-24.793 11.122-24.793 24.793c-.001 13.671 11.122 24.793 24.793 24.793zm0-34.133c5.15 0 9.34 4.19 9.34 9.34s-4.19 9.34-9.34 9.34-9.341-4.19-9.341-9.34 4.19-9.34 9.341-9.34z"/><path d="m366.934 180.077c-13.671 0-24.794 11.122-24.794 24.793s11.123 24.793 24.794 24.793 24.793-11.122 24.793-24.793-11.122-24.793-24.793-24.793zm0 34.133c-5.151 0-9.341-4.19-9.341-9.34s4.19-9.34 9.341-9.34c5.15 0 9.34 4.19 9.34 9.34s-4.19 9.34-9.34 9.34z"/><path d="m389.464 114.073c-3.017-3.018-7.908-3.018-10.928 0l-102.4 102.4c-3.018 3.017-3.018 7.91 0 10.927 1.509 1.509 3.486 2.263 5.463 2.263s3.955-.755 5.463-2.263l102.402-102.4c3.017-3.017 3.017-7.91 0-10.927z"/></g></g></g><path d="m486.984 68.335h-23.694c9.103 0 16.483 7.38 16.483 16.483v274.234c0 9.103-7.38 16.483-16.483 16.483h23.694c9.103 0 16.483-7.38 16.483-16.483v-274.234c0-9.103-7.38-16.483-16.483-16.483z" fill="#2b4d66"/></g><path d="m418.129 34.202h-85.325c-5.552 0-9.625-5.217-8.279-10.603l4.267-17.067c.95-3.799 4.363-6.464 8.279-6.464h76.792c3.916 0 7.329 2.665 8.279 6.464l4.267 17.067c1.345 5.386-2.728 10.603-8.28 10.603z" fill="#eef1f3"/><path d="m426.408 23.599-4.267-17.067c-.95-3.799-4.363-6.464-8.279-6.464h-23.694c3.916 0 7.329 2.665 8.279 6.464l4.267 17.067c1.346 5.386-2.727 10.603-8.279 10.603h23.694c5.552 0 9.625-5.217 8.279-10.603z" fill="#cadae6"/><path d="m503.759 409.669h-23.694c4.552 0 8.241 3.69 8.241 8.241v17.65c0 4.552-3.69 8.242-8.241 8.242h23.694c4.551 0 8.241-3.69 8.241-8.242v-17.65c0-4.552-3.69-8.241-8.241-8.241z" fill="#cadae6"/><g fill="#b4cadb"><path d="m43.474 409.669h15.453v34.133h-15.453z"/><path d="m453.073 409.669h15.453v34.133h-15.453z"/></g></g></svg>