<svg id="Layer_1" enable-background="new 0 0 512 512" height="512" viewBox="0 0 512 512" width="512" xmlns="http://www.w3.org/2000/svg"><g><g><path d="m130.002 340.063h34.276c4.319 0 7.935 3.273 8.365 7.57l3.363 33.629c.495 4.949-3.392 9.244-8.366 9.243l-32.054-.003z" fill="#f4de7f"/><g><path d="m75.658 440.942-8.406-134.503v-8.407h67.252v8.407l8.406 134.503v8.897h-67.252z" fill="#cadae6"/><path d="m134.504 306.439v-8.407h-23.342v8.407l8.406 134.503v8.897h23.342v-8.897z" fill="#b4cadb"/></g><path d="m386.698 230.781c27.857 0 50.439-22.582 50.439-50.439s-22.582-50.439-50.439-50.439h-8.66v100.878z" fill="#fde588"/><path d="m386.698 230.781c27.857 0 50.439-22.582 50.439-50.439s-22.582-50.439-50.439-50.439h-8.66v100.878z" fill="#f4de7f"/><path d="m386.698 129.903h-8.66v2.178c20.694 6.288 35.757 25.512 35.757 48.261s-15.063 41.974-35.757 48.261v2.178h8.66c27.857 0 50.439-22.582 50.439-50.439s-22.582-50.439-50.439-50.439z" fill="#f0c078"/><g><g><path d="m479.603 280.425c-1.291 0-2.599-.329-3.799-1.021l-29.121-16.813c-3.64-2.102-4.888-6.757-2.786-10.397 2.101-3.641 6.754-4.887 10.397-2.786l29.121 16.813c3.64 2.102 4.888 6.757 2.786 10.397-1.408 2.442-3.967 3.807-6.598 3.807z" fill="#75cef9"/></g><g><path d="m504.388 187.953h-33.626c-4.204 0-7.611-3.407-7.611-7.611s3.407-7.612 7.611-7.612h33.626c4.204 0 7.612 3.407 7.612 7.612 0 4.204-3.407 7.611-7.612 7.611z" fill="#75cef9"/></g><g><path d="m450.497 112.296c-2.63 0-5.188-1.365-6.599-3.807-2.102-3.64-.854-8.295 2.786-10.397l29.121-16.814c3.638-2.1 8.294-.855 10.397 2.786 2.102 3.64.854 8.295-2.786 10.397l-29.121 16.814c-1.198.692-2.507 1.021-3.798 1.021z" fill="#75cef9"/></g></g><path d="m33.626 239.187-28.979-14.489c-2.848-1.424-4.647-4.335-4.647-7.519v-73.674c0-3.184 1.799-6.095 4.647-7.519l28.979-14.49h10.182v117.691z" fill="#f4de7f"/><g><g><g><path d="m353.072 20.619-184.942 84.064-10.976 74.517 10.976 76.8 184.942 84.065h9.743v-319.446z" fill="#e8aa41"/></g><path d="m329.73 31.229v298.226l23.342 10.61h9.743v-319.446h-9.743z" fill="#e88f41"/></g></g><path d="m151.317 242.299h-100.878v56.14c0 4.418 3.582 8 8 8h84.878c4.418 0 8-3.582 8-8z" fill="#f4de7f"/><path d="m127.975 242.299v56.021c0 4.484-3.635 8.119-8.119 8.119h23.342c4.484 0 8.119-3.635 8.119-8.119v-56.021z" fill="#f0c078"/><path d="m177.349 508.194h-102.504c-8.837 0-16-7.164-16-16v-35.252c0-8.837 7.163-16 16-16h102.504c8.837 0 16 7.163 16 16v35.252c0 8.837-7.163 16-16 16z" fill="#e8aa41"/><path d="m361.072 356.878h17.626c4.418 0 8-3.582 8-8v-337.072c0-4.418-3.582-8-8-8h-17.626c-4.418 0-8 3.582-8 8v337.072c0 4.418 3.582 8 8 8z" fill="#eef1f3"/><path d="m168.13 256h-118.504c-8.837 0-16-7.163-16-16v-119.317c0-8.837 7.163-16 16-16h118.504z" fill="#eef1f3"/><path d="m118.097 197.155h-34.439c-4.418 0-8-3.582-8-8v-17.626c0-4.418 3.582-8 8-8h34.439c4.418 0 8 3.582 8 8v17.626c0 4.418-3.582 8-8 8z" fill="#f4de7f"/><g fill="#e88f41"><path d="m177.111 440.942h-23.342c8.968 0 16.238 7.27 16.238 16.238v34.776c0 8.968-7.27 16.238-16.238 16.238h23.342c8.968 0 16.238-7.27 16.238-16.238v-34.776c0-8.968-7.27-16.238-16.238-16.238z"/><path d="m58.845 466.956v15.223h134.504v-15.223z"/></g></g><g><path d="m348.147 422.09-47.554 47.554c-6.566 6.566-17.211 6.566-23.777 0l-64.969-64.969c-3.975-3.975-5.7-9.673-4.598-15.186l7.926-39.629c1.331-6.656 6.534-11.858 13.189-13.189l39.629-7.926c5.512-1.102 11.211.623 15.186 4.598l64.969 64.969c6.565 6.567 6.565 17.212-.001 23.778z" fill="#dd646e"/><g><path d="m256.011 408.896c-1.948 0-3.896-.743-5.383-2.229l-2.972-2.972c-2.972-2.972-2.972-7.792 0-10.764 2.973-2.972 7.792-2.972 10.765 0l2.972 2.972c2.972 2.972 2.972 7.792 0 10.764-1.486 1.486-3.434 2.229-5.382 2.229z" fill="#eef1f3"/></g><g><path d="m312.482 417.813c-1.948 0-3.896-.743-5.383-2.23l-2.972-2.972c-2.972-2.972-2.972-7.792 0-10.764 2.973-2.972 7.792-2.972 10.765 0l2.972 2.972c2.972 2.972 2.972 7.792 0 10.764-1.486 1.486-3.435 2.23-5.382 2.23z" fill="#eef1f3"/></g><g><path d="m288.697 441.591c-3.554 0-6.732-2.502-7.456-6.12l-11.889-59.443c-.825-4.122 1.849-8.132 5.971-8.956 4.122-.822 8.132 1.849 8.956 5.971l11.889 59.443c.825 4.122-1.849 8.132-5.971 8.956-.503.101-1.006.149-1.5.149z" fill="#eef1f3"/></g><g><path d="m241.151 370.259c-1.947 0-3.896-.743-5.383-2.229l-89.543-89.543c-2.972-2.972-2.972-7.792 0-10.764 2.973-2.972 7.792-2.972 10.765 0l89.543 89.543c2.972 2.972 2.972 7.792 0 10.764-1.486 1.485-3.435 2.229-5.382 2.229z" fill="#eef1f3"/></g><path d="m348.147 398.313-64.969-64.969c-3.975-3.975-9.674-5.7-15.186-4.598l-11.146 2.229c1.071.669 2.078 1.456 2.99 2.369l64.969 64.969c6.566 6.566 6.566 17.211 0 23.777l-47.554 47.554c-.07.07-.147.128-.218.197 6.581 6.358 17.064 6.299 23.56-.197l47.554-47.554c6.566-6.566 6.566-17.211 0-23.777z" fill="#db4955"/></g></g></svg>