<svg id="Layer_1" enable-background="new 0 0 512 512" height="512" viewBox="0 0 512 512" width="512" xmlns="http://www.w3.org/2000/svg"><g><path d="m450.11 37.755-115.465-19.244c-5.437-.906-10.976.869-14.874 4.766l-189.186 189.186c-2.554 2.554-3.084 6.415-1.541 9.681 2.992 6.332 1.87 14.126-3.366 19.362-5.237 5.237-13.03 6.359-19.362 3.366-3.265-1.543-7.127-1.013-9.681 1.541l-91.636 91.637c-6.665 6.665-6.665 17.471 0 24.136l144.816 144.815c6.665 6.665 17.471 6.665 24.136 0l91.636-91.637c2.554-2.554 3.084-6.415 1.541-9.681-2.992-6.332-1.87-14.126 3.366-19.362s13.03-6.359 19.362-3.366c3.265 1.543 7.127 1.013 9.681-1.541l189.186-189.186c3.897-3.897 5.672-9.437 4.766-14.874l-19.244-115.464z" fill="#dd646e"/><g><path d="m150.568 459.484-98.052-98.052c-6.248-6.248-6.248-16.379 0-22.627l37.712-37.712c6.248-6.248 16.379-6.248 22.627 0l98.052 98.052c6.248 6.248 6.248 16.379 0 22.627l-37.712 37.712c-6.248 6.248-16.378 6.248-22.627 0z" fill="#eef1f3"/><g><path d="m89.474 357.844c-1.977 0-3.955-.755-5.463-2.263-3.018-3.017-3.018-7.91 0-10.927l12.068-12.068c3.017-3.017 7.909-3.017 10.926 0 3.018 3.017 3.018 7.909 0 10.927l-12.068 12.068c-1.508 1.508-3.485 2.263-5.463 2.263z" fill="#365e7d"/></g><g><path d="m114.553 382.923c-1.977 0-3.955-.755-5.463-2.263-3.018-3.017-3.018-7.909 0-10.927l12.068-12.068c3.017-3.017 7.909-3.017 10.926 0 3.018 3.017 3.018 7.909 0 10.927l-12.068 12.068c-1.508 1.509-3.485 2.263-5.463 2.263z" fill="#365e7d"/></g><g><path d="m139.632 408.001c-1.977 0-3.955-.755-5.463-2.263-3.018-3.017-3.018-7.91 0-10.927l12.068-12.068c3.017-3.017 7.91-3.017 10.927 0 3.018 3.017 3.018 7.909 0 10.926l-12.068 12.068c-1.51 1.51-3.487 2.264-5.464 2.264z" fill="#365e7d"/></g><g><path d="m164.711 433.08c-1.977 0-3.955-.754-5.463-2.263-3.018-3.017-3.018-7.909 0-10.927l12.068-12.068c3.017-3.017 7.909-3.017 10.926 0 3.018 3.017 3.018 7.91 0 10.927l-12.068 12.068c-1.509 1.509-3.486 2.263-5.463 2.263z" fill="#365e7d"/></g></g><g><g><path d="m410.458 85.133c-1.977 0-3.955-.755-5.463-2.263l-12.068-12.068c-3.018-3.017-3.018-7.91 0-10.927 3.017-3.017 7.91-3.017 10.927 0l12.068 12.068c3.018 3.017 3.018 7.91 0 10.927-1.51 1.508-3.487 2.263-5.464 2.263z" fill="#db4955"/></g></g><g><g><path d="m446.661 121.336c-1.977 0-3.955-.755-5.463-2.263l-12.068-12.068c-3.018-3.017-3.018-7.909 0-10.926 3.017-3.017 7.909-3.017 10.927 0l12.068 12.068c3.018 3.017 3.018 7.909 0 10.927-1.509 1.508-3.486 2.262-5.464 2.262z" fill="#db4955"/></g></g><path d="m493.489 177.355-19.244-115.465-24.135-24.136-3.528-.588 23.214 140.188c.906 5.437-.869 10.976-4.766 14.874l-189.187 189.186c-2.554 2.554-6.415 3.084-9.681 1.541-6.332-2.992-14.126-1.87-19.362 3.367-5.237 5.237-6.359 13.03-3.366 19.362 1.543 3.265 1.013 7.127-1.541 9.681l-91.636 91.637c-.071.071-.149.13-.221.2 6.68 6.453 17.321 6.394 23.915-.2l91.636-91.637c2.554-2.554 3.084-6.415 1.541-9.681-2.992-6.332-1.87-14.126 3.366-19.362s13.03-6.359 19.362-3.367c3.265 1.543 7.127 1.013 9.681-1.541l189.186-189.186c3.897-3.897 5.672-9.437 4.766-14.873z" fill="#db4955"/><g><g><g><path d="m170.933 294.487c-1.977 0-3.955-.755-5.463-2.263l-12.068-12.068c-3.018-3.017-3.018-7.909 0-10.926 3.017-3.017 7.909-3.017 10.927 0l12.068 12.068c3.018 3.017 3.018 7.91 0 10.927-1.509 1.508-3.487 2.262-5.464 2.262z" fill="#db4955"/></g><g><path d="m204.12 327.674c-1.977 0-3.955-.754-5.463-2.263l-12.068-12.068c-3.018-3.017-3.018-7.909 0-10.927 3.017-3.017 7.91-3.017 10.927 0l12.068 12.068c3.018 3.017 3.018 7.909 0 10.926-1.509 1.51-3.486 2.264-5.464 2.264z" fill="#db4955"/></g><g><path d="m237.307 360.861c-1.977 0-3.955-.755-5.463-2.263l-12.068-12.068c-3.018-3.017-3.018-7.91 0-10.927 3.017-3.017 7.909-3.017 10.927 0l12.068 12.068c3.018 3.017 3.018 7.91 0 10.927-1.509 1.509-3.487 2.263-5.464 2.263z" fill="#db4955"/></g></g></g><path d="m131.141 236.043c-.426-.426-.892-.785-1.383-1.091-.815 2.394-2.171 4.645-4.08 6.555-1.909 1.909-4.16 3.265-6.554 4.08.306.49.665.957 1.091 1.383l12.068 12.068c1.508 1.509 3.486 2.263 5.463 2.263s3.955-.754 5.463-2.263c3.018-3.017 3.018-7.909 0-10.927z" fill="#db4955"/><path d="m275.957 380.859-12.069-12.068c-3.017-3.018-7.909-3.017-10.926 0-3.018 3.018-3.018 7.91 0 10.927l12.068 12.068c.426.426.892.785 1.383 1.091.815-2.394 2.171-4.645 4.08-6.555 1.909-1.909 4.16-3.265 6.554-4.08-.305-.491-.664-.957-1.09-1.383z" fill="#db4955"/><path d="m210.567 398.803-97.369-97.369c-6.437-6.437-16.873-6.437-23.31 0l-.192.192 97.177 97.177c6.437 6.437 6.437 16.873 0 23.31l-36.837 36.837.192.192c6.437 6.437 16.873 6.437 23.31 0l37.029-37.029c6.437-6.437 6.437-16.874 0-23.31z" fill="#cadae6"/><path d="m410.458 77.406c-6.665 6.665-6.665 17.471 0 24.136s17.471 6.665 24.136 0l72.408-72.408c6.665-6.665 6.665-17.471 0-24.136s-17.471-6.665-24.136 0z" fill="#eef1f3"/><path d="m507.001 4.999c-6.594-6.594-17.235-6.653-23.915-.2.072.069.15.128.221.2 6.665 6.665 6.665 17.471 0 24.136l-72.408 72.408c-.071.071-.149.13-.221.2 6.68 6.453 17.321 6.394 23.915-.2l72.408-72.408c6.665-6.665 6.665-17.471 0-24.136z" fill="#cadae6"/><g><g><g><path d="m307.2 181.321c-6.623 0-12.849-2.579-17.532-7.262-9.666-9.667-9.666-25.396.001-35.062 4.682-4.683 10.908-7.262 17.531-7.262 6.622 0 12.849 2.579 17.531 7.262 9.667 9.667 9.667 25.396 0 35.062-4.682 4.683-10.909 7.262-17.531 7.262zm0-34.133c-2.495 0-4.84.972-6.604 2.736-3.642 3.642-3.642 9.568 0 13.209 1.764 1.764 4.11 2.736 6.605 2.736s4.841-.972 6.605-2.736c3.642-3.642 3.642-9.567 0-13.209-1.765-1.765-4.111-2.736-6.606-2.736z" fill="#eef1f3"/></g><g><path d="m307.2 277.865c-6.623 0-12.849-2.579-17.532-7.262-9.666-9.667-9.666-25.396.001-35.062 4.682-4.683 10.908-7.262 17.531-7.262 6.622 0 12.849 2.579 17.531 7.262 9.667 9.667 9.667 25.396 0 35.062-4.682 4.683-10.909 7.262-17.531 7.262zm0-34.134c-2.495 0-4.84.972-6.604 2.736-3.642 3.642-3.642 9.567 0 13.209 1.764 1.764 4.11 2.736 6.605 2.736s4.841-.972 6.605-2.736c3.642-3.642 3.642-9.567 0-13.209-1.765-1.764-4.111-2.736-6.606-2.736z" fill="#eef1f3"/></g><g><path d="m379.608 212.526h-144.816c-4.267 0-7.726-3.459-7.726-7.726s3.459-7.726 7.726-7.726h144.815c4.267 0 7.726 3.459 7.726 7.726.001 4.267-3.458 7.726-7.725 7.726z" fill="#eef1f3"/></g></g></g></g></svg>