<svg id="Layer_1" enable-background="new 0 0 512 512" height="512" viewBox="0 0 512 512" width="512" xmlns="http://www.w3.org/2000/svg"><g><path d="m392.533 115.895h-273.066v-99.895c0-8.837 7.163-16 16-16h241.067c8.837 0 16 7.163 16 16v99.895z" fill="#d8b26a"/><path d="m376.05 0h-23.694c9.103 0 16.483 7.38 16.483 16.483v99.412h23.694v-99.412c0-9.103-7.379-16.483-16.483-16.483z" fill="#b8985d"/><g><g fill="#365e7d"><path d="m244.482 23.59c-.026-.069-.053-.139-.081-.208-1.375-3.347-4.602-5.508-8.219-5.508-.003 0-.006 0-.008 0-3.622.003-6.848 2.171-8.218 5.523-.023.057-.046.116-.068.174l-19.227 50.479c-1.519 3.987.483 8.451 4.471 9.97.904.345 1.834.508 2.748.508 3.113 0 6.047-1.895 7.221-4.979l2.892-7.595h20.224l2.859 7.573c1.506 3.992 5.966 6.008 9.957 4.5 3.992-1.506 6.007-5.964 4.5-9.957zm-12.603 32.912 4.273-11.218 4.234 11.218z"/><path d="m306.319 69.03c-.015 0-.03 0-.044 0-3.456.019-7.097.034-10.159.04v-43.47c0-4.268-3.459-7.726-7.726-7.726-4.268 0-7.726 3.459-7.726 7.726v51.157c0 3.761 2.708 6.976 6.415 7.614.557.097.925.16 6.667.16 2.759 0 6.759-.014 12.617-.047 4.268-.024 7.707-3.503 7.683-7.77-.026-4.253-3.48-7.684-7.727-7.684z"/><path d="m359.745 69.073h-13.651v-9.913h12.074c4.268 0 7.726-3.459 7.726-7.726s-3.459-7.726-7.726-7.726h-12.074v-9.913h13.651c4.268 0 7.726-3.459 7.726-7.726s-3.459-7.726-7.726-7.726h-21.377c-4.268 0-7.726 3.459-7.726 7.726v50.731c0 4.268 3.459 7.726 7.726 7.726h21.377c4.268 0 7.726-3.459 7.726-7.726 0-4.268-3.459-7.727-7.726-7.727z"/><path d="m177.218 44.355c-6.057-2.235-11.712-4.663-13.684-5.524-.717-.664-.726-1.521-.657-2.008.093-.652.587-2.25 3.142-3.02 6.506-1.964 12.67 2.856 12.872 3.016 3.268 2.702 8.105 2.267 10.836-.985 2.746-3.267 2.323-8.14-.944-10.885-.505-.426-12.558-10.357-27.221-5.943-7.568 2.281-12.926 8.266-13.981 15.622-.995 6.933 2.012 13.604 7.848 17.408.341.222.699.417 1.071.583.298.133 7.388 3.289 15.369 6.232 3.105 1.146 6.278 3.19 5.866 5.493-.341 1.906-3.004 4.728-7.639 4.728-4.72 0-9.25-1.888-12.118-5.052-2.866-3.162-7.754-3.4-10.913-.535-3.162 2.866-3.401 7.751-.535 10.913 5.834 6.436 14.424 10.127 23.566 10.127 11.434 0 21.044-7.345 22.851-17.465 1.37-7.666-2.044-17.658-15.729-22.705z"/></g></g><path d="m17.067 420.255h477.867v62.763h-477.867z" fill="#e8aa41"/><path d="m471.239 420.254h23.694v62.763h-23.694z" fill="#e88f41"/><path d="m17.067 179.2h477.867v247.467h-477.867z" fill="#eef1f3"/><path d="m471.239 179.2h23.694v247.467h-23.694z" fill="#cadae6"/><g><path d="m85.333 187.733-42.667 3.09-42.666-3.09v-68.85c0-9.103 7.38-16.483 16.483-16.483h70.911z" fill="#dd646e"/><path d="m170.667 187.733-42.667 3.091-42.667-3.091v-85.333h87.394z" fill="#f4de7f"/><path d="m256 187.733-42.667 3.091-42.666-3.091v-85.333h87.393z" fill="#dd646e"/><path d="m341.333 187.733-42.666 3.091-42.667-3.091v-85.333h87.394z" fill="#f4de7f"/><path d="m426.667 187.733-42.667 3.091-42.667-3.091v-85.333h87.394z" fill="#dd646e"/><path d="m512 187.733h-85.333v-85.333h69.333c8.837 0 16 7.163 16 16z" fill="#eff6ff"/><path d="m512 187.733-42.667 3.09-42.667-3.09v-85.333h68.85c9.103 0 16.483 7.38 16.483 16.483v68.85z" fill="#f4de7f"/><path d="m495.517 102.4h-23.694c9.103 0 16.483 7.38 16.483 16.483v70.567l23.694-1.717v-68.85c0-9.103-7.38-16.483-16.483-16.483z" fill="#f0c078"/><path d="m85.333 187.733c0 23.564-19.102 42.667-42.667 42.667s-42.666-19.102-42.666-42.667z" fill="#db4955"/><path d="m170.667 187.733c0 23.564-19.103 42.667-42.667 42.667s-42.667-19.102-42.667-42.667z" fill="#e8aa41"/><path d="m256 187.733c0 23.564-19.102 42.667-42.667 42.667s-42.667-19.102-42.667-42.667z" fill="#db4955"/><path d="m341.333 187.733c0 23.564-19.102 42.667-42.667 42.667-23.564 0-42.667-19.102-42.667-42.667z" fill="#e8aa41"/><path d="m426.667 187.733c0 23.564-19.102 42.667-42.667 42.667s-42.667-19.102-42.667-42.667z" fill="#db4955"/><path d="m512 187.733c0 23.564-19.103 42.667-42.667 42.667s-42.667-19.102-42.667-42.667z" fill="#e8aa41"/><path d="m488.302 187.733c0 19.451-13.021 35.85-30.818 40.987 3.764 1.086 7.736 1.68 11.849 1.68 23.564 0 42.667-19.102 42.667-42.667z" fill="#e88f41"/></g><g><path d="m315.733 483.018h-119.466v-201.951c0-4.418 3.582-8 8-8h103.467c4.418 0 8 3.582 8 8v201.951z" fill="#d8b26a"/><g><g><path d="m281.6 387.46c-4.268 0-7.726-3.459-7.726-7.726v-8.534c0-4.268 3.459-7.726 7.726-7.726 4.268 0 7.726 3.459 7.726 7.726v8.533c0 4.268-3.459 7.727-7.726 7.727z" fill="#f4de7f"/></g></g><path d="m307.492 273.067h-23.694c4.552 0 8.241 3.69 8.241 8.241v201.71h23.694v-201.71c0-4.551-3.69-8.241-8.241-8.241z" fill="#b8985d"/></g><path d="m145.6 392.533h-86.4c-4.418 0-8-3.582-8-8v-86.4c0-4.418 3.582-8 8-8h86.4c4.418 0 8 3.582 8 8v86.4c0 4.419-3.582 8-8 8z" fill="#b1e4f9"/><path d="m452.8 392.533h-86.4c-4.418 0-8-3.582-8-8v-86.4c0-4.418 3.582-8 8-8h86.4c4.418 0 8 3.582 8 8v86.4c0 4.419-3.582 8-8 8z" fill="#b1e4f9"/><path d="m452.559 290.133h-23.694c4.552 0 8.241 3.69 8.241 8.241v85.917c0 4.552-3.69 8.241-8.241 8.241h23.694c4.552 0 8.241-3.69 8.241-8.241v-85.917c0-4.551-3.69-8.241-8.241-8.241z" fill="#75cef9"/><path d="m145.359 290.133h-23.694c4.551 0 8.241 3.69 8.241 8.241v85.917c0 4.552-3.69 8.241-8.241 8.241h23.694c4.551 0 8.241-3.69 8.241-8.241v-85.917c0-4.551-3.69-8.241-8.241-8.241z" fill="#75cef9"/><path d="m0 504v-18.133c0-4.418 3.582-8 8-8h496c4.418 0 8 3.582 8 8v18.133c0 4.418-3.582 8-8 8h-496c-4.418 0-8-3.582-8-8z" fill="#cadae6"/><path d="m503.759 477.867h-23.694c4.552 0 8.241 3.69 8.241 8.241v17.651c0 4.551-3.69 8.241-8.241 8.241h23.694c4.552 0 8.241-3.69 8.241-8.241v-17.651c0-4.552-3.69-8.241-8.241-8.241z" fill="#b4cadb"/></g></svg>