<svg id="Layer_1" enable-background="new 0 0 512 512" height="512" viewBox="0 0 512 512" width="512" xmlns="http://www.w3.org/2000/svg"><g><g><g fill="#365e7d"><path d="m204.8 112.598h34.133v201.471h-34.133z"/><path d="m119.467 112.598h34.133v201.471h-34.133z"/><path d="m290.133 112.598h34.133v201.471h-34.133z"/></g><path d="m291.918 110.813h30.563v34.133h-30.563z" fill="#2b4d66" transform="matrix(0 1 -1 0 435.079 -179.32)"/><path d="m206.585 110.813h30.563v34.133h-30.563z" fill="#2b4d66" transform="matrix(0 1 -1 0 349.746 -93.987)"/><path d="m121.252 110.813h30.563v34.133h-30.563z" fill="#2b4d66" transform="matrix(0 1 -1 0 264.413 -8.654)"/><g><circle cx="119.467" cy="460.8" fill="#365e7d" r="51.2"/><path d="m119.467 409.6c-4.08 0-8.043.491-11.847 1.393 22.562 5.347 39.353 25.61 39.353 49.807s-16.791 44.459-39.353 49.807c3.804.902 7.767 1.393 11.847 1.393 28.277 0 51.2-22.923 51.2-51.2s-22.923-51.2-51.2-51.2z" fill="#2b4d66"/><circle cx="119.467" cy="460.8" fill="#e8aa41" r="17.067"/></g><g><circle cx="392.533" cy="460.8" fill="#365e7d" r="51.2"/><path d="m392.533 409.6c-4.08 0-8.043.491-11.847 1.393 22.562 5.347 39.353 25.61 39.353 49.807s-16.791 44.459-39.353 49.807c3.804.902 7.767 1.393 11.847 1.393 28.277 0 51.2-22.923 51.2-51.2s-22.923-51.2-51.2-51.2z" fill="#2b4d66"/><circle cx="392.533" cy="460.8" fill="#e8aa41" r="17.067"/></g><path d="m443.733 34.133h17.067l17.075-17.067-17.075-17.066h-34.133c-18.851 0-34.133 15.282-34.133 34.133v42.959c0 4.552-3.69 8.241-8.241 8.241h-359.743c-16.479 0-28.272 15.923-23.468 31.685l60.992 200.132c4.378 14.366 17.632 24.183 32.651 24.183h365.627c9.276 0 17.195 7.212 17.504 16.482.324 9.692-7.437 17.651-17.057 17.651h-443.732c-9.426.001-17.067 7.642-17.067 17.067 0 9.426 7.641 17.067 17.067 17.067h443.733c28.568 0 51.672-23.398 51.193-52.075-.469-28.073-23.958-50.325-52.035-50.325h-25.049c-4.552 0-8.242-3.69-8.242-8.241v-247.759c0-9.426 7.641-17.067 17.066-17.067zm-352.278 261.079-47.875-153.6c-3.425-10.987 4.785-22.145 16.293-22.145h324.419c4.552 0 8.241 3.69 8.241 8.241v171.251c0 4.552-3.69 8.241-8.241 8.241h-276.544c-7.469 0-14.071-4.857-16.293-11.988z" fill="#eef1f3"/><path d="m503.467 0h-42.667v34.133h42.667c4.713 0 8.533-3.82 8.533-8.533v-17.067c0-4.713-3.82-8.533-8.533-8.533z" fill="#dd646e"/><g fill="#cadae6"><path d="m443.733 34.133h-23.694c-9.426 0-17.067 7.641-17.067 17.067v247.759c0 4.552 3.69 8.241 8.241 8.241h23.694c-4.552 0-8.242-3.69-8.242-8.241v-247.759c.002-9.426 7.643-17.067 17.068-17.067z"/><path d="m459.957 307.2h-23.694c28.077 0 51.566 22.252 52.035 50.325.479 28.678-22.624 52.075-51.193 52.075h23.695c28.568 0 51.672-23.398 51.193-52.075-.469-28.073-23.959-50.325-52.036-50.325z"/></g><path d="m503.467 0h-23.694c4.713 0 8.533 3.82 8.533 8.533v17.067c0 4.713-3.82 8.533-8.533 8.533h23.694c4.713 0 8.533-3.82 8.533-8.533v-17.067c0-4.713-3.82-8.533-8.533-8.533z" fill="#db4955"/></g><g><path d="m302.196 219.791-48.272 48.272c-6.665 6.665-17.471 6.665-24.136 0l-65.949-65.949c-4.035-4.035-5.786-9.82-4.667-15.415l8.045-40.227c1.351-6.756 6.632-12.037 13.388-13.388l40.227-8.045c5.595-1.119 11.38.632 15.415 4.667l65.949 65.949c6.665 6.665 6.665 17.471 0 24.136z" fill="#dd646e"/><g><path d="m208.669 206.398c-1.977 0-3.955-.755-5.464-2.263l-3.017-3.017c-3.017-3.017-3.017-7.909 0-10.926 3.018-3.017 7.909-3.017 10.928 0l3.017 3.017c3.017 3.017 3.017 7.909 0 10.926-1.509 1.509-3.487 2.263-5.464 2.263z" fill="#eef1f3"/></g><g><path d="m265.992 215.449c-1.977 0-3.955-.755-5.464-2.263l-3.017-3.017c-3.017-3.017-3.017-7.909 0-10.927 3.018-3.017 7.91-3.017 10.928 0l3.017 3.017c3.017 3.017 3.017 7.909 0 10.927-1.509 1.509-3.487 2.263-5.464 2.263z" fill="#eef1f3"/></g><g><path d="m241.848 239.587c-3.608 0-6.834-2.54-7.568-6.213l-12.068-60.34c-.837-4.184 1.877-8.255 6.061-9.092 4.184-.834 8.255 1.877 9.091 6.061l12.068 60.34c.837 4.184-1.877 8.255-6.061 9.092-.51.102-1.021.152-1.523.152z" fill="#eef1f3"/></g><g><path d="m193.585 167.178c-1.977 0-3.955-.755-5.464-2.263l-74.245-74.245c-3.017-3.017-3.017-7.909 0-10.926 3.018-3.017 7.909-3.017 10.928 0l74.245 74.245c3.017 3.017 3.017 7.91 0 10.927-1.509 1.507-3.487 2.262-5.464 2.262z" fill="#b1e4f9"/></g><path d="m302.196 195.655-65.949-65.949c-4.035-4.035-9.82-5.786-15.415-4.667l-11.314 2.263c1.087.679 2.109 1.478 3.035 2.405l65.949 65.949c6.665 6.665 6.665 17.471 0 24.136l-48.272 48.272c-.071.071-.149.13-.221.2 6.68 6.454 17.321 6.395 23.915-.2l48.272-48.272c6.665-6.666 6.665-17.472 0-24.137z" fill="#db4955"/></g></g></svg>