<svg id="Layer_1" enable-background="new 0 0 512 512" height="512" viewBox="0 0 512 512" width="512" xmlns="http://www.w3.org/2000/svg"><g><g><path d="m191.999 401.065-8.534 76.797v5.551h145.069v-5.551l-8.534-76.797v-6.505h-128.001z" fill="#cadae6"/><path d="m320 401.065v-6.505h-23.694v6.505l8.533 76.797v5.551h23.695v-5.551z" fill="#b4cadb"/></g><path d="m238.933 394.56v32.106c0 4.713 3.82 8.533 8.533 8.533h17.067c4.713 0 8.533-3.821 8.533-8.533v-32.106z" fill="#b4cadb"/><path d="m511.997 341.333v-307.201c0-18.851-15.281-34.132-34.132-34.132h-443.732c-18.851 0-34.132 15.281-34.132 34.132v307.201z" fill="#365e7d"/><path d="m367.466 477.868h-222.933c-4.418 0-8 3.582-8 8v18.132c0 4.418 3.582 8 8 8h222.933c4.418 0 8-3.582 8-8v-18.132c0-4.418-3.582-8-8-8z" fill="#eef1f3"/><path d="m34.132 341.333v-298.665c0-4.713 3.821-8.533 8.533-8.533h426.668c4.713 0 8.533 3.821 8.533 8.533v298.665z" fill="#b1e4f9"/><path d="m469.333 34.134h-23.695c4.713 0 8.533 3.821 8.533 8.533v298.665h23.695v-298.664c.001-4.713-3.82-8.534-8.533-8.534z" fill="#75cef9"/><path d="m.001 332.801v34.133c0 18.851 15.281 34.133 34.132 34.133h443.732c18.851 0 34.132-15.282 34.132-34.133v-34.133z" fill="#eef1f3"/><g><g><path d="m273.067 374.659h-34.133c-4.267 0-7.726-3.459-7.726-7.726s3.459-7.726 7.726-7.726h34.133c4.267 0 7.726 3.459 7.726 7.726s-3.459 7.726-7.726 7.726z" fill="#365e7d"/></g></g><path d="m477.865 0h-23.693c18.851 0 34.133 15.281 34.133 34.132v307.201h23.693v-307.201c-.001-18.851-15.282-34.132-34.133-34.132z" fill="#2b4d66"/><path d="m488.305 332.801v34.133c0 18.851-15.282 34.133-34.133 34.133h23.693c18.851 0 34.132-15.282 34.132-34.133v-34.133z" fill="#cadae6"/><path d="m367.225 477.868h-23.669c4.552 0 8.241 3.69 8.241 8.242v17.649c0 4.551-3.69 8.241-8.241 8.241h23.669c4.552 0 8.241-3.69 8.241-8.241v-17.649c0-4.552-3.69-8.242-8.241-8.242z" fill="#cadae6"/><ellipse cx="255.999" cy="180.664" fill="#f4de7f" rx="34.133" ry="34.133" transform="matrix(.927 -.375 .375 .927 -49.055 109.131)"/><path d="m255.999 146.531c-4.166 0-8.156.749-11.847 2.115 13.011 4.816 22.286 17.333 22.286 32.018s-9.275 27.202-22.286 32.018c3.691 1.366 7.681 2.115 11.847 2.115 18.851 0 34.133-15.282 34.133-34.133s-15.282-34.133-34.133-34.133z" fill="#f0c078"/><g><g><g><path d="m255.999 120.124c-4.267 0-7.726-3.459-7.726-7.726v-17.067c0-4.267 3.459-7.726 7.726-7.726s7.726 3.459 7.726 7.726v17.067c0 4.267-3.459 7.726-7.726 7.726z" fill="#f0c078"/></g><g><path d="m255.999 273.724c-4.267 0-7.726-3.459-7.726-7.726v-17.067c0-4.267 3.459-7.726 7.726-7.726s7.726 3.459 7.726 7.726v17.067c0 4.267-3.459 7.726-7.726 7.726z" fill="#f0c078"/></g></g></g><g><g><g><path d="m341.332 188.391h-17.066c-4.267 0-7.726-3.459-7.726-7.726s3.459-7.726 7.726-7.726h17.066c4.267 0 7.726 3.459 7.726 7.726s-3.459 7.726-7.726 7.726z" fill="#f0c078"/></g><g><path d="m187.732 188.391h-17.066c-4.267 0-7.726-3.459-7.726-7.726s3.459-7.726 7.726-7.726h17.066c4.267 0 7.726 3.459 7.726 7.726s-3.459 7.726-7.726 7.726z" fill="#f0c078"/></g></g></g><g><g><g><path d="m316.339 248.73c-1.977 0-3.955-.755-5.463-2.263l-12.068-12.068c-3.018-3.017-3.018-7.91 0-10.927 3.017-3.017 7.909-3.017 10.927 0l12.068 12.068c3.018 3.017 3.018 7.91 0 10.927-1.509 1.509-3.487 2.263-5.464 2.263z" fill="#f0c078"/></g><g><path d="m207.727 140.119c-1.977 0-3.955-.754-5.463-2.263l-12.068-12.068c-3.018-3.018-3.018-7.909 0-10.926 3.018-3.018 7.91-3.018 10.927 0l12.068 12.068c3.018 3.018 3.018 7.91 0 10.927-1.509 1.508-3.487 2.262-5.464 2.262z" fill="#f0c078"/></g></g></g><g><g><g><path d="m304.271 140.119c-1.977 0-3.955-.754-5.463-2.263-3.018-3.017-3.018-7.909 0-10.927l12.068-12.068c3.017-3.017 7.909-3.018 10.927 0 3.018 3.017 3.018 7.909 0 10.926l-12.068 12.068c-1.509 1.51-3.487 2.264-5.464 2.264z" fill="#f0c078"/></g><g><path d="m195.659 248.73c-1.977 0-3.955-.755-5.463-2.263-3.018-3.017-3.018-7.909 0-10.927l12.068-12.068c3.017-3.017 7.909-3.017 10.926 0 3.018 3.017 3.018 7.909 0 10.927l-12.068 12.068c-1.508 1.509-3.485 2.263-5.463 2.263z" fill="#f0c078"/></g></g></g><g><path d="m507.001 168.596-48.272 48.272c-6.665 6.665-17.471 6.665-24.136 0l-65.949-65.949c-4.035-4.035-5.786-9.82-4.667-15.415l8.045-40.227c1.351-6.756 6.632-12.037 13.388-13.388l40.227-8.045c5.595-1.119 11.38.632 15.415 4.667l65.949 65.949c6.665 6.665 6.665 17.472 0 24.136z" fill="#dd646e"/><g><path d="m413.474 155.204c-1.977 0-3.955-.755-5.464-2.263l-3.017-3.017c-3.017-3.017-3.017-7.91 0-10.927 3.018-3.017 7.909-3.017 10.927 0l3.017 3.017c3.017 3.017 3.017 7.91 0 10.927-1.509 1.508-3.486 2.263-5.463 2.263z" fill="#eef1f3"/></g><g><path d="m470.797 164.255c-1.977 0-3.955-.755-5.464-2.263l-3.017-3.017c-3.017-3.017-3.017-7.91 0-10.927 3.018-3.017 7.909-3.017 10.928 0l3.017 3.017c3.017 3.017 3.017 7.91 0 10.926-1.51 1.509-3.487 2.264-5.464 2.264z" fill="#eef1f3"/></g><g><path d="m446.653 188.392c-3.608 0-6.834-2.54-7.568-6.213l-12.068-60.34c-.837-4.184 1.877-8.255 6.061-9.091 4.184-.834 8.255 1.877 9.091 6.061l12.068 60.34c.837 4.184-1.877 8.255-6.061 9.092-.511.102-1.021.151-1.523.151z" fill="#eef1f3"/></g><g><path d="m398.389 115.983c-1.977 0-3.955-.755-5.464-2.263l-89.973-89.974c-3.017-3.017-3.017-7.91 0-10.927 3.018-3.017 7.909-3.017 10.928 0l89.973 89.974c3.017 3.017 3.017 7.91 0 10.926-1.509 1.51-3.487 2.264-5.464 2.264z" fill="#eef1f3"/></g><path d="m507 144.46-65.949-65.949c-4.035-4.035-9.82-5.786-15.415-4.667l-11.314 2.263c1.087.679 2.109 1.478 3.035 2.404l65.949 65.949c6.665 6.665 6.665 17.471 0 24.136l-48.272 48.272c-.071.071-.149.13-.221.2 6.68 6.453 17.321 6.394 23.915-.2l48.272-48.272c6.665-6.664 6.665-17.47 0-24.136z" fill="#db4955"/></g></g></svg>