<svg id="Layer_1" enable-background="new 0 0 512 512" height="512" viewBox="0 0 512 512" width="512" xmlns="http://www.w3.org/2000/svg"><g><g><g><g fill="#f4de7f"><path d="m494.933 307.2v-2.277c0-17.873 2.881-35.629 8.533-52.585 5.12-15.358 7.966-31.373 8.457-47.537l-136.457-4.774-97.724 4.75c1.096 4.522 2.382 9.002 3.857 13.427 5.652 16.956 8.533 34.712 8.533 52.585v36.411l104.7 7.177z"/><path d="m290.133 409.6v17.067c0 47.128 38.205 85.333 85.333 85.333h34.134c47.128 0 85.333-38.205 85.333-85.333v-17.067l-100.1-15.555z"/><path d="m276.209 102.082c1.361-6.9 3.16-13.718 5.391-20.411l3.738-11.215c20.287-60.859 90.681-88.556 147-57.837 35.713 19.48 61.613 52.014 73.086 89.828l-134.141 20.316z"/></g><g><g><g><path d="m408.644 12.619c36.79 20.067 63.165 53.99 74.083 93.266l22.68-3.435c-11.473-37.812-37.357-70.351-73.069-89.83-19.551-10.665-40.797-14.283-61.056-11.924 12.679 1.48 25.341 5.366 37.362 11.923z" fill="#f0c078"/></g><g><g><path d="m471.239 426.667c0 47.128-38.205 85.333-85.333 85.333h23.694c47.128 0 85.333-38.205 85.333-85.333v-17.067l-23.694-3.682z" fill="#f0c078"/></g><g><path d="m494.933 307.2v-2.277c0-17.873 2.881-35.629 8.533-52.585 5.121-15.364 7.959-31.385 8.449-47.555l-.013.017-23.656-.828c-.418 16.445-3.266 32.745-8.473 48.365-5.652 16.956-8.533 34.712-8.533 52.585v3.976z" fill="#f0c078"/></g></g></g></g><path d="m512 199.753v-52.94c0-15.277-2.294-30.215-6.608-44.414h-53.293-149.824-26.12c-2.045 10.479-3.088 21.146-3.088 31.856v31.364c0 13.217 1.58 26.368 4.686 39.18h234.162c.051-1.68.085-3.362.085-5.046z" fill="#eef1f3"/><path d="m290.133 307.2h204.8v102.4h-204.8z" fill="#eef1f3"/><path d="m488.221 204.8h23.694c.051-1.681.085-3.363.085-5.047v-52.94c0-15.277-2.294-30.215-6.608-44.414h-23.694c4.313 14.199 6.608 29.137 6.608 44.414v52.94c0 1.684-.034 3.366-.085 5.047z" fill="#cadae6"/><path d="m471.239 307.2h23.694v102.4h-23.694z" fill="#cadae6"/><path d="m400.969 83.153c47.027 22.972 77.838 55.022 91.726 95.494 26.67 77.724-19.36 157.053-21.333 160.393-2.289 3.874-6.377 6.029-10.573 6.029-2.121 0-4.27-.55-6.228-1.707-5.828-3.444-7.765-10.956-4.329-16.787.425-.724 42.266-73.191 19.208-140.108-11.625-33.74-37.946-60.865-78.368-80.836l-28.455 1.848c-17.031 12.218-41.668 34.965-53.17 69.958-14.07 42.803-5.468 93.084 25.566 149.448 3.268 5.934 1.105 13.395-4.829 16.662-1.876 1.032-3.905 1.523-5.905 1.523-4.328.001-8.522-2.294-10.757-6.352-34.535-62.723-43.707-119.682-27.264-169.296 14.06-42.422 43.54-69.084 63.61-83.087z" fill="#d8b26a"/><circle cx="375.467" cy="85.333" fill="#e8aa41" r="25.6"/></g></g><g><g><g fill="#f4de7f"><path d="m17.067 307.2v-2.277c0-17.873-2.881-35.629-8.533-52.585-5.12-15.358-7.966-31.373-8.457-47.537l136.457-4.774 97.724 4.75c-1.096 4.522-2.382 9.002-3.857 13.427-5.652 16.956-8.533 34.712-8.533 52.585v36.411l-104.7 7.177z"/><path d="m221.867 409.6v17.067c0 47.128-38.205 85.333-85.333 85.333h-34.134c-47.128 0-85.333-38.205-85.333-85.333v-17.067l100.1-15.555z"/><path d="m235.791 102.082c-1.361-6.9-3.16-13.718-5.391-20.411l-3.738-11.215c-20.287-60.859-90.681-88.556-147-57.837-35.713 19.48-61.613 52.014-73.086 89.828l134.141 20.316z"/></g><path d="m0 199.753v-52.94c0-15.277 2.294-30.215 6.608-44.414h53.293 149.824 26.12c2.045 10.479 3.088 21.146 3.088 31.856v31.364c0 13.217-1.58 26.368-4.687 39.18h-234.161c-.051-1.68-.085-3.362-.085-5.046z" fill="#eef1f3"/><path d="m17.067 307.2h204.8v102.4h-204.8z" fill="#eef1f3"/><path d="m111.031 83.153c-47.027 22.972-77.838 55.022-91.726 95.494-26.67 77.724 19.361 157.053 21.334 160.393 2.288 3.874 6.377 6.029 10.573 6.029 2.121 0 4.27-.55 6.228-1.707 5.828-3.444 7.765-10.956 4.329-16.787-.425-.724-42.266-73.191-19.208-140.108 11.625-33.74 37.946-60.865 78.368-80.836l28.455 1.848c17.031 12.218 41.668 34.965 53.17 69.958 14.07 42.803 5.468 93.084-25.566 149.448-3.268 5.934-1.105 13.395 4.829 16.662 1.876 1.032 3.905 1.523 5.905 1.523 4.328.001 8.522-2.294 10.757-6.352 34.535-62.723 43.707-119.682 27.264-169.296-14.059-42.422-43.54-69.084-63.61-83.087z" fill="#d8b26a"/><circle cx="136.533" cy="85.333" fill="#e8aa41" r="25.6"/></g></g><path d="m418.667 477.867h-52.267c-4.418 0-8-3.582-8-8v-18.133c0-4.418 3.582-8 8-8h52.267c4.418 0 8 3.582 8 8v18.133c0 4.418-3.582 8-8 8z" fill="#eef1f3"/><path d="m418.425 443.733h-23.694c4.552 0 8.241 3.69 8.241 8.242v17.65c0 4.552-3.69 8.241-8.241 8.241h23.694c4.552 0 8.242-3.69 8.242-8.241v-17.65c0-4.552-3.69-8.242-8.242-8.242z" fill="#cadae6"/><g><path d="m251.001 323.939-48.272 48.272c-6.665 6.665-17.471 6.665-24.136 0l-65.949-65.949c-4.035-4.035-5.786-9.819-4.667-15.415l8.045-40.227c1.351-6.756 6.632-12.037 13.388-13.388l40.227-8.045c5.595-1.119 11.38.632 15.415 4.667l65.949 65.949c6.665 6.665 6.665 17.471 0 24.136z" fill="#dd646e"/><g><path d="m157.474 310.546c-1.977 0-3.955-.754-5.464-2.263l-3.017-3.017c-3.017-3.017-3.017-7.909 0-10.927 3.018-3.017 7.909-3.017 10.928 0l3.017 3.017c3.017 3.017 3.017 7.909 0 10.926-1.509 1.51-3.487 2.264-5.464 2.264z" fill="#eff6ff"/></g><g><path d="m214.797 319.597c-1.977 0-3.955-.754-5.464-2.263l-3.017-3.017c-3.017-3.017-3.017-7.91 0-10.927 3.018-3.017 7.91-3.017 10.928 0l3.017 3.017c3.017 3.017 3.017 7.91 0 10.927-1.509 1.509-3.487 2.263-5.464 2.263z" fill="#eff6ff"/></g><g><path d="m190.654 343.734c-3.608 0-6.834-2.54-7.568-6.213l-12.068-60.339c-.837-4.184 1.877-8.255 6.061-9.092 4.184-.834 8.255 1.877 9.092 6.061l12.068 60.34c.837 4.184-1.877 8.254-6.061 9.091-.512.103-1.023.152-1.524.152z" fill="#eff6ff"/></g><g><g><g><path d="m142.39 271.326c-1.977 0-3.955-.754-5.464-2.263l-89.973-89.973c-3.017-3.017-3.017-7.91 0-10.927 3.018-3.017 7.909-3.017 10.927 0l89.973 89.974c3.017 3.017 3.017 7.909 0 10.927-1.508 1.507-3.486 2.262-5.463 2.262z" fill="#e8aa41"/></g></g></g><path d="m251.001 299.803-65.949-65.949c-4.035-4.035-9.82-5.786-15.415-4.667l-11.314 2.263c1.087.679 2.109 1.478 3.035 2.405l65.949 65.949c6.665 6.665 6.665 17.471 0 24.136l-48.272 48.272c-.071.071-.149.13-.221.2 6.68 6.453 17.321 6.394 23.915-.2l48.272-48.272c6.665-6.666 6.665-17.472 0-24.137z" fill="#db4955"/></g><path d="m145.6 477.867h-52.267c-4.418 0-8-3.582-8-8v-18.133c0-4.418 3.582-8 8-8h52.267c4.418 0 8 3.582 8 8v18.133c0 4.418-3.582 8-8 8z" fill="#eef1f3"/><path d="m145.359 443.733h-23.694c4.552 0 8.241 3.69 8.241 8.242v17.65c0 4.552-3.69 8.241-8.241 8.241h23.694c4.552 0 8.241-3.69 8.241-8.241v-17.65c0-4.552-3.69-8.242-8.241-8.242z" fill="#cadae6"/></g></svg>