<svg id="Layer_1" enable-background="new 0 0 512 512" height="512" viewBox="0 0 512 512" width="512" xmlns="http://www.w3.org/2000/svg"><g><path d="m238.933 17.067c0-9.426 7.641-17.067 17.067-17.067 9.426 0 17.067 7.641 17.067 17.067v486.4c0 4.713-3.821 8.533-8.533 8.533h-17.067c-4.713 0-8.533-3.821-8.533-8.533v-486.4z" fill="#eef1f3"/><g><path d="m104.783 221.867h-81.566c-3.673 0-6.934-2.35-8.095-5.835l-15.122-45.365 64-10.302 64 10.302-15.122 45.365c-1.161 3.484-4.422 5.835-8.095 5.835z" fill="#cadae6"/><path d="m232.783 221.867h-81.566c-3.673 0-6.934-2.35-8.096-5.835l-15.121-45.365 64-10.302 64 10.302-15.122 45.365c-1.161 3.484-4.422 5.835-8.095 5.835z" fill="#db4955"/><path d="m360.783 221.867h-81.566c-3.673 0-6.934-2.35-8.096-5.835l-15.121-45.365 64-10.302 64 10.302-15.122 45.365c-1.161 3.484-4.422 5.835-8.095 5.835z" fill="#cadae6"/><path d="m488.783 221.867h-81.566c-3.673 0-6.934-2.35-8.096-5.835l-15.121-45.365 64-10.302 64 10.302-15.122 45.365c-1.161 3.484-4.422 5.835-8.095 5.835z" fill="#db4955"/><path d="m489.577 167.058-16.393 48.975c-1.161 3.484-4.423 5.835-8.095 5.835h23.694c3.673 0 6.934-2.35 8.095-5.835l15.122-45.366z" fill="#c7424d"/></g><path d="m0 170.667 238.933-136.534-104.151 136.534z" fill="#eef1f3"/><g><path d="m503.45 392.533c7.29 0 11.224 8.551 6.479 14.087l-29.605 34.54c-5.478 6.391-5.478 15.822 0 22.214l29.605 34.54c4.745 5.535.812 14.087-6.479 14.087h-110.917c-9.426 0-17.067-7.641-17.067-17.067v-27.368h-238.933v27.368c0 9.426-7.641 17.067-17.067 17.067h-110.916c-7.29 0-11.224-8.551-6.479-14.087l29.605-34.54c5.478-6.391 5.478-15.822 0-22.214l-29.605-34.54c-4.745-5.535-.812-14.087 6.479-14.087z" fill="#e8aa41"/><path d="m480.324 463.374c-5.478-6.391-5.478-15.822 0-22.214l29.606-34.54c4.745-5.535.812-14.087-6.479-14.087h-23.694c7.29 0 11.224 8.551 6.479 14.087l-29.605 34.54c-5.478 6.391-5.478 15.822 0 22.214l29.605 34.54c4.745 5.535.811 14.087-6.479 14.087h23.694c7.29 0 11.224-8.551 6.479-14.087z" fill="#e88f41"/><path d="m410.667 477.867h-309.334c-8.837 0-16-7.163-16-16v-87.467c0-8.837 7.163-16 16-16h309.333c8.836 0 16 7.163 16 16v87.467c.001 8.836-7.163 16-15.999 16z" fill="#f4de7f"/><g><g fill="#365e7d"><path d="m244.483 390.525c-.027-.071-.055-.142-.083-.212-1.377-3.345-4.602-5.505-8.218-5.505-.003 0-.006 0-.009 0-3.621.004-6.846 2.171-8.216 5.522-.024.058-.047.117-.069.176l-19.225 50.479c-1.519 3.988.482 8.452 4.47 9.97 3.988 1.52 8.451-.483 9.97-4.47l2.893-7.596h20.223l2.858 7.573c1.168 3.094 4.108 5.001 7.23 5.001.906 0 1.828-.161 2.727-.5 3.992-1.507 6.007-5.965 4.5-9.957zm-12.603 32.91 4.273-11.219 4.234 11.219z"/><path d="m306.275 435.964c-3.456.02-7.097.034-10.159.04v-43.47c0-4.267-3.459-7.726-7.726-7.726s-7.726 3.459-7.726 7.726v51.157c0 3.764 2.711 6.979 6.422 7.615.555.095.923.159 6.652.159 2.758 0 6.761-.015 12.625-.047 4.267-.024 7.707-3.503 7.683-7.77-.026-4.269-3.505-7.7-7.771-7.684z"/><path d="m359.745 436.007h-13.651v-9.913h12.074c4.268 0 7.726-3.459 7.726-7.726s-3.459-7.726-7.726-7.726h-12.074v-9.913h13.651c4.268 0 7.726-3.459 7.726-7.726s-3.459-7.726-7.726-7.726h-21.377c-4.268 0-7.726 3.459-7.726 7.726v50.732c0 4.267 3.459 7.726 7.726 7.726h21.377c4.268 0 7.726-3.459 7.726-7.726 0-4.269-3.459-7.728-7.726-7.728z"/><path d="m177.217 411.288c-6.056-2.234-11.711-4.662-13.683-5.523-.717-.664-.726-1.521-.656-2.009.094-.652.587-2.251 3.142-3.021 6.495-1.956 12.651 2.843 12.87 3.017 3.265 2.7 8.104 2.266 10.837-.983 2.745-3.267 2.323-8.14-.943-10.886-.506-.425-12.553-10.359-27.222-5.943-7.568 2.28-12.925 8.266-13.981 15.621-.995 6.934 2.012 13.604 7.848 17.408.342.222.7.418 1.072.583.298.133 7.388 3.289 15.369 6.233 3.106 1.145 6.278 3.19 5.867 5.493-.341 1.907-3.003 4.728-7.638 4.728-4.721 0-9.25-1.888-12.117-5.052-2.866-3.161-7.75-3.402-10.914-.537-3.161 2.866-3.402 7.752-.537 10.914 5.833 6.436 14.423 10.127 23.567 10.127 11.434 0 21.044-7.345 22.851-17.465 1.368-7.665-2.045-17.657-15.732-22.705z"/></g></g><path d="m410.184 358.4h-23.694c9.103 0 16.483 7.38 16.483 16.483v86.501c0 9.103-7.38 16.483-16.483 16.483h23.694c9.103 0 16.483-7.38 16.483-16.483v-86.501c0-9.103-7.38-16.483-16.483-16.483z" fill="#f0c078"/></g><path d="m238.933 248.274v15.452h.001 34.132.001v-15.452h-.001-34.132z" fill="#cadae6"/><path d="m273.067 34.133h-19.814v136.534h135.984z" fill="#eef1f3"/><path d="m384 170.667-110.933-136.534 238.933 136.534z" fill="#dd646e"/><path d="m273.067 34.133 20.535 25.274 194.704 111.26h23.694z" fill="#db4955"/><path d="m256 170.667v-136.534h-17.067l-110.933 136.534z" fill="#dd646e"/></g></svg>