<svg id="Layer_1" enable-background="new 0 0 512.003 512.003" height="512" viewBox="0 0 512.003 512.003" width="512" xmlns="http://www.w3.org/2000/svg"><g><g><g><path d="m169.117 146.204c-2.852 0-5.578-1.636-6.834-4.402l-59.55-131.2c-1.712-3.771-.043-8.217 3.729-9.929 3.771-1.715 8.218-.041 9.929 3.729l59.551 131.199c1.712 3.771.043 8.217-3.73 9.929-1.005.458-2.058.674-3.095.674z" fill="#e8aa41"/></g></g><path d="m185.978 45.591-98.055 44.507c-3.624 1.645-7.257-2.271-5.344-5.761l32.337-59.024c.884-1.614 2.728-2.451 4.526-2.054l65.718 14.517c3.886.858 4.442 6.169.818 7.815z" fill="#ffbc85"/><path d="m185.16 37.775-65.718-14.517c-1.797-.397-3.641.44-4.526 2.054l-1.022 1.866 47.971 10.597c3.886.859 4.443 6.17.818 7.816l-78.364 35.569-1.74 3.177c-1.912 3.491 1.72 7.406 5.344 5.761l98.055-44.507c3.624-1.646 3.068-6.957-.818-7.816z" fill="#f5a96c"/><g fill="#eef1f3"><path d="m393.524 142.463-6.051-16.794-21.579-10.835-21.099 91.468v8.286h34.012l-.009-8.285z"/><path d="m415.245 11.442-16.142-3.725c-4.458-1.029-8.905 1.751-9.934 6.209l-11.262 48.794 12.105 23.472 15.529 4.139 15.912-68.954c1.03-4.459-1.75-8.907-6.208-9.935z"/></g><path d="m405.542 90.336-27.634-27.634-12.014 52.121 27.63 27.63z" fill="#dd646e"/><path d="m487.526 241.12c.271 4.922.409 9.883.409 14.878 0 137.243-103.84 248.5-231.933 248.5s-231.934-111.258-231.934-248.501c0-4.944.135-9.909.401-14.86l231.534-.009z" fill="#b3e59f"/><path d="m483.222 205.916h-23c3.09 16.177 4.712 32.926 4.712 50.081 0 133.111-97.683 241.772-220.433 248.194 3.81.199 7.644.306 11.5.306 128.093 0 231.933-111.257 231.933-248.5.001-17.155-1.622-33.904-4.712-50.081z" fill="#95d6a4"/><path d="m483.222 205.916h-454.565c-2.144 11.378-3.546 23.37-4.185 35.443l16.831 8.581c16.613 8.47 35.157 12.947 53.626 12.947 17.609 0 34.67-3.872 50.707-11.509 7.085-3.374 14.561-5.08 22.236-5.08 5.858 0 11.661 1.011 17.246 3.006l31.349 11.196c12.758 4.556 26.059 6.866 39.534 6.866s26.776-2.31 39.534-6.866l31.35-11.197c5.585-1.994 11.387-3.006 17.245-3.006 7.676 0 15.151 1.706 22.219 5.072 16.038 7.637 33.098 11.509 50.707 11.509 18.484 0 37.042-4.484 53.666-12.968l16.8-8.573c-.655-12.056-2.096-23.886-4.3-35.421z" fill="#e8aa41"/><path d="m470.722 249.911 16.8-8.573c-.655-12.057-2.096-23.887-4.3-35.422h-23c2.89 15.13 4.477 30.767 4.673 46.762 1.965-.87 3.91-1.789 5.827-2.767z" fill="#e88f41"/><path d="m483.284 206.303-32.972-65.44c-5.399-10.715-15.848-17.394-27.212-17.394h-173.837c-2.05 0-4.017.873-5.467 2.426l-15.462 16.567c-3.019 3.235-7.914 3.235-10.934 0l-15.462-16.567c-1.45-1.553-3.416-2.426-5.467-2.426h-107.581c-11.358 0-21.802 6.671-27.203 17.376l-33.029 65.457 27.694 14.119c23.671 12.068 51.083 12.449 75.038 1.041l.018-.008c20.47-9.748 43.602-10.944 64.853-3.354l31.349 11.196c18.429 6.582 38.353 6.582 56.781 0l31.349-11.196c21.251-7.59 44.383-6.393 64.853 3.354 23.966 11.412 51.39 11.026 75.067-1.056z" fill="#fde588"/><g><g><path d="m256.001 512.003c-24.201 0-45.879-15.323-53.942-38.13-1.381-3.905.666-8.19 4.571-9.571 3.904-1.381 8.19.666 9.571 4.571 5.948 16.825 21.942 28.13 39.8 28.13s33.853-11.306 39.801-28.133c1.38-3.904 5.664-5.951 9.571-4.571 3.905 1.381 5.952 5.666 4.571 9.571-8.062 22.808-29.741 38.133-53.943 38.133z" fill="#95d6a4"/></g></g><path d="m123.468 314.769h-92.857c1.146 5.06 2.42 10.066 3.85 15h89.007c4.143 0 7.5-3.357 7.5-7.5s-3.357-7.5-7.5-7.5z" fill="#95d6a4"/><g><g><path d="m450.312 140.863c-5.399-10.715-15.848-17.394-27.212-17.394h-26.811c11.365 0 21.814 6.679 27.212 17.394l38.607 76.246 21.176-10.806z" fill="#fdd76f"/></g></g><g><path d="m483.082 369.959-46.858 46.858c-6.47 6.47-16.959 6.47-23.429 0l-64.016-64.017c-3.917-3.917-5.617-9.532-4.531-14.963l7.81-39.048c1.312-6.558 6.438-11.684 12.996-12.996l39.048-7.81c5.432-1.086 11.047.614 14.963 4.531l64.017 64.017c6.47 6.469 6.47 16.959 0 23.428z" fill="#dd646e"/><g><path d="m392.296 356.959c-1.919 0-3.839-.732-5.304-2.197l-2.929-2.929c-2.929-2.929-2.929-7.678 0-10.607 2.93-2.929 7.678-2.929 10.607 0l2.929 2.929c2.929 2.929 2.929 7.678 0 10.607-1.465 1.465-3.384 2.197-5.303 2.197z" fill="#eef1f3"/></g><g><path d="m447.939 365.745c-1.919 0-3.839-.732-5.304-2.197l-2.929-2.929c-2.929-2.929-2.929-7.678 0-10.606 2.93-2.929 7.678-2.929 10.607 0l2.929 2.929c2.929 2.929 2.929 7.678 0 10.606-1.464 1.464-3.384 2.197-5.303 2.197z" fill="#eef1f3"/></g><g><path d="m424.503 389.175c-3.502 0-6.634-2.465-7.347-6.031l-11.715-58.572c-.813-4.062 1.822-8.013 5.884-8.825 4.062-.809 8.013 1.822 8.825 5.884l11.715 58.572c.813 4.061-1.822 8.013-5.884 8.825-.496.099-.991.147-1.478.147z" fill="#eef1f3"/></g><g><path d="m377.653 318.887c-1.919 0-3.839-.732-5.304-2.197l-88.232-88.232c-2.929-2.929-2.929-7.678 0-10.606 2.93-2.929 7.678-2.929 10.607 0l88.232 88.232c2.929 2.929 2.929 7.678 0 10.606-1.464 1.465-3.384 2.197-5.303 2.197z" fill="#eef1f3"/></g><path d="m483.082 346.531-64.017-64.017c-3.917-3.917-9.532-5.617-14.964-4.531l-10.983 2.197c1.055.659 2.047 1.435 2.946 2.334l64.017 64.017c6.47 6.47 6.47 16.959 0 23.429l-46.858 46.858c-.069.069-.145.126-.214.194 6.484 6.264 16.814 6.207 23.214-.194l46.858-46.858c6.471-6.47 6.471-16.96.001-23.429z" fill="#db4955"/></g></g></svg>