<svg id="Layer_1" enable-background="new 0 0 512 512" height="512" viewBox="0 0 512 512" width="512" xmlns="http://www.w3.org/2000/svg"><g><g fill="#eef1f3"><path d="m57.2 119.717c-4.142 0-7.5 3.357-7.5 7.5v33.133c0 4.143 3.358 7.5 7.5 7.5s7.5-3.357 7.5-7.5v-33.133c0-4.143-3.358-7.5-7.5-7.5z"/><path d="m189.78 119.717c-4.142 0-7.5 3.357-7.5 7.5v33.133c0 4.143 3.358 7.5 7.5 7.5s7.5-3.357 7.5-7.5v-33.133c0-4.143-3.358-7.5-7.5-7.5z"/><path d="m322.36 119.717c-4.142 0-7.5 3.357-7.5 7.5v33.133c0 4.143 3.358 7.5 7.5 7.5s7.5-3.357 7.5-7.5v-33.133c0-4.143-3.358-7.5-7.5-7.5z"/><path d="m454.941 119.717c-4.142 0-7.5 3.357-7.5 7.5v33.133c0 4.143 3.358 7.5 7.5 7.5s7.5-3.357 7.5-7.5v-33.133c0-4.143-3.358-7.5-7.5-7.5z"/><path d="m189.78 261.083c-4.142 0-7.5 3.357-7.5 7.5v95c0 4.143 3.358 7.5 7.5 7.5s7.5-3.357 7.5-7.5v-95c0-4.142-3.358-7.5-7.5-7.5z"/><path d="m322.267 261.083c-4.142 0-7.5 3.357-7.5 7.5v95c0 4.143 3.358 7.5 7.5 7.5s7.5-3.357 7.5-7.5v-95c0-4.142-3.358-7.5-7.5-7.5z"/></g><path d="m103.211 262.209-41.416 27.611c-2.782 1.855-6.407 1.855-9.19 0l-41.417-27.611c-2.304-1.536-3.689-4.123-3.689-6.892v-86.684c0-4.575 3.709-8.283 8.283-8.283h82.833c4.575 0 8.283 3.709 8.283 8.283v86.684c.002 2.769-1.382 5.356-3.687 6.892z" fill="#b1e4f9"/><path d="m235.745 262.209-41.417 27.611c-2.782 1.855-6.407 1.855-9.189 0l-41.417-27.611c-2.304-1.536-3.689-4.123-3.689-6.892v-86.684c0-4.575 3.709-8.283 8.283-8.283h82.833c4.575 0 8.283 3.709 8.283 8.283v86.684c.001 2.769-1.383 5.356-3.687 6.892z" fill="#f4de7f"/><path d="m369.317 262.209-41.417 27.611c-2.782 1.855-6.407 1.855-9.19 0l-41.417-27.611c-2.304-1.536-3.689-4.123-3.689-6.892v-86.684c0-4.575 3.709-8.283 8.283-8.283h82.833c4.575 0 8.283 3.709 8.283 8.283v86.684c.003 2.769-1.381 5.356-3.686 6.892z" fill="#b1e4f9"/><path d="m500.811 262.209-41.417 27.611c-2.782 1.855-6.407 1.855-9.19 0l-41.417-27.611c-2.304-1.536-3.689-4.123-3.689-6.892v-86.684c0-4.575 3.709-8.283 8.283-8.283h82.833c4.575 0 8.283 3.709 8.283 8.283v86.684c.003 2.769-1.381 5.356-3.686 6.892z" fill="#f4de7f"/><g><circle cx="256" cy="408.85" fill="#dd646e" r="99.4"/><path d="m256 309.45c-3.89 0-7.726.231-11.5.666 49.479 5.701 87.9 47.727 87.9 98.734s-38.421 93.033-87.9 98.734c3.774.435 7.61.666 11.5.666 54.897 0 99.4-44.503 99.4-99.4s-44.503-99.4-99.4-99.4z" fill="#db4955"/><g fill="#eef1f3"><path d="m222.867 399.784c13.27 0 24.066-10.796 24.066-24.067s-10.796-24.066-24.066-24.066-24.067 10.796-24.067 24.066 10.796 24.067 24.067 24.067zm0-33.134c4.999 0 9.066 4.067 9.066 9.066s-4.067 9.067-9.066 9.067-9.067-4.067-9.067-9.067c0-4.998 4.067-9.066 9.067-9.066z"/><path d="m289.134 417.917c-13.27 0-24.067 10.796-24.067 24.066 0 13.271 10.797 24.067 24.067 24.067 13.271 0 24.066-10.796 24.066-24.067 0-13.27-10.796-24.066-24.066-24.066zm0 33.133c-5 0-9.067-4.067-9.067-9.067 0-4.999 4.067-9.066 9.067-9.066 4.999 0 9.066 4.067 9.066 9.066 0 5-4.067 9.067-9.066 9.067z"/><path d="m311.004 353.847c-2.929-2.929-7.677-2.929-10.607 0l-99.4 99.4c-2.929 2.929-2.929 7.678 0 10.606 1.464 1.465 3.384 2.197 5.303 2.197s3.839-.732 5.303-2.197l99.401-99.4c2.929-2.928 2.929-7.677 0-10.606z"/></g></g><g><path d="m471.933 127.217h-431.866c-8.837 0-16-7.163-16-16v-99.967h463.867v99.967c-.001 8.836-7.164 16-16.001 16z" fill="#e8aa41"/><path d="m464.933 11.25v99.967c0 8.837-7.163 16-16 16h23c8.837 0 16-7.163 16-16v-99.967z" fill="#e88f41"/><g><g fill="#eef1f3"><path d="m247.37 43.784c-.781-3.833-4.055-6.665-7.961-6.887-3.892-.237-7.479 2.223-8.689 5.943-.028.087-.055.175-.08.263l-7.686 26.961-7.976-27.035c-.026-.09-.055-.179-.084-.268-1.247-3.711-4.856-6.124-8.751-5.856-3.905.263-7.15 3.13-7.906 7.06l-8.735 48.398c-.736 4.076 1.973 7.978 6.049 8.713 4.077.737 7.977-1.973 8.713-6.049l3.954-21.906 6.585 22.319c.026.09.055.179.084.268 1.183 3.52 4.464 5.876 8.173 5.876.015 0 .029-.001.044-.001 3.727-.019 7.005-2.413 8.157-5.958.028-.086.055-.174.08-.262l6.355-22.294 4.211 22.034c.778 4.068 4.708 6.748 8.774 5.958 4.069-.777 6.736-4.706 5.959-8.774z"/><path d="m330.836 43.784c-.781-3.833-4.055-6.665-7.961-6.887-3.895-.237-7.479 2.223-8.689 5.943-.028.087-.055.175-.08.263l-7.686 26.961-7.976-27.035c-.026-.09-.055-.179-.084-.268-1.247-3.711-4.84-6.131-8.753-5.855-3.906.263-7.149 3.132-7.903 7.059l-8.736 48.398c-.736 4.076 1.972 7.977 6.049 8.713 4.07.737 7.977-1.973 8.713-6.049l3.954-21.906 6.585 22.319c.026.09.055.179.084.268 1.183 3.52 4.463 5.876 8.173 5.876.015 0 .031-.001.046-.001 3.727-.02 7.005-2.415 8.156-5.961.028-.085.054-.172.079-.259l6.355-22.294 4.211 22.034c.777 4.068 4.707 6.748 8.774 5.958 4.069-.777 6.736-4.706 5.959-8.774z"/><path d="m384.594 52.337c4.142 0 7.5-3.357 7.5-7.5s-3.358-7.5-7.5-7.5h-20.751c-4.142 0-7.5 3.357-7.5 7.5v49.246c0 4.143 3.358 7.5 7.5 7.5h20.751c4.142 0 7.5-3.357 7.5-7.5s-3.358-7.5-7.5-7.5h-13.251v-9.623h11.721c4.142 0 7.5-3.357 7.5-7.5s-3.358-7.5-7.5-7.5h-11.721v-9.623z"/><path d="m93.661 62.589c-5.879-2.169-11.369-4.526-13.283-5.362-.696-.644-.705-1.476-.637-1.948.091-.633.57-2.186 3.05-2.933 6.306-1.903 12.283 2.761 12.493 2.928 3.17 2.62 7.868 2.199 10.52-.955 2.665-3.171 2.255-7.902-.916-10.567-.491-.412-12.186-10.053-26.424-5.769-7.347 2.214-12.547 8.024-13.571 15.165-.966 6.73 1.954 13.205 7.619 16.897.331.216.679.405 1.04.566.289.129 7.171 3.192 14.919 6.05 3.014 1.112 6.093 3.097 5.694 5.332-.331 1.852-2.916 4.59-7.415 4.59-4.583 0-8.979-1.833-11.761-4.903-2.781-3.069-7.524-3.303-10.594-.521-3.07 2.781-3.304 7.523-.522 10.594 5.661 6.248 14 9.831 22.877 9.831 11.099 0 20.427-7.13 22.181-16.953 1.329-7.443-1.985-17.143-15.27-22.042z"/><path d="m436.837 76.219c7.747-3.033 13.232-10.364 13.232-18.919 0-11.258-9.487-20.416-21.147-20.416h-13.207c-.003 0-.005 0-.008 0s-.005 0-.008 0c-4.142 0-7.5 3.357-7.5 7.5v49.699c0 4.143 3.358 7.5 7.5 7.5s7.5-3.357 7.5-7.5v-10.657l13.741 15.612c1.482 1.685 3.552 2.545 5.633 2.545 1.76 0 3.527-.616 4.952-1.87 3.109-2.736 3.412-7.476.675-10.585zm-7.915-24.335c3.332 0 6.147 2.48 6.147 5.416 0 2.937-2.815 5.417-6.147 5.417-1.354 0-3.493.008-5.656.018-.01-2.089-.018-4.139-.018-5.435 0-1.113-.005-3.22-.011-5.416z"/><path d="m165.684 36.884c-4.142 0-7.5 3.357-7.5 7.5v34.163c0 2.137-.623 4.634-5.241 6.96-1.438.724-3.009 1.076-4.805 1.076-.007 0-.014 0-.021 0-1.941-.003-3.62-.474-5.133-1.441-3.609-2.305-4.334-4.219-4.334-6.56v-34.198c0-4.143-3.358-7.5-7.5-7.5s-7.5 3.357-7.5 7.5v34.198c0 7.97 3.789 14.43 11.258 19.201 3.936 2.515 8.374 3.794 13.188 3.8h.042c4.136 0 8.022-.901 11.552-2.68 8.701-4.383 13.493-11.611 13.493-20.356v-34.163c.001-4.143-3.357-7.5-7.499-7.5z"/></g></g></g><path d="m504.5 3.75h-497c-4.142 0-7.5 3.357-7.5 7.5s3.358 7.5 7.5 7.5h497c4.142 0 7.5-3.357 7.5-7.5s-3.358-7.5-7.5-7.5z" fill="#eef1f3"/><path d="m98.617 160.35h-23c4.575 0 8.283 3.709 8.283 8.283v86.684c0 2.77-1.384 5.356-3.689 6.892l-34.511 23.008 6.905 4.603c2.782 1.855 6.407 1.855 9.19 0l41.417-27.611c2.304-1.536 3.689-4.123 3.689-6.892v-86.684c-.001-4.574-3.71-8.283-8.284-8.283z" fill="#75cef9"/><path d="m231.67 160.35h-23c4.575 0 8.283 3.709 8.283 8.283v86.684c0 2.77-1.384 5.356-3.689 6.892l-34.512 23.008 6.905 4.603c2.782 1.855 6.407 1.855 9.189 0l41.417-27.611c2.304-1.536 3.689-4.123 3.689-6.892v-86.684c.001-4.574-3.708-8.283-8.282-8.283z" fill="#f0c078"/><path d="m364.723 160.35h-23c4.575 0 8.283 3.709 8.283 8.283v86.684c0 2.77-1.384 5.356-3.689 6.892l-34.511 23.008 6.905 4.603c2.782 1.855 6.407 1.855 9.19 0l41.417-27.611c2.304-1.536 3.689-4.123 3.689-6.892v-86.684c-.001-4.574-3.71-8.283-8.284-8.283z" fill="#75cef9"/><path d="m497.775 160.35h-23c4.575 0 8.283 3.709 8.283 8.283v86.684c0 2.77-1.384 5.356-3.689 6.892l-34.511 23.008 6.905 4.603c2.782 1.855 6.407 1.855 9.19 0l41.417-27.611c2.304-1.536 3.689-4.123 3.689-6.892v-86.684c0-4.574-3.709-8.283-8.284-8.283z" fill="#f0c078"/><g fill="#eef1f3"><path d="m197.877 191.533c-.026-.068-.053-.137-.081-.205-1.336-3.248-4.467-5.345-7.978-5.345-.003 0-.006 0-.009 0-3.515.004-6.645 2.108-7.975 5.361-.023.057-.045.113-.067.17l-18.662 49c-1.474 3.87.468 8.203 4.339 9.678s8.204-.469 9.678-4.34l2.808-7.373h19.631l2.775 7.352c1.134 3.003 3.987 4.854 7.019 4.854.879 0 1.775-.156 2.646-.485 3.875-1.462 5.831-5.789 4.369-9.665zm-12.233 31.947 4.147-10.89 4.11 10.89z"/><path d="m330.969 235.642c-.014 0-.028 0-.042 0-3.355.019-6.89.032-9.862.038v-42.196c0-4.143-3.358-7.5-7.5-7.5s-7.5 3.357-7.5 7.5v49.658c0 3.655 2.635 6.778 6.238 7.394.538.091.893.152 6.447.152 2.677 0 6.564-.015 12.259-.046 4.142-.023 7.481-3.399 7.458-7.542-.022-4.128-3.375-7.458-7.498-7.458z"/><path d="m465.175 235.456h-13.25v-9.623h11.72c4.142 0 7.5-3.357 7.5-7.5s-3.358-7.5-7.5-7.5h-11.72v-9.623h13.25c4.142 0 7.5-3.358 7.5-7.5 0-4.143-3.358-7.5-7.5-7.5h-20.75c-4.142 0-7.5 3.357-7.5 7.5v49.246c0 4.143 3.358 7.5 7.5 7.5h20.75c4.142 0 7.5-3.357 7.5-7.5 0-4.142-3.358-7.5-7.5-7.5z"/><path d="m65.293 211.688c-5.879-2.168-11.368-4.524-13.282-5.36-.696-.645-.706-1.477-.638-1.95.091-.633.57-2.185 3.051-2.932 6.302-1.902 12.278 2.759 12.492 2.928 3.17 2.621 7.868 2.201 10.52-.954 2.665-3.171 2.255-7.901-.915-10.567-.491-.413-12.189-10.056-26.424-5.77-7.346 2.214-12.546 8.024-13.571 15.164-.966 6.73 1.953 13.206 7.618 16.899.332.216.679.405 1.04.566.29.129 7.172 3.192 14.919 6.049 3.015 1.112 6.094 3.098 5.694 5.333-.33 1.852-2.915 4.59-7.414 4.59-4.583 0-8.979-1.833-11.762-4.903-2.781-3.069-7.524-3.303-10.594-.521-3.069 2.782-3.302 7.524-.521 10.594 5.662 6.248 14 9.831 22.877 9.831 11.098 0 20.427-7.13 22.181-16.953 1.328-7.444-1.985-17.143-15.271-22.044z"/></g></g></svg>