<svg id="Layer_1" enable-background="new 0 0 512 512" height="512" viewBox="0 0 512 512" width="512" xmlns="http://www.w3.org/2000/svg"><g><path d="m461.772 187.733h-43.948c-4.551 0-8.241 3.69-8.241 8.242v298.958c0 9.426-7.641 17.067-17.066 17.067h-273.056c-9.425 0-17.066-7.641-17.066-17.067v-298.958c0-4.552-3.69-8.242-8.241-8.242h-43.948l-25.103-64 6.818-63.994 133.621-34.572 180.892.001 80.214 20.754 53.409 13.818 8.463 64.248z" fill="#b3e59f"/><path d="m496.914 180.657 14.977-104.846c.614-4.298-2.097-8.371-6.298-9.465l-25.538-6.607-18.284 127.994h26.984c4.102 0 7.579-3.016 8.159-7.076z" fill="#eef1f3"/><path d="m315.72 0h-119.462v53.569l59.731 27.043 59.731-20.879z" fill="#78c2a4"/><path d="m165.539 25.17c11 39.618 47.329 68.697 90.45 68.697s79.45-29.079 90.45-68.698l-30.719-25.169c0 32.99-26.742 59.733-59.731 59.733s-59.731-26.743-59.731-59.733z" fill="#eef1f3"/><ellipse cx="255.989" cy="221.867" fill="#f4de7f" rx="34.133" ry="34.132" transform="matrix(.008 -1 1 .008 32.009 476.008)"/><path d="m255.989 187.733c-4.166 0-8.156.749-11.847 2.115 13.011 4.816 22.285 17.333 22.285 32.018 0 14.686-9.275 27.202-22.285 32.018 3.691 1.366 7.681 2.115 11.847 2.115 18.85 0 34.132-15.282 34.132-34.133s-15.282-34.133-34.132-34.133z" fill="#f0c078"/><g><g><g><path d="m255.989 161.327c-4.267 0-7.726-3.459-7.726-7.726v-17.067c0-4.267 3.459-7.726 7.726-7.726s7.726 3.459 7.726 7.726v17.066c0 4.267-3.459 7.727-7.726 7.727z" fill="#f0c078"/></g><g><path d="m255.989 314.927c-4.267 0-7.726-3.459-7.726-7.726v-17.067c0-4.267 3.459-7.726 7.726-7.726s7.726 3.459 7.726 7.726v17.066c0 4.267-3.459 7.727-7.726 7.727z" fill="#f0c078"/></g></g></g><g><g><g><path d="m341.318 229.593h-17.066c-4.267 0-7.726-3.459-7.726-7.726s3.459-7.726 7.726-7.726h17.066c4.267 0 7.726 3.459 7.726 7.726s-3.459 7.726-7.726 7.726z" fill="#f0c078"/></g><g><path d="m187.725 229.593h-17.066c-4.267 0-7.726-3.459-7.726-7.726s3.459-7.726 7.726-7.726h17.066c4.267 0 7.726 3.459 7.726 7.726s-3.459 7.726-7.726 7.726z" fill="#f0c078"/></g></g></g><g><g><g><path d="m316.326 289.932c-1.977 0-3.955-.754-5.463-2.263l-12.067-12.068c-3.017-3.017-3.017-7.909 0-10.926s7.909-3.017 10.926 0l12.067 12.068c3.017 3.017 3.017 7.909 0 10.927-1.508 1.508-3.486 2.262-5.463 2.262z" fill="#f0c078"/></g><g><path d="m207.719 181.321c-1.977 0-3.955-.754-5.463-2.263l-12.067-12.069c-3.018-3.018-3.018-7.909 0-10.926 3.018-3.018 7.91-3.018 10.926 0l12.068 12.068c3.018 3.018 3.018 7.91 0 10.927-1.509 1.509-3.487 2.263-5.464 2.263z" fill="#f0c078"/></g></g></g><g><g><g><path d="m304.259 181.321c-1.977 0-3.955-.754-5.463-2.263-3.017-3.017-3.017-7.909 0-10.927l12.067-12.068c3.017-3.017 7.909-3.018 10.926 0 3.017 3.017 3.017 7.909 0 10.926l-12.067 12.069c-1.509 1.509-3.486 2.263-5.463 2.263z" fill="#f0c078"/></g><g><path d="m195.652 289.932c-1.977 0-3.955-.754-5.463-2.263-3.018-3.017-3.018-7.909 0-10.927l12.067-12.068c3.017-3.017 7.909-3.017 10.926 0 3.018 3.017 3.018 7.909 0 10.926l-12.068 12.068c-1.508 1.51-3.485 2.264-5.462 2.264z" fill="#f0c078"/></g></g></g><g><g><g><path d="m385.889 195.975v298.958c0 9.426-7.641 17.067-17.066 17.067h23.693c9.425 0 17.066-7.641 17.066-17.067v-298.958c0-4.552 3.69-8.242 8.241-8.242h-23.693c-4.551 0-8.241 3.69-8.241 8.242z" fill="#95d6a4"/></g><path d="m505.593 66.347-23.693-6.103c4.201 1.094 6.912 5.167 6.298 9.465l-14.977 110.949c-.58 4.06-4.057 7.076-8.158 7.076h23.693c4.101 0 7.578-3.016 8.158-7.076l14.977-104.846c.614-4.298-2.096-8.372-6.298-9.465z" fill="#cadae6"/></g></g><path d="m102.396 470.14h307.187v15.453h-307.187z" fill="#95d6a4"/><path d="m.086 75.812 14.977 104.846c.58 4.06 4.057 7.076 8.158 7.076h26.984l-18.283-127.994-25.538 6.607c-4.201 1.093-6.911 5.167-6.298 9.465z" fill="#eef1f3"/><g><g><g><path d="m94.155 187.733c3.549 0 6.566 2.248 7.726 5.395v-35.414c0-37.464-5.507-74.64-16.367-110.493l-.379-1.25-14.972 3.874.562 1.855c10.42 34.4 15.703 70.068 15.703 106.014v30.019z" fill="#95d6a4"/></g><g><path d="m426.806 45.963-.415 1.374c-10.811 35.78-16.293 72.873-16.293 110.251v35.541c1.16-3.147 4.176-5.396 7.726-5.396h7.726v-30.146c0-35.862 5.26-71.452 15.633-105.781l.595-1.971z" fill="#95d6a4"/></g></g></g><g><path d="m507.001 425.869-48.27 48.272c-6.665 6.665-17.47 6.665-24.135 0l-65.946-65.949c-4.035-4.035-5.786-9.819-4.667-15.415l8.045-40.227c1.351-6.756 6.632-12.037 13.388-13.388l40.225-8.045c5.595-1.119 11.379.632 15.414 4.667l65.946 65.949c6.665 6.665 6.665 17.471 0 24.136z" fill="#dd646e"/><g><g><path d="m413.479 412.477c-1.977 0-3.955-.754-5.464-2.263l-3.017-3.017c-3.017-3.017-3.017-7.909 0-10.927 3.018-3.017 7.909-3.017 10.927 0l3.017 3.017c3.017 3.017 3.017 7.909 0 10.927-1.509 1.508-3.487 2.263-5.463 2.263z" fill="#eef1f3"/></g></g><g><g><path d="m470.799 421.527c-1.977 0-3.954-.754-5.464-2.263l-3.017-3.017c-3.017-3.017-3.017-7.909 0-10.927 3.018-3.017 7.909-3.017 10.927 0l3.017 3.017c3.017 3.017 3.017 7.909 0 10.927-1.508 1.509-3.486 2.263-5.463 2.263z" fill="#eef1f3"/></g></g><g><g><path d="m446.656 445.665c-3.607 0-6.834-2.54-7.568-6.213l-12.068-60.34c-.837-4.184 1.877-8.254 6.061-9.091 4.184-.834 8.254 1.877 9.091 6.061l12.068 60.34c.837 4.184-1.877 8.255-6.061 9.091-.511.102-1.021.152-1.523.152z" fill="#eef1f3"/></g></g><g><path d="m398.395 373.256c-1.977 0-3.955-.755-5.464-2.263l-58.309-58.311c-3.017-3.017-3.017-7.909 0-10.927 3.018-3.017 7.909-3.017 10.927 0l58.309 58.311c3.017 3.017 3.017 7.909 0 10.926-1.509 1.509-3.486 2.264-5.463 2.264z" fill="#eef1f3"/></g><path d="m507.001 401.733-65.946-65.949c-4.035-4.035-9.819-5.786-15.415-4.667l-11.314 2.263c1.087.679 2.109 1.478 3.035 2.404l65.946 65.949c6.665 6.665 6.665 17.471 0 24.136l-48.27 48.272c-.071.071-.149.13-.221.2 6.68 6.454 17.32 6.394 23.914-.2l48.27-48.272c6.666-6.665 6.666-17.471.001-24.136z" fill="#db4955"/></g></g></svg>