<svg id="Layer_1" enable-background="new 0 0 512 512" height="512" viewBox="0 0 512 512" width="512" xmlns="http://www.w3.org/2000/svg"><g><g><path d="m490.81 307.2 20.818-98.884c2.233-10.608-5.86-20.583-16.701-20.583h-153.594c-9.426 0-17.067 7.641-17.067 17.067 0 18.851-15.282 34.133-34.133 34.133h-68.267c-18.851 0-34.133-15.282-34.133-34.133 0-9.426-7.641-17.067-17.067-17.067h-153.593c-10.84 0-18.934 9.975-16.701 20.583l20.817 98.88 234.811 12.16z" fill="#e8aa41"/><path d="m49.934 443.733 7.24 34.39c4.157 19.744 21.575 33.877 41.751 33.877h314.149c20.177 0 37.595-14.133 41.752-33.877l7.24-34.39-206.066-21.874z" fill="#e8aa41"/><path d="m494.927 187.733h-23.694c10.84 0 18.934 9.975 16.701 20.583l-21.083 100.143 23.949-1.209 20.828-98.934c2.233-10.608-5.861-20.583-16.701-20.583z" fill="#e88f41"/><g><path d="m438.89 441.273-7.758 36.85c-4.157 19.744-21.575 33.877-41.752 33.877h23.694c20.177 0 37.595-14.133 41.752-33.877l7.24-34.39z" fill="#e88f41"/></g><g><g><path d="m119.467 263.726h-17.067c-4.267 0-7.726-3.459-7.726-7.726 0-4.268 3.459-7.726 7.726-7.726h17.067c4.267 0 7.726 3.459 7.726 7.726 0 4.268-3.459 7.726-7.726 7.726z" fill="#e88f41"/></g><g><path d="m170.667 263.726h-17.067c-4.267 0-7.726-3.459-7.726-7.726 0-4.268 3.459-7.726 7.726-7.726h17.066c4.267 0 7.726 3.459 7.726 7.726.001 4.268-3.458 7.726-7.725 7.726z" fill="#e88f41"/></g><g><path d="m358.4 263.726h-17.067c-4.268 0-7.726-3.459-7.726-7.726 0-4.268 3.459-7.726 7.726-7.726h17.067c4.268 0 7.726 3.459 7.726 7.726.001 4.268-3.458 7.726-7.726 7.726z" fill="#e88f41"/></g><g><path d="m409.6 263.726h-17.066c-4.268 0-7.726-3.459-7.726-7.726 0-4.268 3.459-7.726 7.726-7.726h17.066c4.268 0 7.726 3.459 7.726 7.726 0 4.268-3.459 7.726-7.726 7.726z" fill="#e88f41"/></g><g><g><path d="m375.467 273.067c-9.426 0-17.067-7.641-17.067-17.067v-119.467c0-56.463-45.936-102.4-102.4-102.4s-102.4 45.937-102.4 102.4v119.467c0 9.426-7.641 17.067-17.067 17.067-9.425 0-17.067-7.641-17.067-17.067v-119.467c.001-75.284 61.249-136.533 136.534-136.533 75.284 0 136.533 61.249 136.533 136.533v119.467c0 9.426-7.64 17.067-17.066 17.067z" fill="#eef1f3"/></g></g></g><path d="m462.066 443.733h-412.132l-10.424-49.512.495-22.841-8.889-17.032-9.926-47.148h469.62z" fill="#f4de7f"/><path d="m39.511 394.224 5.655-5.655c3.332-3.333 8.735-3.333 12.068 0l22.065 22.065c3.333 3.332 8.735 3.332 12.068 0l22.065-22.065c3.332-3.333 8.735-3.333 12.068 0l22.065 22.065c3.332 3.332 8.735 3.332 12.068 0l22.065-22.065c3.333-3.333 8.735-3.333 12.068 0l22.065 22.065c3.332 3.332 8.735 3.332 12.068 0l22.065-22.065c3.332-3.333 8.735-3.333 12.068 0l22.065 22.065c3.333 3.332 8.736 3.332 12.068 0l22.065-22.065c3.332-3.333 8.735-3.333 12.068 0l22.065 22.065c3.332 3.332 8.736 3.332 12.068 0l15.095-15.095-13.947-34.324-1.148 1.148c-3.332 3.333-8.736 3.333-12.068 0l-22.065-22.065c-3.333-3.332-8.736-3.332-12.068 0l-22.065 22.065c-3.332 3.333-8.735 3.333-12.068 0l-22.065-22.065c-3.333-3.332-8.736-3.332-12.068 0l-22.065 22.065c-3.333 3.333-8.736 3.333-12.068 0l-22.065-22.065c-3.333-3.332-8.735-3.332-12.068 0l-22.065 22.065c-3.333 3.333-8.736 3.333-12.068 0l-22.065-22.065c-3.333-3.332-8.736-3.332-12.068 0l-22.065 22.065c-3.332 3.333-8.735 3.333-12.068 0l-22.065-22.065c-3.333-3.332-8.736-3.332-12.068 0l-14.05 14.05z" fill="#d8b26a"/><path d="m392.533 229.593v-15.453h-34.133v15.453z" fill="#cadae6"/><path d="m119.467 229.593h34.133v-15.453h-34.133z" fill="#cadae6"/><path d="m467.13 307.2-28.744 136.533h23.68l28.744-136.533z" fill="#f0c078"/></g><g><path d="m507.001 402.251-48.272 48.272c-6.665 6.665-17.471 6.665-24.136 0l-65.949-65.949c-4.035-4.035-5.786-9.82-4.667-15.415l8.045-40.227c1.351-6.756 6.632-12.037 13.388-13.388l40.227-8.045c5.596-1.119 11.38.632 15.415 4.667l65.949 65.949c6.665 6.665 6.665 17.471 0 24.136z" fill="#dd646e"/><g><path d="m413.474 388.859c-1.977 0-3.955-.755-5.464-2.263l-3.017-3.017c-3.017-3.017-3.017-7.91 0-10.927 3.018-3.017 7.909-3.017 10.928 0l3.017 3.017c3.017 3.017 3.017 7.91 0 10.927-1.509 1.508-3.487 2.263-5.464 2.263z" fill="#eef1f3"/></g><g><path d="m470.797 397.909c-1.977 0-3.955-.755-5.464-2.263l-3.017-3.017c-3.017-3.017-3.017-7.909 0-10.926 3.018-3.017 7.909-3.017 10.928 0l3.017 3.017c3.017 3.017 3.017 7.909 0 10.927-1.509 1.508-3.487 2.262-5.464 2.262z" fill="#eef1f3"/></g><g><path d="m446.654 422.047c-3.608 0-6.834-2.54-7.569-6.213l-12.068-60.339c-.837-4.184 1.877-8.255 6.061-9.092 4.184-.834 8.255 1.877 9.092 6.061l12.069 60.34c.837 4.184-1.877 8.255-6.061 9.092-.512.101-1.022.151-1.524.151z" fill="#eef1f3"/></g><g><path d="m398.39 349.638c-1.977 0-3.955-.754-5.464-2.263l-103.163-103.164c-3.017-3.017-3.017-7.909 0-10.926 3.018-3.017 7.91-3.017 10.928 0l103.163 103.163c3.017 3.017 3.017 7.909 0 10.927-1.509 1.508-3.487 2.263-5.464 2.263z" fill="#eef1f3"/></g><path d="m507.001 378.115-65.949-65.949c-4.035-4.035-9.82-5.786-15.415-4.667l-11.314 2.263c1.087.679 2.109 1.478 3.035 2.405l65.949 65.949c6.665 6.665 6.665 17.471 0 24.136l-48.272 48.272c-.071.071-.149.13-.221.2 6.68 6.453 17.321 6.394 23.915-.2l48.272-48.272c6.665-6.666 6.665-17.472 0-24.137z" fill="#db4955"/></g></g></svg>