<svg id="Layer_1" enable-background="new 0 0 512 512" height="512" viewBox="0 0 512 512" width="512" xmlns="http://www.w3.org/2000/svg"><g><g><path d="m321.493 119.467-8.533-93.867-34.133-8.533h-153.6l-34.134 8.533-8.533 93.867c0 17.645 8.932 33.194 22.515 42.399 1.951 1.322 3.297 3.363 3.64 5.694l7.978 54.307 85.335 17.067 85.332-17.067 7.978-54.307c.342-2.332 1.689-4.372 3.64-5.694 13.583-9.206 22.515-24.755 22.515-42.399z" fill="#b1e4f9"/><path d="m312.96 25.6-24.232-6.058 9.071 99.925c0 17.644-8.933 33.194-22.516 42.399-1.951 1.322-3.297 3.363-3.64 5.694l-8.617 59.173 24.333-4.867 7.978-54.307c.342-2.332 1.689-4.372 3.64-5.694 13.583-9.205 22.516-24.755 22.516-42.399z" fill="#75cef9"/><path d="m287.36 256 82.025 224.885c1.765 4.766-1.001 10.01-5.932 11.242-105.986 26.497-216.865 26.497-322.852 0-4.931-1.233-7.698-6.476-5.932-11.242l82.024-224.885 85.335-17.067z" fill="#b1e4f9"/><path d="m369.385 480.885-82.025-224.885-25.579-5.116 83.91 230.001c1.765 4.766-1.001 10.01-5.933 11.242-49.133 12.284-99.317 18.862-149.579 19.756 58.158 1.035 116.42-5.543 173.273-19.756 4.932-1.232 7.698-6.475 5.933-11.242z" fill="#75cef9"/><g><g><path d="m159.368 331.994c-.491 0-.988-.046-1.488-.144-4.188-.818-6.921-4.875-6.104-9.063l12.002-61.489c.817-4.189 4.873-6.925 9.063-6.104 4.188.818 6.921 4.875 6.104 9.063l-12.002 61.489c-.72 3.689-3.953 6.248-7.575 6.248z" fill="#75cef9"/></g></g><g><g><path d="m244.685 331.994c-3.623 0-6.855-2.558-7.575-6.248l-12.002-61.489c-.817-4.188 1.915-8.245 6.104-9.063 4.191-.817 8.245 1.916 9.063 6.104l12.002 61.489c.817 4.188-1.915 8.245-6.104 9.063-.499.098-.998.144-1.488.144z" fill="#75cef9"/></g></g><path d="m358.566 451.224c-102.431 25.093-210.649 25.093-313.079 0l-5.312 14.564c.259.094.525.178.799.245 52.681 12.978 106.867 19.468 161.053 19.468 54.185 0 108.371-6.49 161.052-19.468.274-.067.54-.151.799-.245z" fill="#75cef9"/><g><path d="m261.76 0 16.202 16.202c.565.564.953 1.281 1.118 2.062l7.273 34.42c.583 4.083-1.837 7.998-5.749 9.302l-36.718 12.239c-3.265 1.088-3.964 5.396-1.211 7.461l23.071 17.303c2.884 2.163 4.087 5.898 3.034 9.346-4.35 14.237-19.75 50.051-66.753 62.331-47.003-12.28-62.403-48.095-66.753-62.331-1.054-3.448.149-7.183 3.034-9.346l23.071-17.303c2.753-2.065 2.054-6.373-1.211-7.461l-36.718-12.239c-3.912-1.304-6.332-5.22-5.749-9.302l7.273-34.42c.165-.781.554-1.497 1.118-2.062l16.201-16.202 59.733 11.847z" fill="#eef1f3"/><path d="m286.353 52.683-7.273-34.42c-.165-.781-.554-1.497-1.118-2.062l-16.202-16.201h-10.24l11.139 52.683c.583 4.083-1.837 7.998-5.749 9.302l-36.718 12.239c-3.265 1.088-3.964 5.396-1.211 7.461l23.071 17.304c2.884 2.163 4.087 5.898 3.034 9.346-3.962 12.965-17.097 43.816-54.906 58.501 3.71 1.441 7.647 2.733 11.847 3.83 47.003-12.28 62.403-48.094 66.753-62.331 1.054-3.448-.149-7.183-3.034-9.346l-23.071-17.304c-2.753-2.065-2.054-6.372 1.211-7.461l36.718-12.239c3.912-1.304 6.332-5.219 5.749-9.302z" fill="#cadae6"/><g><g><path d="m202.026 229.592c-4.268 0-7.726-3.459-7.726-7.726v-148.036c0-4.268 3.459-7.726 7.726-7.726 4.268 0 7.726 3.459 7.726 7.726v148.036c.001 4.268-3.458 7.726-7.726 7.726z" fill="#75cef9"/></g></g><path d="m194.908 90.196-52.615-90.196h119.467l-52.615 90.196c-3.18 5.452-11.057 5.452-14.237 0z" fill="#75cef9"/></g><g><path d="m150.826 221.867h-34.133v34.133h34.133 102.401 34.136v-34.133h-34.136z" fill="#eef1f3"/><g><path d="m212.155 225.196 28.77-14.16c5.671-2.791 12.302 1.336 12.302 7.656v40.482c0 6.344-6.676 10.469-12.35 7.632l-28.544-14.272-20.435.136-28.77 14.16c-5.671 2.791-12.301-1.336-12.301-7.656v-40.482c0-6.344 6.676-10.469 12.35-7.632l28.544 14.272z" fill="#dd646e"/><ellipse cx="202.026" cy="238.933" fill="#db4955" rx="17.067" ry="17.067" transform="matrix(.707 -.707 .707 .707 -109.779 212.836)"/></g><path d="m263.666 221.867h23.694v34.133h-23.694z" fill="#cadae6"/></g></g><g><path d="m472.868 300.948-48.272 48.272c-6.665 6.665-17.471 6.665-24.136 0l-65.949-65.949c-4.035-4.035-5.786-9.819-4.667-15.415l8.045-40.227c1.351-6.756 6.632-12.037 13.388-13.388l40.227-8.045c5.596-1.119 11.38.632 15.415 4.667l65.949 65.949c6.665 6.665 6.665 17.471 0 24.136z" fill="#dd646e"/><g><path d="m379.341 287.555c-1.977 0-3.955-.754-5.464-2.263l-3.017-3.017c-3.017-3.017-3.017-7.91 0-10.927 3.018-3.017 7.91-3.017 10.928 0l3.017 3.017c3.017 3.017 3.017 7.91 0 10.927-1.509 1.509-3.487 2.263-5.464 2.263z" fill="#eef1f3"/></g><g><path d="m436.664 296.606c-1.977 0-3.955-.755-5.464-2.263l-3.017-3.017c-3.017-3.017-3.017-7.909 0-10.926 3.018-3.017 7.909-3.017 10.928 0l3.017 3.017c3.017 3.017 3.017 7.909 0 10.926-1.509 1.509-3.487 2.263-5.464 2.263z" fill="#eef1f3"/></g><g><path d="m412.52 320.743c-3.608 0-6.834-2.54-7.568-6.213l-12.068-60.34c-.837-4.184 1.877-8.255 6.061-9.092 4.184-.834 8.255 1.877 9.091 6.061l12.068 60.34c.837 4.184-1.877 8.255-6.061 9.092-.511.103-1.021.152-1.523.152z" fill="#eef1f3"/></g><g><path d="m364.257 248.335c-1.977 0-3.955-.755-5.464-2.263l-68.698-68.698c-3.017-3.017-3.017-7.91 0-10.927 3.018-3.017 7.909-3.017 10.928 0l68.698 68.698c3.017 3.017 3.017 7.91 0 10.927-1.51 1.508-3.488 2.263-5.464 2.263z" fill="#eef1f3"/></g><path d="m472.868 276.812-65.949-65.949c-4.035-4.035-9.82-5.786-15.415-4.667l-11.314 2.263c1.087.679 2.109 1.478 3.035 2.404l65.949 65.949c6.665 6.665 6.665 17.471 0 24.136l-48.272 48.272c-.071.071-.149.13-.221.2 6.68 6.453 17.321 6.394 23.915-.2l48.272-48.272c6.665-6.665 6.665-17.471 0-24.136z" fill="#db4955"/></g></g></svg>