<svg id="Layer_1" enable-background="new 0 0 512 512" height="512" viewBox="0 0 512 512" width="512" xmlns="http://www.w3.org/2000/svg"><g><g><g><g><path d="m110.933 24.209h34.133v105.181h-34.133z" fill="#eef1f3"/><path d="m110.933 60.54h34.133v15.453h-34.133z" fill="#cadae6"/></g><g><path d="m230.4 24.209h34.133v105.181h-34.133z" fill="#eef1f3"/><path d="m230.4 60.54h34.133v15.453h-34.133z" fill="#cadae6"/></g><path d="m273.6 34.133h-171.733c-4.418 0-8-3.582-8-8v-10.133c0-8.837 7.163-16 16-16h155.733c8.837 0 16 7.163 16 16v10.133c0 4.419-3.582 8-8 8z" fill="#f4de7f"/><path d="m162.133 0h51.2v34.133h-51.2z" fill="#365e7d"/><path d="m265.117 0h-23.694c9.103 0 16.483 7.38 16.483 16.483v9.409c0 4.552-3.69 8.241-8.241 8.241h23.694c4.552 0 8.241-3.69 8.241-8.241v-9.409c0-9.103-7.38-16.483-16.483-16.483z" fill="#f0c078"/></g><g fill="#cd8051"><path d="m324.267 375.467v51.2l-51.2 51.2h-170.667l-51.2-51.2v-51.2l136.267-8.241z"/><path d="m51.2 221.867v-51.2l51.2-51.2h170.667l51.2 51.2v51.2l-136.534 8.241z"/><path d="m51.2 341.333v-85.333l136.533-9.186 136.534 9.186v85.333l-136.534 8.241z"/></g><path d="m324.267 221.867v-51.2l-23.669-23.669v76.297z" fill="#c46b4b"/><g><g fill="#c46b4b"><path d="m324.267 341.333v-85.333l-23.669-1.592v88.353z"/><path d="m300.598 374.041v76.294l23.669-23.668v-51.2z"/></g></g><ellipse cx="102.4" cy="494.933" fill="#365e7d" rx="17.067" ry="17.067" transform="matrix(.952 -.307 .307 .952 -146.891 55.276)"/><ellipse cx="273.067" cy="494.933" fill="#365e7d" rx="17.067" ry="17.067" transform="matrix(.449 -.894 .894 .449 -291.772 516.887)"/><g><path d="m68.267 119.467c-9.426 0-17.067 7.641-17.067 17.067v34.133h34.133c9.426 0 17.067-7.641 17.067-17.067v-34.133z" fill="#f4de7f"/><path d="m290.133 170.667c-9.426 0-17.067-7.641-17.067-17.067v-34.133h34.134c9.426 0 17.067 7.641 17.067 17.067v34.133z" fill="#f4de7f"/><path d="m307.2 119.467h-23.668c9.426 0 17.067 7.641 17.067 17.067v34.133h23.668v-34.133c0-9.426-7.641-17.067-17.067-17.067z" fill="#fdd76f"/></g><g><g fill="#f4de7f"><path d="m307.2 477.867c9.426 0 17.067-7.641 17.067-17.067v-34.133h-34.133c-9.426 0-17.067 7.641-17.067 17.067v34.133z"/><path d="m68.267 477.867c-9.426 0-17.067-7.641-17.067-17.067v-34.133h34.133c9.426 0 17.067 7.641 17.067 17.067v34.133z"/></g></g><g><g><g><path d="m350.674 357.301c-4.268 0-7.726-3.459-7.726-7.726v-101.816c0-4.267 3.459-7.726 7.726-7.726 4.268 0 7.726 3.459 7.726 7.726v101.816c0 4.267-3.459 7.726-7.726 7.726z" fill="#365e7d"/></g></g><path d="m319.116 256h31.284c4.418 0 8-3.582 8-8v-18.133c0-4.418-3.582-8-8-8h-31.284z" fill="#f4de7f"/><path d="m319.116 341.333h31.284c4.418 0 8 3.582 8 8v18.133c0 4.418-3.582 8-8 8h-31.284z" fill="#f4de7f"/><g fill="#f0c078"><path d="m350.159 221.867h-23.694c4.552 0 8.241 3.69 8.241 8.241v17.651c0 4.551-3.69 8.241-8.241 8.241h23.694c4.552 0 8.241-3.69 8.241-8.241v-17.651c0-4.551-3.69-8.241-8.241-8.241z"/><path d="m350.159 341.333h-23.694c4.552 0 8.241 3.69 8.241 8.241v17.651c0 4.551-3.69 8.241-8.241 8.241h23.694c4.552 0 8.241-3.69 8.241-8.241v-17.651c0-4.551-3.69-8.241-8.241-8.241z"/></g></g><g><g><path d="m51.2 256h34.133 204.8 34.134v-34.133h-34.134-204.8-34.133z" fill="#365e7d"/><path d="m111.467 273.067h-18.134c-4.418 0-8-3.582-8-8v-52.267c0-4.418 3.582-8 8-8h18.133c4.418 0 8 3.582 8 8v52.267c.001 4.418-3.581 8-7.999 8z" fill="#f4de7f"/><path d="m282.133 273.067h-18.133c-4.418 0-8-3.582-8-8v-52.267c0-4.418 3.582-8 8-8h18.133c4.418 0 8 3.582 8 8v52.267c0 4.418-3.581 8-8 8z" fill="#f4de7f"/><path d="m300.585 221.867h23.694v34.133h-23.694z" fill="#2b4d66"/></g><g><path d="m51.2 375.467h34.133 204.8 34.134v-34.134h-34.134-204.8-34.133z" fill="#365e7d"/><path d="m111.467 392.533h-18.134c-4.418 0-8-3.582-8-8v-52.267c0-4.418 3.582-8 8-8h18.133c4.418 0 8 3.582 8 8v52.267c.001 4.419-3.581 8-7.999 8z" fill="#f4de7f"/><path d="m282.133 392.533h-18.133c-4.418 0-8-3.582-8-8v-52.267c0-4.418 3.582-8 8-8h18.133c4.418 0 8 3.582 8 8v52.267c0 4.419-3.581 8-8 8z" fill="#f4de7f"/><path d="m300.585 341.333h23.694v34.133h-23.694z" fill="#2b4d66"/></g></g><path d="m307.2 119.467h-23.668c9.426 0 17.067 7.641 17.067 17.067v34.133h23.668v-34.133c0-9.426-7.641-17.067-17.067-17.067z" fill="#f0c078"/><path d="m307.2 477.867h-23.668c9.426 0 17.067-7.641 17.067-17.067v-34.134h23.668v34.134c0 9.426-7.641 17.067-17.067 17.067z" fill="#f0c078"/></g><g><path d="m455.801 151.529-48.272 48.272c-6.665 6.665-17.471 6.665-24.136 0l-65.949-65.949c-4.035-4.035-5.786-9.819-4.667-15.415l8.045-40.227c1.351-6.756 6.632-12.037 13.388-13.388l40.227-8.045c5.596-1.119 11.38.632 15.415 4.667l65.949 65.949c6.665 6.666 6.665 17.472 0 24.136z" fill="#dd646e"/><g><g><path d="m362.275 138.137c-1.977 0-3.955-.754-5.464-2.263l-3.017-3.017c-3.017-3.017-3.017-7.91 0-10.927 3.018-3.017 7.91-3.017 10.928 0l3.017 3.017c3.017 3.017 3.017 7.91 0 10.927-1.51 1.509-3.488 2.263-5.464 2.263z" fill="#eef1f3"/></g></g><g><g><path d="m419.597 147.188c-1.977 0-3.955-.755-5.464-2.263l-3.017-3.017c-3.017-3.017-3.017-7.91 0-10.927 3.018-3.017 7.91-3.017 10.928 0l3.017 3.017c3.017 3.017 3.017 7.91 0 10.926-1.509 1.509-3.487 2.264-5.464 2.264z" fill="#eef1f3"/></g></g><g><g><path d="m395.454 171.325c-3.608 0-6.834-2.54-7.569-6.213l-12.068-60.34c-.837-4.184 1.877-8.254 6.061-9.091 4.184-.834 8.255 1.877 9.092 6.061l12.068 60.34c.837 4.184-1.877 8.255-6.061 9.092-.511.102-1.021.151-1.523.151z" fill="#eef1f3"/></g></g><g><g><path d="m347.19 98.916c-1.977 0-3.955-.755-5.464-2.263l-65.615-65.615c-3.017-3.017-3.017-7.91 0-10.927 3.018-3.017 7.909-3.017 10.928 0l65.615 65.615c3.017 3.017 3.017 7.91 0 10.927-1.509 1.509-3.487 2.263-5.464 2.263z" fill="#eef1f3"/></g></g><path d="m455.801 127.394-65.949-65.949c-4.035-4.035-9.82-5.786-15.415-4.667l-11.314 2.263c1.087.678 2.109 1.478 3.035 2.404l65.949 65.949c6.665 6.665 6.665 17.471 0 24.136l-48.272 48.272c-.071.071-.149.13-.221.2 6.68 6.453 17.321 6.394 23.915-.2l48.272-48.272c6.665-6.665 6.665-17.471 0-24.136z" fill="#db4955"/></g></g></svg>