<svg id="Layer_1" enable-background="new 0 0 512 512" height="512" viewBox="0 0 512 512" width="512" xmlns="http://www.w3.org/2000/svg"><g><g><path d="m288.433 324.268c-17.125 20.726-44.39 34.132-75.099 34.132-30.711 0-57.977-13.408-75.102-34.136v-29.632l75.101-29.875 75.101 27.495v32.016z" fill="#e8aa41"/><g><path d="m213.332 323.46c-4.268 0-7.726-3.459-7.726-7.726v-23.482c0-4.268 3.459-7.726 7.726-7.726s7.726 3.459 7.726 7.726v23.482c.001 4.267-3.458 7.726-7.726 7.726z" fill="#e88f41"/></g><path d="m402.489 238.934h15.644c4.713 0 8.533-3.82 8.533-8.533v-51.2c0-4.713-3.82-8.533-8.533-8.533h-21.333-366.933-21.334c-4.713-.001-8.533 3.82-8.533 8.532v51.2c0 4.713 3.82 8.533 8.533 8.533h15.644 378.312z" fill="#365e7d"/><g><path d="m375.183 469.334h-125.365v34.133h142.715c61.169 0 110.933-49.764 110.933-110.933v-39.74h-34.133v39.74c0 7.94-1.211 15.603-3.459 22.813z" fill="#eef1f3"/><path d="m469.334 25.24h34.133v259.286h-34.133z" fill="#eef1f3"/><path d="m504 34.134h-35.2c-4.418 0-8-3.582-8-8v-18.134c0-4.418 3.582-8 8-8h35.2c4.418 0 8 3.582 8 8v18.133c0 4.419-3.581 8.001-8 8.001z" fill="#e8aa41"/><path d="m504 358.401h-35.2c-4.418 0-8-3.582-8-8v-69.333c0-4.418 3.582-8 8-8h35.2c4.418 0 8 3.582 8 8v69.333c0 4.418-3.581 8-8 8z" fill="#e8aa41"/><path d="m469.334 60.541h34.133v15.453h-34.133z" fill="#cadae6"/><path d="m290.941 469.334h15.453v34.133h-15.453z" fill="#cadae6"/><g><path d="m187.733 426.667h51.2v42.667h-51.2z" fill="#eef1f3"/><path d="m178.666 512h69.333c4.418 0 8-3.582 8-8v-35.2c0-4.418-3.582-8-8-8h-69.333c-4.418 0-8 3.582-8 8v35.2c0 4.418 3.582 8 8 8z" fill="#e8aa41"/><g><g><path d="m213.333 434.393c-27.042 0-52.264-14.555-65.82-37.987-2.138-3.693-.876-8.419 2.818-10.556 3.694-2.138 8.42-.876 10.556 2.818 10.805 18.673 30.9 30.273 52.446 30.273s41.642-11.6 52.445-30.276c2.138-3.692 6.864-4.954 10.557-2.819 3.693 2.137 4.956 6.863 2.819 10.557-13.556 23.433-38.778 37.99-65.821 37.99z" fill="#365e7d"/></g></g></g><path d="m213.333 487.208c-4.268 0-7.726 3.459-7.726 7.726v17.066h15.453v-17.066c-.001-4.268-3.459-7.726-7.727-7.726z" fill="#e88f41"/></g><path d="m372.504 324.267h-100.517c-10.13 0-19.737-4.499-26.222-12.282l-6.21-7.452c-13.646-16.376-38.798-16.376-52.444 0l-6.21 7.452c-6.485 7.782-16.092 12.282-26.222 12.282h-100.516c-19.969 0-35.674-17.068-34.015-36.968l11.378-136.533c1.474-17.691 16.263-31.299 34.015-31.299h295.586c17.752 0 32.541 13.608 34.015 31.299l11.378 136.533c1.658 19.901-14.046 36.968-34.016 36.968z" fill="#eef1f3"/><path d="m406.52 287.299-11.378-136.533c-1.474-17.691-16.263-31.299-34.015-31.299h-23.694c17.752 0 32.541 13.608 34.015 31.299l11.378 136.533c1.658 19.9-14.046 36.968-34.015 36.968h23.694c19.969 0 35.673-17.067 34.015-36.968z" fill="#cadae6"/><path d="m362.431 169.25 8.533 102.4c.829 9.95-7.023 18.484-17.008 18.484h-73.275c-5.508 0-10.732-2.447-14.258-6.678l-1.442-1.73c-11.708-14.048-28.635-22.982-46.897-23.937-3.446-.18-6.88-.104-10.276.218 0 0-32.32-7.845-37.828-7.845l-50.513 39.971h-46.756c-9.985 0-17.837-8.534-17.008-18.484l8.533-102.4c.737-8.845 8.132-15.649 17.008-15.649h123.556l31.627 6.25 36.64-6.25h72.356c8.876 0 16.27 6.804 17.008 15.65z" fill="#b1e4f9"/><path d="m370.964 271.65-8.534-102.4c-.737-8.846-8.131-15.649-17.008-15.649h-23.694c8.876 0 16.271 6.804 17.008 15.649l8.534 102.4c.829 9.95-7.023 18.484-17.008 18.484h23.694c9.985 0 17.837-8.534 17.008-18.484z" fill="#75cef9"/><path d="m160.245 283.455.645-.773c11.879-14.255 28.851-22.958 46.922-24.673v-.001l65.255-104.408h-68.267l-85.333 136.533h26.519c5.509.001 10.733-2.446 14.259-6.678z" fill="#e4f6ff"/></g><g><path d="m468.193 441.663-48.272 48.272c-6.665 6.665-17.471 6.665-24.136 0l-65.949-65.949c-4.035-4.035-5.786-9.82-4.667-15.415l8.045-40.227c1.351-6.756 6.632-12.037 13.388-13.388l40.227-8.045c5.595-1.119 11.38.632 15.415 4.667l65.949 65.949c6.665 6.665 6.665 17.471 0 24.136z" fill="#dd646e"/><g><path d="m374.666 428.271c-1.977 0-3.955-.755-5.464-2.263l-3.017-3.017c-3.017-3.017-3.017-7.909 0-10.926 3.018-3.017 7.91-3.017 10.928 0l3.017 3.017c3.017 3.017 3.017 7.909 0 10.927-1.509 1.507-3.487 2.262-5.464 2.262z" fill="#eff6ff"/></g><g><path d="m431.989 437.322c-1.977 0-3.955-.755-5.464-2.263l-3.017-3.017c-3.017-3.017-3.017-7.91 0-10.927 3.018-3.017 7.909-3.017 10.927 0l3.017 3.017c3.017 3.017 3.017 7.91 0 10.927-1.508 1.508-3.486 2.263-5.463 2.263z" fill="#eff6ff"/></g><g><path d="m407.845 461.459c-3.608 0-6.834-2.54-7.569-6.213l-12.068-60.34c-.837-4.184 1.877-8.255 6.061-9.092 4.184-.834 8.255 1.877 9.092 6.061l12.068 60.34c.837 4.184-1.877 8.255-6.061 9.092-.511.103-1.021.152-1.523.152z" fill="#eff6ff"/></g><g><path d="m359.581 389.05c-1.977 0-3.955-.754-5.464-2.263l-58.311-58.311c-3.017-3.017-3.017-7.909 0-10.927 3.018-3.017 7.909-3.017 10.927 0l58.311 58.311c3.017 3.017 3.017 7.91 0 10.927-1.508 1.509-3.486 2.263-5.463 2.263z" fill="#e8aa41"/></g><path d="m468.193 417.527-65.949-65.949c-4.035-4.035-9.82-5.786-15.415-4.667l-11.314 2.263c1.087.679 2.109 1.478 3.035 2.404l65.949 65.949c6.665 6.665 6.665 17.471 0 24.136l-48.272 48.272c-.071.071-.149.13-.221.2 6.68 6.453 17.321 6.394 23.915-.2l48.272-48.272c6.665-6.665 6.665-17.471 0-24.136z" fill="#db4955"/></g></g></svg>