<svg id="Layer_1" enable-background="new 0 0 512 512" height="512" viewBox="0 0 512 512" width="512" xmlns="http://www.w3.org/2000/svg"><g><path d="m413.565 477.868c3.316-5.732 5.013-12.518 4.466-19.732-1.269-16.726-14.875-30.228-31.61-31.385-5.582-.386-10.901.574-15.669 2.585-1.844.778-3.824-.619-3.82-2.62 0-.017 0-.033 0-.05 0-13.303-10.146-24.235-23.122-25.482-1.378-.132-2.469-1.212-2.548-2.594-1.282-22.412-19.863-40.191-42.596-40.191-9.605 0-18.468 3.174-25.599 8.529h-34.135c-7.131-5.356-15.994-8.529-25.599-8.529-22.733 0-41.314 17.779-42.596 40.191-.079 1.382-1.17 2.462-2.548 2.594-12.976 1.246-23.122 12.179-23.122 25.482v.05c.004 2.001-1.977 3.397-3.82 2.62-4.768-2.011-10.086-2.971-15.669-2.585-16.734 1.157-30.341 14.659-31.61 31.385-.547 7.215 1.15 14 4.466 19.732v6.317h315.184z" fill="#b3e59f"/><path d="m317.567 398.591c.079 1.383 1.17 2.462 2.548 2.594 12.976 1.246 23.122 12.179 23.122 25.481v.05c-.004 2.001 1.977 3.397 3.82 2.62 4.767-2.011 10.086-2.971 15.669-2.586 1.453.101 2.88.3 4.28.581-.042-.198-.075-.401-.075-.615 0-.017 0-.033 0-.05 0-13.302-10.146-24.235-23.122-25.481-1.378-.132-2.469-1.212-2.548-2.594-1.282-22.412-19.863-40.191-42.596-40.191-4.114 0-8.09.586-11.854 1.673 17.042 4.914 29.706 20.157 30.756 38.518z" fill="#95d6a4"/><path d="m418.031 458.136c-1.269-16.726-14.875-30.228-31.61-31.385-5.047-.349-9.873.411-14.277 2.045 12.179 4.542 21.173 15.897 22.192 29.341.547 7.214-1.15 14-4.466 19.732l.053 6.317h23.694l-.053-6.317c3.317-5.733 5.014-12.519 4.467-19.733z" fill="#95d6a4"/><path d="m273.067 34.133v-25.892c0-4.552-3.69-8.241-8.241-8.241h-17.651c-4.551 0-8.241 3.69-8.241 8.241v25.892 273.067 176.985h34.133v-176.985z" fill="#eef1f3"/><g><g><g><path d="m478.933 153.6h-445.866c-8.837 0-16-7.163-16-16v-87.467c0-8.837 7.163-16 16-16h445.867c8.837 0 16 7.163 16 16v87.467c-.001 8.837-7.164 16-16.001 16z" fill="#e8aa41"/></g></g></g><g><g><g><path d="m414.351 307.2h-316.675c-13.104 0-21.319-14.157-14.818-25.534l14.704-25.732c2.998-5.247 2.998-11.688 0-16.935l-14.704-25.732c-6.501-11.378 1.714-25.534 14.818-25.534h316.675c13.104 0 21.32 14.156 14.818 25.534l-14.704 25.732c-2.998 5.247-2.998 11.688 0 16.935l14.704 25.732c6.501 11.377-1.714 25.534-14.818 25.534z" fill="#dd646e"/></g></g></g><path d="m0 504v-18.133c0-4.418 3.582-8 8-8h496c4.418 0 8 3.582 8 8v18.133c0 4.418-3.582 8-8 8h-496c-4.418 0-8-3.582-8-8z" fill="#d8b26a"/><path d="m503.759 477.867h-23.694c4.552 0 8.241 3.69 8.241 8.241v17.651c0 4.551-3.69 8.241-8.241 8.241h23.694c4.552 0 8.241-3.69 8.241-8.241v-17.651c0-4.552-3.69-8.241-8.241-8.241z" fill="#b8985d"/><path d="m238.933 436.007h34.133v15.453h-34.133z" fill="#cadae6"/><path d="m478.45 34.133h-23.694c9.103 0 16.483 7.38 16.483 16.483v86.501c0 9.103-7.38 16.483-16.483 16.483h23.694c9.103 0 16.483-7.38 16.483-16.483v-86.501c0-9.103-7.379-16.483-16.483-16.483z" fill="#e88f41"/><path d="m414.465 255.934c-2.998-5.247-2.998-11.688 0-16.935l14.704-25.732c6.501-11.378-1.714-25.534-14.818-25.534h-23.694c13.104 0 21.319 14.156 14.818 25.534l-14.704 25.732c-2.998 5.247-2.998 11.688 0 16.935l14.704 25.732c6.501 11.378-1.714 25.534-14.818 25.534h23.694c13.104 0 21.32-14.156 14.818-25.534z" fill="#db4955"/><g><g fill="#365e7d"><path d="m213.644 121.138c1.218 3.627 4.598 6.055 8.42 6.055h.044c3.84-.019 7.218-2.486 8.405-6.139.029-.089.056-.179.082-.27l6.547-22.966 4.338 22.699c.801 4.191 4.85 6.949 9.039 6.138 4.192-.801 6.94-4.847 6.139-9.039l-9.55-49.969c-.805-3.95-4.178-6.866-8.203-7.094-4.009-.217-7.704 2.292-8.949 6.126-.029.089-.056.178-.082.269l-7.918 27.775-8.217-27.851c-.027-.091-.056-.183-.086-.274-1.284-3.823-4.986-6.324-9.015-6.035-4.023.269-7.366 3.222-8.146 7.272l-8.999 49.86c-.758 4.199 2.032 8.218 6.231 8.976 4.2.752 8.218-2.031 8.976-6.231l4.073-22.568 6.784 22.993c.028.091.057.182.087.273z"/><path d="m336.506 126.656c4.192-.801 6.94-4.847 6.139-9.039l-9.55-49.969c-.805-3.95-4.178-6.866-8.203-7.094-4.019-.217-7.704 2.292-8.949 6.126-.029.089-.056.178-.082.269l-7.918 27.775-8.217-27.851c-.027-.091-.056-.183-.086-.274-1.284-3.824-4.997-6.296-9.016-6.035-4.024.27-7.366 3.224-8.144 7.272l-9 49.86c-.758 4.199 2.032 8.217 6.231 8.976 4.193.752 8.218-2.031 8.976-6.231l4.073-22.567 6.784 22.992c.027.092.056.183.086.274 1.218 3.627 4.598 6.055 8.42 6.055h.047c3.841-.02 7.218-2.488 8.403-6.142.029-.088.056-.177.081-.267l6.547-22.966 4.338 22.699c.801 4.19 4.849 6.948 9.04 6.137z"/><path d="m388.475 76.461c4.267 0 7.726-3.459 7.726-7.726s-3.459-7.726-7.726-7.726h-21.377c-4.267 0-7.726 3.459-7.726 7.726v50.732c0 4.268 3.459 7.726 7.726 7.726h21.377c4.267 0 7.726-3.459 7.726-7.726 0-4.268-3.459-7.726-7.726-7.726h-13.65v-9.913h12.074c4.267 0 7.726-3.459 7.726-7.726 0-4.268-3.459-7.726-7.726-7.726h-12.074v-9.913h13.65z"/><path d="m88.761 87.022c-6.056-2.235-11.712-4.663-13.684-5.524-.717-.664-.726-1.521-.656-2.008.094-.652.587-2.25 3.142-3.02 6.496-1.962 12.653 2.843 12.87 3.016 3.266 2.699 8.105 2.266 10.837-.984 2.745-3.267 2.324-8.141-.943-10.886-.506-.424-12.554-10.357-27.22-5.943-7.568 2.28-12.926 8.265-13.981 15.621-.996 6.934 2.011 13.605 7.847 17.409.342.222.7.417 1.072.583.298.133 7.388 3.289 15.369 6.232 3.105 1.146 6.277 3.19 5.866 5.493-.34 1.907-3.004 4.728-7.638 4.728-4.721 0-9.251-1.888-12.117-5.051-2.865-3.162-7.751-3.403-10.914-.537-3.161 2.866-3.402 7.751-.537 10.913 5.833 6.437 14.423 10.128 23.567 10.128 11.434 0 21.044-7.345 22.851-17.465 1.369-7.666-2.044-17.658-15.731-22.705z"/><path d="m442.295 101.063c7.982-3.124 13.632-10.676 13.632-19.489 0-11.598-9.773-21.033-21.786-21.033h-13.606c-.003 0-.005.001-.008.001s-.005-.001-.008-.001c-4.267 0-7.726 3.459-7.726 7.726v51.2c0 4.268 3.459 7.726 7.726 7.726s7.726-3.459 7.726-7.726v-10.979l14.156 16.083c1.527 1.735 3.659 2.622 5.803 2.622 1.813 0 3.634-.635 5.102-1.927 3.203-2.819 3.515-7.701.695-10.904zm-8.154-25.07c3.432 0 6.333 2.555 6.333 5.58 0 3.024-2.9 5.579-6.333 5.579-1.394 0-3.598.008-5.827.018-.01-2.152-.018-4.262-.018-5.598 0-1.147-.005-3.318-.011-5.58h5.856z"/><path d="m144.877 127.193c4.263 0 8.27-.93 11.906-2.761 8.964-4.514 13.901-11.962 13.901-20.972v-35.193c0-4.268-3.459-7.726-7.726-7.726s-7.726 3.459-7.726 7.726v35.194c0 2.201-.641 4.775-5.399 7.17-1.487.749-3.14 1.153-4.972 1.11-2-.003-3.729-.488-5.287-1.484-3.719-2.375-4.466-4.347-4.466-6.759v-35.231c0-4.268-3.459-7.726-7.726-7.726s-7.726 3.459-7.726 7.726v35.231c0 8.208 3.902 14.863 11.598 19.781 4.055 2.59 8.627 3.908 13.589 3.914z"/></g><path d="m244.483 216.657c-.027-.07-.055-.141-.083-.211-1.376-3.345-4.602-5.505-8.218-5.505-.003 0-.006 0-.008 0-3.62.003-6.846 2.17-8.217 5.52-.024.058-.047.118-.07.177l-19.225 50.479c-1.519 3.987.482 8.451 4.47 9.97 3.99 1.519 8.452-.483 9.97-4.471l2.893-7.595h20.224l2.858 7.574c1.168 3.094 4.108 5 7.23 5 .906 0 1.828-.161 2.726-.5 3.992-1.506 6.008-5.964 4.501-9.957zm-12.604 32.911 4.273-11.219 4.234 11.219z" fill="#eef1f3"/><path d="m306.319 262.098c-.014 0-.029 0-.044 0-3.457.019-7.097.033-10.159.039v-43.47c0-4.268-3.459-7.726-7.726-7.726s-7.726 3.459-7.726 7.726v51.157c0 3.766 2.715 6.983 6.427 7.617.554.094.92.157 6.642.157 2.758 0 6.762-.015 12.629-.047 4.267-.024 7.707-3.502 7.684-7.77-.025-4.253-3.48-7.683-7.727-7.683z" fill="#eef1f3"/><path d="m359.744 226.86c4.267 0 7.726-3.459 7.726-7.726 0-4.268-3.459-7.726-7.726-7.726h-21.377c-4.267 0-7.726 3.459-7.726 7.726v50.732c0 4.268 3.459 7.726 7.726 7.726h21.377c4.267 0 7.726-3.459 7.726-7.726 0-4.268-3.459-7.726-7.726-7.726h-13.65v-9.914h12.074c4.267 0 7.726-3.459 7.726-7.726s-3.459-7.726-7.726-7.726h-12.074v-9.913h13.65z" fill="#eef1f3"/><path d="m177.218 237.421c-6.056-2.234-11.711-4.662-13.684-5.523-.717-.664-.726-1.521-.656-2.008.094-.652.587-2.252 3.142-3.021 6.496-1.965 12.653 2.844 12.87 3.016 3.266 2.699 8.105 2.266 10.837-.984 2.745-3.267 2.323-8.141-.943-10.886-.505-.426-12.554-10.355-27.221-5.943-7.568 2.281-12.925 8.267-13.981 15.622-.995 6.934 2.012 13.605 7.848 17.41.342.222.7.417 1.072.583.298.133 7.388 3.288 15.369 6.231 3.105 1.146 6.277 3.19 5.866 5.493-.341 1.907-3.004 4.728-7.638 4.728-4.721 0-9.251-1.888-12.116-5.051-2.865-3.162-7.751-3.402-10.913-.537-3.163 2.865-3.403 7.75-.538 10.913 5.832 6.437 14.422 10.128 23.568 10.128 11.434 0 21.044-7.345 22.851-17.465 1.366-7.666-2.047-17.658-15.733-22.706z" fill="#eef1f3"/></g></g></svg>