<svg id="Layer_1" enable-background="new 0 0 512 512" height="512" viewBox="0 0 512 512" width="512" xmlns="http://www.w3.org/2000/svg"><g><path d="m111.525 444.048h288.95v41.277h-288.95z" fill="#e8aa41"/><path d="m376.878 444.048h23.598v41.277h-23.598z" fill="#e88f41"/><path d="m111.525 95.572h288.95v349.996h-288.95z" fill="#eef1f3"/><path d="m376.878 95.572h23.598v349.996h-23.598z" fill="#cadae6"/><g><path d="m171.015 25.173h169.971v51.637h-169.971z" fill="#eef1f3"/><path d="m317.388 25.173h23.597v51.637h-23.597z" fill="#cadae6"/><path d="m409.472 101.982h-306.944c-4.418 0-8-3.582-8-8v-17.994c0-4.418 3.582-8 8-8h306.944c4.418 0 8 3.582 8 8v17.994c0 4.419-3.582 8-8 8z" fill="#e8aa41"/><path d="m349.982 33.994h-187.964c-4.418 0-8-3.582-8-8v-17.994c0-4.418 3.582-8 8-8h187.965c4.418 0 8 3.582 8 8v17.994c-.001 4.418-3.582 8-8.001 8z" fill="#e8aa41"/><path d="m409.264 67.988h-23.598c4.533 0 8.208 3.675 8.208 8.208v17.578c0 4.533-3.675 8.208-8.208 8.208h23.598c4.533 0 8.208-3.675 8.208-8.208v-17.578c0-4.533-3.675-8.208-8.208-8.208z" fill="#f5a96c"/><path d="m349.775 0h-23.598c4.533 0 8.208 3.675 8.208 8.208v17.578c0 4.533-3.675 8.208-8.208 8.208h23.598c4.533 0 8.208-3.675 8.208-8.208v-17.578c-.001-4.533-3.675-8.208-8.208-8.208z" fill="#e88f41"/></g><g><path d="m205.009 393.057h101.982v92.268h-101.982z" fill="#b1e4f9"/><g><g><path d="m272.997 443.244h-33.995c-4.25 0-7.695-3.445-7.695-7.695s3.445-7.695 7.695-7.695h33.995c4.25 0 7.695 3.445 7.695 7.695 0 4.251-3.445 7.695-7.695 7.695z" fill="#eef1f3"/></g></g><g><g><path d="m256 485.737c-4.25 0-7.695-3.445-7.695-7.695v-84.986c0-4.25 3.445-7.695 7.695-7.695s7.695 3.445 7.695 7.695v84.986c0 4.251-3.445 7.695-7.695 7.695z" fill="#75cef9"/></g></g><g><g><path d="m315.49 400.751h-118.98c-4.25 0-7.695-3.445-7.695-7.695s3.445-7.695 7.695-7.695h118.98c4.25 0 7.695 3.445 7.695 7.695 0 4.251-3.445 7.695-7.695 7.695z" fill="#e8aa41"/></g></g></g><g><g><g><path d="m188.51 189.092h-34.991c-4.418 0-8-3.582-8-8v-34.991c0-4.418 3.582-8 8-8h34.991c4.418 0 8 3.582 8 8v34.991c0 4.418-3.581 8-8 8z" fill="#b1e4f9"/></g><g><path d="m273.496 189.092h-34.991c-4.418 0-8-3.582-8-8v-34.991c0-4.418 3.582-8 8-8h34.991c4.418 0 8 3.582 8 8v34.991c0 4.418-3.582 8-8 8z" fill="#b1e4f9"/></g><g><path d="m358.481 189.092h-34.991c-4.418 0-8-3.582-8-8v-34.991c0-4.418 3.582-8 8-8h34.991c4.418 0 8 3.582 8 8v34.991c0 4.418-3.582 8-8 8z" fill="#b1e4f9"/></g><g><path d="m358.273 138.101h-23.597c4.533 0 8.208 3.675 8.208 8.208v34.576c0 4.533-3.675 8.208-8.208 8.208h23.597c4.533 0 8.208-3.675 8.208-8.208v-34.576c0-4.533-3.675-8.208-8.208-8.208z" fill="#75cef9"/></g><g><path d="m273.288 138.101h-23.598c4.533 0 8.208 3.675 8.208 8.208v34.576c0 4.533-3.675 8.208-8.208 8.208h23.598c4.533 0 8.208-3.675 8.208-8.208v-34.576c0-4.533-3.675-8.208-8.208-8.208z" fill="#75cef9"/></g><g><path d="m188.303 138.101h-23.598c4.533 0 8.208 3.675 8.208 8.208v34.576c0 4.533-3.675 8.208-8.208 8.208h23.598c4.533 0 8.208-3.675 8.208-8.208v-34.576c-.001-4.533-3.676-8.208-8.208-8.208z" fill="#75cef9"/></g></g></g><g><g fill="#b1e4f9"><path d="m188.51 274.078h-34.991c-4.418 0-8-3.582-8-8v-34.991c0-4.418 3.582-8 8-8h34.991c4.418 0 8 3.582 8 8v34.991c0 4.418-3.581 8-8 8z"/><path d="m273.496 274.078h-34.991c-4.418 0-8-3.582-8-8v-34.991c0-4.418 3.582-8 8-8h34.991c4.418 0 8 3.582 8 8v34.991c0 4.418-3.582 8-8 8z"/><path d="m358.481 274.078h-34.991c-4.418 0-8-3.582-8-8v-34.991c0-4.418 3.582-8 8-8h34.991c4.418 0 8 3.582 8 8v34.991c0 4.418-3.582 8-8 8z"/></g></g><g><g fill="#b1e4f9"><path d="m188.51 359.063h-34.991c-4.418 0-8-3.582-8-8v-34.991c0-4.418 3.582-8 8-8h34.991c4.418 0 8 3.582 8 8v34.991c0 4.418-3.581 8-8 8z"/><path d="m273.496 359.063h-34.991c-4.418 0-8-3.582-8-8v-34.991c0-4.418 3.582-8 8-8h34.991c4.418 0 8 3.582 8 8v34.991c0 4.418-3.582 8-8 8z"/><path d="m358.481 359.063h-34.991c-4.418 0-8-3.582-8-8v-34.991c0-4.418 3.582-8 8-8h34.991c4.418 0 8 3.582 8 8v34.991c0 4.418-3.582 8-8 8z"/></g></g><g><path d="m442.968 346.988h33.994v141.243h-33.994z" fill="#cd8051"/><path d="m487.567 336.809 21.227-23.746c3.128-3.499 2.827-8.872-.672-12l-6.336-5.664c-6.999-6.256-17.744-5.654-24 1.344l-14.761 16.513c-1.632 1.825-4.488 1.825-6.119 0l-14.761-16.513c-6.256-6.999-17.001-7.6-24-1.344l-6.336 5.664c-3.499 3.128-3.8 8.501-.672 12l21.227 23.746c1.392 1.558 1.392 3.913 0 5.47l-19.064 21.326c-6.256 6.999-5.654 17.744 1.344 24l6.336 5.664c3.499 3.128 8.872 2.827 12-.672l23.926-26.766c1.632-1.825 4.488-1.825 6.119 0l23.926 26.766c3.128 3.499 8.501 3.8 12 .672l6.336-5.664c6.999-6.256 7.6-17.001 1.344-24l-19.064-21.326c-1.393-1.557-1.393-3.912 0-5.47z" fill="#b3e59f"/><path d="m442.968 434.746h33.994v-15.39h-33.994z" fill="#c46b4b"/></g><g><path d="m35.038 346.988h33.994v141.243h-33.994z" fill="#cd8051"/><path d="m79.637 336.809 21.227-23.746c3.128-3.499 2.827-8.872-.672-12l-6.336-5.664c-6.999-6.256-17.744-5.654-24 1.344l-14.761 16.513c-1.632 1.825-4.488 1.825-6.119 0l-14.761-16.513c-6.256-6.999-17.001-7.6-24-1.344l-6.336 5.664c-3.499 3.128-3.8 8.501-.672 12l21.227 23.746c1.392 1.558 1.392 3.913 0 5.47l-19.065 21.327c-6.256 6.999-5.654 17.744 1.344 24l6.336 5.664c3.499 3.128 8.872 2.827 12-.672l23.926-26.766c1.632-1.825 4.488-1.825 6.119 0l23.926 26.766c3.128 3.499 8.501 3.8 12 .672l6.336-5.664c6.998-6.256 7.6-17.001 1.344-24l-19.063-21.326c-1.392-1.558-1.392-3.913 0-5.471z" fill="#b3e59f"/><path d="m35.038 434.746h33.994v-15.39h-33.994z" fill="#c46b4b"/></g><path d="m1.044 504v-17.994c0-4.418 3.582-8 8-8h493.912c4.418 0 8 3.582 8 8v17.994c0 4.418-3.582 8-8 8h-493.912c-4.418 0-8-3.582-8-8z" fill="#eef1f3"/><path d="m502.748 478.006h-23.598c4.533 0 8.208 3.675 8.208 8.208v17.578c0 4.533-3.675 8.208-8.208 8.208h23.598c4.533 0 8.208-3.675 8.208-8.208v-17.578c0-4.533-3.675-8.208-8.208-8.208z" fill="#cadae6"/><g fill="#75cef9"><path d="m358.273 138.101h-23.597c4.533 0 8.208 3.675 8.208 8.208v34.576c0 4.533-3.675 8.208-8.208 8.208h23.597c4.533 0 8.208-3.675 8.208-8.208v-34.576c0-4.533-3.675-8.208-8.208-8.208z"/><path d="m273.288 138.101h-23.598c4.533 0 8.208 3.675 8.208 8.208v34.576c0 4.533-3.675 8.208-8.208 8.208h23.598c4.533 0 8.208-3.675 8.208-8.208v-34.576c0-4.533-3.675-8.208-8.208-8.208z"/><path d="m188.303 138.101h-23.598c4.533 0 8.208 3.675 8.208 8.208v34.576c0 4.533-3.675 8.208-8.208 8.208h23.598c4.533 0 8.208-3.675 8.208-8.208v-34.576c-.001-4.533-3.676-8.208-8.208-8.208z"/><path d="m358.273 223.086h-23.597c4.533 0 8.208 3.675 8.208 8.208v34.575c0 4.533-3.675 8.208-8.208 8.208h23.597c4.533 0 8.208-3.675 8.208-8.208v-34.575c0-4.533-3.675-8.208-8.208-8.208z"/><path d="m273.288 223.086h-23.598c4.533 0 8.208 3.675 8.208 8.208v34.575c0 4.533-3.675 8.208-8.208 8.208h23.598c4.533 0 8.208-3.675 8.208-8.208v-34.575c0-4.533-3.675-8.208-8.208-8.208z"/><path d="m188.303 223.086h-23.598c4.533 0 8.208 3.675 8.208 8.208v34.575c0 4.533-3.675 8.208-8.208 8.208h23.598c4.533 0 8.208-3.675 8.208-8.208v-34.575c-.001-4.533-3.676-8.208-8.208-8.208z"/><path d="m358.273 308.072h-23.597c4.533 0 8.208 3.675 8.208 8.208v34.575c0 4.533-3.675 8.208-8.208 8.208h23.597c4.533 0 8.208-3.675 8.208-8.208v-34.575c0-4.534-3.675-8.208-8.208-8.208z"/><path d="m273.288 308.072h-23.598c4.533 0 8.208 3.675 8.208 8.208v34.575c0 4.533-3.675 8.208-8.208 8.208h23.598c4.533 0 8.208-3.675 8.208-8.208v-34.575c0-4.534-3.675-8.208-8.208-8.208z"/><path d="m188.303 308.072h-23.598c4.533 0 8.208 3.675 8.208 8.208v34.575c0 4.533-3.675 8.208-8.208 8.208h23.598c4.533 0 8.208-3.675 8.208-8.208v-34.575c-.001-4.534-3.676-8.208-8.208-8.208z"/></g><g><ellipse cx="408.549" cy="102.407" fill="#dd646e" rx="102.407" ry="102.407" transform="matrix(.707 -.707 .707 .707 47.248 318.882)"/><path d="m408.549 0c-4.008 0-7.96.238-11.848.686 50.976 5.874 90.559 49.171 90.559 101.721s-39.584 95.847-90.559 101.721c3.888.448 7.84.686 11.848.686 56.558 0 102.407-45.849 102.407-102.407s-45.849-102.407-102.407-102.407z" fill="#db4955"/><g><g fill="#eef1f3"><path d="m374.413 93.066c13.672 0 24.794-11.123 24.794-24.795s-11.123-24.795-24.794-24.795c-13.672 0-24.795 11.123-24.795 24.795s11.123 24.795 24.795 24.795zm0-34.135c5.15 0 9.341 4.191 9.341 9.341 0 5.151-4.19 9.341-9.341 9.341s-9.341-4.19-9.341-9.341 4.19-9.341 9.341-9.341z"/><path d="m442.685 111.748c-13.672 0-24.796 11.123-24.796 24.794 0 13.672 11.124 24.795 24.796 24.795s24.795-11.123 24.795-24.795c-.001-13.671-11.123-24.794-24.795-24.794zm0 34.136c-5.151 0-9.342-4.19-9.342-9.341 0-5.15 4.19-9.341 9.342-9.341 5.15 0 9.341 4.19 9.341 9.341-.001 5.151-4.191 9.341-9.341 9.341z"/><path d="m465.217 45.74c-3.017-3.018-7.909-3.018-10.928 0l-102.408 102.407c-3.018 3.017-3.018 7.91 0 10.927 1.509 1.509 3.486 2.263 5.464 2.263 1.977 0 3.955-.755 5.464-2.263l102.408-102.407c3.017-3.017 3.017-7.91 0-10.927z"/></g></g></g></g></svg>