<svg id="Layer_1" enable-background="new 0 0 512 512" height="512" viewBox="0 0 512 512" width="512" xmlns="http://www.w3.org/2000/svg"><g><g><path d="m290.133 256v170.666c0 47.128 38.205 85.333 85.333 85.333h34.134c47.128 0 85.333-38.205 85.333-85.333v-170.666z" fill="#f4de7f"/><path d="m471.239 256v170.666c0 47.128-38.205 85.333-85.333 85.333h23.694c47.128 0 85.333-38.205 85.333-85.333v-170.666z" fill="#f0c078"/><path d="m460.8 256v170.666c0 28.232-22.968 51.2-51.2 51.2h-34.133c-28.232 0-51.2-22.968-51.2-51.2v-170.666z" fill="#d8b26a"/><path d="m437.106 256v170.666c0 28.232-22.968 51.2-51.2 51.2h23.694c28.232 0 51.2-22.968 51.2-51.2v-170.666z" fill="#b8985d"/><path d="m273.067 170.666v-36.411c0-17.87 2.877-35.616 8.526-52.57 1.165-3.495 2.416-7.251 3.732-11.202 20.278-60.873 90.685-88.589 147.013-57.864 49.107 26.786 79.662 78.256 79.662 134.194v23.853z" fill="#d8b26a"/><path d="m432.338 12.619c-19.55-10.664-40.796-14.281-61.053-11.922 12.678 1.48 25.339 5.366 37.359 11.922 49.108 26.786 79.662 78.256 79.662 134.194v23.853h23.694v-23.853c0-55.938-30.555-107.408-79.662-134.194z" fill="#b8985d"/><g><g><path d="m409.6 434.393h-34.134c-4.268 0-7.726-3.459-7.726-7.726 0-4.268 3.459-7.726 7.726-7.726h34.134c4.268 0 7.726 3.459 7.726 7.726.001 4.267-3.458 7.726-7.726 7.726z" fill="#b8985d"/></g></g><g><g><path d="m324.267 127.192c-4.268 0-7.726-3.459-7.726-7.726 0-4.268 3.459-7.726 7.726-7.726 23.972 0 43.474-19.502 43.474-43.474 0-4.268 3.459-7.726 7.726-7.726 4.268 0 7.726 3.459 7.726 7.726 0 32.492-26.435 58.926-58.926 58.926z" fill="#b8985d"/></g></g><path d="m512 187.733v-17.067c0-9.426-7.641-17.067-17.067-17.067h-204.8c-9.426 0-17.067 7.641-17.067 17.067v17.067l119.467 6.714z" fill="#f4de7f"/><path d="m273.067 238.927v17.073c0 9.426 7.641 17.067 17.067 17.067h204.8c9.426 0 17.067-7.641 17.067-17.067v-17.072l-119.467-8.682z" fill="#f4de7f"/><path d="m494.933 153.6h-23.694c9.426 0 17.067 7.641 17.067 17.066v18.398l23.694-1.331v-17.067c0-9.425-7.641-17.066-17.067-17.066z" fill="#f0c078"/><path d="m488.306 237.205v18.794c0 9.426-7.641 17.067-17.067 17.067h23.694c9.426 0 17.067-7.641 17.067-17.067v-17.073z" fill="#f0c078"/><path d="m273.067 187.733h238.933v51.2h-238.933z" fill="#d8b26a"/><path d="m488.306 187.733h23.694v51.2h-23.694z" fill="#b8985d"/></g><g><path d="m17.067 256v170.666c0 47.129 38.205 85.334 85.333 85.334h34.133c47.128 0 85.333-38.205 85.333-85.333v-170.667z" fill="#f4de7f"/><path d="m198.172 256v170.666c0 47.128-38.205 85.333-85.333 85.333h23.694c47.128 0 85.333-38.205 85.333-85.333v-170.666z" fill="#f0c078"/><path d="m187.733 256v170.666c0 28.232-22.968 51.2-51.2 51.2h-34.133c-28.232 0-51.2-22.968-51.2-51.2v-170.666z" fill="#d8b26a"/><path d="m164.039 256v170.666c0 28.232-22.968 51.2-51.2 51.2h23.694c28.232 0 51.2-22.968 51.2-51.2v-170.666z" fill="#b8985d"/><path d="m238.933 170.666v-36.411c0-17.87-2.877-35.616-8.526-52.57-1.165-3.495-2.416-7.251-3.732-11.202-20.278-60.873-90.685-88.589-147.013-57.864-49.107 26.786-79.662 78.256-79.662 134.194v23.853z" fill="#d8b26a"/><path d="m230.407 81.686c-1.165-3.495-2.416-7.251-3.732-11.202-15.95-47.884-62.919-75.242-109.653-69.788 38.108 4.438 72.72 30.042 85.96 69.787 1.316 3.952 2.568 7.707 3.732 11.202 5.648 16.954 8.526 34.7 8.526 52.57v36.411h23.694v-36.411c-.001-17.869-2.878-35.615-8.527-52.569z" fill="#b8985d"/><g><g><path d="m102.4 434.393h34.134c4.268 0 7.726-3.459 7.726-7.726 0-4.268-3.459-7.726-7.726-7.726h-34.134c-4.268 0-7.726 3.459-7.726 7.726-.001 4.267 3.458 7.726 7.726 7.726z" fill="#b8985d"/></g></g><g><g><path d="m187.733 127.192c4.268 0 7.726-3.459 7.726-7.726 0-4.268-3.459-7.726-7.726-7.726-23.972 0-43.474-19.502-43.474-43.474 0-4.268-3.459-7.726-7.726-7.726-4.268 0-7.726 3.459-7.726 7.726 0 32.492 26.435 58.926 58.926 58.926z" fill="#b8985d"/></g></g><path d="m238.933 187.733v-17.067c0-9.426-7.641-17.067-17.067-17.067h-204.8c-9.425.001-17.066 7.642-17.066 17.067v17.067l119.467 6.714z" fill="#f4de7f"/><path d="m0 238.927v17.073c0 9.426 7.641 17.067 17.067 17.067h204.8c9.426 0 17.067-7.641 17.067-17.067v-17.072l-119.467-8.682z" fill="#f4de7f"/><path d="m221.866 153.6h-23.694c9.426 0 17.067 7.641 17.067 17.066v18.398l23.694-1.332v-17.067c0-9.424-7.641-17.065-17.067-17.065z" fill="#f0c078"/><path d="m215.239 237.205v18.794c0 9.426-7.641 17.067-17.067 17.067h23.694c9.426 0 17.067-7.641 17.067-17.067v-17.073z" fill="#f0c078"/><path d="m0 187.733h238.933v51.2h-238.933z" fill="#d8b26a"/><path d="m215.239 187.733h23.694v51.2h-23.694z" fill="#b8985d"/></g><g><path d="m260.449 408.443-48.272 48.272c-6.665 6.665-17.471 6.665-24.136 0l-65.949-65.949c-4.035-4.035-5.786-9.82-4.667-15.415l8.045-40.226c1.351-6.756 6.632-12.037 13.388-13.388l40.226-8.045c5.596-1.119 11.38.632 15.415 4.667l65.949 65.949c6.666 6.664 6.666 17.47.001 24.135z" fill="#dd646e"/><g><path d="m166.922 395.051c-1.977 0-3.955-.755-5.464-2.263l-3.017-3.017c-3.017-3.017-3.017-7.91 0-10.927 3.018-3.017 7.909-3.017 10.928 0l3.017 3.017c3.017 3.017 3.017 7.91 0 10.927-1.509 1.508-3.487 2.263-5.464 2.263z" fill="#eef1f3"/></g><g><path d="m224.245 404.102c-1.977 0-3.955-.755-5.464-2.263l-3.017-3.017c-3.017-3.017-3.017-7.909 0-10.926 3.018-3.017 7.909-3.017 10.927 0l3.017 3.017c3.017 3.017 3.017 7.909 0 10.927-1.508 1.507-3.486 2.262-5.463 2.262z" fill="#eef1f3"/></g><g><path d="m200.101 428.239c-3.608 0-6.834-2.54-7.568-6.213l-12.069-60.34c-.837-4.184 1.877-8.254 6.061-9.091 4.184-.834 8.255 1.877 9.092 6.061l12.068 60.339c.837 4.184-1.877 8.255-6.061 9.092-.511.102-1.021.152-1.523.152z" fill="#eef1f3"/></g><g><g><path d="m151.837 355.83c-1.977 0-3.955-.754-5.464-2.263l-75.557-75.557c-3.017-3.017-3.017-7.909 0-10.927 3.018-3.017 7.91-3.017 10.928 0l75.557 75.557c3.017 3.017 3.017 7.909 0 10.926-1.509 1.51-3.487 2.264-5.464 2.264z" fill="#eef1f3"/></g></g><path d="m260.448 384.307-65.948-65.949c-4.035-4.035-9.82-5.786-15.415-4.667l-11.314 2.263c1.087.678 2.109 1.478 3.035 2.404l65.949 65.949c6.665 6.665 6.665 17.471 0 24.136l-48.272 48.272c-.071.071-.149.13-.221.2 6.68 6.453 17.321 6.394 23.915-.2l48.271-48.272c6.666-6.665 6.666-17.471 0-24.136z" fill="#db4955"/></g></g></svg>