<svg id="Layer_1" enable-background="new 0 0 512 512" height="512" viewBox="0 0 512 512" width="512" xmlns="http://www.w3.org/2000/svg"><g><g><path d="m461.772 187.731h-43.948c-4.551 0-8.241 3.69-8.241 8.241v298.945c0 9.425-7.641 17.066-17.066 17.066h-273.055c-9.425 0-17.066-7.641-17.066-17.066v-298.945c0-4.551-3.69-8.241-8.241-8.241h-43.949l-25.103-63.997 6.818-63.991 140.882-36.437h166.371l87.474 22.62 53.409 13.818 8.463 64.246z" fill="#dd646e"/><path d="m496.914 180.655 14.977-104.841c.614-4.298-2.097-8.371-6.298-9.465l-25.538-6.607-18.284 127.988h26.984c4.102.001 7.579-3.015 8.159-7.075z" fill="#eef1f3"/><g><g><g><path d="m385.889 195.972v298.945c0 9.425-7.641 17.066-17.066 17.066h23.693c9.425 0 17.066-7.641 17.066-17.066v-298.945c0-4.551 3.69-8.241 8.241-8.241h-23.693c-4.551 0-8.241 3.69-8.241 8.241z" fill="#db4955"/></g><path d="m505.593 66.35-23.693-6.103c4.201 1.094 6.912 5.167 6.298 9.465l-14.977 110.944c-.58 4.06-4.057 7.076-8.158 7.076h23.693c4.101 0 7.578-3.016 8.158-7.076l14.977-104.841c.614-4.298-2.096-8.372-6.298-9.465z" fill="#cadae6"/></g></g><path d="m102.396 470.125h307.187v15.452h-307.187z" fill="#db4955"/><path d="m.086 75.814 14.977 104.841c.58 4.06 4.057 7.076 8.158 7.076h26.984l-18.282-127.989-25.538 6.608c-4.202 1.093-6.912 5.167-6.299 9.464z" fill="#eef1f3"/><g><g><g><path d="m94.155 187.731c3.549 0 6.566 2.248 7.726 5.395v-35.413c0-37.462-5.507-74.637-16.367-110.488l-.379-1.25-14.972 3.874.562 1.855c10.42 34.399 15.703 70.065 15.703 106.009v30.018z" fill="#db4955"/></g><g><path d="m426.806 45.966-.415 1.374c-10.811 35.778-16.294 72.87-16.294 110.246v35.54c1.16-3.147 4.176-5.395 7.726-5.395h7.726v-30.145c0-35.861 5.26-71.449 15.633-105.776l.595-1.971z" fill="#db4955"/></g></g></g><g><path d="m290.119 202.084v41.965c0 2.997 1.573 5.775 4.143 7.316l34.13 20.478c2.702 1.621 6.078 1.621 8.78 0l34.13-20.478c2.57-1.542 4.143-4.32 4.143-7.316v-41.965z" fill="#db4955"/><path d="m366.913 170.668h-68.26c-4.712 0-8.533 3.82-8.533 8.533v25.598h85.326v-25.598c-.001-4.712-3.821-8.533-8.533-8.533z" fill="#eef1f3"/></g><g><path d="m255.989 147.087c-.765-.351-1.428-.928-1.863-1.698-2.917-5.162-8.452-8.647-14.805-8.647s-11.888 3.485-14.804 8.647c-.924 1.636-2.859 2.437-4.669 1.934-5.712-1.588-12.091-.138-16.583 4.354s-5.941 10.87-4.354 16.583c.503 1.81-.298 3.745-1.934 4.67-5.162 2.917-8.648 8.452-8.648 14.804s3.486 11.888 8.648 14.804c1.636.924 2.437 2.859 1.934 4.67-1.588 5.712-.138 12.091 4.354 16.583s10.87 5.941 16.583 4.354c1.81-.503 3.745.298 4.669 1.934 2.917 5.162 8.452 8.647 14.804 8.647s11.888-3.485 14.805-8.647c.435-.77 1.099-1.347 1.863-1.698z" fill="#eef1f3"/><ellipse cx="239.321" cy="187.734" fill="#f4de7f" rx="16.997" ry="16.997" transform="matrix(.23 -.973 .973 .23 1.625 377.52)"/></g><g><g fill="#eef1f3"><path d="m170.663 265.334h-17.066c-4.267 0-7.726 3.458-7.726 7.726 0 4.267 3.459 7.726 7.726 7.726h17.066c4.267 0 7.726-3.459 7.726-7.726s-3.459-7.726-7.726-7.726z"/><path d="m221.462 367.725h-17.066c-4.267 0-7.726 3.459-7.726 7.726s3.459 7.726 7.726 7.726h17.066c4.267 0 7.726-3.458 7.726-7.726 0-4.267-3.459-7.726-7.726-7.726z"/><path d="m169.856 102.408c0-4.268-3.459-7.726-7.726-7.726h-17.065c-4.267 0-7.726 3.459-7.726 7.726s3.459 7.726 7.726 7.726h17.065c4.268 0 7.726-3.459 7.726-7.726z"/><path d="m307.184 435.986h-17.064c-4.267 0-7.726 3.459-7.726 7.726s3.459 7.726 7.726 7.726h17.065c4.267 0 7.726-3.459 7.726-7.726-.001-4.268-3.459-7.726-7.727-7.726z"/></g></g><g><path d="m340.996 326.516c-1.636-.924-2.437-2.859-1.934-4.67 1.588-5.712.138-12.091-4.354-16.583-4.491-4.491-10.87-5.941-16.583-4.354-1.81.503-3.745-.298-4.67-1.934-2.916-5.162-8.452-8.647-14.804-8.647s-11.888 3.485-14.805 8.647c-.924 1.636-2.859 2.437-4.669 1.934-5.712-1.588-12.091-.138-16.583 4.354-4.491 4.492-5.941 10.871-4.353 16.583.503 1.811-.298 3.745-1.934 4.67-.108.061-.212.13-.318.194v29.221c.107.063.21.133.318.194 1.636.924 2.437 2.859 1.934 4.67-1.588 5.712-.138 12.091 4.353 16.583 4.492 4.492 10.871 5.941 16.583 4.354 1.81-.503 3.745.298 4.669 1.934 2.917 5.162 8.452 8.647 14.805 8.647 6.352 0 11.887-3.485 14.804-8.647.924-1.636 2.859-2.437 4.67-1.934 5.712 1.588 12.091.138 16.583-4.354s5.941-10.871 4.354-16.583c-.503-1.81.298-3.745 1.934-4.67 5.162-2.917 8.648-8.452 8.648-14.804 0-6.353-3.486-11.888-8.648-14.805z" fill="#eef1f3"/><path d="m340.996 326.516c-1.636-.924-2.437-2.859-1.934-4.669 1.588-5.712.138-12.091-4.354-16.583s-10.87-5.941-16.583-4.354c-1.81.503-3.745-.298-4.67-1.934-2.917-5.162-8.452-8.647-14.804-8.647-4.697 0-8.945 1.91-12.02 4.99 1.083 1.085 2.024 2.312 2.784 3.657.924 1.636 2.859 2.437 4.669 1.934 5.713-1.588 12.091-.138 16.583 4.354s5.941 10.871 4.354 16.583c-.503 1.81.298 3.745 1.934 4.669 5.162 2.917 8.648 8.452 8.648 14.804s-3.486 11.888-8.648 14.804c-1.636.924-2.437 2.859-1.934 4.669 1.588 5.712.138 12.091-4.354 16.583s-10.87 5.941-16.583 4.354c-1.811-.503-3.745.298-4.67 1.934-.76 1.345-1.701 2.572-2.784 3.657 3.076 3.081 7.323 4.99 12.02 4.99 6.352 0 11.888-3.485 14.804-8.647.924-1.636 2.859-2.437 4.67-1.934 5.712 1.588 12.091.138 16.583-4.354s5.941-10.871 4.354-16.583c-.503-1.81.298-3.745 1.934-4.669 5.162-2.917 8.647-8.452 8.647-14.804.002-6.352-3.484-11.887-8.646-14.804z" fill="#cadae6"/><ellipse cx="298.652" cy="341.32" fill="#f4de7f" rx="16.997" ry="16.997" transform="matrix(.707 -.707 .707 .707 -153.877 311.149)"/></g><path d="m263.715 511.972v-426.629c0-4.268-3.459-7.726-7.726-7.726-4.268 0-7.726 3.459-7.726 7.726v426.629.011h15.451z" fill="#db4955"/><path d="m297.814 85.343h-81.227l-20.326-85.326h119.456z" fill="#db4955"/><path d="m196.261.017-20.122 13.414c-3.227 2.151-4.597 6.207-3.336 9.875l29.132 84.708c1.809 5.26 8.087 7.411 12.741 4.365l41.312-27.035z" fill="#eef1f3"/><path d="m315.717.017 20.122 13.414c3.227 2.151 4.597 6.207 3.336 9.875l-29.132 84.708c-1.809 5.26-8.087 7.411-12.741 4.365l-41.312-27.035z" fill="#eef1f3"/><g><path d="m161.414 377.712c-1.636-.924-2.437-2.859-1.934-4.669 1.588-5.712.138-12.091-4.354-16.583s-10.87-5.941-16.583-4.354c-1.811.503-3.745-.298-4.67-1.934-2.917-5.162-8.452-8.647-14.804-8.647s-11.888 3.486-14.804 8.647c-.437.773-1.103 1.35-1.87 1.701v81.286c.768.351 1.434.929 1.87 1.701 2.917 5.162 8.452 8.647 14.804 8.647s11.888-3.486 14.804-8.647c.924-1.636 2.859-2.438 4.67-1.934 5.712 1.588 12.091.138 16.583-4.354 4.492-4.491 5.941-10.87 4.354-16.583-.503-1.81.298-3.745 1.934-4.669 5.162-2.917 8.647-8.453 8.647-14.804.001-6.352-3.485-11.888-8.647-14.804z" fill="#eef1f3"/><path d="m161.414 377.712c-1.636-.924-2.437-2.859-1.934-4.669 1.588-5.712.138-12.091-4.353-16.583-4.492-4.491-10.87-5.941-16.583-4.354-1.81.503-3.745-.298-4.669-1.934-2.917-5.162-8.452-8.647-14.804-8.647-4.697 0-8.945 1.91-12.02 4.99 1.084 1.085 2.024 2.312 2.784 3.657.924 1.636 2.859 2.437 4.669 1.934 5.713-1.588 12.092-.138 16.583 4.354 4.492 4.492 5.941 10.871 4.353 16.583-.503 1.81.298 3.745 1.934 4.669 5.162 2.917 8.647 8.452 8.647 14.804s-3.486 11.888-8.647 14.804c-1.636.924-2.437 2.859-1.934 4.669 1.588 5.712.138 12.091-4.353 16.583-4.492 4.492-10.87 5.941-16.583 4.354-1.811-.503-3.745.298-4.67 1.934-.76 1.345-1.701 2.572-2.784 3.657 3.076 3.08 7.323 4.99 12.02 4.99 6.352 0 11.888-3.486 14.804-8.647.924-1.636 2.859-2.437 4.67-1.934 5.712 1.588 12.091.138 16.583-4.354s5.941-10.87 4.353-16.583c-.503-1.81.298-3.745 1.934-4.669 5.162-2.917 8.647-8.452 8.647-14.804.001-6.352-3.485-11.888-8.647-14.804z" fill="#cadae6"/><ellipse cx="119.07" cy="392.516" fill="#f4de7f" rx="16.997" ry="16.997" transform="matrix(.23 -.973 .973 .23 -290.302 418.219)"/></g></g><g><path d="m507.001 390.404-48.27 48.27c-6.665 6.665-17.47 6.665-24.135 0l-65.946-65.946c-4.035-4.035-5.786-9.819-4.667-15.414l8.045-40.225c1.351-6.756 6.632-12.036 13.388-13.388l40.225-8.045c5.595-1.119 11.379.632 15.414 4.667l65.946 65.946c6.665 6.665 6.665 17.47 0 24.135z" fill="#b3e59f"/><g><path d="m413.479 377.012c-1.977 0-3.955-.755-5.464-2.263l-3.017-3.017c-3.017-3.017-3.017-7.909 0-10.926 3.018-3.017 7.909-3.017 10.927 0l3.017 3.017c3.017 3.017 3.017 7.909 0 10.926-1.509 1.509-3.486 2.263-5.463 2.263z" fill="#eff6ff"/></g><g><path d="m470.799 386.063c-1.977 0-3.954-.755-5.464-2.263l-3.017-3.017c-3.017-3.017-3.017-7.909 0-10.926 3.018-3.017 7.909-3.017 10.927 0l3.017 3.017c3.017 3.017 3.017 7.909 0 10.926-1.508 1.508-3.486 2.263-5.463 2.263z" fill="#eff6ff"/></g><g><path d="m446.656 410.199c-3.607 0-6.834-2.54-7.568-6.213l-12.068-60.337c-.837-4.184 1.877-8.254 6.061-9.091 4.184-.834 8.254 1.877 9.091 6.061l12.068 60.337c.837 4.184-1.877 8.254-6.061 9.091-.511.103-1.021.152-1.523.152z" fill="#eff6ff"/></g><g><path d="m398.395 337.793c-1.977 0-3.955-.754-5.464-2.263l-58.309-58.309c-3.017-3.017-3.017-7.909 0-10.926 3.018-3.017 7.909-3.017 10.927 0l58.309 58.309c3.017 3.017 3.017 7.909 0 10.926-1.509 1.509-3.486 2.263-5.463 2.263z" fill="#eff6ff"/></g><path d="m507.001 366.269-65.946-65.946c-4.035-4.035-9.819-5.786-15.415-4.667l-11.314 2.263c1.087.679 2.109 1.478 3.035 2.404l65.946 65.946c6.665 6.665 6.665 17.47 0 24.135l-48.27 48.27c-.071.071-.149.13-.221.2 6.68 6.453 17.32 6.394 23.914-.2l48.27-48.27c6.666-6.665 6.666-17.47.001-24.135z" fill="#95d6a4"/></g></g></svg>