<svg id="Layer_1" enable-background="new 0 0 512 512" height="512" viewBox="0 0 512 512" width="512" xmlns="http://www.w3.org/2000/svg"><g><g><path d="m506.582 410.356-23.593-238.705c-3.589-35.162-11.039-69.824-22.217-103.358v-6.482h-409.544v6.482c-11.341 34.022-18.844 69.205-22.371 104.893l-23.461 237.379 107.925 50.7 113.321-17.556 11.617-129.013c.383-4.248 3.943-7.502 8.208-7.502h19.063c4.265 0 7.826 3.254 8.208 7.502l11.617 129.019 113.321 17.446z" fill="#f4de7f"/><path d="m483.586 421.181 22.996-10.829-23.593-238.702c-3.589-35.162-11.039-69.824-22.217-103.358v-6.482h-23.694v6.482c11.178 33.534 18.628 68.196 22.217 103.358z" fill="#f0c078"/><g><path d="m410.221 135.875c-2.506 0-4.965-1.217-6.451-3.465-12.418-18.77-18.982-40.942-18.982-64.118 0-4.268 3.459-7.726 7.726-7.726 4.268 0 7.726 3.459 7.726 7.726 0 20.135 5.677 39.358 16.417 55.592 2.354 3.558 1.378 8.352-2.181 10.706-1.311.87-2.791 1.285-4.255 1.285z" fill="#f0c078"/></g><path d="m111.759 68.293c0 50.75-35.814 92.002-81.751 94.516-.417 3.455-.809 6.913-1.151 10.378l-.505 5.112c.251.025.505.037.762.037.104 0 .208-.002.313-.006 26.453-1.053 51.132-13.049 69.491-33.779 18.246-20.6 28.294-47.682 28.294-76.258 0-2.719-1.407-5.105-3.53-6.482h-8.393c-2.124 1.377-3.53 3.763-3.53 6.482z" fill="#f0c078"/><path d="m460.772 68.292h-409.544v-52.257c0-8.836 7.164-16 16-16h377.544c8.837 0 16 7.163 16 16z" fill="#e8aa41"/><path d="m444.289.035h-23.694c9.103 0 16.483 7.38 16.483 16.483v51.774h23.694v-51.774c0-9.103-7.38-16.483-16.483-16.483z" fill="#e88f41"/><path d="m77.631.035h15.453v68.257h-15.453z" fill="#eef1f3"/><path d="m418.917.035h15.453v68.257h-15.453z" fill="#eef1f3"/><g><g><g><path d="m238.936 41.89h-17.064c-4.268 0-7.726-3.459-7.726-7.726s3.459-7.726 7.726-7.726h17.064c4.268 0 7.726 3.459 7.726 7.726s-3.459 7.726-7.726 7.726z" fill="#7e707d"/></g><g><path d="m290.129 41.89h-17.064c-4.268 0-7.726-3.459-7.726-7.726s3.459-7.726 7.726-7.726h17.064c4.268 0 7.726 3.459 7.726 7.726s-3.459 7.726-7.726 7.726z" fill="#7e707d"/></g></g></g><g><path d="m204.816 195.47c-.421 0-.849-.034-1.28-.107-4.208-.701-7.052-4.682-6.35-8.891l25.596-153.583c.702-4.208 4.674-7.052 8.892-6.351 4.208.702 7.052 4.683 6.351 8.892l-25.598 153.583c-.629 3.779-3.902 6.457-7.611 6.457z" fill="#cadae6"/></g><g><path d="m307.184 195.47c-3.709 0-6.982-2.678-7.612-6.457l-25.597-153.578c-.701-4.209 2.143-8.19 6.351-8.892 4.223-.703 8.189 2.143 8.892 6.351l25.596 153.578c.702 4.209-2.142 8.19-6.35 8.891-.431.073-.858.107-1.28.107z" fill="#cadae6"/></g><ellipse cx="204.807" cy="204.807" fill="#eef1f3" rx="17.064" ry="17.064" transform="matrix(.924 -.383 .383 .924 -62.786 93.966)"/><ellipse cx="307.193" cy="204.807" fill="#eef1f3" rx="17.064" ry="17.064" transform="matrix(.924 -.383 .383 .924 -54.993 133.148)"/><path d="m348.818 295.982c-1.035-4.139-5.232-6.655-9.37-5.622l-68.258 17.064c-.652.163-1.258.412-1.823.72 2.4 1.265 4.114 3.678 4.372 6.551l.704 7.813c.165-.03.33-.051.495-.092l68.258-17.064c4.14-1.034 6.656-5.23 5.622-9.37z" fill="#f0c078"/><path d="m242.633 308.145c-.564-.308-1.171-.557-1.823-.72l-68.258-17.064c-4.14-1.033-8.334 1.483-9.37 5.622-1.034 4.14 1.482 8.335 5.622 9.37l68.258 17.064c.165.041.33.062.495.092l.703-7.813c.259-2.873 1.973-5.286 4.373-6.551z" fill="#f0c078"/><path d="m511.922 464.382-5.34-54.026-221.226 33.352 4.737 52.607c.822 9.857 9.824 16.953 19.6 15.449l187.836-28.898c8.937-1.375 15.25-9.482 14.393-18.484z" fill="#e8aa41"/><path d="m221.906 496.315 4.737-52.607-221.231-33.143-5.334 53.817c-.857 9.001 5.456 17.109 14.393 18.484l187.836 28.898c9.775 1.504 18.778-5.592 19.599-15.449z" fill="#e8aa41"/><path d="m506.582 410.356-23.702 3.573 5.348 54.932c.685 7.194-3.216 13.806-9.37 16.877l18.671-2.872c8.937-1.375 15.25-9.482 14.392-18.484z" fill="#e88f41"/></g><g><path d="m507.001 219.794-48.272 48.272c-6.665 6.665-17.471 6.665-24.136 0l-65.949-65.949c-4.035-4.035-5.786-9.82-4.667-15.415l8.045-40.227c1.351-6.756 6.632-12.037 13.388-13.388l40.227-8.045c5.595-1.119 11.38.632 15.415 4.667l65.949 65.949c6.665 6.665 6.665 17.471 0 24.136z" fill="#dd646e"/><g><g><path d="m413.474 206.401c-1.977 0-3.955-.755-5.464-2.263l-3.017-3.017c-3.017-3.017-3.017-7.909 0-10.926 3.018-3.017 7.909-3.017 10.927 0l3.017 3.017c3.017 3.017 3.017 7.909 0 10.926-1.508 1.509-3.486 2.263-5.463 2.263z" fill="#eef1f3"/></g></g><g><g><path d="m470.797 215.452c-1.977 0-3.955-.755-5.464-2.263l-3.017-3.017c-3.017-3.017-3.017-7.91 0-10.927 3.018-3.017 7.91-3.017 10.928 0l3.017 3.017c3.017 3.017 3.017 7.91 0 10.927-1.509 1.509-3.487 2.263-5.464 2.263z" fill="#eef1f3"/></g></g><g><g><path d="m446.654 239.59c-3.608 0-6.834-2.54-7.568-6.213l-12.068-60.34c-.837-4.184 1.877-8.255 6.061-9.091 4.184-.834 8.255 1.877 9.092 6.061l12.068 60.34c.837 4.184-1.877 8.255-6.061 9.091-.512.102-1.022.152-1.524.152z" fill="#eef1f3"/></g></g><g><path d="m398.39 167.181c-1.977 0-3.955-.755-5.464-2.263l-90.065-90.065c-3.017-3.017-3.017-7.91 0-10.927 3.018-3.017 7.909-3.017 10.928 0l90.066 90.066c3.017 3.017 3.017 7.91 0 10.927-1.51 1.507-3.488 2.262-5.465 2.262z" fill="#eef1f3"/></g><path d="m507.001 195.658-65.949-65.949c-4.035-4.035-9.82-5.786-15.415-4.667l-11.314 2.263c1.087.679 2.109 1.478 3.035 2.404l65.949 65.949c6.665 6.665 6.665 17.471 0 24.136l-48.272 48.272c-.071.071-.149.13-.221.2 6.68 6.454 17.321 6.394 23.915-.2l48.272-48.272c6.665-6.665 6.665-17.471 0-24.136z" fill="#db4955"/></g></g></svg>