<svg id="Layer_1" enable-background="new 0 0 512 512" height="512" viewBox="0 0 512 512" width="512" xmlns="http://www.w3.org/2000/svg"><g><path d="m273.067 51.822h-34.134c-119.276 8.734-213.333 108.272-213.333 229.778 0 127.246 103.154 230.4 230.4 230.4s230.4-103.154 230.4-230.4c0-121.506-94.056-221.044-213.333-229.778zm-17.067 152.978c-32.99 0-59.733-26.744-59.733-59.733 0-27.059 17.992-49.916 42.666-57.259l34.133-.001c24.675 7.343 42.668 30.2 42.668 57.26-.001 32.989-26.744 59.733-59.734 59.733z" fill="#e8aa41"/><path d="m273.067 51.822h-23.694c119.276 8.734 213.333 108.272 213.333 229.778 0 123.273-96.812 223.934-218.553 230.101 3.924.198 7.874.299 11.847.299 127.246 0 230.4-103.154 230.4-230.4 0-121.506-94.056-221.044-213.333-229.778z" fill="#e88f41"/><g><g><g><path d="m213.644 308.871c1.218 3.627 4.598 6.055 8.42 6.055h.044c3.84-.019 7.218-2.486 8.405-6.139.029-.089.056-.179.082-.27l6.547-22.967 4.338 22.699c.801 4.192 4.85 6.953 9.039 6.138 4.192-.801 6.94-4.848 6.139-9.039l-9.55-49.967c-.805-3.95-4.178-6.867-8.203-7.094-4.018-.203-7.705 2.292-8.95 6.126-.029.089-.056.178-.082.269l-7.918 27.775-8.217-27.851c-.027-.092-.056-.183-.086-.274-1.284-3.823-4.986-6.309-9.015-6.035-4.023.269-7.366 3.222-8.146 7.272l-8.999 49.859c-.758 4.199 2.032 8.218 6.231 8.976 4.2.753 8.218-2.031 8.976-6.231l4.073-22.567 6.784 22.993c.029.09.058.182.088.272z" fill="#f4de7f"/></g><g><path d="m336.506 314.388c4.192-.801 6.94-4.848 6.139-9.039l-9.55-49.967c-.805-3.95-4.178-6.867-8.203-7.094-4.016-.203-7.705 2.292-8.95 6.126-.029.089-.056.178-.082.269l-7.918 27.775-8.217-27.851c-.027-.092-.056-.183-.086-.274-1.284-3.823-4.997-6.303-9.016-6.035-4.024.27-7.366 3.224-8.144 7.272l-9 49.859c-.758 4.199 2.032 8.217 6.231 8.976 4.193.753 8.218-2.031 8.976-6.231l4.073-22.567 6.784 22.993c.027.092.056.183.086.274 1.218 3.627 4.598 6.055 8.42 6.055h.047c3.841-.02 7.218-2.488 8.403-6.142.029-.087.056-.177.081-.267l6.547-22.967 4.338 22.699c.802 4.191 4.85 6.951 9.041 6.136z" fill="#f4de7f"/></g><g><path d="m388.475 264.194c4.267 0 7.726-3.459 7.726-7.726s-3.459-7.726-7.726-7.726h-21.377c-4.267 0-7.726 3.459-7.726 7.726v50.732c0 4.268 3.459 7.726 7.726 7.726h21.377c4.267 0 7.726-3.459 7.726-7.726s-3.459-7.726-7.726-7.726h-13.65v-9.913h12.074c4.267 0 7.726-3.459 7.726-7.726 0-4.268-3.459-7.726-7.726-7.726h-12.074v-9.913h13.65z" fill="#f4de7f"/></g><g><path d="m88.761 274.756c-6.056-2.235-11.712-4.663-13.684-5.524-.717-.664-.726-1.521-.656-2.008.094-.652.587-2.251 3.142-3.021 6.493-1.96 12.649 2.841 12.87 3.016 3.265 2.699 8.104 2.267 10.837-.983 2.746-3.267 2.324-8.14-.942-10.886-.505-.424-12.554-10.357-27.222-5.944-7.568 2.281-12.925 8.267-13.981 15.622-.995 6.934 2.012 13.605 7.847 17.409.342.222.7.417 1.072.583.298.133 7.388 3.289 15.369 6.232 3.105 1.146 6.277 3.19 5.866 5.493-.34 1.907-3.004 4.728-7.638 4.728-4.721 0-9.251-1.888-12.117-5.051-2.865-3.162-7.751-3.402-10.914-.537-3.161 2.866-3.402 7.751-.537 10.913 5.833 6.437 14.423 10.128 23.567 10.128 11.434 0 21.044-7.345 22.851-17.465 1.37-7.666-2.043-17.658-15.73-22.705z" fill="#f4de7f"/></g><g><g><path d="m442.295 288.796c7.982-3.124 13.632-10.677 13.632-19.49 0-11.598-9.773-21.032-21.786-21.032h-13.606c-.003 0-.005.001-.008.001s-.005-.001-.008-.001c-4.267 0-7.726 3.459-7.726 7.726v51.2c0 4.268 3.459 7.726 7.726 7.726s7.726-3.459 7.726-7.726v-10.979l14.156 16.083c1.527 1.735 3.659 2.622 5.803 2.622 1.813 0 3.634-.635 5.102-1.927 3.203-2.819 3.515-7.701.695-10.904zm-8.154-25.07c3.432 0 6.333 2.555 6.333 5.579 0 3.025-2.9 5.581-6.333 5.581-1.394 0-3.598.008-5.827.018-.01-2.152-.018-4.264-.018-5.599 0-1.147-.005-3.317-.011-5.579z" fill="#f4de7f"/></g></g><g><path d="m144.877 314.927c4.263 0 8.27-.93 11.907-2.762 8.964-4.515 13.9-11.962 13.9-20.971v-35.194c0-4.268-3.459-7.726-7.726-7.726s-7.726 3.459-7.726 7.726v35.194c0 2.201-.641 4.774-5.399 7.17-1.482.747-3.104 1.11-4.955 1.11-.006 0-.012 0-.017 0-2-.003-3.729-.488-5.287-1.484-3.719-2.375-4.466-4.347-4.466-6.759v-35.231c0-4.268-3.459-7.726-7.726-7.726s-7.726 3.459-7.726 7.726v35.231c0 8.208 3.902 14.863 11.598 19.781 4.055 2.591 8.627 3.908 13.589 3.915z" fill="#f4de7f"/></g><g><g><path d="m244.483 339.324c-.027-.07-.055-.141-.083-.211-1.377-3.346-4.602-5.506-8.219-5.506-.003 0-.007 0-.01 0-3.621.004-6.846 2.172-8.216 5.523-.024.059-.047.117-.069.175l-19.225 50.479c-1.519 3.987.482 8.451 4.47 9.97 3.99 1.517 8.452-.482 9.97-4.471l2.893-7.594h20.224l2.858 7.573c1.168 3.094 4.108 5 7.23 5 .906 0 1.828-.161 2.726-.5 3.992-1.506 6.008-5.964 4.501-9.957zm-12.604 32.911 4.273-11.219 4.234 11.219z" fill="#dd646e"/></g></g><g><path d="m306.319 384.764c-.014 0-.03 0-.044 0-3.456.019-7.097.034-10.159.04v-43.471c0-4.268-3.459-7.726-7.726-7.726s-7.726 3.459-7.726 7.726v51.157c0 3.761 2.708 6.975 6.413 7.614.557.097.926.16 6.671.16 2.759 0 6.759-.014 12.614-.047 4.267-.024 7.707-3.503 7.683-7.77-.025-4.253-3.479-7.683-7.726-7.683z" fill="#dd646e"/></g><g><path d="m359.744 349.527c4.267 0 7.726-3.459 7.726-7.726 0-4.268-3.459-7.726-7.726-7.726h-21.377c-4.267 0-7.726 3.459-7.726 7.726v50.732c0 4.268 3.459 7.726 7.726 7.726h21.377c4.267 0 7.726-3.459 7.726-7.726s-3.459-7.726-7.726-7.726h-13.65v-9.913h12.074c4.267 0 7.726-3.459 7.726-7.726 0-4.268-3.459-7.726-7.726-7.726h-12.074v-9.914h13.65z" fill="#dd646e"/></g><g><path d="m177.218 360.089c-6.056-2.234-11.712-4.663-13.684-5.524-.717-.664-.726-1.52-.656-2.008.094-.652.587-2.25 3.142-3.02 6.496-1.963 12.653 2.843 12.87 3.016 3.266 2.698 8.105 2.266 10.837-.984 2.745-3.267 2.323-8.141-.943-10.886-.505-.424-12.554-10.356-27.221-5.943-7.568 2.281-12.925 8.267-13.981 15.622-.995 6.933 2.012 13.604 7.848 17.408.342.222.7.418 1.072.583.298.133 7.388 3.289 15.369 6.232 3.105 1.146 6.277 3.19 5.866 5.493-.341 1.907-3.004 4.728-7.638 4.728-4.721 0-9.25-1.888-12.117-5.051-2.865-3.162-7.751-3.403-10.914-.537-3.161 2.866-3.402 7.751-.537 10.913 5.833 6.437 14.423 10.128 23.567 10.128 11.434 0 21.044-7.345 22.851-17.465 1.368-7.666-2.045-17.658-15.731-22.705z" fill="#dd646e"/></g></g></g><path d="m238.933 153.6c0 9.426 7.641 17.067 17.067 17.067s17.067-7.641 17.067-17.067v-136.533c0-9.426-7.641-17.067-17.067-17.067s-17.067 7.641-17.067 17.067z" fill="#eef1f3"/><g><g><path d="m119.467 374.66h-17.067c-4.267 0-7.726-3.459-7.726-7.726s3.459-7.726 7.726-7.726h17.067c4.267 0 7.726 3.459 7.726 7.726s-3.459 7.726-7.726 7.726z" fill="#eef1f3"/></g></g><g><path d="m409.6 374.893h-17.067c-4.267 0-7.726-3.459-7.726-7.726 0-4.268 3.459-7.726 7.726-7.726h17.067c4.267 0 7.726 3.459 7.726 7.726.001 4.268-3.459 7.726-7.726 7.726z" fill="#eef1f3"/></g><path d="m238.933 111.74h34.133v15.453h-34.133z" fill="#cadae6"/></g></svg>