<svg id="Layer_1" enable-background="new 0 0 512 512" height="512" viewBox="0 0 512 512" width="512" xmlns="http://www.w3.org/2000/svg"><g><g><g><g><path d="m91.677 435.549c-3.41 0-6.514-2.309-7.378-5.767l-8.097-32.388c-1.02-4.078 1.46-8.211 5.538-9.231 4.077-1.019 8.211 1.461 9.23 5.538l8.097 32.389c1.02 4.078-1.46 8.211-5.538 9.231-.619.153-1.241.228-1.852.228z" fill="#dd646e"/></g></g><g><path d="m310.258 435.549c-.612 0-1.232-.074-1.852-.229-4.078-1.02-6.558-5.153-5.538-9.231l8.097-32.389c1.019-4.077 5.156-6.55 9.23-5.538 4.078 1.02 6.558 5.153 5.538 9.231l-8.097 32.388c-.864 3.459-3.968 5.768-7.378 5.768z" fill="#dd646e"/></g><g><g><path d="m184.149 82.478c-1.144 0-2.305-.259-3.398-.806-3.76-1.879-5.284-6.452-3.404-10.211l16.813-33.628c1.88-3.761 6.449-5.287 10.212-3.404 3.76 1.879 5.284 6.452 3.404 10.211l-16.813 33.628c-1.334 2.668-4.022 4.21-6.814 4.21z" fill="#dd646e"/></g></g><g><g><path d="m217.787 82.478c-2.792 0-5.48-1.542-6.814-4.21l-16.813-33.628c-1.88-3.759-.355-8.332 3.404-10.211 3.761-1.879 8.332-.357 10.212 3.404l16.813 33.628c1.88 3.759.355 8.332-3.404 10.211-1.093.546-2.255.806-3.398.806z" fill="#dd646e"/></g></g><g><g><path d="m103.02 186.737c-.696 0-1.404-.096-2.106-.298-4.04-1.162-6.374-5.378-5.213-9.418l5.437-18.916c15.359-61.985 52.166-124.481 99.829-124.481 47.681 0 84.497 62.54 99.845 124.548l5.087 18.981c1.088 4.061-1.322 8.234-5.382 9.322-4.062 1.089-8.234-1.321-9.323-5.382l-5.106-19.052c-.012-.048-.025-.095-.037-.143-16.459-66.563-51.447-113.051-85.085-113.051-33.637 0-68.626 46.489-85.085 113.051-.023.092-.047.183-.074.275l-5.477 19.053c-.958 3.338-4.002 5.511-7.31 5.511z" fill="#db4955"/></g></g><path d="m76.376 394.721c57.769 4.817 103.683 51.359 107.519 109.402.293 4.427 3.944 7.877 8.381 7.877h17.383c4.436 0 8.088-3.451 8.381-7.877 3.836-58.042 49.75-104.584 107.519-109.402 5.147-.429 8.667-5.394 7.414-10.405l-5.908-23.633h-252.195l-5.908 23.633c-1.252 5.011 2.267 9.976 7.414 10.405z" fill="#dd646e"/><path d="m332.973 384.316-5.908-23.633h-23.342l5.908 23.633c1.253 5.011-2.267 9.976-7.414 10.405-57.769 4.818-103.683 51.36-107.519 109.402-.223 3.38-2.408 6.185-5.401 7.325.927.353 1.93.552 2.979.552h17.383c4.436 0 8.088-3.451 8.381-7.877 3.836-58.042 49.75-104.584 107.519-109.402 5.147-.429 8.667-5.394 7.414-10.405z" fill="#db4955"/><g><g><g><path d="m58.063 435.549c-.611 0-1.232-.074-1.852-.229-4.078-1.02-6.558-5.153-5.538-9.231l16.813-67.252c1.019-4.077 5.156-6.553 9.23-5.538 4.078 1.02 6.558 5.153 5.538 9.231l-16.813 67.252c-.864 3.458-3.967 5.767-7.378 5.767z" fill="#db4955"/></g></g></g><g><g><g><path d="m343.872 435.549c-3.41 0-6.514-2.309-7.378-5.767l-16.813-67.252c-1.02-4.078 1.46-8.211 5.538-9.231 4.074-1.02 8.211 1.461 9.23 5.538l16.813 67.252c1.02 4.078-1.46 8.211-5.538 9.231-.62.154-1.241.229-1.852.229z" fill="#db4955"/></g></g></g><g><g><path d="m231.905 267.417h-61.874c-4.204 0-7.611-3.407-7.611-7.611s3.408-7.612 7.611-7.612h61.874c4.204 0 7.611 3.407 7.611 7.612 0 4.204-3.408 7.611-7.611 7.611z" fill="#db4955"/></g></g><path d="m105.494 160.124c-33.461 13.94-53.502 43.195-55.65 76.815-2.519 39.425 26.985 72.976 66.489 73.303 30.91.256 57.05-20.342 65.194-48.571.339-1.175.098-2.441-.613-3.436-8.218-11.51-60.05-82.397-70.56-96.767-1.112-1.521-3.122-2.069-4.86-1.344z" fill="#dd646e"/><path d="m296.43 160.124c33.461 13.94 53.502 43.195 55.65 76.815 2.519 39.425-26.985 72.976-66.489 73.303-30.91.256-57.05-20.342-65.194-48.571-.339-1.175-.098-2.441.613-3.436 8.218-11.51 60.05-82.397 70.56-96.767 1.112-1.521 3.121-2.069 4.86-1.344z" fill="#fe8d94"/><path d="m296.43 160.124c33.461 13.94 53.502 43.195 55.65 76.815 2.519 39.425-26.985 72.976-66.489 73.303-30.91.256-57.05-20.342-65.194-48.571-.339-1.175-.098-2.441.613-3.436 8.218-11.51 60.05-82.397 70.56-96.767 1.112-1.521 3.121-2.069 4.86-1.344z" fill="#dd646e"/><path d="m352.08 236.939c-2.148-33.621-22.189-62.875-55.65-76.815-1.739-.724-3.748-.177-4.86 1.343-1.057 1.445-2.537 3.469-4.342 5.939 24.929 15.545 39.685 40.959 41.511 69.533 2.275 35.613-21.582 66.425-55.333 72.293 3.956.689 8.026 1.044 12.186 1.01 39.503-.328 69.007-33.878 66.488-73.303z" fill="#db4955"/><g><g><path d="m184.156 48.849c-13.469 0-24.426-10.956-24.426-24.424s10.957-24.425 24.425-24.425c13.467 0 24.424 10.957 24.424 24.425v16.811c0 4.203-3.407 7.611-7.611 7.611zm-.001-33.626c-5.074 0-9.202 4.128-9.202 9.202 0 5.073 4.128 9.201 9.202 9.201l9.201-.001v-9.2c0-5.074-4.128-9.202-9.201-9.202z" fill="#dd646e"/></g></g><g><g><path d="m217.781 48.849-16.814-.002c-4.203-.001-7.611-3.408-7.611-7.611v-16.811c0-13.468 10.957-24.425 24.425-24.425s24.425 10.957 24.425 24.425c-.001 13.468-10.958 24.424-24.425 24.424zm-9.202-15.224 9.202.001c5.074 0 9.202-4.128 9.202-9.201 0-5.074-4.128-9.202-9.202-9.202s-9.202 4.128-9.202 9.202z" fill="#dd646e"/></g></g><g><g><path d="m58.058 368.295h-.001c-13.468 0-24.424-10.957-24.424-24.425s10.956-24.424 24.424-24.424 24.425 10.956 24.425 24.424v16.812c0 4.203-3.407 7.611-7.61 7.612zm-.001-33.626c-5.073 0-9.201 4.128-9.201 9.201 0 5.074 4.128 9.202 9.201 9.202l9.202-.001v-9.201c0-5.073-4.128-9.201-9.202-9.201z" fill="#dd646e"/></g></g><g><g><path d="m343.878 368.295s0 0-.001 0l-16.813-.002c-4.203-.001-7.611-3.408-7.611-7.612v-16.811c0-13.468 10.956-24.424 24.424-24.424s24.425 10.956 24.425 24.424-10.957 24.425-24.424 24.425zm-9.202-15.224 9.201.001c5.074 0 9.202-4.128 9.202-9.202 0-5.073-4.128-9.201-9.202-9.201-5.073 0-9.201 4.128-9.201 9.201z" fill="#dd646e"/></g></g></g><g><path d="m473.443 257.703-47.554 47.554c-6.566 6.566-17.211 6.566-23.777 0l-64.969-64.969c-3.975-3.975-5.7-9.674-4.598-15.186l7.926-39.628c1.331-6.656 6.534-11.858 13.189-13.189l39.628-7.926c5.512-1.102 11.211.623 15.186 4.598l64.969 64.969c6.565 6.566 6.565 17.212 0 23.777z" fill="#b1e4f9"/><g><g><path d="m381.306 244.51c-1.947 0-3.896-.743-5.382-2.229l-2.972-2.972c-2.972-2.972-2.972-7.792 0-10.764 2.973-2.972 7.792-2.972 10.765 0l2.972 2.972c2.972 2.972 2.972 7.792 0 10.764-1.487 1.486-3.435 2.229-5.383 2.229z" fill="#eef1f3"/></g></g><g><path d="m437.777 253.426c-1.947 0-3.896-.743-5.383-2.229l-2.972-2.972c-2.972-2.972-2.972-7.792 0-10.764 2.973-2.972 7.792-2.972 10.765 0l2.972 2.972c2.972 2.972 2.972 7.792 0 10.764-1.486 1.486-3.435 2.229-5.382 2.229z" fill="#eef1f3"/></g><g><g><path d="m413.992 277.205c-3.554 0-6.732-2.502-7.456-6.12l-11.889-59.443c-.825-4.122 1.849-8.132 5.971-8.956 4.122-.822 8.132 1.849 8.956 5.971l11.889 59.442c.825 4.122-1.849 8.132-5.971 8.956-.503.101-1.005.15-1.5.15z" fill="#eef1f3"/></g></g><g><g><path d="m366.446 205.872c-1.947 0-3.896-.743-5.382-2.229l-88.636-88.636c-2.972-2.972-2.972-7.792 0-10.764 2.973-2.972 7.792-2.972 10.765 0l88.636 88.636c2.972 2.972 2.972 7.792 0 10.764-1.487 1.486-3.436 2.229-5.383 2.229z" fill="#eef1f3"/></g></g><path d="m473.442 233.926-64.969-64.969c-3.975-3.975-9.674-5.7-15.186-4.598l-11.146 2.229c1.071.669 2.078 1.456 2.99 2.369l64.969 64.969c6.566 6.566 6.566 17.211 0 23.777l-47.554 47.554c-.07.07-.147.128-.218.197 6.581 6.358 17.064 6.299 23.56-.197l47.554-47.554c6.566-6.565 6.566-17.211 0-23.777z" fill="#75cef9"/></g></g></svg>