<svg id="Layer_1" enable-background="new 0 0 512 512" height="512" viewBox="0 0 512 512" width="512" xmlns="http://www.w3.org/2000/svg"><g><g><path d="m151.662 150.222c-10.772-4.727-20.969-11.261-30.145-19.625-20.784-18.944-32.71-43.975-35.542-69.893-.56-5.123 3.497-9.573 8.649-9.489 26.069.424 52.095 9.985 72.879 28.929 1.164 1.061 2.299 2.14 3.408 3.238h67.815c1.108-1.098 2.244-2.178 3.408-3.238 20.784-18.944 46.81-28.505 72.879-28.929 5.152-.084 9.209 4.367 8.649 9.489-2.832 25.918-14.758 50.949-35.542 69.893-9.175 8.363-19.372 14.897-30.142 19.624z" fill="#78c2a4"/><g><path d="m220.392 137.69c.566.085 18.334-54.313 18.334-54.313.15-2.357.225-4.734.225-7.129 0-28.122-10.466-53.797-27.713-73.35-3.409-3.864-9.431-3.864-12.84 0-17.247 19.552-27.713 45.228-27.713 73.35 0 22.726 6.835 43.855 18.561 61.445z" fill="#b3e59f"/><path d="m211.238 2.898c-3.409-3.864-9.431-3.864-12.84 0-1.894 2.147-3.701 4.373-5.427 6.663 13.988 18.563 22.286 41.653 22.286 66.687 0 22.725-6.835 43.853-18.559 61.442l-7.454.001.001.002 31.147-.003c11.725-17.59 18.559-38.717 18.559-61.442.001-28.122-10.466-53.797-27.713-73.35z" fill="#95d6a4"/><path d="m211.238 2.898c-3.409-3.864-9.431-3.864-12.84 0-.441.5-.874 1.006-1.306 1.514v46.788c0 4.268 3.459 7.726 7.726 7.726s7.726-3.459 7.726-7.726v-46.787c-.431-.508-.865-1.015-1.306-1.515z" fill="#365e7d"/></g></g><path d="m198.281 136.737c-81.798 5.098-147.063 104.889-147.063 187.53v76.8c.001 61.266 49.667 110.933 110.934 110.933h85.333c61.267 0 110.933-49.667 110.933-110.933 0-11.274 0-61.504 0-76.8 0-82.641-65.264-182.432-147.063-187.53z" fill="#f4de7f"/><path d="m358.419 339.297h-.001c-3.286 0-6.395.966-9.023 2.727l-22.919-30.558 25.556-34.075c-1.469-5.571-3.174-11.128-5.112-16.637-1.445.478-2.764 1.384-3.747 2.694l-26.931 35.908c-2.4-1.608-5.206-2.528-8.177-2.679-.276-.03-.555-.048-.839-.048-.002 0-.005 0-.007 0-.001 0-.001 0-.001 0-.287 0-.569.018-.848.049-2.971.151-5.777 1.071-8.177 2.679l-22.916-30.557 24.216-32.288v7.126c0 4.268 3.459 7.726 7.726 7.726 4.268 0 7.726-3.459 7.726-7.726v-15.18c1.384-.408 2.671-1.203 3.678-2.38 2.774-3.242 2.394-8.12-.848-10.894-2.728-2.334-6.176-3.663-9.746-3.844-.267-.028-.537-.043-.811-.043-.024 0-.048.003-.072.003-.216.001-.433.024-.65.033-.024.002-.049.002-.074.004-.333.016-.665.021-.998.058-2.641.291-5.092 1.208-7.225 2.636l-22.922-30.564 10.613-14.151c-3.953-3.378-8.026-6.543-12.209-9.477l-8.638 11.518c-2.401-1.608-5.207-2.527-8.177-2.679-.279-.031-.561-.049-.848-.049-.001 0-.002 0-.004 0-.285 0-.566.018-.843.048-2.971.151-5.777 1.071-8.177 2.679l-25.061-33.415c-3.492-.571-7.018-.983-10.577-1.205h-13.075c-3.56.222-7.085.634-10.578 1.205l-25.061 33.415c-2.4-1.608-5.206-2.528-8.177-2.679-.279-.031-.561-.049-.848-.049s-.569.018-.847.049c-2.971.151-5.777 1.071-8.177 2.679l-8.638-11.518c-4.182 2.933-8.256 6.099-12.209 9.477l10.613 14.151-22.918 30.557c-2.401-1.608-5.206-2.528-8.177-2.679-.277-.03-.558-.048-.843-.048-.001 0-.002 0-.004 0-.287 0-.569.018-.848.049-2.971.151-5.776 1.071-8.177 2.679l-2.555-3.407c-.558-.744-1.228-1.35-1.965-1.83-2.992 4.421-5.836 8.965-8.516 13.61l2.802 3.736-14.339 19.118c-4.586 10.503-8.355 21.294-11.216 32.142l25.555 34.073-22.918 30.558c-2.629-1.761-5.738-2.727-9.023-2.727v15.453c.403 0 .586.243.645.323l2.676 3.568c.013.018.027.035.04.053l28.587 38.116-27.22 36.372c1.655 5.48 3.717 10.784 6.16 15.87 1.184-.518 2.259-1.328 3.089-2.437l29.496-39.414v7.104c0 4.268 3.459 7.726 7.726 7.726s7.726-3.459 7.726-7.726v-7.125l24.228 32.303-37.84 50.645c-.062.083-.114.171-.172.256 4.145 3.058 8.507 5.838 13.065 8.305l36.469-48.807v7.091c0 4.268 3.459 7.726 7.726 7.726s7.726-3.459 7.726-7.726v-7.125l24.215 32.287-18.922 25.229c-1.044 1.392-1.538 3.021-1.537 4.636h17.376l21.695-28.927c.06-.079.243-.323.646-.323s.585.242.645.323l2.687 3.583c.003.004.005.007.008.01l19.002 25.334h17.377c.001-1.614-.493-3.243-1.537-4.634l-18.923-25.231 24.215-32.287v7.125c0 4.268 3.459 7.726 7.726 7.726 4.268 0 7.726-3.459 7.726-7.726v-7.126l36.586 48.781c4.555-2.472 8.914-5.258 13.055-8.322-.059-.086-.112-.176-.175-.26l-37.934-50.578 24.216-32.287v7.125c0 4.268 3.459 7.726 7.726 7.726 4.268 0 7.726-3.459 7.726-7.726v-7.124l29.529 39.37c.83 1.107 1.904 1.917 3.088 2.433 2.44-5.086 4.498-10.39 6.149-15.87l-27.235-36.311 31.297-41.73c.059-.079.241-.322.644-.322h.001c.003-5.443.003-10.716.003-15.455zm-70.459-27.83-22.918 30.558c-2.4-1.608-5.206-2.527-8.176-2.679-.279-.031-.561-.049-.848-.049-.001 0-.002 0-.004 0-.285 0-.566.018-.843.048-2.97.151-5.776 1.071-8.176 2.679l-22.918-30.558 24.215-32.286v7.125c0 4.268 3.459 7.726 7.726 7.726 4.268 0 7.726-3.459 7.726-7.726v-7.126zm-134.341-17.436c4.267 0 7.726-3.459 7.726-7.726v-7.125l24.215 32.287-22.918 30.558c-2.4-1.608-5.206-2.527-8.176-2.679-.279-.031-.561-.049-.848-.049s-.569.018-.847.049c-2.971.151-5.776 1.071-8.177 2.679l-22.918-30.558 24.216-32.287v7.126c0 4.267 3.459 7.725 7.727 7.725zm51.199-42.667c4.267 0 7.726-3.459 7.726-7.726v-7.125l24.216 32.287-22.918 30.556c-2.4-1.608-5.206-2.528-8.177-2.679-.277-.03-.558-.048-.843-.048-.001 0-.002 0-.004 0-.001 0-.001 0-.001 0-.287 0-.569.018-.847.049-2.971.151-5.777 1.071-8.177 2.679l-22.917-30.557 24.216-32.288v7.126c0 4.267 3.459 7.726 7.726 7.726zm-7.726 70.481v7.126c0 4.268 3.459 7.726 7.726 7.726s7.726-3.459 7.726-7.726v-7.125l24.216 32.288-22.918 30.558c-2.4-1.608-5.206-2.528-8.177-2.679-.277-.03-.558-.048-.843-.048-.001 0-.002 0-.004 0-.001 0-.001 0-.001 0-.287 0-.569.018-.847.049-2.971.151-5.777 1.07-8.177 2.679l-22.918-30.558zm51.2-127.999v7.125c0 4.268 3.459 7.726 7.726 7.726 4.268 0 7.726-3.459 7.726-7.726v-7.125l24.216 32.288-22.918 30.557c-2.401-1.608-5.206-2.528-8.177-2.679-.279-.031-.561-.049-.848-.049-.001 0-.002 0-.004 0-.285 0-.566.018-.843.048-2.971.151-5.776 1.071-8.177 2.679l-22.918-30.558zm-51.2-42.667v7.126c0 4.268 3.459 7.726 7.726 7.726s7.726-3.459 7.726-7.726v-7.125l24.215 32.287-22.917 30.557c-2.4-1.608-5.206-2.528-8.177-2.679-.277-.03-.558-.048-.843-.048-.001 0-.002 0-.004 0-.001 0-.001 0-.001 0-.287 0-.569.018-.847.049-2.971.151-5.776 1.07-8.177 2.679l-22.917-30.557zm-51.2 42.666v7.125c0 4.268 3.459 7.726 7.726 7.726s7.726-3.459 7.726-7.726v-7.125l24.215 32.288-22.918 30.557c-2.4-1.608-5.206-2.528-8.177-2.679-.279-.031-.561-.049-.848-.049s-.569.018-.847.049c-2.971.151-5.777 1.071-8.177 2.679l-22.918-30.557zm-75.416 74.955 24.216-32.287v7.125c0 4.268 3.459 7.726 7.726 7.726s7.726-3.459 7.726-7.726v-7.126l24.216 32.288-22.918 30.557c-2.401-1.608-5.206-2.528-8.177-2.679-.277-.03-.558-.048-.843-.048-.001 0-.002 0-.004 0-.287 0-.569.018-.848.049-2.971.151-5.776 1.071-8.177 2.679zm32.789 113.213c-.277-.03-.558-.048-.843-.048-.001 0-.002 0-.004 0-.287 0-.569.018-.848.049-2.97.151-5.775 1.07-8.176 2.679l-22.919-30.559 24.216-32.288v7.125c0 4.268 3.459 7.726 7.726 7.726s7.726-3.459 7.726-7.726v-7.126l24.216 32.288-22.918 30.558c-2.399-1.608-5.205-2.527-8.176-2.678zm51.201 42.666c-.279-.031-.561-.049-.848-.049s-.569.018-.847.048c-2.97.151-5.775 1.07-8.176 2.68l-22.918-30.557 24.216-32.288v7.126c0 4.268 3.459 7.726 7.726 7.726s7.726-3.459 7.726-7.726v-7.125l24.215 32.287-22.917 30.557c-2.401-1.608-5.206-2.528-8.177-2.679zm59.377 45.346c-2.629-1.761-5.738-2.728-9.024-2.728-.001 0-.001 0-.001 0-3.286 0-6.395.966-9.024 2.728l-22.918-30.557 24.216-32.287v7.125c0 4.268 3.459 7.726 7.726 7.726s7.726-3.459 7.726-7.726v-7.124l24.216 32.287zm51.2-42.667c-2.401-1.608-5.206-2.528-8.177-2.679-.279-.031-.561-.049-.848-.049-.001 0-.002 0-.004 0-.285 0-.566.018-.843.048-2.971.151-5.777 1.071-8.177 2.679l-22.917-30.557 24.215-32.287v7.124c0 4.268 3.459 7.726 7.726 7.726 4.268 0 7.726-3.459 7.726-7.726v-7.126l24.216 32.288zm51.2-42.666c-2.4-1.609-5.206-2.528-8.177-2.679-.276-.03-.555-.048-.839-.048-.002 0-.005-.001-.007-.001-.001 0-.001 0-.001 0-.287 0-.569.018-.848.049-2.971.151-5.777 1.071-8.177 2.679l-22.918-30.558 24.216-32.289v7.126c0 4.268 3.459 7.726 7.726 7.726 4.268 0 7.726-3.459 7.726-7.726v-7.125l24.216 32.288z" fill="#e8aa41"/><g><path d="m455.782 253.893-48.272 48.272c-6.665 6.665-17.471 6.665-24.136 0l-65.949-65.949c-4.035-4.035-5.786-9.819-4.667-15.415l8.045-40.227c1.351-6.756 6.632-12.037 13.388-13.388l40.227-8.045c5.595-1.119 11.38.632 15.415 4.667l65.949 65.949c6.665 6.665 6.665 17.471 0 24.136z" fill="#dd646e"/><g><g><path d="m362.255 240.5c-1.977 0-3.955-.755-5.464-2.263l-3.017-3.017c-3.017-3.017-3.017-7.91 0-10.927 3.018-3.017 7.91-3.017 10.928 0l3.017 3.017c3.017 3.017 3.017 7.91 0 10.927-1.509 1.508-3.487 2.263-5.464 2.263z" fill="#eef1f3"/></g></g><g><g><path d="m419.578 249.551c-1.977 0-3.955-.755-5.464-2.263l-3.017-3.017c-3.017-3.017-3.017-7.909 0-10.927 3.018-3.017 7.909-3.017 10.928 0l3.017 3.017c3.017 3.017 3.017 7.909 0 10.926-1.509 1.509-3.487 2.264-5.464 2.264z" fill="#eef1f3"/></g></g><g><g><path d="m395.435 273.688c-3.608 0-6.834-2.54-7.569-6.213l-12.068-60.34c-.837-4.184 1.877-8.255 6.061-9.092 4.184-.834 8.254 1.877 9.092 6.061l12.069 60.34c.837 4.184-1.877 8.255-6.061 9.092-.512.103-1.022.152-1.524.152z" fill="#eef1f3"/></g></g><g><g><path d="m347.171 201.279c-1.977 0-3.955-.755-5.464-2.263l-58.312-58.311c-3.017-3.017-3.017-7.909 0-10.926 3.018-3.017 7.909-3.017 10.928 0l58.311 58.311c3.017 3.017 3.017 7.91 0 10.927-1.509 1.508-3.486 2.262-5.463 2.262z" fill="#eef1f3"/></g></g><path d="m455.782 229.757-65.949-65.949c-4.035-4.035-9.82-5.786-15.415-4.667l-11.314 2.263c1.087.679 2.109 1.478 3.035 2.404l65.949 65.949c6.665 6.665 6.665 17.471 0 24.136l-48.272 48.272c-.071.071-.149.13-.221.2 6.68 6.454 17.321 6.394 23.915-.2l48.272-48.272c6.665-6.665 6.665-17.471 0-24.136z" fill="#db4955"/></g></g></svg>