<svg id="Layer_1" enable-background="new 0 0 512 512" height="512" viewBox="0 0 512 512" width="512" xmlns="http://www.w3.org/2000/svg"><g><g><path d="m234.988 91.824v-.004c0-.417.072-.829.208-1.223 2.722-7.868 4.047-16.389 3.675-25.265-1.471-35.092-29.903-63.648-64.989-65.258-39.165-1.797-71.483 29.424-71.483 68.193 0 7.819 1.315 15.331 3.735 22.327.137.396.209.811.209 1.23v.001c0 1.487-.849 2.87-2.212 3.463-6.04 2.627-10.266 8.639-10.266 15.646 0 9.426 7.641 17.067 17.067 17.067v7.211h119.467v-7.212c9.426 0 17.067-7.641 17.067-17.067 0-7.007-4.226-13.02-10.266-15.646-1.364-.593-2.212-1.976-2.212-3.463z" fill="#cd8051"/><path d="m237.2 95.286c-1.363-.593-2.212-1.976-2.212-3.462v-.004c0-.417.072-.829.208-1.223 2.722-7.868 4.047-16.389 3.675-25.265-1.471-35.092-29.903-63.648-64.989-65.258-5.166-.237-10.208.115-15.077.969 31.016 5.463 55.024 32.122 56.372 64.289.372 8.877-.952 17.397-3.674 25.265-.136.394-.208.806-.208 1.223v.004c0 1.487.849 2.869 2.212 3.462 6.04 2.627 10.266 8.64 10.266 15.647 0 9.426-7.641 17.067-17.067 17.067v7.211h23.694v-7.211c9.426 0 17.067-7.641 17.067-17.067-.001-7.007-4.227-13.02-10.267-15.647z" fill="#c46b4b"/><path d="m277.654 151.558v-.004c0-.417.072-.829.208-1.223 2.722-7.868 4.047-16.389 3.675-25.265-1.47-35.092-29.903-63.648-64.989-65.258-39.165-1.798-71.482 29.423-71.482 68.192 0 7.819 1.315 15.331 3.735 22.327.137.396.21.811.21 1.23v.001c0 1.487-.849 2.869-2.212 3.462-6.04 2.627-10.266 8.639-10.266 15.646 0 9.426 7.641 17.067 17.067 17.067v7.211h119.467v-7.211c9.426 0 17.067-7.641 17.067-17.067 0-7.007-4.226-13.02-10.266-15.646-1.365-.593-2.214-1.976-2.214-3.462z" fill="#eef1f3"/><path d="m279.866 155.02c-1.363-.593-2.212-1.976-2.212-3.462v-.004c0-.417.072-.829.208-1.223 2.722-7.868 4.047-16.389 3.675-25.265-1.47-35.092-29.903-63.648-64.989-65.258-5.166-.237-10.208.115-15.077.969 31.016 5.463 55.024 32.122 56.372 64.289.372 8.877-.952 17.397-3.675 25.265-.136.394-.208.806-.208 1.223v.004c0 1.487.849 2.87 2.212 3.462 6.04 2.627 10.266 8.64 10.266 15.647 0 9.426-7.641 17.067-17.067 17.067v7.211h23.694v-7.211c9.426 0 17.067-7.641 17.067-17.067.001-7.007-4.225-13.02-10.266-15.647z" fill="#cadae6"/><path d="m192.322 151.558v-.004c0-.417.072-.829.209-1.223 2.722-7.868 4.046-16.389 3.674-25.265-1.47-35.092-29.903-63.648-64.989-65.258-39.165-1.798-71.483 29.423-71.483 68.192 0 7.819 1.315 15.331 3.735 22.327.137.396.209.811.209 1.23v.001c0 1.487-.848 2.869-2.212 3.462-6.04 2.627-10.266 8.639-10.266 15.646 0 9.426 7.641 17.067 17.067 17.067v7.211h119.467v-7.211c9.426 0 17.067-7.641 17.067-17.067 0-7.007-4.226-13.02-10.266-15.646-1.364-.593-2.212-1.976-2.212-3.462z" fill="#dd646e"/><path d="m194.534 155.02c-1.363-.593-2.212-1.976-2.212-3.462v-.004c0-.417.072-.829.209-1.223 2.722-7.868 4.046-16.389 3.674-25.265-1.47-35.092-29.903-63.648-64.989-65.258-5.166-.237-10.208.115-15.077.969 31.016 5.463 55.024 32.122 56.372 64.289.372 8.877-.952 17.397-3.675 25.265-.136.394-.209.806-.209 1.223v.004c0 1.487.849 2.87 2.212 3.462 6.04 2.627 10.266 8.64 10.266 15.647 0 9.426-7.641 17.067-17.067 17.067v7.211h23.694v-7.211c9.426 0 17.067-7.641 17.067-17.067.001-7.007-4.225-13.02-10.265-15.647z" fill="#db4955"/><path d="m273.067 221.867-94.353 284.44c-2.679 7.591-13.414 7.591-16.094 0l-94.353-284.44v-11.538h204.8z" fill="#d8b26a"/><path d="m249.372 210.328v11.538l-90.552 272.984 3.8 11.456c2.679 7.591 13.414 7.591 16.094 0l94.353-284.44v-11.538z" fill="#b8985d"/><path d="m59.733 187.733c-4.713 0-8.533 3.82-8.533 8.533v8.533c0 9.426 7.641 17.067 17.067 17.067h204.8c9.426 0 17.067-7.641 17.067-17.067v-8.533c0-4.713-3.82-8.533-8.533-8.533z" fill="#d8b26a"/><g fill="#b8985d"><path d="m281.6 187.733h-23.694c4.713 0 8.533 3.82 8.533 8.533v8.533c0 9.426-7.641 17.067-17.067 17.067h23.694c9.426 0 17.067-7.641 17.067-17.067v-8.533c0-4.712-3.82-8.533-8.533-8.533z"/><path d="m249.746 292.169 4.944-14.904-176.406-25.201 5.435 16.387z"/><path d="m233.531 341.052 4.944-14.904-142.363-20.337 5.436 16.387z"/><path d="m222.259 375.032-108.318-15.474 5.436 16.387 97.938 13.991z"/><path d="m206.044 423.915-74.274-10.61 5.435 16.386 63.895 9.128z"/><path d="m189.828 472.799-40.23-5.747 5.436 16.387 29.851 4.264z"/></g><path d="m119.466 179.2v68.267c0 9.426 7.641 17.067 17.067 17.067s17.067-7.641 17.067-17.067v-68.267z" fill="#dd646e"/></g><g><path d="m455.801 356.329-48.272 48.272c-6.665 6.665-17.471 6.665-24.136 0l-65.949-65.949c-4.035-4.035-5.786-9.82-4.667-15.415l8.045-40.227c1.351-6.756 6.632-12.037 13.388-13.388l40.227-8.045c5.595-1.119 11.38.632 15.415 4.667l65.949 65.949c6.665 6.665 6.665 17.471 0 24.136z" fill="#b1e4f9"/><g><g><path d="m362.274 342.937c-1.977 0-3.955-.755-5.464-2.263l-3.017-3.017c-3.017-3.017-3.017-7.91 0-10.927 3.018-3.017 7.909-3.017 10.928 0l3.017 3.017c3.017 3.017 3.017 7.91 0 10.927-1.509 1.508-3.487 2.263-5.464 2.263z" fill="#eef1f3"/></g></g><g><g><path d="m419.597 351.988c-1.977 0-3.955-.755-5.464-2.263l-3.017-3.017c-3.017-3.017-3.017-7.909 0-10.926 3.018-3.017 7.909-3.017 10.927 0l3.017 3.017c3.017 3.017 3.017 7.909 0 10.927-1.508 1.507-3.486 2.262-5.463 2.262z" fill="#eef1f3"/></g></g><g><g><path d="m395.453 376.125c-3.608 0-6.834-2.54-7.568-6.213l-12.068-60.34c-.837-4.184 1.877-8.254 6.061-9.092 4.184-.834 8.254 1.877 9.091 6.061l12.068 60.34c.837 4.184-1.877 8.254-6.061 9.091-.51.104-1.021.153-1.523.153z" fill="#eef1f3"/></g></g><g><g><path d="m347.19 303.716c-1.977 0-3.955-.755-5.464-2.263l-74.002-74.002c-3.017-3.017-3.017-7.91 0-10.927 3.018-3.017 7.909-3.017 10.927 0l74.002 74.002c3.017 3.017 3.017 7.909 0 10.927-1.508 1.509-3.486 2.263-5.463 2.263z" fill="#eef1f3"/></g></g><path d="m455.801 332.193-65.949-65.949c-4.035-4.035-9.82-5.786-15.415-4.667l-11.314 2.263c1.087.678 2.109 1.478 3.035 2.404l65.949 65.949c6.665 6.665 6.665 17.471 0 24.136l-48.272 48.272c-.071.071-.149.13-.221.2 6.68 6.453 17.321 6.394 23.915-.2l48.272-48.272c6.665-6.665 6.665-17.47 0-24.136z" fill="#75cef9"/></g></g></svg>