<svg id="Layer_1" enable-background="new 0 0 512 512" height="512" viewBox="0 0 512 512" width="512" xmlns="http://www.w3.org/2000/svg"><g><g><path d="m184.66 17.067h142.68v34.133h-142.68z" fill="#cd8051"/><path d="m187.733 107.551v-90.484h-18.133c-8.837 0-16 7.163-16 16v74.484z" fill="#eef1f3"/><path d="m324.267 107.551v-90.484h18.133c8.837 0 16 7.163 16 16v74.484z" fill="#eef1f3"/><path d="m204.8 141.684h-68.267v-31.284c0-4.418 3.582-8 8-8h52.267c4.418 0 8 3.582 8 8z" fill="#f4de7f"/><path d="m375.467 141.684h-68.267v-31.284c0-4.418 3.582-8 8-8h52.267c4.418 0 8 3.582 8 8z" fill="#f4de7f"/><path d="m367.225 102.4h-23.694c4.552 0 8.241 3.69 8.241 8.241v31.043h23.694v-31.043c.001-4.551-3.689-8.241-8.241-8.241z" fill="#f0c078"/></g><g fill="#cd8051"><path d="m85.333 136.533h-34.133l-51.2 51.2v256l51.2 51.2h34.133l10.302-179.2z"/><path d="m375.467 136.533h-238.934l-10.302 179.2 10.302 179.2h238.937l10.301-179.2z"/><path d="m426.667 494.933h34.133l51.2-51.2v-256l-51.2-51.2h-34.133l-10.302 179.2z"/></g><path d="m488.306 467.428 23.694-23.695v-256l-23.694-23.694z" fill="#c46b4b"/><g><g fill="#f4de7f"><path d="m0 477.867c0 9.426 7.641 17.067 17.067 17.067h34.133v-34.134c0-9.426-7.641-17.067-17.067-17.067h-34.133z"/><path d="m0 153.6c0-9.426 7.641-17.067 17.067-17.067h34.133v34.133c0 9.426-7.641 17.067-17.067 17.067h-34.133z"/></g></g><g><g fill="#f4de7f"><path d="m512 153.6c0-9.426-7.641-17.067-17.067-17.067h-34.133v34.133c0 9.426 7.641 17.067 17.067 17.067h34.133z"/><path d="m512 477.867c0 9.426-7.641 17.067-17.067 17.067h-34.133v-34.134c0-9.426 7.641-17.067 17.067-17.067h34.133z"/></g></g><g><path d="m40.46 343.367c-4.552 1.22-7.254 5.899-6.034 10.451l13.251 49.455c1.22 4.552 5.899 7.254 10.451 6.034l164.851-44.172c4.552-1.22 7.254-5.899 6.034-10.451l-13.252-49.455c-1.22-4.552-5.899-7.254-10.451-6.034z" fill="#b1e4f9"/><path d="m85.333 168.172h51.2v295.122h-51.2z" fill="#365e7d"/><path d="m112.839 168.172h23.694v295.122h-23.694z" fill="#2b4d66"/><path d="m85.333 136.533h51.2v34.133h-51.2z" fill="#f4de7f"/><path d="m375.47 430.694c-9.059 8.109-21.022 13.04-34.136 13.04-28.277 0-51.2-22.923-51.2-51.2s22.923-51.2 51.2-51.2c13.113 0 25.075 4.93 34.133 13.037h11.366v75.988z" fill="#b3e59f"/><path d="m229.014 354.684-13.252-49.455c-1.22-4.552-5.899-7.254-10.451-6.034l-21.721 5.82c3.861-.109 7.435 2.421 8.478 6.314l13.252 49.901c1.061 3.959-.846 8.012-4.355 9.804l22.016-5.899c4.552-1.22 7.253-5.899 6.033-10.451z" fill="#75cef9"/><path d="m351.775 342.412v100.243c8.983-1.862 17.108-6.066 23.694-11.961l11.363-.336v-75.988h-11.366c-6.585-5.894-14.709-10.096-23.691-11.958z" fill="#95d6a4"/><path d="m85.333 460.8h51.2v34.133h-51.2z" fill="#f4de7f"/><path d="m112.839 136.533h23.694v34.133h-23.694z" fill="#f0c078"/><path d="m112.839 460.8h23.694v34.133h-23.694z" fill="#f0c078"/><path d="m375.467 168.172h51.2v295.122h-51.2z" fill="#365e7d"/><path d="m402.973 168.172h23.694v295.122h-23.694z" fill="#2b4d66"/><path d="m375.467 136.533h51.2v34.133h-51.2z" fill="#f4de7f"/><path d="m375.467 460.8h51.2v34.133h-51.2z" fill="#f4de7f"/><g fill="#f0c078"><path d="m402.973 136.533h23.694v34.133h-23.694z"/><path d="m402.973 460.8h23.694v34.133h-23.694z"/></g></g><g><path d="m333.587 254-46.621 46.621c-6.437 6.437-16.873 6.437-23.31 0l-63.693-63.693c-3.897-3.897-5.589-9.484-4.508-14.888l7.77-38.851c1.305-6.525 6.405-11.625 12.93-12.93l38.851-7.77c5.404-1.081 10.991.611 14.888 4.508l63.693 63.693c6.437 6.437 6.437 16.873 0 23.31z" fill="#dd646e"/><g><path d="m243.26 241.33c-1.977 0-3.954-.754-5.463-2.262l-2.915-2.913c-3.017-3.017-3.018-7.909-.002-10.926 3.016-3.018 7.907-3.02 10.928-.002l2.915 2.914c3.017 3.016 3.018 7.909.002 10.926-1.51 1.508-3.488 2.263-5.465 2.263z" fill="#eef1f3"/></g><g><path d="m298.622 250.071c-1.977 0-3.954-.754-5.463-2.263l-2.914-2.914c-3.018-3.017-3.018-7.909-.001-10.927 3.016-3.018 7.908-3.018 10.927-.001l2.914 2.914c3.018 3.017 3.018 7.909.001 10.927-1.508 1.51-3.487 2.264-5.464 2.264z" fill="#eef1f3"/></g><g><g><path d="m275.303 273.383c-3.608 0-6.834-2.54-7.568-6.213l-11.655-58.276c-.837-4.184 1.877-8.255 6.061-9.092 4.187-.837 8.256 1.877 9.092 6.061l11.655 58.276c.837 4.184-1.877 8.254-6.061 9.091-.512.104-1.022.153-1.524.153z" fill="#eef1f3"/></g></g><g><g><path d="m228.69 203.451c-1.977 0-3.955-.755-5.464-2.263l-55.105-55.105c-3.017-3.017-3.017-7.909 0-10.926 3.018-3.017 7.91-3.017 10.928 0l55.105 55.105c3.017 3.017 3.017 7.909 0 10.927-1.509 1.507-3.487 2.262-5.464 2.262z" fill="#eef1f3"/></g></g><path d="m333.587 230.69-63.693-63.693c-3.897-3.897-9.484-5.588-14.888-4.508l-11.545 2.309c.977.629 1.899 1.359 2.738 2.199l63.693 63.693c6.437 6.437 6.437 16.873 0 23.31l-46.429 46.429.192.192c6.437 6.437 16.873 6.437 23.31 0l46.622-46.621c6.437-6.437 6.437-16.873 0-23.31z" fill="#db4955"/></g><path d="m494.933 136.533h-23.694c9.426 0 17.067 7.641 17.067 17.067v34.133h23.694v-34.133c0-9.426-7.641-17.067-17.067-17.067z" fill="#f0c078"/><path d="m494.933 494.933h-23.694c9.426 0 17.067-7.641 17.067-17.067v-34.133h23.694v34.133c0 9.426-7.641 17.067-17.067 17.067z" fill="#f0c078"/></g></svg>