<svg id="Layer_1" enable-background="new 0 0 512 512" height="512" viewBox="0 0 512 512" width="512" xmlns="http://www.w3.org/2000/svg"><g><circle cx="256" cy="256" fill="#b1e4f9" r="256"/><path d="m256 0c-3.972 0-7.919.104-11.847.283 135.884 6.191 244.153 118.304 244.153 255.717s-108.269 249.526-244.153 255.717c3.928.179 7.875.283 11.847.283 141.385 0 256-114.615 256-256s-114.615-256-256-256z" fill="#75cef9"/><g><g fill="#365e7d"><path d="m213.645 308.871c1.218 3.627 4.598 6.055 8.42 6.055h.046c3.841-.02 7.218-2.488 8.403-6.142.029-.087.055-.177.081-.267l6.547-22.967 4.338 22.699c.801 4.192 4.855 6.943 9.039 6.138 4.191-.801 6.94-4.847 6.138-9.039l-9.549-49.967c-.805-3.95-4.178-6.867-8.202-7.094-4.048-.214-7.705 2.292-8.951 6.126-.028.089-.055.178-.082.269l-7.918 27.775-8.217-27.851c-.027-.09-.055-.181-.085-.271-1.283-3.825-4.986-6.319-9.014-6.038-4.025.27-7.368 3.224-8.146 7.272l-8.999 49.859c-.758 4.199 2.032 8.218 6.231 8.976 4.194.753 8.218-2.031 8.976-6.231l4.073-22.566 6.784 22.992c.027.09.056.182.087.272z"/><path d="m336.506 314.388c4.191-.801 6.94-4.847 6.138-9.039l-9.549-49.967c-.805-3.951-4.179-6.869-8.206-7.094-4.024-.227-7.706 2.295-8.948 6.132-.028.087-.055.174-.081.263l-7.917 27.775-8.217-27.851c-.027-.09-.055-.181-.086-.271-1.281-3.823-4.979-6.32-9.011-6.038-4.024.268-7.368 3.219-8.15 7.272l-8.999 49.859c-.758 4.199 2.032 8.218 6.231 8.976 4.196.753 8.218-2.031 8.976-6.231l4.072-22.568 6.785 22.994c.026.09.054.179.085.268 1.215 3.63 4.595 6.061 8.421 6.061h.042c3.843-.018 7.221-2.486 8.408-6.142.029-.087.055-.177.081-.267l6.547-22.967 4.338 22.699c.803 4.191 4.853 6.941 9.04 6.136z"/><path d="m388.475 264.194c4.267 0 7.726-3.459 7.726-7.726s-3.459-7.726-7.726-7.726h-21.376c-4.268 0-7.726 3.459-7.726 7.726v50.732c0 4.268 3.459 7.726 7.726 7.726h21.376c4.267 0 7.726-3.459 7.726-7.726s-3.459-7.726-7.726-7.726h-13.65v-9.913h12.073c4.268 0 7.726-3.459 7.726-7.726 0-4.268-3.459-7.726-7.726-7.726h-12.073v-9.913h13.65z"/><path d="m88.761 274.756c-6.057-2.235-11.711-4.663-13.683-5.523-.717-.665-.726-1.522-.657-2.01.094-.652.588-2.251 3.142-3.02 6.494-1.962 12.649 2.84 12.869 3.016 3.266 2.699 8.106 2.267 10.838-.983 2.745-3.267 2.324-8.14-.943-10.886-.507-.426-12.557-10.362-27.221-5.944-7.568 2.281-12.925 8.267-13.981 15.622-.995 6.934 2.012 13.605 7.848 17.409.341.222.699.417 1.07.582.299.134 7.387 3.29 15.369 6.233 3.106 1.146 6.278 3.19 5.866 5.493-.34 1.907-3.003 4.728-7.638 4.728-4.72 0-9.251-1.888-12.117-5.051s-7.754-3.402-10.914-.537c-3.162 2.866-3.402 7.751-.537 10.913 5.833 6.437 14.423 10.128 23.567 10.128 11.434 0 21.043-7.345 22.85-17.465 1.372-7.666-2.041-17.658-15.728-22.705z"/><path d="m442.295 288.796c7.982-3.124 13.632-10.677 13.632-19.49 0-11.598-9.773-21.032-21.786-21.032h-13.606c-.003 0-.005.001-.008.001s-.005-.001-.008-.001c-4.268 0-7.726 3.459-7.726 7.726v51.2c0 4.268 3.459 7.726 7.726 7.726s7.726-3.459 7.726-7.726v-10.978l14.155 16.083c1.527 1.735 3.66 2.622 5.803 2.622 1.813 0 3.634-.635 5.102-1.927 3.203-2.819 3.514-7.701.695-10.904zm-8.154-25.07c3.432 0 6.333 2.555 6.333 5.579 0 3.025-2.9 5.581-6.333 5.581-1.394 0-3.599.008-5.827.018-.01-2.152-.018-4.264-.018-5.599 0-1.147-.005-3.317-.011-5.579z"/><path d="m144.877 314.927c4.262 0 8.27-.93 11.907-2.762 8.964-4.515 13.9-11.963 13.9-20.971v-35.194c0-4.268-3.459-7.726-7.726-7.726-4.268 0-7.726 3.459-7.726 7.726v35.194c0 2.201-.642 4.774-5.399 7.17-1.482.747-3.104 1.11-4.955 1.11-.006 0-.011 0-.017 0-1.999-.003-3.729-.488-5.288-1.484-3.718-2.376-4.466-4.348-4.466-6.759v-35.231c0-4.268-3.459-7.726-7.726-7.726-4.268 0-7.726 3.459-7.726 7.726v35.231c0 8.207 3.902 14.862 11.599 19.781 4.055 2.591 8.627 3.908 13.589 3.915z"/></g><path d="m244.482 339.324c-.026-.069-.053-.139-.081-.208-1.376-3.347-4.602-5.509-8.22-5.509-.003 0-.006 0-.009 0-3.623.004-6.848 2.173-8.217 5.526-.023.057-.045.115-.067.172l-19.225 50.479c-1.519 3.987.483 8.451 4.471 9.97.904.345 1.834.508 2.748.508 3.113 0 6.047-1.895 7.221-4.979l2.892-7.594h20.224l2.859 7.573c1.506 3.992 5.966 6.009 9.957 4.5 3.992-1.506 6.007-5.964 4.5-9.957zm-12.603 32.911 4.273-11.218 4.234 11.218z" fill="#eef1f3"/><path d="m306.319 384.764c-.015 0-.03 0-.044 0-3.456.019-7.097.034-10.159.04v-43.471c0-4.268-3.459-7.726-7.726-7.726-4.268 0-7.726 3.459-7.726 7.726v51.157c0 3.761 2.708 6.976 6.415 7.614.557.097.925.16 6.667.16 2.759 0 6.759-.014 12.617-.047 4.268-.024 7.707-3.503 7.683-7.77-.026-4.253-3.48-7.683-7.727-7.683z" fill="#eef1f3"/><path d="m359.745 349.527c4.268 0 7.726-3.459 7.726-7.726 0-4.268-3.459-7.726-7.726-7.726h-21.377c-4.268 0-7.726 3.459-7.726 7.726v50.732c0 4.268 3.459 7.726 7.726 7.726h21.377c4.268 0 7.726-3.459 7.726-7.726s-3.459-7.726-7.726-7.726h-13.651v-9.913h12.074c4.268 0 7.726-3.459 7.726-7.726 0-4.268-3.459-7.726-7.726-7.726h-12.074v-9.914h13.651z" fill="#eef1f3"/><path d="m177.218 360.089c-6.057-2.234-11.712-4.663-13.684-5.524-.717-.664-.726-1.521-.657-2.008.093-.652.587-2.25 3.142-3.02 6.506-1.964 12.67 2.857 12.872 3.016 3.268 2.702 8.105 2.267 10.836-.985 2.746-3.267 2.323-8.14-.944-10.885-.505-.426-12.558-10.355-27.221-5.943-7.568 2.281-12.926 8.266-13.981 15.622-.995 6.933 2.012 13.604 7.848 17.408.341.222.699.418 1.071.583.298.133 7.388 3.289 15.369 6.232 3.105 1.146 6.278 3.19 5.866 5.493-.341 1.906-3.004 4.728-7.639 4.728-4.72 0-9.25-1.888-12.118-5.052-2.866-3.161-7.754-3.401-10.913-.535-3.162 2.866-3.401 7.751-.535 10.914 5.834 6.436 14.424 10.127 23.566 10.127 11.434 0 21.044-7.345 22.851-17.465 1.37-7.667-2.044-17.659-15.729-22.706z" fill="#eef1f3"/></g><g><g><path d="m119.467 374.66h-17.067c-4.268 0-7.726-3.459-7.726-7.726s3.459-7.726 7.726-7.726h17.066c4.268 0 7.726 3.459 7.726 7.726s-3.458 7.726-7.725 7.726z" fill="#eef1f3"/></g></g><g><g><path d="m409.6 374.893h-17.066c-4.268 0-7.726-3.459-7.726-7.726 0-4.268 3.459-7.726 7.726-7.726h17.066c4.268 0 7.726 3.459 7.726 7.726 0 4.268-3.459 7.726-7.726 7.726z" fill="#eef1f3"/></g></g><path d="m307.2 436.007c-4.268 0-7.726 3.459-7.726 7.726 0 5.15-4.19 9.34-9.34 9.34-5.151 0-9.341-4.19-9.341-9.34 0-4.268-3.459-7.726-7.726-7.726s-7.726 3.459-7.726 7.726c0 5.15-4.19 9.34-9.34 9.34s-9.34-4.19-9.34-9.34c0-4.268-3.459-7.726-7.726-7.726-4.268 0-7.726 3.459-7.726 7.726 0 5.15-4.19 9.34-9.341 9.34-5.15 0-9.34-4.19-9.34-9.34 0-4.268-3.459-7.726-7.726-7.726-4.268 0-7.726 3.459-7.726 7.726 0 13.671 11.122 24.793 24.793 24.793 6.609 0 12.618-2.605 17.067-6.835 4.449 4.23 10.458 6.835 17.067 6.835s12.618-2.605 17.067-6.835c4.449 4.23 10.458 6.835 17.067 6.835 13.671 0 24.793-11.122 24.793-24.793-.003-4.267-3.462-7.726-7.73-7.726z" fill="#75cef9"/><g><circle cx="256" cy="136.533" fill="#f4de7f" r="34.133"/><path d="m256 102.4c-4.166 0-8.156.749-11.847 2.115 13.011 4.816 22.286 17.333 22.286 32.018s-9.275 27.202-22.286 32.018c3.691 1.366 7.681 2.115 11.847 2.115 18.851 0 34.133-15.282 34.133-34.133s-15.282-34.133-34.133-34.133z" fill="#f0c078"/><g><g><path d="m256 75.993c-4.267 0-7.726-3.459-7.726-7.726v-17.067c0-4.267 3.459-7.726 7.726-7.726s7.726 3.459 7.726 7.726v17.067c0 4.267-3.459 7.726-7.726 7.726z" fill="#f0c078"/></g><g><path d="m256 229.593c-4.267 0-7.726-3.459-7.726-7.726v-17.067c0-4.267 3.459-7.726 7.726-7.726s7.726 3.459 7.726 7.726v17.067c0 4.267-3.459 7.726-7.726 7.726z" fill="#f0c078"/></g></g><g><g><path d="m341.333 144.26h-17.066c-4.267 0-7.726-3.459-7.726-7.726s3.459-7.726 7.726-7.726h17.066c4.267 0 7.726 3.459 7.726 7.726.001 4.266-3.459 7.726-7.726 7.726z" fill="#f0c078"/></g><g><path d="m187.733 144.26h-17.066c-4.267 0-7.726-3.459-7.726-7.726s3.459-7.726 7.726-7.726h17.066c4.267 0 7.726 3.459 7.726 7.726.001 4.266-3.459 7.726-7.726 7.726z" fill="#f0c078"/></g></g><g><g><path d="m316.34 204.599c-1.977 0-3.955-.755-5.463-2.263l-12.068-12.068c-3.018-3.017-3.018-7.91 0-10.927 3.017-3.017 7.91-3.017 10.927 0l12.068 12.068c3.018 3.017 3.018 7.909 0 10.926-1.51 1.51-3.487 2.264-5.464 2.264z" fill="#f0c078"/></g><g><path d="m207.728 95.988c-1.977 0-3.955-.754-5.463-2.263l-12.068-12.068c-3.018-3.018-3.018-7.909 0-10.927s7.91-3.018 10.926 0l12.068 12.068c3.018 3.018 3.018 7.91 0 10.926-1.508 1.509-3.486 2.264-5.463 2.264z" fill="#f0c078"/></g></g><g><g><path d="m304.272 95.988c-1.977 0-3.955-.754-5.463-2.263-3.018-3.017-3.018-7.909 0-10.926l12.068-12.068c3.017-3.017 7.909-3.018 10.927 0 3.018 3.017 3.018 7.909 0 10.927l-12.068 12.068c-1.509 1.507-3.487 2.262-5.464 2.262z" fill="#f0c078"/></g><g><path d="m195.66 204.599c-1.977 0-3.955-.755-5.463-2.263-3.018-3.017-3.018-7.909 0-10.926l12.068-12.068c3.017-3.017 7.909-3.017 10.927 0s3.018 7.91 0 10.927l-12.068 12.068c-1.509 1.508-3.486 2.262-5.464 2.262z" fill="#f0c078"/></g></g></g></g></svg>