<svg id="Layer_1" enable-background="new 0 0 512 512" height="512" viewBox="0 0 512 512" width="512" xmlns="http://www.w3.org/2000/svg"><g><g><path d="m170.616 187.733c0 9.426 7.641 17.067 17.067 17.067s17.067-7.641 17.067-17.067v-119.466c0-18.851 15.282-34.133 34.133-34.133s34.133 15.282 34.133 34.133v119.467c0 9.426 7.641 17.067 17.067 17.067s17.067-7.641 17.067-17.067v-119.467c-.001-37.703-30.565-68.267-68.268-68.267s-68.267 30.564-68.267 68.267v119.466z" fill="#e8aa41"/><path d="m102.349 170.667v307.2l170.667 34.133h68.267c18.851 0 34.133-15.282 34.133-34.133v-307.2c0-9.426-7.641-17.067-17.067-17.067h-68.266z" fill="#75cef9"/><g><g><path d="m341.282 468.526c-4.268 0-7.726-3.459-7.726-7.726v-269.028c0-4.267 3.459-7.726 7.726-7.726s7.726 3.459 7.726 7.726v269.028c0 4.267-3.459 7.726-7.726 7.726z" fill="#6bbef6"/></g></g><g><path d="m290.082 153.6c9.426 0 17.067 7.641 17.067 17.067v307.2c0 18.851-15.282 34.133-34.133 34.133h-204.8c-18.851 0-34.133-15.282-34.133-34.133v-307.2c0-9.426 7.641-17.067 17.067-17.067z" fill="#b1e4f9"/><g><g><g><path d="m102.349 195.46h-17.067c-4.268 0-7.726-3.459-7.726-7.726s3.459-7.726 7.726-7.726h17.067c4.268 0 7.726 3.459 7.726 7.726s-3.458 7.726-7.726 7.726z" fill="#75cef9"/></g></g><g><g><path d="m153.549 195.46h-17.067c-4.268 0-7.726-3.459-7.726-7.726s3.459-7.726 7.726-7.726h17.067c4.268 0 7.726 3.459 7.726 7.726s-3.458 7.726-7.726 7.726z" fill="#75cef9"/></g></g><g><g><path d="m204.749 195.46h-17.066c-4.268 0-7.726-3.459-7.726-7.726s3.459-7.726 7.726-7.726h17.066c4.268 0 7.726 3.459 7.726 7.726s-3.459 7.726-7.726 7.726z" fill="#75cef9"/></g></g><g><g><path d="m255.949 195.46h-17.066c-4.268 0-7.726-3.459-7.726-7.726s3.459-7.726 7.726-7.726h17.066c4.268 0 7.726 3.459 7.726 7.726s-3.459 7.726-7.726 7.726z" fill="#75cef9"/></g></g><path d="m102.349 187.733c0 9.426 7.641 17.067 17.067 17.067s17.067-7.641 17.067-17.067v-119.466c0-18.851 15.282-34.133 34.133-34.133s34.133 15.282 34.133 34.133v119.467c0 9.426 7.641 17.067 17.067 17.067s17.067-7.641 17.067-17.067v-119.467c-.001-37.703-30.565-68.267-68.267-68.267-37.703 0-68.267 30.564-68.267 68.267z" fill="#f4de7f"/><path d="m170.615 0c-4.043 0-7.997.372-11.847 1.046 32.052 5.612 56.42 33.562 56.42 67.221v119.467c0 4.82-2.006 9.165-5.22 12.269 3.07 2.965 7.242 4.798 11.847 4.798 9.426 0 17.067-7.641 17.067-17.067v-119.467c0-37.703-30.564-68.267-68.267-68.267z" fill="#f0c078"/></g></g></g><g><path d="m472.919 202.729-48.272 48.272c-6.665 6.665-17.471 6.665-24.136 0l-65.949-65.949c-4.035-4.035-5.786-9.819-4.667-15.415l8.045-40.227c1.351-6.756 6.632-12.037 13.388-13.388l40.227-8.045c5.596-1.119 11.38.632 15.415 4.667l65.949 65.949c6.665 6.665 6.665 17.471 0 24.136z" fill="#dd646e"/><g><g><path d="m379.392 189.337c-1.977 0-3.955-.755-5.464-2.263l-3.017-3.017c-3.017-3.017-3.017-7.91 0-10.927 3.018-3.017 7.91-3.017 10.928 0l3.017 3.017c3.017 3.017 3.017 7.91 0 10.927-1.509 1.509-3.487 2.263-5.464 2.263z" fill="#eef1f3"/></g></g><g><g><path d="m436.715 198.388c-1.977 0-3.955-.755-5.464-2.263l-3.017-3.017c-3.017-3.017-3.017-7.91 0-10.927 3.018-3.017 7.91-3.017 10.928 0l3.017 3.017c3.017 3.017 3.017 7.91 0 10.926-1.509 1.509-3.487 2.264-5.464 2.264z" fill="#eef1f3"/></g></g><g><g><path d="m412.572 222.525c-3.608 0-6.834-2.54-7.568-6.213l-12.068-60.34c-.837-4.184 1.877-8.254 6.061-9.091 4.184-.834 8.255 1.877 9.092 6.061l12.068 60.34c.837 4.184-1.877 8.255-6.061 9.092-.512.102-1.022.151-1.524.151z" fill="#eef1f3"/></g></g><g><g><path d="m364.308 150.116c-1.977 0-3.955-.755-5.464-2.263l-57.159-57.159c-3.017-3.017-3.017-7.91 0-10.927 3.018-3.017 7.909-3.017 10.928 0l57.159 57.159c3.017 3.017 3.017 7.91 0 10.927-1.509 1.509-3.487 2.263-5.464 2.263z" fill="#eef1f3"/></g></g><path d="m472.919 178.594-65.949-65.949c-4.035-4.035-9.82-5.786-15.415-4.667l-11.314 2.263c1.087.679 2.109 1.478 3.035 2.404l65.949 65.949c6.665 6.665 6.665 17.471 0 24.136l-48.272 48.272c-.071.071-.149.13-.221.2 6.68 6.454 17.321 6.394 23.915-.2l48.272-48.272c6.665-6.666 6.665-17.471 0-24.136z" fill="#db4955"/></g><g><circle cx="170.616" cy="358.4" fill="#f4de7f" r="51.2"/><g><path d="m170.616 280.793c-4.268 0-7.726-3.459-7.726-7.726v-17.067c0-4.267 3.459-7.726 7.726-7.726 4.268 0 7.726 3.459 7.726 7.726v17.067c0 4.267-3.459 7.726-7.726 7.726z" fill="#f0c078"/></g><g><path d="m110.276 305.787c-1.977 0-3.955-.754-5.463-2.263l-12.068-12.068c-3.018-3.017-3.018-7.909-.001-10.927 3.018-3.017 7.91-3.018 10.926 0l12.068 12.068c3.018 3.017 3.018 7.909.001 10.926-1.509 1.509-3.486 2.264-5.463 2.264z" fill="#f0c078"/></g><g><path d="m85.282 366.126h-17.067c-4.268 0-7.726-3.459-7.726-7.726s3.459-7.726 7.726-7.726h17.066c4.268 0 7.726 3.459 7.726 7.726s-3.458 7.726-7.725 7.726z" fill="#f0c078"/></g><g><path d="m98.207 438.534c-1.978 0-3.955-.754-5.464-2.263-3.017-3.018-3.017-7.909.001-10.926l12.068-12.068c3.016-3.018 7.908-3.017 10.926 0 3.017 3.018 3.017 7.909-.001 10.927l-12.068 12.068c-1.507 1.508-3.485 2.262-5.462 2.262z" fill="#f0c078"/></g><g><path d="m170.616 468.526c-4.268 0-7.726-3.459-7.726-7.726v-17.066c0-4.267 3.459-7.726 7.726-7.726 4.268 0 7.726 3.459 7.726 7.726v17.066c0 4.267-3.459 7.726-7.726 7.726z" fill="#f0c078"/></g><g><path d="m243.023 438.534c-1.978 0-3.955-.754-5.464-2.263l-12.067-12.068c-3.017-3.018-3.017-7.909.001-10.927 3.017-3.018 7.91-3.017 10.927 0l12.067 12.068c3.017 3.018 3.017 7.909-.001 10.926-1.508 1.51-3.486 2.264-5.463 2.264z" fill="#f0c078"/></g><g><path d="m273.015 366.126h-17.066c-4.268 0-7.726-3.459-7.726-7.726s3.459-7.726 7.726-7.726h17.066c4.268 0 7.726 3.459 7.726 7.726s-3.458 7.726-7.726 7.726z" fill="#f0c078"/></g><g><path d="m230.956 305.787c-1.977 0-3.955-.754-5.463-2.263-3.018-3.017-3.018-7.909-.001-10.926l12.067-12.068c3.018-3.017 7.911-3.018 10.927 0 3.018 3.017 3.018 7.909.001 10.927l-12.067 12.068c-1.51 1.507-3.487 2.262-5.464 2.262z" fill="#f0c078"/></g><path d="m170.615 307.2c-4.08 0-8.043.491-11.847 1.393 22.562 5.347 39.353 25.61 39.353 49.807s-16.791 44.46-39.353 49.807c3.804.902 7.767 1.393 11.847 1.393 28.277 0 51.2-22.923 51.2-51.2s-22.922-51.2-51.2-51.2z" fill="#f0c078"/></g></g></svg>