<svg id="Layer_1" enable-background="new 0 0 512 512" height="512" viewBox="0 0 512 512" width="512" xmlns="http://www.w3.org/2000/svg"><g><g><path d="m239.306 14.146-48.681 18.914c-1.791.696-3.768.744-5.591.137l-45.774-15.258c-1.692-.564-3.521-.564-5.212 0l-45.773 15.258c-1.823.608-3.8.559-5.591-.137l-48.681-18.914 34.762 378.114 136.155.274z" fill="#365e7d"/><path d="m204.92 411.075 68.014-391.081c1.615-9.286-4.604-18.123-13.891-19.738-9.292-1.613-18.124 4.604-19.738 13.891l-57.222 329.029-90.87-.07-57.21-328.96c-1.616-9.287-10.461-15.507-19.739-13.89-9.286 1.615-15.505 10.452-13.89 19.738l68.014 391.08z" fill="#eff6ff"/><path d="m259.044.256c-5.577-.968-10.975.898-14.759 4.542 3.924 3.799 5.962 9.41 4.956 15.197l-68.014 391.081h23.694l68.014-391.081c1.614-9.287-4.605-18.124-13.891-19.739z" fill="#cadae6"/><path d="m136.654 161.329c4.267 0 7.726-3.459 7.726-7.726v-133.957l-5.12-1.707c-1.692-.564-3.521-.564-5.212 0l-5.12 1.707v133.957c0 4.267 3.459 7.726 7.726 7.726z" fill="#2b4d66"/><path d="m204.92 443.734c0 37.702-30.564 68.266-68.266 68.266s-68.266-30.564-68.266-68.266v-56.351h136.532z" fill="#f4de7f"/><path d="m153.721 324.268-12.854-128.54c-.512-5.119-7.971-5.125-8.49-.007l-13.055 128.546v6.678h34.4v-6.677z" fill="#eef1f3"/><path d="m181.226 387.383v56.351c0 33.659-24.367 61.609-56.419 67.22 3.85.674 7.804 1.046 11.847 1.046 37.702 0 68.266-30.564 68.266-68.266v-56.351z" fill="#f0c078"/><path d="m102.521 387.383v56.351c0 18.851 15.282 34.133 34.133 34.133s34.133-15.282 34.133-34.133v-56.351z" fill="#365e7d"/><path d="m68.388 392.534v-15.918c0-11.383 5.675-22.018 15.131-28.355l35.802-23.993h34.4l36 24c9.496 6.331 15.199 16.988 15.199 28.4v15.866z" fill="#e8aa41"/><path d="m189.721 348.268-36-24h-23.694l36 24c9.496 6.331 15.199 16.988 15.199 28.4v15.865h23.694v-15.865c0-11.412-5.703-22.069-15.199-28.4z" fill="#e88f41"/></g><g><path d="m477.997 497.854-48.681-18.914c-1.791-.696-3.768-.744-5.591-.137l-45.773 15.258c-1.692.564-3.521.564-5.212 0l-45.773-15.258c-1.823-.607-3.8-.559-5.591.137l-48.681 18.914 34.762-378.114 136.155-.274z" fill="#365e7d"/><path d="m443.612 100.925 68.014 391.081c1.615 9.286-4.604 18.123-13.89 19.738-9.292 1.613-18.124-4.604-19.738-13.891l-57.223-329.029-90.87.07-57.21 328.959c-1.616 9.288-10.46 15.507-19.738 13.891-9.286-1.616-15.505-10.452-13.891-19.738l68.014-391.08z" fill="#eef1f3"/><path d="m497.736 511.744c-5.577.968-10.975-.898-14.76-4.542 3.924-3.799 5.962-9.41 4.956-15.197l-68.014-391.081h23.694l68.014 391.081c1.615 9.287-4.604 18.124-13.89 19.739z" fill="#cadae6"/><path d="m375.346 350.671c4.267 0 7.726 3.459 7.726 7.726v133.957l-5.12 1.707c-1.692.564-3.521.564-5.212 0l-5.12-1.707v-133.957c0-4.267 3.459-7.726 7.726-7.726z" fill="#2b4d66"/><path d="m443.612 68.266c0-37.702-30.564-68.266-68.266-68.266s-68.266 30.564-68.266 68.266v56.351h136.532z" fill="#f4de7f"/><path d="m392.412 187.732-12.854 128.54c-.512 5.119-7.97 5.124-8.49.007l-13.055-128.546v-6.678h34.4v6.677z" fill="#eef1f3"/><path d="m419.918 124.617v-56.351c0-33.659-24.367-61.609-56.419-67.22 3.85-.674 7.804-1.046 11.847-1.046 37.702 0 68.266 30.564 68.266 68.266v56.351z" fill="#f0c078"/><path d="m341.213 124.617v-56.351c0-18.851 15.282-34.133 34.133-34.133s34.133 15.282 34.133 34.133v56.351z" fill="#365e7d"/><path d="m307.08 119.466v15.918c0 11.383 5.675 22.018 15.131 28.355l35.802 23.993h34.4l36-24c9.496-6.331 15.199-16.988 15.199-28.4v-15.866z" fill="#e8aa41"/><path d="m428.413 163.732-36 24h-23.694l36-24c9.496-6.331 15.199-16.988 15.199-28.4v-15.865h23.694v15.865c0 11.412-5.704 22.069-15.199 28.4z" fill="#e88f41"/></g><g><path d="m387.94 373.421-48.272 48.272c-6.665 6.665-17.471 6.665-24.136 0l-65.95-65.949c-4.035-4.035-5.786-9.82-4.667-15.415l8.045-40.227c1.351-6.756 6.632-12.037 13.388-13.388l40.227-8.045c5.595-1.119 11.38.632 15.415 4.667l65.95 65.949c6.664 6.665 6.664 17.471 0 24.136z" fill="#dd646e"/><g><path d="m294.412 360.029c-1.977 0-3.955-.755-5.464-2.263l-3.017-3.017c-3.017-3.017-3.017-7.909 0-10.927 3.018-3.017 7.909-3.017 10.928 0l3.017 3.017c3.017 3.017 3.017 7.909 0 10.927-1.509 1.508-3.487 2.263-5.464 2.263z" fill="#eff6ff"/></g><g><path d="m351.735 369.08c-1.977 0-3.955-.755-5.464-2.263l-3.017-3.017c-3.017-3.017-3.017-7.91 0-10.927 3.018-3.017 7.91-3.017 10.928 0l3.017 3.017c3.017 3.017 3.017 7.91 0 10.927-1.509 1.508-3.487 2.263-5.464 2.263z" fill="#eff6ff"/></g><g><path d="m327.592 393.217c-3.608 0-6.834-2.54-7.568-6.213l-12.069-60.34c-.837-4.184 1.877-8.255 6.061-9.092 4.184-.834 8.255 1.877 9.092 6.061l12.069 60.34c.837 4.184-1.877 8.255-6.061 9.092-.512.103-1.022.152-1.524.152z" fill="#eff6ff"/></g><g><g><path d="m279.328 320.808c-1.977 0-3.955-.755-5.464-2.263l-78.462-78.462c-3.017-3.017-3.017-7.91 0-10.927 3.018-3.017 7.91-3.017 10.928 0l78.463 78.462c3.017 3.017 3.017 7.909 0 10.927-1.511 1.508-3.488 2.263-5.465 2.263z" fill="#f4de7f"/></g></g><path d="m387.939 349.285-65.949-65.949c-4.035-4.035-9.82-5.786-15.415-4.667l-11.314 2.263c1.087.679 2.109 1.478 3.035 2.405l65.949 65.949c6.665 6.665 6.665 17.471 0 24.136l-48.272 48.272c-.071.071-.149.13-.221.2 6.68 6.453 17.321 6.395 23.915-.2l48.272-48.272c6.665-6.666 6.665-17.472 0-24.137z" fill="#db4955"/></g></g></svg>