<svg id="Layer_1" enable-background="new 0 0 512 512" height="512" viewBox="0 0 512 512" width="512" xmlns="http://www.w3.org/2000/svg"><g><path d="m0 238.933v-34.133c0-18.851 15.282-34.133 34.133-34.133h443.733c18.851 0 34.133 15.282 34.133 34.133v34.133l-256 5.151z" fill="#b1e4f9"/><path d="m512 290.133v187.734c0 18.851-15.282 34.133-34.133 34.133h-443.734c-18.851 0-34.133-15.282-34.133-34.133v-187.734l256-5.151z" fill="#b1e4f9"/><g><g><g><path d="m488.306 204.8v34.61l23.694-.477v-34.133c0-18.851-15.282-34.133-34.133-34.133h-23.694c18.851 0 34.133 15.282 34.133 34.133z" fill="#75cef9"/></g><g><path d="m488.306 289.656v188.21c0 18.851-15.282 34.133-34.133 34.133h23.694c18.851.001 34.133-15.281 34.133-34.132v-187.734z" fill="#75cef9"/></g></g></g><path d="m0 238.933h512v51.2h-512z" fill="#365e7d"/><g><path d="m374.4 477.867h87.467c8.837 0 16-7.163 16-16v-36.267c0-8.837-7.163-16-16-16h-87.467c-8.837 0-16 7.163-16 16v36.267c0 8.836 7.163 16 16 16z" fill="#eef1f3"/><g><g><path d="m426.667 451.46h-17.067c-4.268 0-7.726-3.459-7.726-7.726s3.459-7.726 7.726-7.726h17.067c4.268 0 7.726 3.459 7.726 7.726s-3.458 7.726-7.726 7.726z" fill="#365e7d"/></g></g><path d="m461.384 409.6h-23.694c9.103 0 16.483 7.38 16.483 16.483v35.301c0 9.103-7.38 16.483-16.483 16.483h23.694c9.103 0 16.483-7.38 16.483-16.483v-35.301c0-9.103-7.38-16.483-16.483-16.483z" fill="#cadae6"/></g><g fill="#eef1f3"><path d="m77.333 375.467h-35.2c-4.418 0-8-3.582-8-8v-18.133c0-4.418 3.582-8 8-8h35.2c4.418 0 8 3.582 8 8v18.133c0 4.418-3.581 8-8 8z"/><path d="m213.867 375.467h-86.4c-4.418 0-8-3.582-8-8v-18.133c0-4.418 3.582-8 8-8h86.4c4.418 0 8 3.582 8 8v18.133c0 4.418-3.582 8-8 8z"/><path d="m316.267 375.467h-52.267c-4.418 0-8-3.582-8-8v-18.133c0-4.418 3.582-8 8-8h52.267c4.418 0 8 3.582 8 8v18.133c0 4.418-3.582 8-8 8z"/></g><g><g><path d="m119.467 417.327h-85.334c-4.267 0-7.726-3.459-7.726-7.726s3.459-7.726 7.726-7.726h85.333c4.267 0 7.726 3.459 7.726 7.726s-3.458 7.726-7.725 7.726z" fill="#365e7d"/></g></g><g><g><path d="m68.267 468.526h-34.134c-4.267 0-7.726-3.459-7.726-7.726s3.459-7.726 7.726-7.726h34.133c4.267 0 7.726 3.459 7.726 7.726s-3.458 7.726-7.725 7.726z" fill="#b3e59f"/></g></g><g><g><g><path d="m238.933 417.327h-34.133c-4.267 0-7.726-3.459-7.726-7.726s3.459-7.726 7.726-7.726h34.133c4.267 0 7.726 3.459 7.726 7.726s-3.459 7.726-7.726 7.726z" fill="#365e7d"/></g></g></g><g><g><g><path d="m170.666 417.327h-17.066c-4.267 0-7.726-3.459-7.726-7.726s3.459-7.726 7.726-7.726h17.066c4.267 0 7.726 3.459 7.726 7.726s-3.458 7.726-7.726 7.726z" fill="#365e7d"/></g></g></g><path d="m488.306 238.933h23.694v51.2h-23.694z" fill="#2b4d66"/><g><circle cx="256" cy="102.4" fill="#dd646e" r="102.4"/><path d="m256 0c-4.008 0-7.959.238-11.847.686 50.972 5.873 90.553 49.168 90.553 101.714s-39.581 95.84-90.553 101.714c3.888.448 7.839.686 11.847.686 56.554 0 102.4-45.846 102.4-102.4s-45.846-102.4-102.4-102.4z" fill="#db4955"/><g fill="#eef1f3"><path d="m221.867 93.06c13.67 0 24.793-11.122 24.793-24.793s-11.122-24.793-24.793-24.793-24.793 11.122-24.793 24.793 11.122 24.793 24.793 24.793zm0-34.133c5.15 0 9.34 4.19 9.34 9.34s-4.19 9.34-9.34 9.34-9.341-4.19-9.341-9.34 4.19-9.34 9.341-9.34z"/><path d="m290.134 111.74c-13.671 0-24.794 11.122-24.794 24.793s11.123 24.793 24.794 24.793 24.793-11.122 24.793-24.793-11.122-24.793-24.793-24.793zm0 34.134c-5.151 0-9.341-4.19-9.341-9.34s4.19-9.34 9.341-9.34c5.15 0 9.34 4.19 9.34 9.34s-4.19 9.34-9.34 9.34z"/><path d="m312.664 45.737c-3.017-3.018-7.909-3.018-10.928 0l-102.4 102.4c-3.018 3.017-3.018 7.91 0 10.927 1.509 1.509 3.486 2.263 5.463 2.263s3.955-.755 5.463-2.263l102.401-102.4c3.018-3.018 3.018-7.91.001-10.927z"/></g></g><path d="m316.025 341.333h-23.694c4.552 0 8.241 3.69 8.241 8.241v17.651c0 4.552-3.69 8.241-8.241 8.241h23.694c4.552 0 8.241-3.69 8.241-8.241v-17.651c.001-4.551-3.689-8.241-8.241-8.241z" fill="#cadae6"/><path d="m213.625 341.333h-23.694c4.552 0 8.241 3.69 8.241 8.241v17.651c0 4.552-3.69 8.241-8.241 8.241h23.694c4.552 0 8.242-3.69 8.242-8.241v-17.651c0-4.551-3.69-8.241-8.242-8.241z" fill="#cadae6"/><path d="m77.092 341.333h-23.694c4.552 0 8.241 3.69 8.241 8.241v17.651c0 4.552-3.69 8.241-8.241 8.241h23.694c4.552 0 8.241-3.69 8.241-8.241v-17.651c0-4.551-3.689-8.241-8.241-8.241z" fill="#cadae6"/></g></svg>