<svg id="Layer_1" enable-background="new 0 0 512 512" height="512" viewBox="0 0 512 512" width="512" xmlns="http://www.w3.org/2000/svg"><g><path d="m337.212 345.883h72.388v-4.55c0-18.851-15.282-34.133-34.133-34.133h-38.254v38.683z" fill="#b4cadb"/><path d="m337.212 477.867h55.321c9.426 0 17.067-7.641 17.067-17.067v-92.854h-72.388z" fill="#b4cadb"/><path d="m337.212 409.6h72.388v34.133h-72.388z" fill="#e8aa41"/><g><path d="m238.933 144.74v-42.34c0-9.484 7.731-17.013 17.215-17.067 14.843-.084 26.735-12.867 25.341-28.012-1.119-12.155-10.941-21.968-23.096-23.078-15.101-1.378-27.848 10.451-27.991 25.239-.076 7.868-5.141 14.939-12.786 16.798-11.279 2.742-21.348-5.725-21.348-16.546 0-33.883 28.356-61.266 62.583-59.667 31.043 1.451 56.038 26.986 56.862 58.053.683 25.756-15.033 48.006-37.442 57.042-3.132 1.263-5.203 4.275-5.203 7.652v21.927h-34.135z" fill="#eef1f3"/></g><path d="m315.712 58.119c-.824-31.066-25.819-56.602-56.862-58.053-5.049-.236-9.965.174-14.686 1.127 26.738 5.435 47.111 28.93 47.854 56.925.683 25.756-15.033 48.006-37.442 57.042-3.132 1.263-5.203 4.275-5.203 7.652v21.927h23.694v-21.927c0-3.377 2.071-6.389 5.203-7.652 22.408-9.035 38.125-31.284 37.442-57.041z" fill="#cadae6"/><path d="m307.2 174.787h-102.4v-30.254c0-4.418 3.582-8 8-8h86.4c4.418 0 8 3.582 8 8z" fill="#f4de7f"/><path d="m298.97 136.533h-23.694c4.552 0 8.241 3.69 8.241 8.241v30.013h23.694v-30.013c0-4.551-3.689-8.241-8.241-8.241z" fill="#f0c078"/><path d="m443.733 375.467c37.643 0 68.267-30.624 68.267-68.267 0-26.277-15.362-50.514-39.138-61.745-.044-.021-158.505-73.216-158.505-73.216-2.243-1.036-4.685-1.573-7.156-1.573h-102.401c-2.471 0-4.914.536-7.156 1.573 0 0-158.466 73.197-158.51 73.218-23.774 11.232-39.134 35.467-39.134 61.743 0 37.643 30.624 68.267 68.267 68.267zm-222.158-170.667h68.851c4.552 0 8.241 3.69 8.241 8.241v17.359c0 4.713-3.82 8.533-8.533 8.533h-68.267c-4.713 0-8.533-3.82-8.533-8.533v-17.359c-.001-4.551 3.689-8.241 8.241-8.241zm-152.553 136.533c-16.627 0-31.295-11.621-34.321-27.97-2.845-15.368 5.255-30.514 18.961-37.018l113.841-52.584c5.461-2.523 11.697 1.466 11.697 7.482v7.691c0 18.851 15.282 34.133 34.133 34.133h85.333c18.851 0 34.133-15.282 34.133-34.133v-7.691c0-6.016 6.236-10.004 11.697-7.482l113.848 52.587c13.702 6.508 21.799 21.651 18.954 37.016-3.027 16.349-17.695 27.969-34.322 27.969z" fill="#e8aa41"/><path d="m472.862 245.455c-.044-.021-158.505-73.216-158.505-73.216-2.243-1.036-4.685-1.573-7.156-1.573h-23.694c2.471 0 4.914.536 7.156 1.573 0 0 158.461 73.195 158.505 73.216 23.776 11.231 39.138 35.468 39.138 61.745 0 37.643-30.624 68.267-68.267 68.267h23.694c37.643 0 68.267-30.624 68.267-68.267 0-26.277-15.362-50.514-39.138-61.745z" fill="#e88f41"/><path d="m341.333 341.333c0-18.851 15.282-34.133 34.133-34.133h-204.8c-18.851 0-34.133 15.282-34.133 34.133v153.6c0 9.426 7.641 17.067 17.067 17.067h170.667c9.426 0 17.067-7.641 17.067-17.067v-153.6z" fill="#eef1f3"/><g><g><g><path d="m204.8 400.26c-13.671 0-24.793-11.122-24.793-24.793s11.122-24.793 24.793-24.793 24.793 11.122 24.793 24.793c-.001 13.671-11.122 24.793-24.793 24.793zm0-34.134c-5.15 0-9.34 4.19-9.34 9.341 0 5.15 4.19 9.34 9.34 9.34s9.34-4.19 9.34-9.34c0-5.151-4.19-9.341-9.34-9.341z" fill="#dd646e"/></g><g><path d="m273.066 468.526c-13.671 0-24.793-11.122-24.793-24.793s11.122-24.793 24.793-24.793 24.793 11.122 24.793 24.793-11.122 24.793-24.793 24.793zm0-34.133c-5.15 0-9.34 4.19-9.34 9.341 0 5.15 4.19 9.34 9.34 9.34s9.34-4.19 9.34-9.34c0-5.151-4.19-9.341-9.34-9.341z" fill="#dd646e"/></g><g><path d="m187.733 468.526c-1.977 0-3.955-.755-5.464-2.263-3.017-3.017-3.017-7.91 0-10.927l102.399-102.4c3.018-3.017 7.909-3.017 10.928 0 3.017 3.017 3.017 7.91 0 10.927l-102.399 102.4c-1.509 1.509-3.487 2.263-5.464 2.263z" fill="#dd646e"/></g></g></g><path d="m351.787 307.2c-18.851 0-34.133 15.282-34.133 34.133v153.6c0 9.426-7.641 17.067-17.067 17.067h23.679c9.426 0 17.067-7.641 17.067-17.067v-153.6c0-18.851 15.282-34.133 34.133-34.133z" fill="#cadae6"/></g></svg>